<?xml version="1.0" encoding="utf-8"?>
<!-- Generator: Adobe Illustrator 21.0.0, SVG Export Plug-In . SVG Version: 6.00 Build 0)  -->
<svg version="1.1" id="Capa_1" xmlns="http://www.w3.org/2000/svg" xmlns:xlink="http://www.w3.org/1999/xlink" x="0px" y="0px"
	 viewBox="0 0 1074.9 841.9" style="enable-background:new 0 0 1074.9 841.9;" xml:space="preserve">
<style type="text/css">
	.st0{clip-path:url(#SVGID_2_);fill:#D7ACB9;}
	.st1{clip-path:url(#SVGID_2_);fill:#F1D69D;}
	.st2{clip-path:url(#SVGID_2_);fill:#CBE2E7;}
	.st3{clip-path:url(#SVGID_2_);fill:#D6E3B6;}
	.st4{clip-path:url(#SVGID_2_);fill:#3E3F3D;}
	.st5{display:none;fill:#F0D77E;}
</style>
<g>
	<defs>
		<rect id="SVGID_1_" x="1.9" width="1190.6" height="841.9"/>
	</defs>
	<clipPath id="SVGID_2_">
		<use xlink:href="#SVGID_1_"  style="overflow:visible;"/>
	</clipPath>
	<path class="st0" d="M458.9,328.9c-4.4,0-8.5,2.6-10.5,5.8c-2.2,3.6-2.4,7.8-2.2,11.8c0.3,4,0.9,8.1,0.2,12.1
		c-1.8,10.2-12.4,18.6-12.5,28.9c0,2.8,0.7,5.5,0.9,8.3c0.4,6.4-2.4,12.7-5.3,18.7c-2.9,6-6.1,12.1-6.5,18.5
		c-0.4,6.4,2.5,13.5,9.3,16.8c3.4,1.7,7.4,2.2,11.3,2.4c0.4,0,0.8,0,1.2,0c2.7,0,5.4-0.3,7.9-1.2c4.2-1.6,7-4.8,9.2-8.1
		c6.9-10.6,8.7-23.4,18.3-32.4c4.8-4.4,11.3-7.7,15-12.8c5.4-7.5,3.3-17,2.1-25.7c-1.1-7.9-1.3-15.8-0.5-23.7
		c0.2-2.3,0.4-4.9-1.1-6.8c-0.8-1-2.1-1.8-3.3-2.4c-9.9-5.5-20.4-8.6-32.2-10.2C459.9,329,459.4,328.9,458.9,328.9"/>
	<path class="st1" d="M429.8,71.4c-4.4,0-8.5,2.6-10.5,5.8c-2.2,3.6-2.4,7.8-2.2,11.8c0.3,4,0.9,8.1,0.2,12.1
		c-1.8,10.2-12.4,18.6-12.5,28.9c0,2.8,0.7,5.5,0.9,8.3c0.4,6.4-2.4,12.7-5.3,18.7c-2.9,6-6.1,12.1-6.5,18.5
		c-0.4,6.5,2.5,13.5,9.3,16.8c3.4,1.7,7.4,2.2,11.3,2.3c0.4,0,0.8,0,1.2,0c2.7,0,5.4-0.3,7.9-1.2c4.2-1.6,7-4.8,9.2-8.1
		c6.9-10.6,8.7-23.4,18.3-32.4c4.8-4.4,11.3-7.7,15-12.8c5.4-7.5,3.3-17,2.1-25.7c-1.1-7.9-1.3-15.8-0.5-23.7
		c0.2-2.3,0.4-4.9-1.1-6.8c-0.8-1-2.1-1.8-3.3-2.5c-9.9-5.5-20.4-8.6-32.2-10.2C430.7,71.5,430.3,71.4,429.8,71.4"/>
	<path class="st0" d="M193.1,114.7c-4.4,0-8.5,2.6-10.5,5.8c-2.2,3.6-2.4,7.8-2.2,11.8c0.3,4,0.9,8.1,0.2,12.1
		c-1.8,10.2-12.4,18.6-12.5,28.9c0,2.8,0.7,5.5,0.9,8.3c0.4,6.5-2.4,12.7-5.3,18.7c-2.9,6-6.1,12.1-6.5,18.5
		c-0.4,6.5,2.5,13.5,9.3,16.8c3.4,1.7,7.4,2.2,11.3,2.3c0.4,0,0.8,0,1.2,0c2.7,0,5.4-0.3,7.9-1.2c4.2-1.6,7-4.8,9.2-8.1
		c6.9-10.6,8.7-23.4,18.3-32.4c4.8-4.4,11.3-7.7,15-12.8c5.4-7.5,3.3-17,2.1-25.7c-1.1-7.8-1.3-15.8-0.5-23.7
		c0.2-2.3,0.4-4.9-1.1-6.8c-0.8-1-2.1-1.8-3.3-2.5c-9.9-5.5-20.4-8.6-32.2-10.2C194,114.7,193.6,114.7,193.1,114.7"/>
	<path class="st2" d="M363.1,639c-4.4,0-8.5,2.6-10.5,5.8c-2.2,3.6-2.4,7.8-2.2,11.8c0.3,4,0.9,8.1,0.2,12.1
		c-1.8,10.2-12.4,18.6-12.5,28.9c0,2.8,0.7,5.5,0.9,8.3c0.4,6.5-2.4,12.7-5.3,18.7c-2.9,6-6.1,12.1-6.5,18.5
		c-0.4,6.5,2.5,13.5,9.3,16.8c3.4,1.7,7.4,2.2,11.3,2.4c0.4,0,0.8,0,1.2,0c2.7,0,5.4-0.3,7.9-1.2c4.2-1.6,7-4.8,9.2-8.1
		c6.9-10.6,8.7-23.4,18.3-32.4c4.8-4.4,11.3-7.7,15-12.8c5.4-7.5,3.3-17,2.1-25.7c-1.1-7.8-1.3-15.8-0.5-23.7
		c0.2-2.3,0.4-4.9-1.1-6.8c-0.8-1-2.1-1.8-3.3-2.5c-9.9-5.5-20.4-8.6-32.2-10.2C364,639,363.6,639,363.1,639"/>
	<path class="st2" d="M134.1,292.1c-4.4,0-8.5,2.6-10.5,5.8c-2.2,3.6-2.4,7.8-2.2,11.8c0.3,4,0.9,8.1,0.2,12.1
		c-1.8,10.2-12.4,18.6-12.5,28.9c0,2.8,0.7,5.5,0.9,8.3c0.4,6.5-2.4,12.7-5.3,18.7c-2.9,6-6.1,12.1-6.5,18.5
		c-0.4,6.4,2.5,13.5,9.3,16.8c3.4,1.7,7.4,2.2,11.3,2.3c0.4,0,0.8,0,1.2,0c2.7,0,5.4-0.3,7.9-1.2c4.2-1.6,7-4.8,9.2-8.1
		c6.9-10.6,8.7-23.4,18.3-32.4c4.8-4.4,11.3-7.7,15-12.8c5.4-7.5,3.3-17,2.1-25.7c-1.1-7.9-1.3-15.8-0.5-23.7
		c0.2-2.3,0.4-4.9-1.2-6.8c-0.8-1-2.1-1.8-3.3-2.5c-9.9-5.5-20.4-8.6-32.2-10.2C135,292.1,134.6,292.1,134.1,292.1"/>
	<path class="st3" d="M78.6,642.7c-4.4,0-8.5,2.6-10.5,5.8c-2.2,3.6-2.4,7.8-2.2,11.8c0.3,4,0.9,8.1,0.2,12.1
		c-1.8,10.2-12.4,18.6-12.5,28.9c0,2.8,0.7,5.5,0.9,8.3c0.4,6.5-2.4,12.7-5.3,18.7c-2.9,6-6.1,12.1-6.5,18.5
		c-0.4,6.4,2.5,13.5,9.3,16.8c3.4,1.7,7.4,2.2,11.3,2.3c0.4,0,0.8,0,1.2,0c2.7,0,5.4-0.3,7.9-1.2c4.2-1.6,7-4.8,9.2-8.1
		c6.9-10.6,8.7-23.4,18.3-32.4c4.8-4.4,11.3-7.7,15-12.8c5.4-7.5,3.3-17,2.1-25.7c-1.1-7.9-1.3-15.8-0.6-23.7
		c0.2-2.3,0.4-4.9-1.1-6.8c-0.8-1-2.1-1.8-3.3-2.4c-9.9-5.5-20.4-8.6-32.2-10.2C79.5,642.8,79.1,642.7,78.6,642.7"/>
	<path class="st3" d="M325.7,206c-4.9,0-9.6,2.6-11.5,6.2c-3,5.7-7.1,11-6,17.3c1,5.8,4.6,10.8,7.9,15.7c3.2,4.9,6.3,9.9,9.1,15
		c1.7,3.2,3.4,6.6,3.3,10.1c-0.3,6.9-7.4,12.9-5.6,19.6c0.7,2.5,2.5,4.5,4.4,6.2c3.9,3.5,8.6,6.2,13.6,7.8c1.6,0.5,3.2,0.9,4.8,0.9
		c0.5,0,1,0,1.5-0.1c3.2-0.5,5.8-2.9,7.8-5.4c4.4-5.3,7.5-11.5,10-17.9c2.7-6.8,4.9-14.2,4.1-21.5c-0.5-4.8-2.3-9.4-4.1-13.9
		c-1.5-3.9-3-7.7-5-11.3c-6.4-11.5-16.9-20.6-28.4-27.4C329.7,206.4,327.7,206,325.7,206"/>
	<path class="st3" d="M29.9,194.8c-4.9,0-9.6,2.6-11.5,6.2c-3,5.7-7.1,11-6,17.3c1,5.8,4.6,10.8,7.9,15.7c3.2,4.9,6.3,9.9,9.1,15
		c1.7,3.2,3.4,6.6,3.3,10.1c-0.3,6.9-7.4,12.9-5.6,19.6c0.7,2.5,2.5,4.5,4.4,6.2c3.9,3.5,8.6,6.2,13.6,7.8c1.6,0.5,3.2,0.9,4.8,0.9
		c0.5,0,1,0,1.5-0.1c3.2-0.5,5.8-2.9,7.8-5.4c4.4-5.3,7.5-11.5,10-17.9c2.7-6.8,4.9-14.2,4.1-21.5c-0.5-4.8-2.3-9.4-4.1-13.9
		c-1.5-3.9-3-7.7-5-11.3C57.8,212,47.3,203,35.8,196.2C33.9,195.2,31.9,194.8,29.9,194.8"/>
	<path class="st0" d="M169.9,519.4c-4.9,0-9.6,2.6-11.5,6.2c-3,5.7-7.1,11-6,17.3c1,5.8,4.6,10.8,7.9,15.7c3.2,4.9,6.3,9.9,9.1,15
		c1.7,3.2,3.4,6.6,3.3,10.1c-0.3,6.9-7.4,12.9-5.6,19.6c0.7,2.5,2.5,4.5,4.4,6.2c3.9,3.5,8.6,6.2,13.6,7.8c1.6,0.5,3.2,0.9,4.8,0.9
		c0.5,0,1,0,1.5-0.1c3.2-0.5,5.8-2.9,7.8-5.4c4.4-5.3,7.5-11.5,10-17.9c2.7-6.8,4.9-14.2,4.1-21.5c-0.5-4.8-2.3-9.4-4.1-14
		c-1.5-3.9-3-7.7-5-11.3c-6.4-11.5-16.9-20.6-28.4-27.4C173.9,519.8,171.9,519.4,169.9,519.4"/>
	<path class="st2" d="M19.5,516.9c-4.9,0-9.6,2.6-11.5,6.2c-3,5.7-7.1,11-6,17.3c1,5.8,4.6,10.8,7.9,15.7c3.2,4.9,6.3,9.9,9.1,15
		c1.7,3.2,3.4,6.6,3.3,10.1c-0.3,6.9-7.4,12.9-5.6,19.6c0.7,2.5,2.5,4.5,4.4,6.2c3.9,3.5,8.6,6.2,13.6,7.8c1.6,0.5,3.2,0.9,4.8,0.9
		c0.5,0,1,0,1.5-0.1c3.2-0.5,5.8-2.9,7.8-5.4c4.4-5.3,7.5-11.5,10-17.9c2.7-6.8,4.9-14.2,4.1-21.5c-0.5-4.8-2.3-9.4-4.1-14
		c-1.5-3.9-3-7.7-5-11.3c-6.4-11.5-16.9-20.6-28.4-27.4C23.6,517.3,21.5,516.9,19.5,516.9"/>
	<path class="st3" d="M410.2,496.2c-4.9,0-9.6,2.6-11.5,6.2c-3,5.7-7.1,11-6,17.3c1,5.8,4.6,10.8,7.9,15.7c3.2,4.9,6.3,9.9,9.1,15
		c1.7,3.2,3.4,6.6,3.3,10.1c-0.3,6.9-7.4,12.9-5.6,19.6c0.7,2.5,2.5,4.5,4.4,6.2c3.9,3.5,8.6,6.2,13.6,7.8c1.6,0.5,3.2,0.9,4.8,0.9
		c0.5,0,1,0,1.5-0.1c3.2-0.5,5.8-2.9,7.8-5.4c4.4-5.3,7.5-11.5,10-17.9c2.7-6.8,4.9-14.2,4.1-21.5c-0.5-4.8-2.3-9.4-4.1-14
		c-1.5-3.9-3-7.7-5-11.3c-6.4-11.5-16.9-20.6-28.4-27.4C414.2,496.6,412.2,496.2,410.2,496.2"/>
	<path class="st0" d="M486,631.3c-4.9,0-9.6,2.6-11.4,6.2c-3,5.7-7.1,11-6,17.3c1,5.8,4.6,10.8,7.9,15.7c3.2,4.9,6.3,9.9,9.1,15
		c1.7,3.2,3.4,6.6,3.3,10.1c-0.3,6.9-7.4,12.9-5.6,19.6c0.7,2.5,2.5,4.5,4.4,6.2c3.9,3.5,8.6,6.2,13.6,7.8c1.6,0.5,3.2,0.9,4.8,0.9
		c0.5,0,1,0,1.5-0.1c3.2-0.5,5.8-2.9,7.8-5.4c4.4-5.3,7.5-11.5,10-17.9c2.7-6.8,4.9-14.2,4.1-21.5c-0.5-4.8-2.3-9.4-4.1-14
		c-1.5-3.9-3-7.7-5-11.3c-6.4-11.5-16.9-20.6-28.4-27.4C490,631.7,488,631.3,486,631.3"/>
	<path class="st1" d="M216.1,729.7c-10.5,0-21,2.6-30.8,6.6c-6.7,3.4-9.1,11.6-6.7,16.8c2.7,5.8,4.4,12.3,10.1,15.3
		c5.2,2.7,11.4,2.8,17.3,3.2c5.8,0.3,11.6,1,17.4,1.8c3.6,0.5,7.3,1.2,10,3.5c5.4,4.4,5.8,13.7,12.2,16.4c1.2,0.5,2.5,0.7,3.8,0.7
		c1.3,0,2.5-0.2,3.8-0.4c5.2-1,10.1-3.1,14.5-6.1c1.8-1.2,3.4-2.7,4.4-4.6c1.5-2.9,1.2-6.3,0.5-9.5c-1.5-6.7-4.6-12.9-8.2-18.8
		c-3.8-6.3-8.3-12.4-14.7-16.2c-4.2-2.5-8.9-3.9-13.6-5.2c-4-1.1-8-2.3-12.1-2.9C221.6,729.9,218.9,729.7,216.1,729.7"/>
	<path class="st4" d="M453.8,244.4c-8.8,0-12.7,8.5-12.7,17.5c0,9,4,17.5,12.7,17.5c8.8,0,12.7-8.5,12.7-17.5
		C466.5,252.9,462.6,244.4,453.8,244.4 M453.8,287.3c-12.9,0-21.6-11-21.6-25.4c0-14.4,8.7-25.4,21.6-25.4c12.9,0,21.6,11,21.6,25.4
		C475.4,276.3,466.7,287.3,453.8,287.3"/>
	<path class="st4" d="M27.1,376.5c-8.8,0-12.7,8.5-12.7,17.5c0,9,4,17.5,12.7,17.5c8.8,0,12.7-8.5,12.7-17.5
		C39.9,385,35.9,376.5,27.1,376.5 M27.1,419.4c-12.9,0-21.6-11-21.6-25.4c0-14.4,8.7-25.4,21.6-25.4c12.9,0,21.6,11,21.6,25.4
		C48.7,408.4,40,419.4,27.1,419.4"/>
	<path class="st4" d="M260,351.1c-8.8,0-12.7,8.5-12.7,17.5c0,9,4,17.5,12.7,17.5c8.8,0,12.7-8.5,12.7-17.5
		C272.7,359.6,268.8,351.1,260,351.1 M260,394c-12.9,0-21.6-11-21.6-25.4c0-14.4,8.7-25.4,21.6-25.4c12.9,0,21.6,11,21.6,25.4
		C281.6,383,272.9,394,260,394"/>
	<path class="st4" d="M308,581.2c-8.8,0-12.7,8.5-12.7,17.5c0,9,4,17.5,12.7,17.5c8.8,0,12.7-8.5,12.7-17.5
		C320.7,589.7,316.8,581.2,308,581.2 M308,624.1c-12.9,0-21.6-11-21.6-25.4c0-14.4,8.7-25.4,21.6-25.4c12.9,0,21.6,11,21.6,25.4
		C329.6,613.1,320.9,624.1,308,624.1"/>
	<path class="st4" d="M477.4,794.4c-8.8,0-12.7,8.5-12.7,17.5c0,9,4,17.5,12.7,17.5c8.8,0,12.7-8.5,12.7-17.5
		C490.1,802.8,486.1,794.4,477.4,794.4 M477.4,837.2c-12.9,0-21.6-11-21.6-25.4c0-14.4,8.7-25.4,21.6-25.4c12.9,0,21.6,11,21.6,25.4
		C499,826.3,490.3,837.2,477.4,837.2"/>
	<path class="st4" d="M130.7,790.4c-8.8,0-12.7,8.5-12.7,17.5c0,9,4,17.5,12.7,17.5c8.8,0,12.7-8.5,12.7-17.5
		C143.4,798.9,139.4,790.4,130.7,790.4 M130.7,833.3c-12.9,0-21.6-11-21.6-25.4s8.7-25.4,21.6-25.4c12.9,0,21.6,11,21.6,25.4
		S143.5,833.3,130.7,833.3"/>
	<path class="st4" d="M474.7,472.6l48.3,0c1.4,0,2.9,0.5,3.5,2.4c0.6,1.9-0.7,3.6-2.2,4c-0.3,0.1-0.9,0.1-1.2,0.1l-48.3,0.1
		c-1.8,0-2.9-0.8-3.4-2.5c-0.6-1.9,0.4-3.5,2.2-4C473.9,472.6,474.3,472.6,474.7,472.6"/>
	<path class="st4" d="M181.2,653.4l48.3,0c1.4,0,2.9,0.5,3.5,2.4c0.6,1.9-0.7,3.6-2.2,4c-0.3,0.1-0.9,0.1-1.2,0.1l-48.3,0.1
		c-1.8,0-2.9-0.8-3.4-2.5c-0.6-1.9,0.4-3.5,2.2-4C180.4,653.4,180.8,653.3,181.2,653.4"/>
	<path class="st4" d="M93.7,464l48.3,0c1.4,0,2.9,0.5,3.5,2.4c0.6,1.9-0.7,3.6-2.2,4c-0.3,0.1-0.9,0.1-1.2,0.1l-48.3,0.1
		c-1.8,0-2.9-0.8-3.4-2.5c-0.6-1.9,0.4-3.5,2.2-4C92.9,464,93.3,464,93.7,464"/>
	<path class="st4" d="M223,267.1l48.3,0c1.4,0,2.9,0.5,3.5,2.4c0.6,1.9-0.7,3.6-2.2,4c-0.3,0.1-0.9,0.1-1.2,0.1l-48.3,0.1
		c-1.8,0-2.9-0.8-3.4-2.5c-0.6-1.9,0.4-3.5,2.2-4C222.2,267.2,222.6,267.1,223,267.1"/>
	<path class="st4" d="M365.1,381.5L352.5,424c-0.3,1.2-1.2,2.4-3,2.4s-3-1.5-3-3c0-0.3,0.1-0.8,0.2-1.1l12.5-42.5
		c0.5-1.6,1.5-2.3,3.1-2.3c1.8,0,3,1.3,3,3C365.2,380.8,365.2,381.1,365.1,381.5"/>
	<path class="st4" d="M136.5,137.1l-12.6,42.5c-0.3,1.2-1.2,2.4-3,2.4c-1.9,0-3-1.5-3-3c0-0.3,0.1-0.8,0.2-1.1l12.5-42.5
		c0.5-1.6,1.5-2.3,3.1-2.3c1.8,0,3,1.3,3,3C136.7,136.4,136.6,136.7,136.5,137.1"/>
	<path class="st4" d="M313.2,787.4l-12.6,42.5c-0.4,1.2-1.2,2.4-3,2.4c-1.9,0-3-1.5-3-3c0-0.3,0.1-0.8,0.2-1.1l12.5-42.5
		c0.5-1.6,1.5-2.3,3.1-2.3c1.8,0,3,1.3,3,3C313.4,786.7,313.3,787,313.2,787.4"/>
	<path class="st1" d="M270.5,458.1c-9.4,0-18.8,2-27.7,5.1c-6.9,3-9.7,11.1-7.5,16.4c2.4,5.9,3.8,12.6,9.3,15.8
		c5.1,3,11.2,3.4,17.1,4.1c5.8,0.7,11.6,1.6,17.3,2.7c3.5,0.7,7.2,1.6,9.8,4c5.1,4.7,5.1,14,11.4,17c1.4,0.7,3,0.9,4.6,0.9
		c1,0,2-0.1,3-0.2c5.2-0.7,10.3-2.6,14.8-5.4c1.8-1.1,3.6-2.5,4.7-4.3c1.7-2.8,1.5-6.3,1-9.4c-1.2-6.8-3.9-13.2-7.2-19.2
		c-3.5-6.5-7.7-12.9-13.8-17c-4-2.7-8.7-4.3-13.3-5.9c-3.9-1.3-7.8-2.7-11.9-3.5C278.3,458.4,274.4,458.1,270.5,458.1"/>
	<path class="st4" d="M441.4,657.3l-12.6,42.5c-0.3,1.2-1.2,2.4-3,2.4c-1.9,0-3-1.5-3-3c0-0.3,0.1-0.8,0.2-1.1l12.5-42.5
		c0.5-1.6,1.5-2.3,3.1-2.3c1.8,0,3,1.3,3,3C441.6,656.6,441.5,657,441.4,657.3"/>
	<path class="st2" d="M310,61.7c-9.4,0-18.8,2-27.7,5.1c-6.9,3-9.7,11.1-7.5,16.4c2.4,5.9,3.8,12.6,9.3,15.8
		c5.1,3,11.2,3.4,17.1,4.1c5.8,0.7,11.6,1.6,17.3,2.7c3.5,0.7,7.2,1.6,9.8,4c5.1,4.7,5.1,14,11.4,17c1.4,0.7,3,0.9,4.6,0.9
		c1,0,2-0.1,3-0.2c5.2-0.7,10.3-2.6,14.8-5.4c1.8-1.1,3.6-2.5,4.7-4.3c1.7-2.8,1.5-6.3,1-9.5c-1.2-6.8-3.9-13.2-7.2-19.2
		c-3.5-6.5-7.7-12.9-13.8-17c-4-2.7-8.7-4.3-13.3-5.9c-3.9-1.3-7.8-2.7-11.9-3.5C317.7,62,313.8,61.7,310,61.7"/>
	<path class="st4" d="M279.8,154.3l48.3,0c1.4,0,2.9,0.5,3.5,2.4c0.6,1.9-0.7,3.6-2.2,4c-0.3,0.1-0.9,0.1-1.2,0.1l-48.3,0.1
		c-1.8,0-2.9-0.8-3.4-2.5c-0.6-1.9,0.4-3.5,2.2-4C279,154.3,279.4,154.3,279.8,154.3"/>
	<path class="st0" d="M998.5,337.5c-4.4,0-8.5,2.6-10.5,5.8c-2.2,3.6-2.4,7.8-2.2,11.8c0.3,4,0.9,8.1,0.2,12.1
		c-1.8,10.2-12.4,18.6-12.5,28.9c0,2.8,0.7,5.5,0.9,8.3c0.4,6.5-2.4,12.7-5.3,18.7c-2.9,6-6.1,12.1-6.5,18.5
		c-0.4,6.5,2.5,13.5,9.3,16.8c3.4,1.7,7.4,2.2,11.3,2.3c0.4,0,0.8,0,1.2,0c2.7,0,5.4-0.3,7.9-1.2c4.2-1.6,7-4.8,9.2-8.1
		c6.9-10.6,8.7-23.4,18.3-32.4c4.8-4.4,11.3-7.7,15-12.8c5.4-7.5,3.3-17,2.1-25.7c-1.1-7.9-1.3-15.8-0.5-23.7
		c0.2-2.3,0.4-4.9-1.1-6.8c-0.8-1-2.1-1.8-3.3-2.5c-9.9-5.5-20.4-8.6-32.2-10.2C999.4,337.6,998.9,337.5,998.5,337.5"/>
	<path class="st1" d="M969.3,80c-4.4,0-8.5,2.6-10.5,5.8c-2.2,3.6-2.4,7.8-2.2,11.8c0.3,4,0.9,8.1,0.2,12.1
		c-1.8,10.2-12.4,18.6-12.5,28.9c0,2.8,0.7,5.5,0.9,8.3c0.4,6.4-2.4,12.7-5.3,18.7c-2.9,6-6.1,12.1-6.5,18.5
		c-0.4,6.4,2.5,13.5,9.3,16.8c3.4,1.7,7.4,2.2,11.3,2.3c0.4,0,0.8,0,1.2,0c2.7,0,5.4-0.3,7.9-1.2c4.2-1.6,7-4.8,9.2-8.1
		c6.9-10.6,8.7-23.4,18.3-32.4c4.8-4.4,11.3-7.7,15-12.8c5.4-7.5,3.3-17,2.1-25.7c-1.1-7.9-1.3-15.8-0.5-23.7
		c0.2-2.3,0.4-4.9-1.1-6.8c-0.8-1-2.1-1.8-3.3-2.5c-9.9-5.5-20.4-8.6-32.2-10.2C970.3,80.1,969.8,80,969.3,80"/>
	<path class="st0" d="M732.6,123.3c-4.4,0-8.5,2.6-10.5,5.8c-2.2,3.6-2.4,7.8-2.2,11.8c0.3,4,0.9,8.1,0.2,12.1
		c-1.8,10.2-12.4,18.6-12.5,28.9c0,2.8,0.7,5.5,0.9,8.3c0.4,6.5-2.4,12.7-5.3,18.7c-2.9,6-6.1,12.1-6.5,18.5
		c-0.4,6.4,2.5,13.5,9.3,16.8c3.4,1.7,7.4,2.2,11.3,2.3c0.4,0,0.8,0,1.2,0c2.7,0,5.4-0.3,7.9-1.2c4.2-1.6,7-4.8,9.2-8.1
		c6.9-10.6,8.7-23.4,18.3-32.4c4.8-4.4,11.3-7.7,15-12.8c5.4-7.5,3.3-17,2.1-25.7c-1.1-7.8-1.3-15.8-0.6-23.7
		c0.2-2.3,0.4-4.9-1.1-6.8c-0.8-1-2.1-1.8-3.3-2.4c-9.9-5.5-20.4-8.6-32.2-10.2C733.5,123.3,733.1,123.3,732.6,123.3"/>
	<path class="st2" d="M902.6,647.6c-4.4,0-8.5,2.6-10.5,5.8c-2.2,3.6-2.4,7.8-2.2,11.8c0.3,4,0.9,8.1,0.2,12.1
		c-1.8,10.2-12.4,18.6-12.5,28.9c0,2.8,0.7,5.5,0.9,8.3c0.4,6.4-2.4,12.7-5.3,18.7c-2.9,6-6.1,12.1-6.5,18.5s2.5,13.5,9.3,16.8
		c3.4,1.7,7.4,2.2,11.3,2.4c0.4,0,0.8,0,1.2,0c2.7,0,5.4-0.3,7.9-1.2c4.2-1.6,7-4.8,9.2-8.1c6.9-10.6,8.7-23.4,18.3-32.4
		c4.8-4.4,11.3-7.7,15-12.8c5.4-7.5,3.3-17,2.1-25.7c-1.1-7.9-1.3-15.8-0.5-23.7c0.2-2.3,0.4-4.9-1.1-6.8c-0.8-1-2.1-1.8-3.3-2.5
		c-9.9-5.5-20.4-8.6-32.2-10.2C903.6,647.7,903.1,647.6,902.6,647.6"/>
	<path class="st2" d="M673.7,300.7c-4.4,0-8.5,2.6-10.5,5.8c-2.2,3.6-2.4,7.8-2.2,11.8c0.3,4,0.9,8.1,0.2,12.1
		c-1.8,10.2-12.4,18.6-12.5,28.9c0,2.8,0.7,5.5,0.9,8.3c0.4,6.5-2.4,12.7-5.3,18.7c-2.9,6-6.1,12.1-6.5,18.5
		c-0.4,6.5,2.5,13.5,9.3,16.8c3.4,1.7,7.4,2.2,11.3,2.3c0.4,0,0.8,0,1.2,0c2.7,0,5.4-0.3,7.9-1.2c4.2-1.6,7-4.8,9.2-8.1
		c6.9-10.6,8.7-23.4,18.3-32.4c4.8-4.4,11.3-7.7,15-12.8c5.4-7.5,3.3-17,2.1-25.7c-1.1-7.8-1.3-15.8-0.5-23.7
		c0.2-2.3,0.4-4.9-1.1-6.8c-0.8-1-2.1-1.8-3.3-2.4c-9.9-5.5-20.4-8.6-32.2-10.2C674.6,300.7,674.1,300.7,673.7,300.7"/>
	<path class="st3" d="M618.1,651.4c-4.4,0-8.5,2.6-10.5,5.8c-2.2,3.6-2.4,7.8-2.2,11.8c0.3,4,0.9,8.1,0.2,12.1
		c-1.8,10.2-12.4,18.6-12.5,28.9c0,2.8,0.7,5.5,0.9,8.3c0.4,6.5-2.4,12.7-5.3,18.7c-2.9,6-6.1,12.1-6.5,18.5
		c-0.4,6.5,2.5,13.5,9.3,16.8c3.4,1.7,7.4,2.2,11.3,2.3c0.4,0,0.8,0,1.2,0c2.7,0,5.4-0.3,7.9-1.2c4.2-1.6,7-4.8,9.2-8.1
		c6.9-10.6,8.7-23.4,18.3-32.4c4.8-4.4,11.3-7.7,15-12.8c5.4-7.5,3.3-17,2.1-25.7c-1.1-7.8-1.3-15.8-0.5-23.7
		c0.2-2.3,0.4-4.9-1.1-6.8c-0.8-1-2.1-1.8-3.3-2.4c-9.9-5.5-20.4-8.6-32.2-10.2C619,651.4,618.6,651.4,618.1,651.4"/>
	<path class="st3" d="M865.2,214.6c-4.9,0-9.6,2.6-11.5,6.2c-3,5.7-7.1,11-6,17.3c1,5.8,4.6,10.8,7.9,15.7c3.2,4.9,6.3,9.9,9.1,15
		c1.7,3.2,3.4,6.6,3.3,10.1c-0.3,6.9-7.4,12.9-5.6,19.6c0.7,2.5,2.5,4.5,4.4,6.2c3.9,3.5,8.6,6.2,13.6,7.8c1.6,0.5,3.2,0.9,4.8,0.9
		c0.5,0,1,0,1.5-0.1c3.2-0.5,5.8-2.9,7.8-5.4c4.4-5.3,7.5-11.5,10-17.9c2.7-6.8,4.9-14.2,4.1-21.5c-0.5-4.8-2.3-9.4-4.1-13.9
		c-1.5-3.9-3-7.7-5-11.3c-6.4-11.5-16.9-20.6-28.4-27.4C869.2,215,867.2,214.6,865.2,214.6"/>
	<path class="st3" d="M569.4,203.4c-4.9,0-9.6,2.6-11.5,6.2c-3,5.7-7.1,11-6,17.3c1,5.8,4.6,10.8,7.9,15.7c3.2,4.9,6.3,9.9,9.1,15
		c1.7,3.2,3.4,6.6,3.3,10.1c-0.3,6.9-7.4,12.9-5.6,19.6c0.7,2.5,2.5,4.5,4.4,6.2c3.9,3.5,8.6,6.2,13.6,7.8c1.6,0.5,3.2,0.9,4.8,0.9
		c0.5,0,1,0,1.5-0.1c3.2-0.5,5.8-2.9,7.8-5.4c4.4-5.3,7.5-11.5,10-17.9c2.7-6.8,4.9-14.2,4.1-21.5c-0.5-4.8-2.3-9.4-4.1-13.9
		c-1.5-3.9-3-7.7-5-11.3c-6.4-11.5-16.9-20.6-28.4-27.4C573.4,203.8,571.4,203.4,569.4,203.4"/>
	<path class="st0" d="M709.4,528c-4.9,0-9.6,2.6-11.4,6.2c-3,5.7-7.1,11-6,17.3c1,5.8,4.6,10.8,7.9,15.7c3.2,4.9,6.3,9.9,9.1,15
		c1.7,3.2,3.4,6.6,3.3,10.1c-0.3,6.9-7.4,12.9-5.6,19.6c0.7,2.5,2.5,4.5,4.4,6.2c3.9,3.5,8.6,6.2,13.6,7.8c1.6,0.5,3.2,0.9,4.8,0.9
		c0.5,0,1,0,1.5-0.1c3.2-0.5,5.8-2.9,7.8-5.4c4.4-5.3,7.5-11.5,10-17.9c2.7-6.8,4.9-14.2,4.1-21.5c-0.5-4.8-2.3-9.4-4.1-13.9
		c-1.5-3.9-3-7.7-5-11.3c-6.4-11.5-16.9-20.6-28.4-27.4C713.5,528.4,711.4,528,709.4,528"/>
	<path class="st2" d="M559.1,525.5c-4.9,0-9.6,2.6-11.5,6.2c-3,5.7-7.1,11-6,17.3c1,5.8,4.6,10.8,7.9,15.7c3.2,4.9,6.3,9.9,9.1,15
		c1.7,3.2,3.4,6.6,3.3,10.1c-0.3,6.9-7.4,12.9-5.6,19.6c0.7,2.5,2.5,4.5,4.4,6.2c3.9,3.5,8.6,6.2,13.6,7.8c1.6,0.5,3.2,0.9,4.8,0.9
		c0.5,0,1,0,1.5-0.1c3.2-0.5,5.8-2.9,7.8-5.4c4.4-5.3,7.5-11.5,10-17.9c2.7-6.8,4.9-14.2,4.1-21.5c-0.5-4.8-2.3-9.4-4.1-14
		c-1.5-3.8-3-7.7-5-11.3c-6.4-11.5-16.9-20.6-28.4-27.4C563.1,525.9,561.1,525.5,559.1,525.5"/>
	<path class="st3" d="M949.7,504.8c-4.9,0-9.6,2.6-11.5,6.2c-3,5.7-7.1,11-6,17.3c1,5.8,4.6,10.8,7.9,15.7c3.2,4.9,6.3,9.9,9.1,15
		c1.7,3.2,3.4,6.6,3.3,10.1c-0.3,6.9-7.4,12.9-5.6,19.6c0.7,2.5,2.5,4.5,4.4,6.2c3.9,3.5,8.6,6.2,13.6,7.8c1.6,0.5,3.2,0.9,4.8,0.9
		c0.5,0,1,0,1.5-0.1c3.2-0.5,5.8-2.9,7.8-5.4c4.4-5.3,7.5-11.5,10-17.9c2.7-6.8,4.9-14.2,4.1-21.5c-0.5-4.8-2.3-9.4-4.1-14
		c-1.5-3.9-3-7.7-5-11.3c-6.4-11.5-16.9-20.6-28.4-27.4C953.8,505.2,951.7,504.8,949.7,504.8"/>
	<path class="st0" d="M1025.5,639.9c-4.9,0-9.6,2.6-11.5,6.2c-3,5.7-7.1,11-6,17.3c1,5.8,4.6,10.8,7.9,15.7c3.2,4.9,6.3,9.9,9.1,15
		c1.7,3.2,3.4,6.6,3.3,10.1c-0.3,6.9-7.4,12.9-5.6,19.6c0.7,2.5,2.5,4.5,4.4,6.2c3.9,3.5,8.6,6.2,13.6,7.8c1.6,0.5,3.2,0.9,4.8,0.9
		c0.5,0,1,0,1.5-0.1c3.2-0.5,5.8-2.9,7.8-5.4c4.4-5.3,7.5-11.5,10-17.9c2.7-6.8,4.9-14.2,4.1-21.5c-0.5-4.8-2.3-9.4-4.1-14
		c-1.5-3.8-3-7.7-5-11.3c-6.4-11.5-16.9-20.6-28.4-27.4C1029.5,640.4,1027.5,639.9,1025.5,639.9"/>
	<path class="st1" d="M755.7,738.3c-10.5,0-21,2.6-30.8,6.6c-6.7,3.4-9.1,11.6-6.7,16.8c2.7,5.8,4.4,12.3,10.1,15.3
		c5.2,2.7,11.4,2.8,17.3,3.2c5.8,0.4,11.6,1,17.4,1.8c3.6,0.5,7.3,1.2,10,3.5c5.4,4.4,5.8,13.7,12.2,16.4c1.2,0.5,2.5,0.7,3.8,0.7
		c1.3,0,2.5-0.2,3.8-0.4c5.2-1,10.1-3.1,14.5-6.1c1.8-1.2,3.4-2.7,4.4-4.6c1.5-2.9,1.2-6.3,0.5-9.5c-1.5-6.7-4.6-12.9-8.2-18.8
		c-3.8-6.3-8.3-12.4-14.7-16.2c-4.2-2.5-8.9-3.9-13.6-5.2c-4-1.1-8-2.3-12.1-2.9C761.1,738.5,758.4,738.3,755.7,738.3"/>
	<path class="st4" d="M993.3,253c-8.8,0-12.7,8.5-12.7,17.5c0,9,4,17.5,12.7,17.5c8.8,0,12.7-8.5,12.7-17.5
		C1006.1,261.5,1002.1,253,993.3,253 M993.3,295.9c-12.9,0-21.6-11-21.6-25.4c0-14.4,8.7-25.4,21.6-25.4c12.9,0,21.6,11,21.6,25.4
		C1014.9,284.9,1006.2,295.9,993.3,295.9"/>
	<path class="st4" d="M566.6,385.1c-8.8,0-12.7,8.5-12.7,17.5c0,9,4,17.5,12.7,17.5c8.8,0,12.7-8.5,12.7-17.5
		C579.4,393.6,575.4,385.1,566.6,385.1 M566.6,428c-12.9,0-21.6-11-21.6-25.4c0-14.4,8.7-25.4,21.6-25.4c12.9,0,21.6,11,21.6,25.4
		C588.2,417,579.5,428,566.6,428"/>
	<path class="st4" d="M799.5,359.7c-8.8,0-12.7,8.5-12.7,17.5c0,9,4,17.5,12.7,17.5c8.8,0,12.7-8.5,12.7-17.5
		C812.3,368.2,808.3,359.7,799.5,359.7 M799.5,402.6c-12.9,0-21.6-11-21.6-25.4c0-14.4,8.7-25.4,21.6-25.4c12.9,0,21.6,11,21.6,25.4
		C821.1,391.6,812.4,402.6,799.5,402.6"/>
	<path class="st4" d="M847.5,589.8c-8.8,0-12.7,8.5-12.7,17.5c0,9,4,17.5,12.7,17.5c8.8,0,12.7-8.5,12.7-17.5
		C860.3,598.3,856.3,589.8,847.5,589.8 M847.5,632.7c-12.9,0-21.6-11-21.6-25.4c0-14.4,8.7-25.4,21.6-25.4c12.9,0,21.6,11,21.6,25.4
		C869.1,621.7,860.4,632.7,847.5,632.7"/>
	<path class="st4" d="M670.2,799c-8.8,0-12.7,8.5-12.7,17.5c0,9,4,17.5,12.7,17.5c8.8,0,12.7-8.5,12.7-17.5
		C682.9,807.5,678.9,799,670.2,799 M670.2,841.9c-12.9,0-21.6-11-21.6-25.4c0-14.4,8.7-25.4,21.6-25.4c12.9,0,21.6,11,21.6,25.4
		C691.8,830.9,683.1,841.9,670.2,841.9"/>
	<path class="st4" d="M1014.2,481.2l48.3,0c1.4,0,2.9,0.5,3.5,2.4c0.6,1.9-0.7,3.6-2.2,4c-0.3,0.1-0.9,0.1-1.2,0.1l-48.3,0.1
		c-1.8,0-2.9-0.8-3.4-2.5c-0.6-1.9,0.4-3.5,2.2-4C1013.4,481.2,1013.8,481.2,1014.2,481.2"/>
	<path class="st4" d="M720.7,662l48.3,0c1.4,0,2.9,0.5,3.5,2.4c0.6,1.9-0.7,3.6-2.2,4c-0.3,0.1-0.9,0.1-1.2,0.1l-48.3,0.1
		c-1.8,0-2.9-0.8-3.4-2.5c-0.6-1.9,0.4-3.5,2.2-4C719.9,662,720.3,662,720.7,662"/>
	<path class="st4" d="M633.2,472.6l48.3,0c1.4,0,2.9,0.5,3.5,2.4c0.6,1.9-0.7,3.6-2.2,4c-0.3,0.1-0.9,0.1-1.2,0.1l-48.3,0.1
		c-1.8,0-2.9-0.8-3.4-2.5c-0.6-1.9,0.4-3.5,2.2-4C632.4,472.6,632.8,472.6,633.2,472.6"/>
	<path class="st4" d="M762.5,275.7l48.3,0c1.4,0,2.9,0.5,3.5,2.4c0.6,1.9-0.7,3.6-2.2,4c-0.3,0.1-0.9,0.1-1.2,0.1l-48.3,0.1
		c-1.8,0-2.9-0.8-3.4-2.5c-0.6-1.9,0.4-3.5,2.2-4C761.7,275.8,762.1,275.7,762.5,275.7"/>
	<path class="st4" d="M904.6,390.1L892,432.6c-0.3,1.2-1.2,2.4-3,2.4c-1.9,0-3-1.5-3-3c0-0.3,0.1-0.8,0.2-1.1l12.5-42.5
		c0.5-1.6,1.5-2.3,3.1-2.3c1.8,0,3,1.3,3,3C904.8,389.4,904.7,389.7,904.6,390.1"/>
	<path class="st4" d="M676,145.7l-12.6,42.5c-0.3,1.2-1.2,2.4-3,2.4c-1.9,0-3-1.5-3-3c0-0.3,0.1-0.8,0.2-1.1l12.5-42.5
		c0.5-1.6,1.5-2.3,3.1-2.3c1.8,0,3,1.3,3,3C676.2,145,676.1,145.3,676,145.7"/>
	<path class="st4" d="M852.7,796l-12.6,42.5c-0.4,1.2-1.2,2.4-3,2.4c-1.9,0-3-1.5-3-3c0-0.3,0.1-0.8,0.2-1.1l12.5-42.5
		c0.5-1.6,1.5-2.3,3.1-2.3c1.8,0,3,1.3,3,3C852.9,795.3,852.9,795.6,852.7,796"/>
	<path class="st1" d="M810.1,466.7c-9.4,0-18.8,2-27.7,5.1c-6.9,3-9.7,11.1-7.5,16.4c2.4,5.9,3.8,12.6,9.3,15.8
		c5.1,3,11.2,3.4,17.1,4.1c5.8,0.7,11.6,1.6,17.3,2.7c3.5,0.7,7.2,1.6,9.8,4c5.1,4.7,5.1,14,11.4,17c1.4,0.7,3,0.9,4.6,0.9
		c1,0,2-0.1,3-0.2c5.2-0.7,10.3-2.6,14.8-5.4c1.8-1.1,3.6-2.5,4.7-4.3c1.7-2.8,1.5-6.3,1-9.5c-1.2-6.8-3.9-13.2-7.2-19.2
		c-3.5-6.5-7.7-12.9-13.8-17c-4-2.7-8.7-4.3-13.3-5.9c-3.9-1.3-7.8-2.7-11.9-3.5C817.8,467,813.9,466.7,810.1,466.7"/>
	<path class="st4" d="M981,665.9l-12.6,42.5c-0.3,1.2-1.2,2.4-3,2.4c-1.9,0-3-1.5-3-3c0-0.3,0.1-0.8,0.2-1.1l12.5-42.5
		c0.5-1.6,1.5-2.3,3.1-2.3c1.8,0,3,1.3,3,3C981.1,665.2,981.1,665.6,981,665.9"/>
	<path class="st2" d="M849.5,70.3c-9.4,0-18.8,2-27.7,5.1c-6.9,3-9.7,11.1-7.5,16.4c2.4,5.9,3.8,12.6,9.3,15.8
		c5.1,3,11.2,3.4,17.1,4.1c5.8,0.7,11.6,1.6,17.3,2.7c3.5,0.7,7.2,1.6,9.8,4c5.1,4.7,5.1,14,11.4,17c1.4,0.7,3,0.9,4.6,0.9
		c1,0,2-0.1,3-0.2c5.2-0.7,10.3-2.6,14.8-5.4c1.8-1.1,3.6-2.5,4.7-4.3c1.7-2.8,1.5-6.3,1-9.4c-1.2-6.8-3.9-13.2-7.2-19.2
		c-3.5-6.5-7.7-12.9-13.8-17c-4-2.7-8.7-4.3-13.3-5.9c-3.9-1.3-7.8-2.7-11.9-3.5C857.2,70.6,853.4,70.3,849.5,70.3"/>
	<path class="st4" d="M819.3,162.9l48.3,0c1.4,0,2.9,0.5,3.5,2.4s-0.7,3.6-2.2,4c-0.3,0.1-0.9,0.1-1.2,0.1l-48.3,0.1
		c-1.8,0-2.9-0.8-3.4-2.5c-0.6-1.9,0.4-3.5,2.2-4C818.5,162.9,818.9,162.9,819.3,162.9"/>
	<path class="st0" d="M600.6,0c-4.4,0-8.5,2.6-10.5,5.8c-2.2,3.6-2.4,7.8-2.2,11.8c0.3,4,0.9,8.1,0.2,12.1
		c-1.8,10.2-12.4,18.6-12.5,28.9c0,2.8,0.7,5.5,0.9,8.3c0.4,6.5-2.4,12.7-5.3,18.7c-2.9,6-6.1,12.1-6.5,18.5s2.5,13.5,9.3,16.8
		c3.4,1.7,7.4,2.2,11.3,2.3c0.4,0,0.8,0,1.2,0c2.7,0,5.4-0.3,7.9-1.2c4.2-1.6,7-4.8,9.2-8.1c6.9-10.6,8.7-23.4,18.3-32.4
		c4.8-4.4,11.3-7.7,15-12.8c5.4-7.5,3.3-17,2.1-25.7c-1.1-7.9-1.3-15.8-0.5-23.7c0.2-2.3,0.4-4.9-1.1-6.8c-0.8-1-2.1-1.8-3.3-2.5
		c-9.9-5.5-20.4-8.6-32.2-10.2C601.5,0,601,0,600.6,0"/>
</g>
<polygon class="st5" points="1061.8,727 1061.8,726.2 133.3,726.2 133.3,115.7 1061,115.7 1061,727 1061.8,727 1061.8,726.2 
	1061.8,727 1062.6,727 1062.6,114.1 131.7,114.1 131.7,727.7 1062.6,727.7 1062.6,727 "/>
</svg>
