<?xml version="1.0" encoding="utf-8"?>
<!-- Generator: Adobe Illustrator 21.0.0, SVG Export Plug-In . SVG Version: 6.00 Build 0)  -->
<svg version="1.1" id="Capa_1" xmlns="http://www.w3.org/2000/svg" xmlns:xlink="http://www.w3.org/1999/xlink" x="0px" y="0px"
	 viewBox="0 0 349 396" style="enable-background:new 0 0 349 396;" xml:space="preserve">
<style type="text/css">
	.st0{fill:#FFFFFF;stroke:#312E2A;stroke-width:2;stroke-linecap:round;stroke-linejoin:round;}
	.st1{fill:none;}
	.st2{fill:#A1BC32;}
	.st3{font-family:'ArialMT';}
	.st4{font-size:9.658px;}
	.st5{fill:#312E2A;}
	.st6{font-family:'Roboto-Medium';}
	.st7{font-size:6.585px;}
</style>
<polygon id="Presidente_Hayes_x09__1_" class="st0" points="211.6,193.1 220.1,192.8 231.8,193.7 234.7,193.4 260.6,195.2 
	262,195.6 262.8,196.2 263.2,199 263.6,199.6 264.4,200.1 283.4,208.6 283.7,210 284.4,216.7 285.2,218.6 286.6,220.2 287.2,221.2 
	287.5,222.5 287,223.1 285.7,223.1 283.3,222.7 280.8,223 279,224.3 278.4,226.1 279.6,227.9 280.1,228.2 281.4,228.5 281.8,228.8 
	282.1,229.4 282.4,230.8 282.8,231.5 283.3,231.7 284.5,231.7 285,231.9 285.5,232.4 285.6,232.7 286,233.7 286.5,234.5 
	286.8,235.1 286.7,235.8 286.2,236.4 285.5,236.9 285,237.4 285,238 286.9,239.8 287.6,240.7 287.9,242 286.7,244.4 287.5,245.2 
	290,246.4 290.5,247.1 290.8,248.2 291.7,248.5 293.9,248.5 294.9,249 295.4,249.7 295.4,250.7 295.4,252 295.8,253 296.7,253.9 
	297.8,254.6 299.8,255.6 300.2,255.8 300.7,256.3 302,258.1 302.6,258.5 303.5,259.4 303.7,259.8 303.7,261.1 303.6,261.4 
	303.4,262.1 302.9,262.9 302.6,263.3 302.4,263.7 302.6,264.5 302.9,265.1 303.9,266 304.3,266.7 305,267.3 305.2,267.6 
	305.3,268.1 305.6,269.9 305.8,270.5 305.8,270.9 305.6,271.5 305.5,272.2 305,273.3 304.9,274 304.9,274.7 305.1,276 305.2,276.7 
	305.4,277.5 306.7,280.2 308.3,281.8 312.2,284.1 313.9,285.5 314.8,286.5 315,287 315,287.6 314.7,288.2 313.7,288.6 313.5,289 
	313.7,289.6 314.1,290 314.5,290.4 314.7,290.7 314.7,291.2 314.3,293 314.1,294.8 313.9,295.4 312.7,296.3 312.5,296.5 
	312.3,296.8 311.9,297.2 311.4,297.8 311.3,298.5 311.5,299 312.2,299.1 313,299.1 313.5,299.2 314.5,300.4 314.8,301.9 
	314.9,303.5 315.4,305 316.5,304.6 317.4,305.2 317.9,306.2 317.5,307.2 317.2,307.7 317.1,308.4 317.3,308.9 317.9,309.1 
	319.8,309 320.4,309.1 321.2,310.3 320.7,311.4 319.7,312.6 319.3,313.7 318.3,314.8 318.1,315.1 318,315.4 318,315.7 318.1,316.5 
	318.2,317 318.5,317.5 319.5,318.6 320,319.3 320.6,320.4 320.8,321.2 321.1,324.9 321.5,326.7 322.1,331 322.4,331.9 323,333.4 
	322.9,334 322.4,335.9 322.2,338.4 322.2,339.6 322.4,340.4 322.8,341.2 323.2,342 324,342.4 324.8,343.2 325.2,344.2 324,346.6 
	323.8,347.7 323.5,348.7 322.6,349.3 322,349.3 321.5,349.1 321,349 320.4,349.3 320.2,349.7 319.3,353.2 316.5,357.1 316.5,357.5 
	317,358.1 317.5,358.1 317.9,357.8 318.3,357.7 318.4,358.7 318.3,359.4 318.1,359.9 318.1,360.5 318.6,361.2 319.3,361.9 
	319.5,362.4 319.2,362.8 318.4,363.1 317.3,362.9 315.8,362.5 314.5,362.7 313.9,364.1 311.3,367.7 310.7,368.1 310,368.5 
	309.4,368.8 308.8,368.9 308.4,369.2 307.3,370.3 306.9,370.6 305.1,370.6 303.5,370.6 302,370.2 301.3,370.4 301.1,371.2 
	300.9,372.7 300.4,374.4 299.6,376 298.8,377.3 298,378 297.4,378.4 295.8,378.9 295,379.3 294.3,379.9 293.2,381.4 291.5,380.2 
	290.4,378.7 288.6,374.7 288,374 286.3,373.1 285.4,372.5 283,369.6 282.2,368.9 281.1,368.5 276.8,368.5 276,368.3 275.6,367.6 
	275.4,366.9 275.1,366.4 274.5,366.3 273.3,366.5 272.8,366.4 268.9,364.5 268.3,364.5 267.7,363.6 262.7,360.2 261.7,360.2 
	260.8,360.9 259.3,362.5 258.6,363 257.9,363.3 257.3,363.4 256.6,363.2 256.3,362.9 256.1,362.4 255.8,361.8 252.2,357.8 
	250.9,356 250.2,355.3 249,354.7 236.8,352.3 236.5,352 236.4,351.5 236.1,351.3 235.6,351.1 235.2,350.8 234.4,350.5 231.6,350.5 
	230.5,350.2 219.9,342.1 218.2,341.7 217.6,341.3 216.5,340.2 216,339.9 215.7,339.8 214.6,339.8 213.5,339.4 211.5,338 
	210.2,337.6 208.6,336.4 206.3,335.6 205.8,335.2 205.5,334.8 205.1,334.5 204.2,334.4 203.7,334.2 203,333.3 201.2,332.6 
	200.3,331.5 199.2,329.4 198.6,328.8 196.5,326.9 195.2,326.3 195,325.8 194.8,325.2 194.6,324.8 194.3,324.5 193.1,324 
	191.9,323.3 191.3,322.8 190.7,322.1 190.2,321.8 189.2,321.6 188.3,321 186.9,320.9 186.3,320.7 185.9,320.3 185,319 182.9,316.8 
	163,303.6 162,303.3 160.9,303.5 158.3,304.4 157,304.7 152.8,304.8 148.5,304.2 146.8,304.3 146.3,304.2 145.7,303.8 144.6,302.9 
	144,302.5 143.5,302.4 141.6,302.5 138.1,301.8 136.3,300.5 135.3,300 133.4,299.9 133,299.8 132.2,297.9 132.1,297.5 131.6,297.4 
	130.6,296.9 130,296.7 129.4,296.6 126.9,296.8 126.3,296.6 125.2,295.6 124.7,295.5 121.5,295.5 121.5,295.5 121.2,287.8 
	121.2,287.4 121.4,287 122.1,285.7 122.3,285.1 122.7,282.9 123,282.4 123.5,281.9 124.4,281.4 125.2,281.1 129.1,280.5 
	131.1,279.7 132.8,278.7 133.6,278.4 134.3,278.2 152.2,277.2 154.1,276.9 155.4,276.4 160.9,273.4 161.3,273.1 161.4,273.1 
	161.9,267.7 162.4,265.4 163.1,263.2 165.6,258.1 166.2,256.4 166.3,255.4 166.2,254.7 165.7,253.6 165.6,253.2 165.6,252.8 
	167.1,248.7 167.4,247.5 167.5,246.5 167.1,243.7 167.2,240.9 167,237.9 167.1,237.2 167.6,235.3 167.8,234.5 167.8,233 168,232 
	168.5,230.9 179.1,214.9 179.5,214.2 179.6,213.3 179.6,213 179.2,210.2 179.3,209.6 179.7,209.1 180.5,208.7 181.4,208.5 
	184.6,208.5 185.4,208.3 186,208 186.4,207.2 186.5,206.7 186.4,206.3 185.7,204.9 185.5,204.4 185.5,204 185.6,203.4 185.7,203 
	186,202.4 186.5,201.7 187.2,201 192.9,197.6 193.7,197.3 194.4,197.1 195,197.4 195.4,197.7 195.9,198.2 196.4,198.5 196.8,198.8 
	197.2,198.9 197.5,198.9 198.8,198.3 202.2,196.1 203,195.4 203.2,195.1 203.1,194.3 201.1,188.4 207.3,191.8 209.4,192.7 
	210.7,193 "/>
<polygon id="Boquerón_1_" class="st0" points="168.8,186 173.9,185.9 176.9,185.4 196.8,186.2 198.4,186.7 201.1,188.4 
	203.1,194.3 203.2,195.1 203,195.4 202.2,196.1 198.8,198.3 197.5,198.9 197.2,198.9 196.8,198.8 196.4,198.5 195.9,198.2 
	195.4,197.7 195,197.4 194.4,197.1 193.7,197.3 192.9,197.6 187.2,201 186.5,201.7 186,202.4 185.7,203 185.6,203.4 185.5,204 
	185.5,204.4 185.7,204.9 186.4,206.3 186.5,206.7 186.4,207.2 186,208 185.4,208.3 184.6,208.5 181.4,208.5 180.5,208.7 
	179.7,209.1 179.3,209.6 179.2,210.2 179.6,213 179.6,213.3 179.5,214.2 179.1,214.9 168.5,230.9 168,232 167.8,233 167.8,234.5 
	167.6,235.3 167.1,237.2 167,237.9 167.2,240.9 167.1,243.7 167.5,246.5 167.4,247.5 167.1,248.7 165.6,252.8 165.6,253.2 
	165.7,253.6 166.2,254.7 166.3,255.4 166.2,256.4 165.6,258.1 163.1,263.2 162.4,265.4 161.9,267.7 161.4,273.1 161.3,273.1 
	160.9,273.4 155.4,276.4 154.1,276.9 152.2,277.2 134.3,278.2 133.6,278.4 132.8,278.7 131.1,279.7 129.1,280.5 125.2,281.1 
	124.4,281.4 123.5,281.9 123,282.4 122.7,282.9 122.3,285.1 122.1,285.7 121.4,287 121.2,287.4 121.2,287.8 121.5,295.5 
	121.5,295.5 119.9,295.6 118.7,295.4 117.1,294.5 115.3,293 113.2,292 111.1,292.6 109.4,291.4 108.9,290.9 108.1,289.6 
	107.8,289.2 107.7,288.4 107,287.2 106.1,286 104.7,285.2 103.7,283.6 103.2,283.1 103.7,282.1 103.9,280.7 103.7,279.5 103,279 
	102.1,278.6 101.2,277.9 100.5,277.1 99.8,276.5 99.4,276.4 98.3,276.5 97.9,276.5 97.4,276.2 96.4,275.1 95.9,274.8 94.7,274.5 
	94.2,273.7 93.8,272.7 93.4,272 89.8,270.3 88.6,270.3 87.8,270.1 87.2,269.7 86.6,269.1 85.7,268.5 84.9,268.1 83.8,267.9 
	82.7,267.9 82.1,267.5 81.6,266.1 80.8,265.5 80.8,264.9 81.1,264.3 81.3,263.8 80.3,263.7 79.7,263.6 79.2,263.4 76.4,260.4 
	75.6,260 73,260 72.3,259.8 71.8,259.5 70.9,258.6 70.2,258 69.4,257.7 68.7,257.1 68.5,256.1 68.5,255 68.3,254.3 68,253.7 
	67.4,253 66.8,252.5 65.5,251.8 64.9,251.2 63.6,249.3 63.2,248.9 57,245.1 55.1,243 54.3,241.8 54.3,241.5 54.2,241.3 54.4,239.9 
	54.3,239.3 53.7,238.4 52.7,236.2 51.9,235 50.7,233.7 50.2,233 50,232.3 49.7,232.3 49.2,231.9 48.7,231.5 48.7,231.3 48.3,231.1 
	48,230.6 47.9,230.1 47.7,229.7 46.2,228 45.8,227.4 45.6,226.7 45.2,226.2 44.5,226 44.3,225.6 45,224.2 43.9,223.6 43.9,222.8 
	44.3,221.5 44,220.8 43.8,220.7 43.5,220.8 42.8,220.6 41.4,220 40.7,219.4 40.7,218.6 41.5,217.6 41.8,216.6 41.4,215.5 
	40.1,214.1 39.8,214 39.5,214 39.1,213.9 39,213.5 39,212.8 39,212.5 38.8,212.2 38.4,212 37.8,211.8 35.8,211.5 35.4,211.5 
	34.4,211.1 30.5,208.4 29.6,207.5 29.2,206.6 28.7,206.2 26.5,205.5 25.8,205.1 24.5,203.4 23.5,202.6 22.2,202.3 21.6,202.2 
	20.9,202 20.2,201.6 19.8,201 19.9,200.5 20.2,200 20.5,199.4 20.1,198.6 20.5,198.6 20.2,198.1 19.8,197.7 19.4,197.5 18.8,197.4 
	20.1,194.4 21.6,188.8 23.1,183.5 25.5,175.4 27.5,168.7 30.1,160.1 31.9,153.8 34,146.9 35.9,140.3 37.7,134.2 39.5,128.1 
	39.7,124.2 39.7,124.2 39.6,115.6 39.5,110 39.4,104.8 39.4,99.4 39.8,97.9 41.8,94.8 43,93 44.2,91.4 46.7,87.8 49.1,84.2 
	51.6,80.6 54.1,77.1 55,75.7 55.9,74.3 56.8,72.9 57.7,71.5 58.4,69.9 58.8,69.2 59.5,69.8 64.6,73.1 167.6,103.7 171.4,105.3 
	172.8,106.4 171.7,111 171.7,111.2 171.8,111.6 172,111.9 173.1,113.4 173.8,114.6 174.1,115.4 174.5,116.8 174.5,117.3 
	174.5,117.8 174.3,119.4 174.3,119.9 174.4,120.3 175.6,122.3 178.5,126.4 178.8,127 179.4,128.2 181.6,143.4 181.7,144 
	181.6,144.5 181.5,144.9 181.4,145.2 181.3,145.5 181.1,145.7 180.8,145.9 175.3,149.3 174.4,150 173.6,150.8 173.3,151.4 173,152 
	168.1,174.2 167.3,176.6 167.2,177.4 167.2,177.9 168.1,183.4 168.1,185.2 168.3,185.8 "/>
<polygon id="Alto_Paraguay_1_" class="st0" points="266.3,75 266.4,76 266.7,76.2 267.2,76.1 267.5,76.2 267.9,76.7 268.4,77.3 
	268.6,77.9 266.5,78.6 266.1,79.6 266.5,80.7 267.5,81.5 267.9,81.4 268.1,81 268.5,80.7 269,80.7 269.4,80.9 269.9,81.3 
	270.1,81.9 269.6,83.5 269.7,85 270.1,86.5 270.5,87.4 271.4,88.5 272.6,89.4 273.8,90.1 274.9,90.3 275.7,90.8 275.5,91.8 
	274.7,93.5 274.5,94.7 274.6,96.2 274.8,97.7 275.5,99.1 275.5,99.7 275.4,101 275.6,101.8 276.3,103 276.6,103.6 276.5,104.3 
	276.1,105.4 276.2,106.1 276.5,106.7 277,107.2 277.5,107.1 278,105 278.7,104.6 279.6,104.7 280.4,105.3 280.6,105.6 280.9,106.5 
	281.1,106.9 281.5,107.2 282.3,107.8 282.8,108.3 282.9,108.8 282.5,109.3 281.9,109.6 280.7,109.8 280.2,110.2 279.6,110.9 
	278.8,111.5 278.4,112 278.7,112.4 280.2,112.5 281.3,112.7 282.2,113.4 282.8,114.3 283,115.3 282.4,115.9 280.1,117.2 279.6,118 
	279.8,118.6 280.2,118.9 280.5,119 280.7,119.2 281,119.2 282.3,120.2 283.5,121.6 283.9,121.6 284.1,120.6 285.1,121.5 
	285.2,122.7 284.7,124.1 283.2,126.4 283.3,127.3 284.1,129.1 284.5,131.7 284.2,134.5 283.5,137 282.2,138.8 280.7,140 
	280.4,140.4 280.3,141.2 280.6,141.6 281,141.9 281.1,142.3 281.6,142.9 282.5,143.2 283.1,143.7 282.6,145.3 279,151 278.1,153 
	277.9,154.2 278,155.6 278.4,156.6 279.4,157 279.9,157.5 279.5,158.7 278.8,160.1 278.5,161.1 278.7,162.1 279.3,163.2 280,164 
	280.5,164.4 280.8,164.9 278.5,168.9 278.5,170 278.7,171.1 278.6,172.3 277.9,173.6 277.5,174.6 278,175.4 278.8,176.4 
	279.2,177.8 279,178.5 277.7,180.9 277.1,181.5 277,182 275.8,185.5 275.7,186.3 275.8,187.2 275.8,187.9 276.6,188.2 276.6,188.3 
	276.1,188.8 276.5,191.3 276.9,192.2 276.3,196 276.5,197.4 277,198.7 277.5,199.4 278.4,199.7 279.8,199.8 280.8,200 281.3,200.7 
	281.8,202.7 284.4,205.9 284.6,206.6 283.6,207.5 283.3,207.9 283.4,208.6 264.4,200.1 263.6,199.6 263.2,199 262.8,196.2 
	262,195.6 260.6,195.2 234.7,193.4 231.8,193.7 220.1,192.8 211.6,193.1 210.7,193 209.4,192.7 207.3,191.8 201.1,188.4 
	198.4,186.7 196.8,186.2 176.9,185.4 173.9,185.9 168.8,186 168.3,185.8 168.1,185.2 168.1,183.4 167.2,177.9 167.2,177.4 
	167.3,176.6 168.1,174.2 173,152 173.3,151.4 173.6,150.8 174.4,150 175.3,149.3 180.8,145.9 181.1,145.7 181.3,145.5 181.4,145.2 
	181.5,144.9 181.6,144.5 181.7,144 181.6,143.4 179.4,128.2 178.8,127 178.5,126.4 175.6,122.3 174.4,120.3 174.3,119.9 
	174.3,119.4 174.5,117.8 174.5,117.3 174.5,116.8 174.1,115.4 173.8,114.6 173.1,113.4 172,111.9 171.8,111.6 171.7,111.2 
	171.7,111 172.8,106.4 171.4,105.3 167.6,103.7 64.6,73.1 59.5,69.8 58.8,69.2 59.1,68.4 59.9,66.9 60.6,65.4 60.6,65.4 62.1,61.1 
	63.7,56.8 65.2,52.5 66.8,48.2 67.8,45.3 68.2,44.6 69.1,44.2 74,43.5 75.2,43.3 77.8,42.9 80.4,42.5 81.6,42.3 100.3,38.3 
	118.9,34.2 137.6,30.1 156.2,26.1 164.5,24.3 169,24.2 179.4,24.1 189.8,23.9 200.2,23.8 210.6,23.7 215,23.6 216.1,23.9 
	217.8,25.1 219.4,26.2 222.1,27.9 227.3,31.1 232.4,34.3 237.6,37.5 242.7,40.7 247.9,43.9 253,47.1 258.1,50.3 263.3,53.5 
	265.4,54.9 266,55.6 266.2,56.4 266,58.3 266.2,60.2 267.1,63.6 267.3,65.4 267.1,66.7 267.2,69.2 267.1,70.4 266.3,73.5 "/>
<g>
	<rect x="198.2" y="243.5" class="st1" width="56.4" height="6.9"/>
	<text transform="matrix(1 0 0 1 198.1689 250.3101)" class="st2 st3 st4">PARAGUAY</text>
</g>
<rect x="179.1" y="76.5" class="st1" width="46.5" height="10.5"/>
<text transform="matrix(1 0 0 1 179.0684 81.4419)" class="st5 st6 st7">Alto Paraguay</text>
<rect x="82.9" y="153.8" class="st1" width="46.5" height="10.5"/>
<text transform="matrix(1 0 0 1 82.9395 158.7329)" class="st5 st6 st7">Boquerón</text>
<g>
	<rect x="260.8" y="316.6" class="st1" width="37.2" height="19.3"/>
	<text transform="matrix(1 0 0 1 260.835 321.5747)" class="st5 st6 st7">President</text>
	<text transform="matrix(1 0 0 1 294.535 321.5747)" class="st5 st6 st7">e </text>
	<text transform="matrix(1 0 0 1 260.835 328.1747)" class="st5 st6 st7">Hayes</text>
</g>
</svg>
