<?xml version="1.0" encoding="utf-8"?>
<!-- Generator: Adobe Illustrator 21.0.0, SVG Export Plug-In . SVG Version: 6.00 Build 0)  -->
<svg version="1.1" id="SUDAMÉRICA" xmlns="http://www.w3.org/2000/svg" xmlns:xlink="http://www.w3.org/1999/xlink" x="0px"
	 y="0px" viewBox="0 0 848 855" style="enable-background:new 0 0 848 855;" xml:space="preserve">
<style type="text/css">
	.st0{display:none;fill:#F3F3F5;}
	.st1{fill:#FFFFFF;}
	.st2{opacity:0.6;}
	.st3{opacity:0.5;fill:#0098A6;enable-background:new    ;}
	.st4{fill:#312E2A;}
	.st5{opacity:0.5;fill:#312E2A;enable-background:new    ;}
	.st6{opacity:0.2;fill:#0098A6;enable-background:new    ;}
	.st7{fill:none;stroke:#FFFFFF;stroke-width:0.75;stroke-linecap:round;stroke-linejoin:round;stroke-dasharray:0,2;}
	.st8{fill:none;stroke:#C2C3C9;stroke-width:0.5;stroke-linecap:round;stroke-linejoin:round;}
	.st9{fill:#E2E4E7;}
	.st10{fill:none;stroke:#87868A;stroke-linecap:round;stroke-linejoin:round;}
	.st11{fill:none;stroke:#87868A;stroke-width:0.5;stroke-linecap:round;stroke-linejoin:round;}
	.st12{fill:#312E2A;stroke:#FFFFFF;stroke-width:3;stroke-linecap:round;stroke-linejoin:round;}
	.st13{fill:none;stroke:#87868A;stroke-width:2;stroke-linecap:round;stroke-linejoin:round;}
</style>
<title>zoom_1</title>
<rect class="st0" width="848" height="855"/>
<path class="st1" d="M283.9,92.2c0.2-1.7,0.3-3.3,0.3-5l3.3-3.8l7.1-3.2c0,0,3.5-3.7,3.6-5.6s0-6.1,0.4-7.3s2.1-6.1,2.5-6.8
	s4.1-2.5,4.7-2.8s10.9-3.8,10.9-3.8l10.9-3.2l9.1-8.7c0,0,6.2-4.8,7.9-4.4s2.1,5.3,2.1,5.3s-2.4,5.7-3.5,6s-5.7,2.8-5.7,2.8l1.1,4.5
	l2.2,3.2c0,0-1.3,4.4-2,5.4s-1.8,6.4-1.8,6.4l2.6,3.3c0,0,5.6-1.7,5.3-2.8s4.4-4.2,4.4-4.2l-2.9-5.3l-3.1-5.5l3.8-2.3l4.4-1.1
	l2.2-2.6l3.5-3.9l2.8-1l2.6-0.5l2.7,1.5c1.4-1.1,3-1.8,4.7-2.3h4.1l3.6,1.4l2.5,3.8l1.9,3.3l7.5,0.7l4.6,0.3l3-3.5l3.3-1.4l2.6,2.2
	l2.6,2.9l4.8,1.2l6.7-0.5l7.1-2.6l6.8-2.8l8.3-3.2l6.3-1l3.5-0.5l11.1-0.4l2.5-4.1l4.4,0.3l1.4,3.1c0,0,2.5,1.1,2,2
	c-1,1.2-2.2,2.3-3.4,3.3l-2.7,2.4l1.7,3.1L470,56l3.3,2c0,0,2.6,2.7,2.6,3.4s1.6,4,1.6,4c1.3,0.7,2.6,1.3,4,1.6
	c1.1,0.1,7.9,2.1,7.9,2.1l6.9,3.2l5,2.2l2.7,4.9l-0.5,7.4l13,0.8l8.4,5.2L544,94l7.5-4.3l12.3,0.7l7.7,5.2l15.8,2.9l9.7,7.5l5.2,5
	l4.2,8.4l4,10l6,9.8L616,145l-10.1,10.1l-6.6,5.5l-2.3,3.9l-0.5,6.2l1.8,2.6l2.7,0.2l2.4,0.1l3.2-2.4l3.6-8.5l1.8-1.9h2.9l18.1,1.5
	l3.2,4.1l-6.7,7.4l-3.9,7.1l3.3,2.8l15-18.9l13.6-0.8l14.9,2.6l3.7,2.4l3.6,2.5l4.7,2.5l4.1,2.3l1.7,1.9l-0.3,5.1l0.8,4.1l2,0.1
	l6.4-3.9l11.4-1.5l3,1.6l6.2,3.8l5,3.2l8.9,1.4l8.9,1.4l8.2,1.4l5.8,7.1l4.2,5.6l4.5,5.4l3.3,5.2l5.1,1.3l10.9,5.6l4,6.1l3.9,7
	l0.3,9l-0.4,6.9l0.3,10.4l-4.4,12.3l-2.9,5l-9,8.8l-5.2,6.3l-4.1,7.3l-1.5,5.6l-1.1,6.1l-4.2,0.6l-4-0.2l-3.1,2.8l-2.1,17.1l0.1,9.5
	l2,6.5l-1.1,7.2l-6.3,15.7l-1.4,8.6l-2.1,9.7l-4.6,8l-3.3,6.7l-4.2,7c0,0-1.7,3.2-2,3.9s-0.8,5.1-0.8,5.1l-5.2,6.3l-15.9,6.5
	l-10.5,3.2l-4.5-0.3l-4.7,2.7l-3.8,2.5l-25.4,12.5l-11,10.2l-3.8,11l-1.1,12.2V502l-0.8,1.9L629.8,516c0,0-4.5,6-4.7,6.6
	s-4.8,7.8-4.8,7.8l-3.7,6.3c0,0-1.8,3.5-2.4,5s-3.6,3.2-3.6,3.2l-1.1-4.4l1.5-4.6l2.3-4.5c0,0,3.7-4.3,1-3.2l-2.7,1
	c0,0,0.4-1.4-2.2,2.5l-2.6,3.8l-2,5.1l0.7,5.9l-2,1.6l-4.3,1.8l-4.2,3.4l-4.8,4.9l0.8,3.7l3.4-1.7l4.1-4.4l2.9-2.9l1.7,0.3
	c0,0,3,1.4,0.3,4l-2.7,2.6l-3.9,4.3c0,0-11,14.2-11.5,14s-7.3,3-7.3,3l-8.7,1.4l-5.8-0.3l-7.6,3l-4.7,5.8l1.1,4l1.4,2.8l4.3,0.3
	l1.3,2l-4.6,18.7l-12.2,9.8l-14.9,6.4l-9.8,2.4l-10.2,0.4c0,0-1.1,13.6-1.2,14.1s-2.5,7.6-2.5,7.6l-5.1,2.5l-7,2l-11.5-0.7l-1,3.2
	l7.5,7.9l1.6,4.6l4.5-0.9l3.9,1.4v2.8l-8,4.5l-0.6,10.2l-1.1,7.5l-5.3,7.8l-6.7,7.9l-3.5,6.7l-0.5,5l2.2,3.6l12.7,8.1
	c0,0,3,1.7,3.1,2.3s0,6,0,6l-3.8,6.5l-5.9,10.5l-0.4,5.8l-0.5,8.1l-3.2-0.2l-2.2,1.9l-1.4,6l0.2,6c-0.1,2.4,0.8,4.7,2.6,6.4
	c1.7,1.6,2.1,4.2,1,6.3l-7,4.3l-1.9,3l0.8,6.4l-2.9,7.6l-5.3-0.3l-4.1-8.5l-0.9-5.6l-2.3,0.7l-4,6.2l-1.7-1l-2-3.2l-5.1-10.1
	l-4.4-3.9l-2.7-3.3l0.3-4.5l-2.4-5.6l-2-7l-2.6-5.3l-4.4-1.7l-3.2-4.5l-1.6-5.4l0.2-2.9l4.1,0.1c0,0,2.6,2.9,3.1-0.3l0.5-3.3
	c0,0,0.5-0.9-2.1-2.4c-4.1-2.2-8.6-3.4-13.3-3.5l-3.1-3.1l2.4-5.4l3.6-6l2.4,2.7l2,4.8l1.9-0.2l-0.1-6.9l0.3-4.5l0.4-7.2l3.9-4.6
	l1-4.4l-1.1-4l-3.8-3l-3.4-0.5l-0.4-2.3l0.5-8.9l0.2-6l-2-3.9l-2.9-3.5l-2.9-0.3l-2.2,2.1l-0.2,3.1l1.5,3l1.3,4.2l1.4,6l-1.9,3.5
	c0,0-1.9,0.4-2.6-0.5c-0.6-1.1-1.1-2.2-1.5-3.4c0,0-1.8-8.4-2-9.1s-0.7-8.5-0.7-8.5l-1.9-8.8l-2-9.1l0.4-7.2l-0.8-6.8
	c0,0-2.1-4.8-2.9-6.6c-0.7-2.2-1.2-4.4-1.5-6.7c-0.1-0.7-2.5-7.4-2.5-7.4l2.8-6.7l2-7.8l-0.6-8.3l-1.8-7l2.5-6.8
	c0,0,1.5-4.9,1.8-6.5s0.7-6.5,0.8-7.5s0.3-10.2,0.3-10.2c-0.3-2.2-0.6-4.3-1.2-6.5c-0.8-3.3-2-9.3-2-9.3l-3.9-7.3l0.5-8.6
	c0,0-0.4-4.7,0.4-6.4s0.7-2.4-1.1-4.9s-0.8-9.9-0.8-9.9s3.8-8.9,3.7-9.6s0.2-14.3,0.2-14.3l0.5-25.5l-7.5-16l1.4-8.5l3.2-7.6
	l-3.5-20.2l-7.2-18.2l-12.8-10.4l-17.9-9.7l-13.4-5.4l-10.5-3.7l-5.7-5.7l-5.3-6.2l-5.5,0.2c0,0-5.7-2.2-5.7-3.3l0.8-13.4L293.5,331
	l-7.3-7.2l-5.8-13.6l-9-13.7c0,0-10.8-13.1-11.3-13.3s-8.2-6.9-8.2-6.9l-8.2-3.6l-4.8-6.3l0.5-8.6l-5.1-6.4l-1.9-3.7l0.2-3.1l4-1.1
	l5.8-5.4l3.9-7.2l1.7-6l-3.6-3.3l-4.1-1.4l-1.3-3.8l5.8-16.7l3.6-11.4l4-5.6l5.7-5.9l4.9-5.6l10.1-17.2l2.7-13.3
	c0,0-0.1-10.4,0-11.6s2.7-10.5,2.7-10.5l-0.9-5.6L283.9,92.2z"/>
<g class="st2">
	<path class="st3" d="M481.9,424.3l-0.5-6.3l3.7-5.7l2.1-5.7l13.1-2.6l7.7-2.5l10.8-0.5l9.9,5.9l1.9-3.2l0.1-0.2l1.3-2.2l-0.4-0.8
		h-1.9l-1.4-0.5l-1.6-0.7l0.1-1.6l-1.6-0.7l-2.1-1.1l-2.3-1.5l-1.7-0.5l-5.7-1.1h-2.6c-0.9-0.2-1.8-0.5-2.6-0.9l-2.8-1.4l-0.6-1.9
		l0.5-2l-0.1-1.8h-1.2l-1.7,0.8l-2.6,0.6c0,0,0.8,1.5-2.4,0.5l-3.2-1l-3.3-1l-3-2.2h2v-2.2l-2.9-1.6l-2.3-0.8l-2.2-0.8
		c-0.6-0.1-1.3-0.4-1.8-0.7l-1.3-0.7h-1.5c0,0,0.5,0.9,0.3,1.3c-0.2,0.3-0.5,0.4-0.8,0.4c0.1,0.4,0.1,0.8,0.1,1.2
		c-0.2,0.3-0.3,0.6-0.5,0.9l-1.2,0.1h-0.7l0.1,1.2l-0.5,0.5l-0.7-0.1c0,0-0.1-0.2-0.4,0.5c-0.2,0.6-0.2,1.2-0.2,1.7
		c-0.1,0.5-0.1,0.9-0.1,1.4l0.5,1.5l-0.1,1.1l-0.7,0.9l-0.1,1l-0.6,1.3L471,391l-0.8,1.1l-1.4-0.6l-0.3,1.9l0.4,2.2l-0.2,0.9
		l0.9,1.2l-0.7,1.5l-2,2.3l0.9,3.3l0.8,2.4l0.5,3v4.9l-0.2,2.9l-0.1,4.5l-0.6,3.7l-1.3,3.1v3.7l0.3,4.4l0.4,0.1c0,0,3.9-0.1,4.5-0.2
		s1,0.2,1.8,0s0.9-0.5,1.6-0.4c0.5,0.1,0.9,0.3,1.3,0.6c0.3,0.3,0.1,0.2,0.6,0.7c0.3,0.3,0.6,0.5,1,0.5l-0.1-0.3L481.9,424.3z"/>
</g>
<path class="st4" d="M549.8,465.3L549.8,465.3z"/>
<path class="st4" d="M545.5,459.9L545.5,459.9z"/>
<path class="st4" d="M545.5,460.1l0.1,0.7L545.5,460.1z"/>
<path class="st4" d="M548.8,471c0-0.1,0-0.2,0-0.3C548.7,470.8,548.7,470.9,548.8,471z"/>
<path class="st4" d="M550,465.5L550,465.5L550,465.5z"/>
<path class="st4" d="M550.2,465.7L550.2,465.7L550.2,465.7z"/>
<path class="st4" d="M549.9,465.4L549.9,465.4L549.9,465.4z"/>
<path class="st4" d="M550.2,465.9L550.2,465.9L550.2,465.9z"/>
<path class="st4" d="M539.9,472.4L539.9,472.4z"/>
<path class="st4" d="M549.8,465.2L549.8,465.2z"/>
<path class="st4" d="M550.1,465.6L550.1,465.6L550.1,465.6z"/>
<path class="st4" d="M539.9,472.3L539.9,472.3z"/>
<path class="st5" d="M550.2,465.7L550.2,465.7z"/>
<path class="st5" d="M548.7,470.7L548.7,470.7L548.7,470.7z"/>
<path class="st5" d="M543.1,472.3c-0.1,0.1-0.2,0.1-0.3,0.2C542.9,472.4,543,472.3,543.1,472.3z"/>
<path class="st5" d="M550.1,465.6L550.1,465.6z"/>
<path class="st5" d="M539.9,472.3L539.9,472.3L539.9,472.3z"/>
<path class="st5" d="M539.9,472.3L539.9,472.3z"/>
<path class="st5" d="M545.5,459.9v0.2V459.9z"/>
<path class="st5" d="M550,465.5L550,465.5z"/>
<path class="st5" d="M549.8,465.2L549.8,465.2z"/>
<path class="st5" d="M549.8,465.3L549.8,465.3z"/>
<path class="st5" d="M549.9,465.4L549.9,465.4z"/>
<polygon class="st4" points="545.5,462.5 545.5,462.5 545.7,463.3 "/>
<path class="st4" d="M548.8,470.5c0,0.1,0,0.2,0,0.3l0,0C548.8,470.6,548.8,470.5,548.8,470.5z"/>
<path class="st4" d="M548.8,471c0-0.1,0-0.2,0-0.3l0,0C548.7,470.8,548.7,470.9,548.8,471z"/>
<path class="st4" d="M548.7,470.7L548.7,470.7z"/>
<polygon class="st4" points="548.7,470.8 548.7,470.8 548.7,470.7 "/>
<path class="st4" d="M550.2,466c-0.1,0.3-0.3,1.1-0.3,1.1S550.2,466.3,550.2,466z"/>
<path class="st4" d="M550.3,465.9c0,0,0,0.1,0,0.1C550.3,466,550.3,466,550.3,465.9z"/>
<path class="st6" d="M553,498.3c-0.8-0.5-1.7-0.7-2.6-0.7c-0.3,0-0.6,0.1-0.8,0.2c0,0-1,0.3-2.6,0.5c-1.4,0.1-2.8-0.1-4.2-0.5
	l-2.5-0.4l-1.8-0.7c0,0-1.7-0.5-2.8-0.8c-0.7-0.3-1.4-0.3-2.1-0.1c-0.7,0.2-1.4,0.4-2,0.7c-0.6,0.2-2.2,0.8-2.2,0.8v-1.5
	c-0.3-0.4-0.4-0.8-0.5-1.3c0-0.5,0.6-0.5,1-0.6c0.4-0.1,0.8-0.3,1.2-0.5c0.3-0.6,0.6-1.2,0.9-1.8c0.2-0.5,1.1-1.6,1.2-1.9
	c0.2-0.5,0.4-1,0.5-1.5c0-0.6,0.2-1.2,0.4-1.8c0.3-0.6-0.3-1.3,0-1.7s-0.1-1.1,0-1.6c0.1-0.4,0.3-0.8,0.5-1.2c0.3-0.5,1.3,0,1.3,0
	c0.4-0.3,0.7-0.6,1-0.9c0.3-0.4,0.5-0.8,0.6-1.2c0.1-0.5,0.1-1,0-1.5l0.7-1.6l1-1.2l0.2-1.1l-0.2-1.1l-1.2-1.2h-0.4v-0.3l-0.6-0.8
	v-0.2l-0.3-0.5l-0.5-0.2l-0.3-0.4l-0.3-0.3h-0.8l-0.4,0.1l-0.3-0.1l-0.1-0.4h-0.6h-0.2l-0.1-0.2h-0.4l-0.3-0.3l-0.1-0.2l-0.4,0
	l-0.2-0.2l-0.2-0.2l-0.2-0.1l-0.5,0.3l-0.4,0.5l-0.2,0.1l-0.2-0.2l-0.4-0.4l-0.2-0.2l-0.3-0.2l0-0.3l-0.5-0.4l-0.6-0.2l-0.2-0.1
	h-0.1h-0.3l-0.3-0.1l-0.2,0.1h-0.4l-0.3,0.1h-0.2h-0.1l-0.1-0.2l-0.2-0.4h-0.7l-0.3-0.1l-0.5-0.4h-0.3l-0.4-0.3l-0.3-0.2l-0.4-0.3
	h-0.3H522l-0.2-0.2l-0.2-0.1l-0.3-0.1h-0.5l-0.2-0.2c-0.1,0-0.1-0.1-0.2-0.1c-0.1-0.1-0.1-0.1-0.2-0.1l-0.4-0.3l-0.4-0.1l-0.2-0.3
	l-0.1-0.1H519l-0.3-0.2l-0.2-0.1h-0.2l-0.3-0.5l-0.1-0.3l-0.1-0.2h-0.2h-0.2l-0.2-0.2h-0.2l-0.1-0.2v-0.2l-0.2-0.1v-0.2l-6.7-3.7
	c-0.1,0-0.1,0-0.2,0c-0.1,0-0.2,0.1-0.3,0.1l-0.4,0.1l-0.3,0.1l-0.7,0.1h-0.5l-0.4,0.1h-0.4l-0.3-0.2h-0.3h-0.1L506,458l-0.2-0.2
	l-0.4-0.1l-0.3-0.1l-0.3-0.1h-0.3l-0.1,0.1l-0.4,0h-0.1h-0.2l-0.1-0.2v-0.3l-0.2-0.1h-0.6l-0.4-0.2l-0.6-0.1h-0.4h-0.4h-0.3
	l-0.6-0.3l-0.4-0.3l-0.1-0.1l-0.1,0.1l-0.3,0l-0.1,0.1l-0.5-0.5l-0.1-0.3l-0.4-0.4l-0.4-0.3l-0.3-0.4v-0.5l-0.2-0.2l-0.4-0.1
	l-0.3-0.2l-0.1-0.2l-0.5,0l-0.3-0.1l-0.3-0.3l-0.1-0.3l-0.2-0.2h-0.6V452l-0.3,0.1l-0.6-0.2l-0.2-0.2h-0.5l-0.5-0.5v-0.4h-0.6
	l-0.1-0.3l-0.2-0.1l-0.3-0.2h-0.9l-0.4-0.4h-0.3l-0.1-0.7h-0.2l-0.5-0.1l-0.3-0.3l-0.1-0.1l-0.3-0.5h-0.4l-0.2-0.2l-0.2,0.1
	l-0.2-0.1l-0.3-0.3l-0.3-0.1l-0.1-0.2l-0.2-0.2l-0.1-0.8h-0.2l-0.2-0.5l-0.5-0.3l-0.1-0.3l-0.1-0.1l-0.3,0.1v-0.2l-0.3-0.1l-0.1-0.4
	l-0.3-0.1v-0.2l-0.2-0.3l-0.3-0.2v-0.3v-0.4l-0.3-0.2l-0.1,0.1l-0.3-0.2l0.1-0.4l0.1-0.4l-0.3-0.2l-0.1-0.2l-0.2,0.1l-0.1-0.1
	l0.1-0.3h-0.6h-0.4h-0.6l-0.3-0.3l-0.2-0.3l-0.1-0.1c0-0.1-0.1-0.1-0.1-0.2l-0.2-0.1l-0.2-0.1l-0.4-0.1l-0.3-0.1
	c-0.1-0.1-0.2-0.1-0.3-0.2l-0.3-0.1l-0.1-0.2l-0.1-0.1l-0.2-0.2l-0.1-0.1c-0.4-0.1-0.7-0.3-1-0.5c-0.5-0.5-0.3-0.4-0.6-0.7
	c-0.4-0.3-0.8-0.5-1.3-0.6c-0.8-0.1-0.8,0.2-1.6,0.4s-1.2-0.1-1.8,0s-4.5,0.2-4.5,0.2l-0.4-0.1l-0.2-3.4l0.2,3.7l-0.8,3.7v4.1
	l-0.8,3.9l-1.1,2.9l-1.4,2.8l-1.1,2.7l-2.2,2.5l-1.9,1.6l-0.7,3.3l-0.7,3.3l-0.8,3.3l-0.8,1.5l-1.6,0.4l-1.3-2c0,0-1.2-2-1.6-1.3
	s0.6,3,0.6,3l-0.7,1.2l-1.9,1.3v2.1l-0.7,1.2l1.7,2.3l-0.6,3.4l1.9-0.5l1.9-1.3l2.9,1.6l-1,1.7l-0.1,2.2L454,490l-2.3,1.3L451,494
	l1.2,3.5l1.9,0.1l1.3-2.5c-0.1-1.2,0.2-2.4,0.8-3.4l1.1-1.7c0,0,1.7,0,1.6,3.5s1.3,1.5-0.1,3.5s1.5,1.6-1.5,2s-1.7-2.5-2.9,0.5
	l-0.2,0.6c-0.3,0.4-0.6,0.9-0.9,1.3c-0.5,0.9-0.8,1.3-0.9,1.5s-0.4,0.5-0.7,0.9c-2.2,2.9-1.6-1.3-1.7,2.3s-3-2.2-0.7,2.5
	c2.3,4.7,1.2,0,1.8,3.9c0.6,3.9,0.8,0,0.6,3.3l-0.2,3.3l-2.3,2.8l-1.8,1.5c-1.1,0.6-2.3,1-3.5,1.2c-1.1,0-2.3,1-3.1,1.8
	s-1.9,1.2-1.7,3c0.1,1.2,0.1,2.4,0,3.5v6.2c0,0-0.9,2.5-1.8,5.1s-1.9,3.5-2.5,2.9c-0.5-0.4-1.1-0.6-1.7-0.6c0,0-1.9-0.2-1.2,1
	s1.8,2.9,1.8,2.9l2.7,3.5c0,0-0.3,3.3,0.9,2.3l1.2-1l1.6,1.3c0,0,1.1,1.4,3.1,3.6c1.8,1.9,1.5,1.7,1.5,1.7l-1.8,3.5l-0.2,0.7
	l0.1,0.4h0.5l1-0.4l0.5-0.2l0.4,0.3l0.2,0.7c-0.2,1.2-0.1,2.4,0.1,3.6c0.4,2.8,0.8,5.5,0.8,5.5s1.5,6.4,2.9,5.5
	c0.9-0.5,1.7-0.9,2.6-1.3c0,0,3.4-2,3.5-2.9c0.2-0.9,0.5-1.8,0.8-2.7l1-1.5l3,2c0,0,2.2-0.8,2.3,1.1s0.4,3.7,0.4,3.7l2.6,0.4
	l2.5-2.7v-2.7c-0.1-0.8-0.1-1.5,0-2.3c0-0.4,0.3-0.6,0.3-0.9c-0.1-0.7-0.1-1.5-0.1-2.2l0.5-1.3l0.2-1.2l0.7-0.5
	c0.2,0.2,0.5,0.4,0.7,0.6c0.5,0.2,0.9,1.5,1.2,1.6c0.3,0.1,0.6,0,0.9-0.2l-0.6-3l-0.4-1.8c-0.1-0.8-0.1-1.5,0-2.3l-1.4-2
	c-0.1-0.7-0.3-1.4-0.5-2c-0.2-0.7-0.2-1.6,0-2.3l0.9-1.3c0,0,1.3-0.3,2.1-0.5s5.7-1.1,6.8-1.2s7.6-0.7,8.1-1s2.3-0.8,2.2-3
	c0,0,1.4,0.1,1.5-0.4s0.2-1.7,0.2-1.7l1.8-0.6c0,0-0.2-3-0.4-3.8c0-1,0.1-2,0.4-2.9v-2.2c-0.3-0.5-0.6-1-0.9-1.5
	c-0.4-0.7-1-0.9-0.9-1.7c-0.1-0.7,0-1.4,0.3-2.1c0.4-0.6,0.6-1.8,1.5-1.9s1-1.4,2-1.3c0.9-0.1,1.8,0.3,2.4,0.9
	c0.5,0.6,0.3,1.4,0.8,1.4s1.5-0.2,2,0.5s0.8,0.5,1.2,1.1s1,2.1,1,2.1c0.2,0.8,0.5,1.7,0.8,2.4c0.5,0.9,0.5,2.1,1.4,2.4
	s1.6,0.3,2.7,0.7c0.8,0.4,1.5,0.9,2.2,1.5c0.9-0.4,1.7-0.9,2.4-1.5c0.5-0.7,1.5-2.5,1.5-2.5l1-2.9l1.6-0.7c0.5,1.1,0.8,2.2,0.9,3.4
	c0,1.5-0.5,1.9,0,3.2s0.5,2,1.6,1.5s1.5-0.1,2-1.2c0.4-0.9,0.7-1.9,0.8-2.9v-3l1.2-1.8l2-1l1.7-1.5l1.3-1.5l0.5-1.5v-3.3l0.6-1.4
	l0.7-1.5c0,0,2.2-2.2,3-2.9c0.8-0.6,1.6-1.2,2.4-1.7l2.5-1.4c0,0,4.5-0.8,5.6-1.5s5.2-1.9,6.7-4.2s2.6-4,2.6-4
	c0.4-1.3,0.8-2.6,1-3.9c0.2-1.5,0.9-1.8,1.6-2.4l-0.7-0.7l-0.9,0.3C553.4,498.5,553.2,498.5,553,498.3z"/>
<path class="st5" d="M541.4,475.5c-0.6,0-2.1-0.1-2-1.2C539.3,475.4,540.9,475.5,541.4,475.5z"/>
<polygon class="st4" points="546.3,458.7 546.4,458.5 546.4,458.6 "/>
<polygon class="st4" points="546.4,458.6 546.4,458.5 546.4,458.5 "/>
<polygon class="st4" points="542.8,472.5 542.8,472.5 542.8,472.5 "/>
<path class="st4" d="M542.8,472.5c0.1-0.1,0.2-0.1,0.3-0.2C543,472.3,542.9,472.4,542.8,472.5z"/>
<path class="st4" d="M539.9,472.4L539.9,472.4L539.9,472.4L539.9,472.4z"/>
<path class="st4" d="M539.9,472.3L539.9,472.3L539.9,472.3L539.9,472.3z"/>
<path class="st4" d="M539.9,472.3L539.9,472.3L539.9,472.3z"/>
<path class="st4" d="M539.9,472.4L539.9,472.4L539.9,472.4L539.9,472.4L539.9,472.4z"/>
<path class="st4" d="M539.8,472.6l0.1-0.1l0,0L539.8,472.6z"/>
<path class="st4" d="M550.1,465.6L550.1,465.6L550.1,465.6L550.1,465.6L550.1,465.6z"/>
<path class="st4" d="M549.8,465.3L549.8,465.3L549.8,465.3L549.8,465.3L549.8,465.3z"/>
<path class="st4" d="M550,465.5L550,465.5L550,465.5L550,465.5L550,465.5z"/>
<path class="st4" d="M550.2,465.7L550.2,465.7L550.2,465.7L550.2,465.7L550.2,465.7z"/>
<path class="st4" d="M549.8,465.2L549.8,465.2L549.8,465.2z"/>
<path class="st4" d="M550.2,465.9L550.2,465.9v-0.1l0,0V465.9z"/>
<path class="st4" d="M549.9,465.4L549.9,465.4L549.9,465.4L549.9,465.4L549.9,465.4z"/>
<path class="st4" d="M549.9,465.3L549.9,465.3L549.9,465.3L549.9,465.3z"/>
<path class="st4" d="M549.8,465.2L549.8,465.2z"/>
<path class="st4" d="M550.2,465.8L550.2,465.8L550.2,465.8L550.2,465.8z"/>
<path class="st4" d="M550.1,465.6L550.1,465.6L550.1,465.6L550.1,465.6z"/>
<polygon class="st4" points="550.2,465.9 550.2,465.9 550.2,465.9 "/>
<path class="st4" d="M550,465.5L550,465.5L550,465.5L550,465.5z"/>
<path class="st4" d="M549.9,465.4L549.9,465.4L549.9,465.4L549.9,465.4z"/>
<path class="st3" d="M559.5,496.6l-1.2-1.3c0,0-1,0.4-2.1,0.7c-0.9,0.3-1.8,0.4-2.7,0.5c-1.1,0.1-2.1-0.1-3.1-0.5
	c-0.8-0.5-1.6-0.9-2.4-1.3l-2.6-1.3c-0.8-0.1-1.6-0.5-2.3-1c-1-0.8-2.5-1.9-2.5-1.9v-2.2l0.8-1.4c0,0,1.2,0.5,1.4-1s0.2,0.5,0.2-1.5
	s-0.6-0.4,0-1.9c0.2-0.5,0.5-1,0.6-1.5l0.5-1.5v-1c0,0,1.1-1.2-0.2-1.9s-2.3-1.1-2.3-1.1s-2.3,0.2-2.3-1.2c0-0.7,0.2-1.3,0.5-1.9
	l0.8-1.4c0,0,1,1.2,1.4,1.5s1-0.2,1-0.2s-0.6-1-0.5-1.4l0.1-0.4l1-0.8l1.9-0.1l1,0.6l1.4,0.5c0,0,1,0.4,0.9,0.2c0-0.3,0-0.5,0.1-0.8
	l1.3,0.4l1.1,0.1l0.3-1l-0.8-0.8l-1.3-0.9l0.5-0.9c0.1-0.4,0.2-0.8,0.3-1.2c0-0.2-0.5-0.8-0.5-0.8H549l-0.8-0.3l-0.5-0.8l-1-0.4
	l-1.1-0.4l-0.3-0.8c0,0,0.7,0,0.4-0.9s-0.2,0.1-0.3-0.9l-0.1-1l0.5-0.6l0.4-0.7l-0.8-2l-0.6-1.6l-1.2-1.3l-0.4-1.5l0.2-1.4l1.3-0.4
	l0.4-0.8l-0.2-1.3L544,448l-1.3-0.5l-0.9-0.7h-1.3l-0.6-1.2l0-2.2l-0.2-1.3l-1-1l-0.2-1.8l-1.1-1l-0.8-1.4l0.4-1.4l0-0.8l-0.8-0.7
	l0-0.6l-2.7-2.1l0,0l-0.2-1.5l0.5-0.6l-0.5-0.6l0.2-0.6l-0.7-0.5l1.3-2.6l-0.8-0.5l0.8-1.2l-0.2-1.5l0.5-0.8l-1.2-1.3l0.9-0.4
	l-0.5-0.7l-1.3,0.1l0.7-0.7l0.9,0.1l-0.8-1.1l-0.8,0.9v-1.2l-0.6-1.5l0.4-0.6l-0.3-0.7l-0.8-0.5l-0.5-1.9l-0.6-0.3l0,0l-1.2-4
	l-0.1-0.3l-9.8-5.8l-10.8,0.5l-7.7,2.5l-13.1,2.6l-2.1,5.7l-3.7,5.7l0.5,6.3l-3.6,14.3l0.1,0.3l0.1,0.1l0.2,0.2l0.1,0.1l0.1,0.2
	c0,0,0.3,0.1,0.3,0.1c0.1,0.1,0.2,0.1,0.3,0.2l0.3,0.1l0.4,0.1l0.2,0.1c0,0,0.2,0.1,0.2,0.1c0,0.1,0.1,0.1,0.1,0.2l0.1,0.1l0.2,0.3
	l0.3,0.3h0.6h0.4h0.6l-0.1,0.3l0.1,0.1l0.2-0.1l0.1,0.2l0.3,0.2l-0.1,0.4l-0.1,0.4l0.3,0.2l0.1-0.1l0.3,0.2v0.4v0.3l0.3,0.2l0.2,0.3
	v0.2l0.3,0.1l0.1,0.4l0.3,0.1v0.2l0.3-0.1l0.1,0.1l0.1,0.3l0.5,0.3l0.2,0.5h0.2l0.1,0.8l0.2,0.2l0.1,0.2l0.3,0.1l0.3,0.3l0.2,0.1
	l0.2-0.1l0.2,0.2h0.4l0.3,0.5l0.1,0.1l0.3,0.3l0.5,0.1h0.2l0.1,0.7h0.3l0.4,0.4h0.9l0.3,0.2l0.2,0.1l0.1,0.3h0.6v0.4l0.5,0.5h0.5
	l0.2,0.2l0.6,0.2l0.3-0.1v0.2h0.6l0.2,0.2l0.1,0.3l0.3,0.3l0.3,0.1l0.5-0.1l0.1,0.2l0.3,0.2l0.4,0.1l0.2,0.2v0.5l0.3,0.4l0.4,0.3
	l0.4,0.4l0.1,0.3l0.5,0.5l0.1-0.1l0.3,0l0.1-0.1l0.1,0.1l0.4,0.3l0.6,0.3h0.3h0.4h0.4l0.6,0.1l0.4,0.2h0.6l0.2,0.1v0.3l0.1,0.2h0.2
	h0.1l0.4,0l0.1-0.1h0.3l0.3,0.1l0.3,0.1l0.4,0.1l0.2,0.2l0.2,0.2h0.1h0.3l0.3,0.2h0.4l0.4-0.1h0.5l0.7-0.1l0.3-0.1l0.4-0.1
	c0.1,0,0.2-0.1,0.3-0.1c0.1,0,0.1,0,0.2,0l6.7,3.5v0.2l0.2,0.1v0.2l0.1,0.2h0.2l0.2,0.2h0.2h0.2l0.1,0.2l0.1,0.3l0.3,0.5h0.2
	l0.2,0.1l0.3,0.2h0.3l0.1,0.1l0.2,0.3l0.4,0.1l0.4,0.3c0.1,0,0.1,0.1,0.2,0.1c0.1,0.1,0.1,0.1,0.2,0.1l0.2,0.2h0.5l0.3,0.1l0.2,0.1
	l0.2,0.2h0.4h0.3l0.4,0.3l0.3,0.2l0.4,0.3h0.3l0.5,0.4l0.3,0.1h0.7l0.2,0.4l0.1,0.2h0.1h0.2l0.3-0.1h0.4l0.2-0.1l0.3,0.1h0.3h0.1
	l0.2,0.1l0.6,0.2l0.5,0.4l0,0.3l0.3,0.2l0.2,0.2l0.4,0.4l0.2,0.2l0.2-0.1l0.4-0.5l0.5-0.3l0.2,0.1l0.2,0.2l0.2,0.2l0.4,0l0.1,0.2
	l0.3,0.3h0.4l0.1,0.2h0.2h0.6l0.1,0.4l0.3,0.1l0.4-0.1h0.8l0.3,0.3l0.3,0.4l0.5,0.2l0.3,0.5v0.2l0.6,0.8v0.3h0.4l1.2,1.2l0.2,1.1
	l-0.2,1.1l-1,1.2l-0.7,1.6c0.1,0.5,0.1,1,0,1.5c-0.2,0.4-0.4,0.8-0.6,1.2c-0.3,0.3-0.6,0.6-1,0.9c0,0-1-0.5-1.3,0
	c-0.3,0.3-0.5,0.7-0.5,1.2c-0.1,0.5,0.3,1.2,0,1.6s0.3,1.1,0,1.7c-0.3,0.6-0.4,1.2-0.4,1.8c-0.1,0.5-0.2,1-0.5,1.5
	c-0.1,0.3-1,1.4-1.2,1.9c-0.3,0.6-0.6,1.2-0.9,1.8c-0.4,0.2-0.8,0.3-1.2,0.5c-0.4,0.1-1,0.1-1,0.6c0.1,0.5,0.2,0.9,0.5,1.3v1.5
	c0,0,1.6-0.7,2.2-0.8c0.6-0.3,1.3-0.6,2-0.7c0.7-0.2,1.4-0.2,2.1,0.1c1.1,0.4,2.8,0.8,2.8,0.8l1.8,0.7l2.5,0.4
	c1.4,0.4,2.8,0.5,4.2,0.5c1.6-0.3,2.6-0.5,2.6-0.5c0.3-0.1,0.6-0.1,0.8-0.2l1.8,0.2c0.4,0.3,0.9,0.5,1.4,0.7l0.8-0.2l0.7,0.7l0,0
	c0.7-0.6,1.8-1.5,1.8-1.5h1.2l1.3-0.8L559.5,496.6z"/>
<polyline class="st7" points="518.1,435.5 527.9,434.6 529.9,434.6 530.7,436 531.1,436.6 537,435.5 "/>
<path class="st8" d="M265,169.4c0,0,5.5-0.1,7.7,2.6s2,4.8,3.5,4.9s4,0.6,5.4,0.8s4.9,1.1,5.6,0c0.6-1.1,1.7-1.9,2.9-2
	c1.4-0.2,2.9,0.3,4,1.2c1.5,1.4,3.2,1.7,4.2,2.6c0.4,0.7,0.8,1.4,1.1,2.2c1.4,2.9,1.4,3.1,2.8,4.3s2.3,2.8,1.9,4.5s-2.3,3.6-2.8,4.6
	s-1.2,4.3-1.9,5.6s-9.6,12.7-12.2,13.8s-9.6,3.7-12.7,4.8s-5.7,1.6-6.6,5.1c-0.6,2.7-1.7,5.3-3.2,7.6c-1.3,1.7-2,3.7-1.9,5.9
	c0,2.9,2.2,2.8,0,4.2s-2.3,1.1-3.9,2.9s-4.8,1.6-4.8,1.6s-3.7-4.6-4.8-5.3s-6.9,0-6.9,0"/>
<path class="st8" d="M326.3,51.4c-0.1,0.7-2.6,8.1-2.8,9.4s2.3,2.9,2.3,2.9l3.3,0.8c0,0,3.5,1.6,3.7,2.9c0.1,1.2,0.1,2.5,0,3.7
	c0,0,1.6,1.9,1.6,2.7v3.1c0.2,1.1,0.2,2.2,0,3.3c-0.2,0.9-0.1,1.9,0.2,2.7c0,0,0.4,2.4,1,3s1.2,0,2,1.4c0.7,1.1,1.4,2.2,2.3,3.1
	c0.7,0.7,0.7,1.1,3.5,0.7s9.4-1.1,10.9-1.2s2.6-1.1,4.6-0.4c1.7,0.7,3.4,1.6,5,2.6l5.6,3.8l3.1,3.8c1.6,0.4,3.3,0.4,5,0
	c2.7-0.6,13.3-1.2,13.3-1.2s2.7-1.4,3.8-0.6c1,0.9,1.8,1.9,2.6,3l-2.3,4.4c0,0-0.3,3.7-1.2,4.6c-0.7,0.9-1.2,2-1.5,3.1l0.7,4
	c0,1.4,0.2,2.8,0.5,4.2c0.5,2.3,0.4,3.3,1.5,4.9c1.1,1.5,2.2,2.9,3.4,4.2c0,0,1.8,0.4,1.8,3.4s-2.9,2.7-3.7,4s-4.1,3.3-4.1,3.3
	s5.7-0.1,6.4,1.6s1.9,2.9,2.5,4.4s2,4.1,2.2,5s-0.1,4.8-0.1,3.4c-0.2-1.6-0.8-3.1-1.7-4.4c-0.8-1-2.5-4.1-3.5-1.5s-3.7,4.4-5.2,4.6
	s-3.3-3.1-2.7-1.4s-3.3,1.2-6.6,2.1s-13.9,1-15,1.9s0,2.5,0.2,5.2s3.1,1.4,5.4,1.5c1.3,0.1,2.6,0.5,3.7,1.2c0,0,1.4,2.3,1,3.7
	s-3.3-0.8-4.2-1.2s-4.2,0.4-5.2,1s-3.3,2.3-3.3,4.4s0.2,4.6,1.5,6.4s3.7,2.5,5.2,3.7s1.7,3.5,2.9,4.8s1,5.4,1,6.4s-5,31.4-5,31.4"/>
<path class="st8" d="M403.5,155.4c0,0-1.4,5.6,0.1,5.4s3-1.4,4.3,0s2.5,2.9,3.7,3.3c1.2,0.2,2.4,0.2,3.6,0c0,0,3.6-1.2,4.7-1.8
	s1.8-1.8,2.9-0.8s0.4,3.1,1.4,2.8s4.1-4.3,6.1-5.4s3.1-2.3,4.2-2.6c1-0.3,2-0.6,3-0.9c1.2-0.4,3.1-0.4,3.1-1.8v-4.1
	c0.9-0.2,1.7-0.5,2.5-1c1.5-0.8,2.9-1.6,2.9-1.6l1.7-2l-0.5-2c0,0-1.2-1.7-2.5-1.3c-0.7,0.4-1.6,0.4-2.3,0c-0.8-0.4-1.1-0.4-1.4-1.3
	s0.3-0.7-0.7-1.9s-0.1,0.3-1.6-2c-0.8-1.2-1.5-2.5-2-3.8c0-1-0.1-1.9-0.3-2.9c-0.2-1-0.5-2-1-2.9c-0.7-0.8-1.5-1.5-2.5-1.9
	c0,0-2.5-1.6-2-2.3s0.8-1.4,2.2-0.7s3.4,1.8,4.9,1.6s2.3,1.6,3.7,1.4s4.2-0.9,4.2-0.9s1.7-1.1,3-0.1c1.2,1.1,2.2,2.2,3.1,3.5
	l2.4,0.8c0,0,1.8-2.4,1.8-4c0.1-1,0.5-2,1.2-2.7c2,0.5,4,0.5,6,0c2.4-0.8,4.7-1.8,7-3l3.1-2.3l4.3-2.8l2.2-3.5l-2.9-3l-3.7-3.4
	c0,0-3-2.3-2.3-3.8s1.2-1.5,1.5-2.7s0.8-3.4,0.8-3.4v-3.3c0,0,0.1-2.2,4.6-2.7s5.7-0.7,4.5-2.3s-3.8-1.1-3.9-4.4s2.8-5.8,2.8-5.8
	l7.8-5.8"/>
<path class="st8" d="M480.2,109.9c0,0,5.3,3.6,5.9,3.9s0.2,1.9,2.6,3s3.7,1.3,4.2,3s1.5,2.9,0.9,4.7s-1.9,3.4-2.4,4.9
	s-1.7,1.4-1.9,3.9s-1.9,3.2-0.2,5.1s3,2.5,3,4.1s-1.4,2.7-0.2,4.7c0.9,1.8,2.3,3.4,3.9,4.6c1.7,1.2,2.4,2.4,4.4,2.4s5.8,1.4,7.6,0
	c1.1-0.8,2.1-1.7,3-2.7l3.2-0.2c1.1-1.1,2.3-2.2,3.5-3.2c1.2-0.9,2.5-2.9,3.9-3c2,0,4.1,0.2,6.1,0.5c1.3,0.2,8.1,0.9,9.7-0.2
	s-1.3-3.9,0-5.3s2.4-2,4.1-1s5.3-1.9,6.4-1.9c1.7,0.1,3.4,0.5,5.1,1c1.7,0.5,4.4,1.9,6.6,1.9s4.6-1.9,7.8-1.5s5.3,2,7.1,1
	c2.5-1.5,4.4-3.8,5.6-6.4c1-2.7,9.5-17.6,9.5-17.6l5.5-11.1"/>
<path class="st8" d="M551.3,590.9l-12.3-6.2c0,0-7.5-6-7-7.6s-0.2-7.3,0-8.7s0-8.2,0-8.2c-0.2-1.9-0.2-3.8,0-5.7
	c0.2-3.7,1.5-8.5,2.1-12s2.1-8.7,4.2-9.2s3.8-2.9,5.6-2.7s1.5-3,4.1,0l2.6,3c1.9,1.3,3.8,2.8,5.5,4.3c1.3,1.4,1.2,4.7,2.8,4.6
	s1.9-1.9,3.5-1.6s1.8,0.1,3.2,1.6c1.5,1.5,3.1,2.9,4.7,4.1l8.1,4.1c0,0,4.2,2,5.5,4.6c0,0-1.6,4.3,0,4.9s2.9,2.2,2.9,3.2
	s-2.6,1.6-2.6,4.2s1.3,2.7,1.3,6.5v3.8"/>
<path class="st8" d="M568.7,477c0,0,6.9-4.2,8-1.9s-0.6,3.9,1.4,5.5s2.9,2.8,2.6,4.8s-1.1,5.9-1.1,5.9l-3.2,3.3
	c0,0-18.6,9.2-21.3,14.9c-2.7,5.7-12.7,14.6-16.9,23.8"/>
<circle class="st4" cx="472.9" cy="387.9" r="0.4"/>
<path class="st9" d="M344.4,37.6c0.1,0,0.2,0,0.3,0c1.7,0.5,2.1,5.3,2.1,5.3s-2.4,5.7-3.5,6s-5.7,2.8-5.7,2.8l1.1,4.5l2.2,3.2
	c0,0-1.3,4.4-2,5.4s-1.8,6.4-1.8,6.4l2.6,3.3c0,0,5.6-1.7,5.3-2.8s4.4-4.2,4.4-4.2l-2.9-5.3l-3.1-5.5l3.8-2.3l4.4-1.1l2.2-2.6
	l3.5-3.9l2.8-1l2.6-0.5l2.7,1.5c1.4-1.1,3-1.8,4.7-2.3h4.1l3.6,1.4l2.5,3.8l1.9,3.3l7.5,0.7l4.6,0.3l3-3.5l3.3-1.4l2.6,2.2l2.6,2.9
	l4.8,1.2l6.7-0.5l7.1-2.6l6.8-2.8l8.3-3.2l6.3-1l3.5-0.5l11.1-0.4l2.5-4.1l4.4,0.3l1.4,3.1c0,0,2.5,1.1,2,2c-1,1.2-2.2,2.3-3.4,3.3
	l-2.7,2.4l1.7,3.1L470,56l3.3,2c0,0,2.6,2.7,2.6,3.4s1.6,4,1.6,4c1.3,0.7,2.6,1.3,4,1.6c1.1,0.1,7.9,2.1,7.9,2.1l6.9,3.2l5,2.2
	l2.7,4.9l-0.5,7.4l13,0.8l8.4,5.2L544,94l7.5-4.3l12.3,0.7l7.7,5.2l15.8,2.9l9.7,7.5l5.2,5l4.2,8.4l4,10l6,9.8L616,145l-10.1,10.1
	l-6.6,5.5l-2.3,3.9l-0.5,6.2l1.8,2.6l2.7,0.2l2.4,0.1l3.2-2.4l3.6-8.5l1.8-1.9h2.9l18.1,1.5l3.2,4.1l-6.7,7.4l-3.9,7.1l3.3,2.8
	l15-18.9l13.6-0.8l14.9,2.6l3.7,2.4l3.6,2.5l4.7,2.5l4.1,2.3l1.7,1.9l-0.3,5.1l0.8,4.1l2,0.1l6.4-3.9l11.4-1.5l3,1.6l6.2,3.8l5,3.2
	l8.9,1.4l8.9,1.4l8.2,1.4l5.8,7.1l4.2,5.6l4.5,5.4l3.3,5.2l5.1,1.3l10.9,5.6l4,6.1l3.9,7l0.3,9l-0.4,6.9l0.3,10.4l-4.4,12.3l-2.9,5
	l-9,8.8l-5.2,6.3l-4.1,7.3l-1.5,5.6l-1.1,6.1l-4.2,0.6l-4-0.2l-3.1,2.8l-2.1,17.1l0.1,9.5l2,6.5l-1.1,7.2l-6.3,15.7l-1.4,8.6
	l-2.1,9.7l-4.6,8l-3.3,6.7l-4.2,7c0,0-1.7,3.2-2,3.9s-0.8,5.1-0.8,5.1l-5.2,6.3l-15.9,6.5l-10.5,3.2l-4.5-0.3l-4.7,2.7l-3.8,2.5
	l-25.4,12.5l-11,10.2l-3.8,11l-1.1,12.2V502l-0.8,1.9L629.8,516c0,0-4.5,6-4.7,6.6s-4.8,7.8-4.8,7.8l-3.7,6.3c0,0-1.8,3.5-2.4,5
	s-3.6,3.2-3.6,3.2l-1.1-4.4l1.5-4.6l2.3-4.5c0,0,2.9-3.4,1.7-3.4c-0.2,0-0.5,0.1-0.7,0.2l-2.7,1c0,0,0.1-0.2,0-0.2s-0.6,0.5-2.2,2.7
	l-2.6,3.8l-2,5.1l0.7,5.9l-2,1.6l-4.3,1.8l-4.2,3.4l-4.8,4.9l0.8,3.7l3.4-1.7l4.1-4.4l2.9-2.9l1.7,0.3c0,0,3,1.4,0.3,4l-2.7,2.6
	l-3.9,4.3c0,0-10.9,14-11.5,14h-0.1c-0.8,0-7.2,3-7.2,3l-8.7,1.4l-5.8-0.3l-7.6,3l-4.7,5.8l1.1,4l1.4,2.8l4.3,0.3l1.3,2l-4.6,18.7
	l-12.2,9.8l-14.9,6.4l-9.9,2.4l-10.2,0.4c0,0-1.1,13.6-1.2,14.1s-2.5,7.6-2.5,7.6l-5.1,2.5l-7,2l-11.5-0.7l-1,3.2l7.5,7.9l1.6,4.6
	l4.5-0.9l3.9,1.4v2.8l-8,4.5l-0.6,10.2l-1.1,7.5l-5.3,7.8l-6.7,7.9l-3.5,6.7l-0.5,5l2.2,3.6l12.7,8.1c0,0,3,1.7,3.1,2.3s0,6,0,6
	l-3.8,6.5l-5.9,10.5l-0.4,5.8l-0.5,8.1l-3.2-0.2l-2.2,1.9l-1.4,6l0.2,6c-0.1,2.4,0.8,4.7,2.6,6.4c1.7,1.6,2.1,4.2,1,6.3l-7,4.3
	l-1.9,3l0.8,6.4l-2.9,7.6l-5.3-0.3l-4.1-8.5l-0.9-5.6l-2.3,0.7l-4,6.2l-1.7-1l-2-3.2l-5.1-10.1l-4.4-3.9l-2.7-3.3l0.3-4.5l-2.4-5.6
	l-2-7l-2.6-5.3l-4.4-1.7l-3.2-4.5l-1.6-5.4l0.2-2.9l4.1,0.1c0,0,1.1,1.2,2,1.2c0.5,0,1-0.4,1.1-1.5l0.5-3.3c0,0,0.5-0.9-2.1-2.4
	c-4.1-2.2-8.6-3.4-13.2-3.5h0l-3.1-3.1l2.4-5.4l3.6-6l2.4,2.7l2,4.8l1.9-0.2l-0.1-6.9l0.3-4.5l0.4-7.2l3.9-4.6l1-4.4l-1.1-4l-3.8-3
	l-3.4-0.5l-0.4-2.3l0.5-8.9l0.2-6l-2-3.9l-2.9-3.5l-2.9-0.3l-2.2,2.1l-0.2,3.1l1.5,3l1.3,4.2l1.4,6l-1.9,3.5c-0.3,0.1-0.6,0.1-1,0.1
	c-0.6,0.1-1.2-0.2-1.6-0.6c-0.6-1.1-1.1-2.2-1.5-3.4c0,0-1.8-8.4-2-9.1S401,688,401,688l-2-8.8l-2-9.1l0.4-7.2l-0.8-6.8
	c0,0-2.1-4.8-2.9-6.6c-0.7-2.2-1.2-4.4-1.5-6.7c-0.1-0.7-2.5-7.4-2.5-7.4l2.8-6.7l2-7.8l-0.6-8.3l-1.8-7l2.5-6.8
	c0,0,1.5-4.9,1.8-6.5s0.7-6.5,0.8-7.5s0.3-10.2,0.3-10.2c-0.3-2.2-0.6-4.3-1.2-6.5c-0.8-3.3-2-9.3-2-9.3l-3.9-7.3l0.5-8.6
	c0,0-0.4-4.7,0.4-6.4s0.7-2.4-1.1-4.9s-0.8-9.9-0.8-9.9s3.8-8.9,3.7-9.6s0.2-14.3,0.2-14.3l0.5-25.5l-7.5-16l1.4-8.5l3.2-7.6
	l-3.5-20.2l-7.2-18.2l-12.8-10.4l-17.9-9.7l-13.4-5.4l-10.5-3.7l-5.7-5.7l-5.3-6.2l-5.5,0.2c0,0-5.7-2.2-5.7-3.3l0.8-13.4L293.5,331
	l-7.3-7.2l-5.8-13.6l-9-13.7c0,0-10.8-13.1-11.3-13.3s-8.2-6.9-8.2-6.9l-8.2-3.6l-4.8-6.3l0.5-8.6l-5.1-6.4l-1.9-3.7l0.2-3.1l4-1.1
	l5.8-5.4l3.9-7.2l1.7-6l-3.6-3.3l-4.1-1.4l-1.3-3.8l5.8-16.7l3.6-11.4l4-5.6l5.7-5.9l4.9-5.6l10.1-17.2l2.7-13.3
	c0,0-0.1-10.4,0-11.6s2.7-10.5,2.7-10.5l-0.9-5.6l0.3-3.7l4-10.9c0,0,1.7-4.9,2-6.3c0.2-1.7,0.3-3.3,0.3-5l3.3-3.8l7.1-3.2
	c0,0,3.5-3.7,3.6-5.6s0-6.1,0.4-7.3s2.1-6.1,2.5-6.8s4.1-2.5,4.7-2.8s10.9-3.8,10.9-3.8l10.9-3.2l9.1-8.7
	C336.8,42,342.4,37.6,344.4,37.6 M344.4,26.6c-1.7,0-5.8,0-14.4,6.7c-0.3,0.2-0.6,0.5-0.8,0.7l-7.2,6.9l-8.3,2.4l-0.5,0.2
	c-11.1,3.8-11.8,4.1-12.8,4.7l-0.4,0.2c-4,2.1-6.6,3.6-8.4,6.7c-0.7,1.2-1.1,2.3-3.1,7.8l-0.3,0.8c-0.8,2.2-0.9,4.4-1,7.8l-4.3,1.9
	c-1.4,0.6-2.7,1.6-3.7,2.8l-3.3,3.8c-1.7,2-2.7,4.5-2.8,7.2c0,1.1-0.1,2.4-0.1,3.1c-0.3,0.9-1,3-1.5,4.6l-4,10.8c-0.4,1-0.6,2-0.6,3
	l-0.3,3.7c-0.1,0.8,0,1.7,0.1,2.5l0.5,3.2c-2.3,8.4-2.4,9.6-2.4,10.5c-0.1,1-0.1,4.7,0,11.2l-2.1,10.3l-8.7,14.8l-4,4.6l-5.4,5.6
	c-0.4,0.4-0.8,0.9-1.1,1.3l-4,5.6c-0.6,0.9-1.1,1.9-1.5,3l-3.6,11.2l-5.8,16.6c-0.8,2.3-0.8,4.8,0,7.2l1.3,3.9
	c0.8,2.4,2.4,4.4,4.6,5.8l-0.9,1.7l-2.6,2.3l-1.5,0.4c-4.5,1.3-7.7,5.3-8,9.9l-0.2,3.1c-0.1,1.9,0.3,3.8,1.1,5.5l1.9,3.7
	c0.4,0.7,0.8,1.4,1.3,2l2.5,3l-0.3,4.3c-0.2,2.6,0.6,5.2,2.2,7.3l4.8,6.3c1.1,1.5,2.6,2.7,4.4,3.4l6.7,2.9c3.6,3.1,5.6,4.8,6.9,5.8
	c1.6,1.8,5.9,6.9,9.6,11.5l8.1,12.3l5.3,12.8c0.6,1.4,1.4,2.6,2.5,3.6l6.9,6.7l7.5,9.4l-0.5,9.2c-0.5,9,8.4,12.5,12.6,14.2
	c1.3,0.5,2.6,0.8,4,0.8h0.6l1.9,2.2c0.2,0.2,0.4,0.4,0.6,0.6l5.7,5.7c1.2,1.2,2.5,2,4.1,2.6l10.2,3.6l12.5,5.1l16.5,8.9l9.8,8
	l5.7,14.5l2.8,15.9l-2,4.6c-0.3,0.8-0.6,1.7-0.7,2.5l-1.4,8.5c-0.4,2.2,0,4.4,0.9,6.4l6.4,13.7l-0.4,23c-0.1,7-0.2,10.9-0.2,13
	c-0.6,1.5-1.7,4.3-2.8,6.8c-0.4,0.9-0.7,1.9-0.8,2.9c-0.6,4.7-0.8,10.9,1.6,15.8c-0.3,2.3-0.4,4.6-0.2,6.9l-0.5,7.8
	c-0.1,2,0.3,4,1.3,5.8l3.1,5.9c0.4,2.1,1.2,5.7,1.8,8.2c0.3,1.4,0.6,2.9,0.8,4.3c-0.1,4-0.2,8.3-0.2,9c0,0.9-0.5,5.1-0.6,6.3
	c-0.1,0.7-0.8,2.9-1.4,4.9l-2.4,6.5c-0.8,2.1-0.9,4.4-0.3,6.5l1.6,6l0.4,5.5l-1.4,5.3l-2.5,6c-1.1,2.5-1.1,5.3-0.2,7.9
	c0.8,2.3,1.8,5.1,2.1,6.2c0.4,2.9,1.1,5.8,2.1,8.5c0.5,1.2,1.6,3.6,2.3,5.2l0.5,4.2l-0.4,6.3c-0.1,1,0,2.1,0.3,3.1l2,9l1.5,7.8
	c0.4,7.6,0.7,9.4,1.2,10.7c0.3,1.3,1.1,4.8,1.7,7.7c0.1,0.5,0.2,1,0.4,1.5c0.7,2.1,1.7,4.1,2.9,6c2.5,3.4,6.4,5.3,10.6,5.2
	c0.4,0,0.7,0,1,0c0.7,0.7,1.5,1.3,2.4,1.7c-1.4,1.8-2.2,3.9-2.4,6.2l-0.1,1.8c-2.2,0.9-4,2.5-5.2,4.5l-3.6,6
	c-0.2,0.4-0.5,0.8-0.6,1.2l-2.4,5.4c-1.8,4.1-1,9,2.2,12.2l3.1,3.1c1.2,1.2,2.7,2.1,4.3,2.7l-0.1,1.3c-0.1,1.3,0.1,2.5,0.4,3.7
	l1.6,5.4c0.3,1.2,0.9,2.3,1.6,3.3l3.2,4.5c1.3,1.8,3.1,3.2,5.1,4l0.3,0.1l0.3,0.5l1.7,6.1c0.1,0.4,0.3,0.9,0.5,1.3l1.4,3.3l-0.1,1.9
	c-0.2,2.8,0.7,5.6,2.5,7.7l2.7,3.3c0.4,0.4,0.8,0.8,1.2,1.2l2.8,2.5l4.1,8.2c0.2,0.3,0.3,0.7,0.5,1l2,3.2c1,1.5,2.3,2.7,3.8,3.6
	l1.7,1c1.7,1,3.6,1.5,5.5,1.5c0.3,0,0.5,0,0.8,0l0.5,1c1.7,3.6,5.3,6,9.3,6.3l5.3,0.3h0.7c4.6,0,8.7-2.8,10.3-7.1l2.9-7.6
	c0.6-1.7,0.8-3.5,0.6-5.3l-0.1-1l3-1.8c1.6-1,2.9-2.3,3.8-3.9c3.4-6.1,2.6-13.7-2.1-18.9l-0.1-2.9c3.8-1.6,6.4-5.3,6.7-9.5l0.5-8.1
	l0.2-3.3l4.6-8.2l3.8-6.4c1-1.7,1.6-3.6,1.6-5.5c0.2-6.8,0-7.8-0.4-9.2c-1.2-4.4-4.6-6.8-8-8.8l-8.6-5.6l1.2-2.3l5.9-7
	c0.3-0.3,0.5-0.6,0.7-0.9l5.3-7.8c0.9-1.4,1.5-2.9,1.8-4.5l1.1-7.5c0-0.3,0.1-0.7,0.1-1l0.3-4.2l2.8-1.6c3.5-2,5.6-5.6,5.6-9.6v-2.8
	c0-3-1.2-5.8-3.4-7.9l4.3-2.1c2.6-1.3,4.7-3.5,5.6-6.3c3-8.4,3-9.1,3.1-10.5c0-0.4,0.2-2,0.3-4.2h0.5c0.7,0,1.4-0.1,2.1-0.3l9.8-2.3
	c0.6-0.1,1.2-0.3,1.8-0.6l14.8-6.3c0.9-0.4,1.8-0.9,2.6-1.5l12.2-9.8c1.9-1.5,3.2-3.6,3.8-6l4.6-18.7c0.7-2.9,0.2-6-1.4-8.5
	l-0.4-0.7h0.5h0.7c0.6,0,1.2,0,1.7-0.1l8.7-1.4c1-0.2,2.1-0.5,3-0.9c1.8-0.8,3.7-1.7,4.8-2.2c3.9-0.8,6.3-3.6,8.2-5.9
	c1-1.2,2.4-2.9,4.1-5c2.3-2.9,4.6-5.8,5.3-6.8l3.3-3.6l2.5-2.3c2.9-2.6,4.6-6.4,4.6-10.4l0.4-0.2c2.9-1.7,6.8-4.5,8.4-8.7
	c0.2-0.6,1.1-2.5,1.8-3.9l3.4-5.8c3.2-5,4.5-7.2,5.2-8.5c0.6-0.9,2-2.8,3.4-4.7l10.6-11.8c0.8-0.9,1.4-1.9,1.9-3l0.8-1.9
	c0.6-1.4,0.9-2.9,0.9-4.4v-10.4l0.9-10.4l2.4-7.1l7.8-7.2l24-11.8c0.4-0.2,0.9-0.5,1.3-0.8l3.5-2.3l1.5-0.8l1.2,0.1h0.7
	c1.1,0,2.1-0.2,3.2-0.5l10.5-3.2c0.3-0.1,0.7-0.2,1-0.4l15.9-6.5c1.7-0.7,3.1-1.8,4.3-3.1l5.2-6.3c1.3-1.6,2.2-3.5,2.5-5.5
	c0.2-1.1,0.3-2.4,0.5-3.2c0.3-0.5,0.6-1.2,1-1.8l4.1-6.8c0.2-0.3,0.3-0.5,0.4-0.8l3.2-6.4l4.5-7.7c0.6-1,1-2,1.2-3.1l2.1-9.7
	c0-0.2,0.1-0.4,0.1-0.6l1.2-7.3l5.8-14.5c0.3-0.8,0.5-1.6,0.7-2.4l1.1-7.2c0.3-1.7,0.1-3.4-0.4-5l-1.5-5l-0.1-7.1l1.3-9.6l2.8-0.4
	c4.7-0.7,8.4-4.3,9.2-9l1-5.6l1-3.8l2.9-5.3l4.2-5l8.5-8.3c0.7-0.7,1.3-1.5,1.8-2.4l2.9-5c0.3-0.6,0.6-1.2,0.8-1.8l4.4-12.3
	c0.4-1.3,0.7-2.6,0.6-3.9l-0.2-9.9l0.4-6.4c0-0.4,0-0.7,0-1.1l-0.3-9c-0.1-1.8-0.5-3.5-1.4-5l-3.9-7c-0.1-0.2-0.2-0.4-0.4-0.6
	l-4-6.1c-1-1.6-2.5-2.9-4.2-3.8l-10.9-5.6c-0.7-0.4-1.5-0.7-2.3-0.9l-0.9-0.2l-1-1.6c-0.2-0.4-0.5-0.8-0.8-1.1l-4.3-5.2l-4-5.4
	l-0.3-0.4l-5.8-7.1c-1.7-2.1-4.1-3.4-6.7-3.9l-8.2-1.3l-8.9-1.4l-6.6-1l-3-2l-0.2-0.1l-6.2-3.8l-0.6-0.4l-3-1.6
	c-2-1.1-4.4-1.5-6.7-1.2l-9.4,1.3c-0.3-0.6-0.7-1.1-1.2-1.6l-1.7-1.9c-0.8-0.9-1.8-1.7-2.9-2.3l-4.1-2.3l-0.3-0.1l-4.1-2.1l-3-2.1
	l-0.3-0.2l-3.7-2.4c-1.3-0.8-2.7-1.4-4.2-1.6l-14.9-2.6c-0.6-0.1-1.2-0.2-1.8-0.2h-0.7l-13.6,0.8c-0.9,0.1-1.8,0.2-2.7,0.5
	c-1.8-1.7-4.1-2.8-6.6-3l-8.8-0.7c1-1.6,1.6-3.4,1.7-5.2l0.3-5.9c0.1-2.2-0.4-4.5-1.6-6.4l-5.5-8.9l-3.6-9.1
	c-0.1-0.3-0.2-0.6-0.4-0.8l-4.2-8.4c-0.6-1.2-1.3-2.2-2.3-3.1l-5.2-5c-0.3-0.3-0.6-0.5-0.9-0.7l-9.7-7.4c-1.4-1.1-3-1.8-4.8-2.1
	l-13.6-2.4l-5.7-3.9c-1.6-1.1-3.5-1.7-5.5-1.9l-12.3-0.7h-0.7c-1.9,0-3.8,0.5-5.4,1.4l-4.6,2.6L528.3,82l-6-3.7
	c-1.6-1-3.3-1.5-5.2-1.6l-2.5-0.2c-0.2-0.8-0.6-1.6-1-2.4l-2.7-4.9c-1.2-2.1-3-3.8-5.2-4.8l-4.9-2.2l-6.8-3.1
	c-0.5-0.2-1-0.4-1.5-0.6c-3.1-0.9-5.2-1.5-6.7-1.9c-1.2-2.4-2.7-4.5-4.7-6.3l-0.5-0.5c1.1-2.6,1.2-5.5,0.3-8.2
	c-0.7-2.2-2-4.1-3.8-5.5l-0.1-0.2c-1.7-3.7-5.3-6.1-9.3-6.4l-4.4-0.3h-0.6c-3.4,0-6.6,1.6-8.7,4.3l-5.3,0.2c-0.4,0-0.7,0-1.1,0.1
	l-3.5,0.5H444l-6.3,1c-0.8,0.1-1.5,0.3-2.2,0.6l-8.3,3.2l-0.2,0.1l-6.6,2.7l-5.4,2l-3.2,0.3l-0.3-0.3c-0.4-0.4-0.7-0.7-1.1-1
	l-2.6-2.2c-3.2-2.7-7.6-3.4-11.4-1.8l-3.3,1.4c-1.3,0.5-2.4,1.3-3.4,2.3l-0.8-0.1l-1.8-2.8c-1.3-1.9-3.1-3.4-5.3-4.2l-3.6-1.4
	c-1.2-0.5-2.5-0.7-3.9-0.7h-4.1l0,0c-0.6,0-1.2,0-1.7,0.1c-1.1,0.2-2.2,0.5-3.2,0.8c-1.6-0.3-3.2-0.3-4.7,0l-2.6,0.5
	c-0.5,0.1-0.9,0.2-1.4,0.4l-0.2,0.1c-1.4-3.6-4-7.2-8.9-8.5C346.5,26.8,345.5,26.7,344.4,26.6L344.4,26.6z"/>
<path class="st10" d="M357.9,37.7c0.3-0.5,5.7-1,5.7-1s1.4,2.3,1.2,3.3c-0.2,1-0.7,1.9-1.3,2.6c-0.4,0.4-2.3,0.8-3.1,0.8
	s-2.6,0.5-3.7-0.2c-1-0.8-1.5-2.1-1.3-3.4C355.6,38.8,357.9,37.7,357.9,37.7z"/>
<path class="st10" d="M377.5,38.2c0.6,0.2,2.2,1.7,1.9,2.5s-2.1,1.9-2.1,1.9l-2.2-1.5l-0.8-1.6l1.2-1.3L377.5,38.2z"/>
<path class="st10" d="M385.1,44.4c0.9,0.2,3.4,1.5,3.5,2.4c-0.1,0.8-0.3,1.5-0.7,2.2l-3-0.2l-2.4-2.4l0.1-2.2L385.1,44.4z"/>
<path class="st10" d="M435.7,40.7c0.2-0.3,2.5-0.3,2.5-0.3l0.7,2.7l-0.8,1.6l-2.6,0.1l-1.3-0.9l-0.5-1.5L435.7,40.7z"/>
<path class="st8" d="M519.7,107.5c-0.6,1-1.4,1.8-2.3,2.4c-1,0.3-2.6,2.4-3.2,3s-3,2.3-1.9,5.3s1.7,5.9,3.7,7.6s3.7,2.2,5,5.2
	c1,2.5,2.5,4.9,4.2,7c1.7,2.5,3.3,5.1,4.7,7.8"/>
<path class="st8" d="M534.7,93.4c0,0-10.4,7.7-11,8.9l-2.2,4.2c0,0-0.8,0.5-1.7,0.9"/>
<path class="st8" d="M557.8,90.9c0.2,0.9,2.9,8.2,2.6,9s-3.9,3.6-4.1,4.7s0,7.8,0,7.8s-1.3,4.4-0.1,6.4c1.2,1.7,2.6,3.2,4.2,4.6v4.4
	c0,0-1.1,4.6-1.4,5.3s-2,6.7-2,6.7"/>
<path class="st8" d="M380.1,401.9c0,0,4.7,1.3,5.8-0.3s3.3-4,3.3-5.1s0-4.8,4.7-4.7c0,0,0.2-4.8,0.2-7.5s3.1-4.7,4.5-6.7
	s0.4-2.2-0.9-2.9s-2.7-1.3-4.7-5.3s-0.2-5.8-0.2-5.8c0.7-1.3,0.7-2.9,0-4.2c-1.1-2.2-2-0.4-2.4-2.7s4.4-5.6,5.8-7.1s-0.4-2.6,0-4.5
	s-2.3-5.9-2.3-9.4s-0.4-4.3,0.8-5.1s1.6-5.9,1.6-5.9l-12.6-16.7"/>
<path class="st8" d="M393.9,391.8c1.6,0.3,3,1.4,3.6,3c1,2.7,4.1,8.5,4.2,8.8c0.4,1.4,1.1,2.6,2,3.7c1.1,1,2.4,1.9,3.6,2.8
	c0,0,1.2,1.5,1.1,2s-1.8,0.6-1.8,2s1.6,2.2,1.3,3.7s-2.1,1.1-1.9,2.9c0,1.4,0.4,2.7,1,3.9c0.8,1.5,1.8,0,2,1.9c0.2,1,0.2,1.9,0,2.9
	c0,0,2.2,3.1,3.5,3.3s2,2.4,2,2.4l0.8,4l1.8,4.8c0,0,2.6,9.8,3.5,9.9s2.3,0.5,3.2,0s3.5-2.2,3.5-2.2s2.3-2.9,2.4-3.7s0.6-2.9,2-3.4
	s3.4-2.7,3.4-2.7s0-2.6,0.6-3.3s3.2,1,4.6,1.7s9.6-0.5,9.6-0.5l3.9,1.2l4.5,1l4.4,9.3"/>
<path class="st8" d="M427.8,451l2,3c-0.3,1.2-0.6,2.4-0.7,3.6c-0.1,1.5,0,6.1,0,6.1l-1.2,3.4l-11,7.5c0,0-1.9,2.2-1.5,3.3
	s1.7,1.2,2,1.9s-1.1,2-1.1,2l0.5,3.9c0,0,1.7,4.9,1.7,5.1s0.7,3.5,0.2,4.4c-0.3,0.9-0.4,1.9-0.4,2.9l2.6,4.5c0,0,1,3.1-0.5,3.5
	c-1.3,0.5-2.6,1.2-3.7,2l-0.2,5.1l-2,4l-1.9,3.1l-2.3,2.8v4.5l-1,4.8l-2,1.6l3.7,11.1l-1.1,3.8l-2.2,2.4L406,554v3.9l1.2,3.8
	l1.7,4.7l2.4,1.7c0,0,2.6,5.8,2.6,6.5s1,5.3,1,5.3l1.8,3.1l2.5,1l-0.3,3.3c0,0,0.2,4.7,0.2,5.7c-0.3,1.4-0.7,2.8-1.3,4.1
	c-0.5,1.2-0.9,2.4-1.1,3.7c0,1.1-0.2,5.8-0.2,5.8s-2,0.7-1.1,2s2.5,4.5,2.5,4.5l0.6,4.7l-2.1,4.2c0,0-2.2,3.4-2.3,4.2
	c0.2,1.6,0.5,3.1,0.9,4.7l-0.2,4.7l0.9,5.2l1.5,2.7c0,0,0.5,1.3,0.8,2.2c0.5,1.1,1.1,2.1,1.8,3.1c0.5,2-1.5,4.2-1.8,4.7
	c-0.5,1.1-0.9,2.3-1.1,3.4c0,0.7,0.2,3.4,0.2,4.3s-0.4,3.3-0.4,3.3c-0.9,1.2-1.1,2.7-0.7,4.2l-0.4,1.6l0.4,2.2l0.5,2.2l0.5,4.5
	c0,0,5.6,14.3,4.7,14.7s-1.6,2.2-1.6,2.2v7.2c0,0,1.6,2.9,2.2,3.6s1.8,0.7,2.2,2.5s0.9,3.8,1.5,4.2c0.7,0.6,1.4,1.3,2,2
	c0,0-0.7,4-0.4,4.9s0.4,1.8,1.6,1.3s4.9,0.5,4.9,1.6s-4,2.9-4.7,2.9s-2.7,2.7-1.3,3.1s5.4-0.4,6,2.5s-2.2,5.6-2.2,5.6s2.1,2.3,2.2,4
	s-1.5,2-1.7,2.5s2.4,2.2,2.5,3.3c0.1,1.8,0.1,3.6,0,5.4l0.1,3.6l1.5,0.7l-2.7,2.9l-0.2,2.7l-1.3,3.6l3.1,3.1l0.2,1.8l-1.1,1.6
	l0.4,2.7l-0.4,2.5l-6.5,6.5"/>
<path class="st8" d="M538.2,533.3c2.1-0.5,3.8-2.9,5.6-2.7s1.5-3,4.1,0l2.6,3c1.9,1.3,3.8,2.8,5.5,4.3c1.3,1.4,1.2,4.7,2.8,4.6
	s1.9-1.9,3.5-1.6s1.8,0.1,3.2,1.6c1.5,1.5,3.1,2.9,4.7,4.1l8.1,4.1c0,0,4.2,2,5.5,4.6c0,0-1.6,4.3,0,4.9s2.9,2.2,2.9,3.2
	s-2.6,1.6-2.6,4.2s1.3,2.7,1.3,6.5v3.8"/>
<line class="st10" x1="551.3" y1="590.9" x2="550.6" y2="590.5"/>
<path class="st8" d="M537,435.2l4.8,1.5l2.1-2.7c0,0,4.2-0.6,4.8-0.2s2.6,3.3,3.4,2.9s3,0,3,0l1.3,3.5v6l2.5,5.3l1.5,3.3h9.4
	c0,0,2.3-3.7,2.6,0s0,9.9,0,9.9l-2,5.2l-1.7,7l0.3,5c0,0-2,4.3-2.3,5.4c-0.6,1.5-1.3,2.9-2,4.3l-5.6,4.7"/>
<path class="st10" d="M425,45.9c0.2-0.7,0.6-1.4,1.1-1.9l1.8,0.1l1.1,2l-1.3,2.3l-2.3-0.6L425,45.9z"/>
<path class="st8" d="M530,399.6c0,0-1.8-15.3-1.6-18.2s-2.9-3.9-3.6-4.9s-3.4-2.3-5.2-4.4s4.9-5.7,6.3-6.5s-4.6-2.2-4.6-2.2
	s-16.2,0.4-16.3,0.7s-3.1-0.8-3.3-1.6s-1.3-3.7-1.8-5.9s-4.8-5.4-4.8-5.4s3.4-1.3,3.8-1.8s0.2-3.3,0-4.6s-2.3-4.3-3-5.1
	s0.2-1.6,0.6-3.1s-3.6-2.8-3.6-2.8s-2.8-2-4.8-1.5s-7.6,0.4-8.9,0s-2.6-2.6-3.5-3.6s-5-1.7-6.5-2.2s-4.7-2.6-6.1-2.6
	s-3.4-1.3-5.2-2.6s-4,0.2-5.4,0.5s-4.6-2.3-5.5-3s-4.7-2.5-6.4-3.7c-2.1-1.5-3.9-3.3-5.2-5.5c-1.2-2.3-0.5-5.7-0.5-5.7
	c-0.2-1.7-0.2-3.4-0.1-5.1c0.1-1.9,0.1-3.8,0-5.7c0,0-0.7-3.6-1.5-3.7c-1.7,0.1-3.3,0.3-5,0.6c0,0-8.7,1.7-10.4,2.5
	s-10.7,10.1-10.7,10.1l-4.2,1.3l-2.9,2.4c0,0-2.9,2.8-4.7,3s-2.4-1.6-3.6-1.5s-11.2,0.3-11.8,0.5s-4.4,2-6,1.6
	c-1.1-0.3-2.1-0.8-2.9-1.5c0,0-0.8-16.2-0.9-17.9s-8.2,7.7-8.2,7.7s-10,1.4-10.5,0s-3-5.1-3.6-5s-8.2-0.3-8.9,0s-0.3-1.1,0.4-2.1
	c0.6-1,1-2.1,1.2-3.2l-9.6-10.9l-5.4-7.5c1.2-0.7,2.4-1.6,3.5-2.5c0.6-0.7-1.6-1.7-1.6-1.7l0.5-3.4l7.5-6.4l-1.1-1.3l-0.6-3.3
	l3.4-5.4l-0.3-7l3.2-0.9l8.9-7.4c2.3-0.3,4.6-0.8,6.8-1.4c1.9-0.6,5.2-1.6,5.7-2.5s3.4-1,3.4-1l2.8,0.9c1.1,0.1,2.2,0.1,3.4,0
	c1.7-0.2,0.9-0.9,0.8-2.6s-0.9-1.3-1.4-2.2s-2.5-1.1-3.3-1c-1.2,0.2-2.4,0.2-3.6,0c-1.5-0.3,1.1-3.6,1.1-3.6s2.2-4.1,3.4-5.2
	s2.3-5.3,2.3-5.3s-2.6-1.3-3.6-1.7c-1.7-0.9-3.3-1.9-4.9-3.1c-1-0.5-2-0.7-3.1-0.6c-1.3,0.1-6,1.3-6,1.3s-3.3-1.4-4.5-1.3
	s-2.7,1.7-3.2,2.5s-2.6,1.4-3.9,1.6s-6.9,0.3-8.1,0.5s-1.5-5.3-1.7-7.5s-2.6,0-4.8,0s0.2-3.9,0-5.8s-3.4-1.2-4.3-2.2
	s-3.9-1.7-6.3-2.2s-1.5-2.4-1.9-5.3s-2.6-2.9-4.6-4.8s-2.9-1.7-5.2-2s-4.8,2-4.8,2c-0.5,0.4-0.9,1-1.2,1.7"/>
<path class="st7" d="M467.1,437.5c0,0,4.3-0.1,5-0.3s1,0.2,1.8,0s0.9-0.5,1.6-0.4c0.5,0.1,0.9,0.3,1.3,0.6c0.3,0.3,0.1,0.2,0.6,0.7
	c0.3,0.3,0.6,0.5,1,0.5"/>
<line class="st7" x1="482" y1="417.1" x2="468.9" y2="418.1"/>
<line class="st7" x1="481.9" y1="424.3" x2="468.3" y2="425.1"/>
<path class="st7" d="M485.4,411.4l1,0.5c0,0,0.4,0.2,0.5,0.2c0.4,0,0.7,0,1.1,0l1.6-0.4l3.9,1.3l4.9,2l3,1.1l2.7,0.2l2.9,0.8
	c0.8,0.3,1.7,0.5,2.6,0.5l0.3,1.9l0.7,0.8v1.3l0.5,0.6l0.5,0.4l0.1,2.1l0.5,1.1l-0.5,0.7l-1.2,1.1c0,0-0.2,7.5-0.3,7.3
	s6.4-0.2,6.4-0.2l0.9,0.2h0.5l0.2,0.6l-4.1,2.6l-0.1,1.2h-1l-0.6,0.4v0.8l-0.5,1.2l-1.7,2.5l0.4,3.7l-0.6,1.4l-0.3,2.4l-0.8,0.5
	l-1,0.5l-1.7,0.6l-2.1,0.5l-0.8-0.2l-0.1,0.8h-0.9l-0.3,0.9l-1,1.2"/>
<polyline class="st7" points="473.8,481.6 493,480 495.7,508.6 494.3,529 "/>
<path class="st7" d="M456.6,511.5c0.5,1.1,0.8,2.2,1.1,3.3c0.3,1.3,0.5,2.7,0.6,4c-0.1,0.6,0,1.2-0.5,1.1s-0.6,0.2-0.4,0.4
	s0.5-0.2,0.6,0.3s-0.3,0.7,0.1,0.7s0.7,0.1,1,0c0.2-0.1,0.4-0.1,0.6,0c-0.1,0.3,0,0.7,0.2,1c0.4,0.3,0.2,0.3,0.7,0.7
	s0.8,0.2,0.8,0.8c0,0.3,0,0.7,0,1l0.8,0.8l-0.3,1l-0.3,0.8l0.3,0.8c0,0,0.2,0,0.1,0.5c0,0.3,0,0.5,0.2,0.8c0,0,0.2,0.8,0.3,1
	c0,0.2,0,0.4,0,0.6l-1.4,0.5l1.1,3.9l-1.9,2.2l-3.3,1.2l-4.8-9.9l-1.2-0.2l0.2-0.8l-4.7-3.3l-1.5,0.4l-1.1,0.3l-0.5-1"/>
<polyline class="st7" points="457.2,538.9 454.5,550.3 455.8,560.8 "/>
<path class="st7" d="M435.9,546.4l3.2,2.5c0,0,1.4,1.5,1.3,1.8c0,0.4,0,0.8,0,1.3c0,0,0.5,0.1,0.6,0.9c0.3,0.8,0.6,1.6,0.7,2.4
	c0,0.9,0,3.5,0,3.3"/>
<path class="st7" d="M483.3,442.5l1.4,23l-11.9,17.3h-3.4l-2.5,0.5v1.1l-2.9-0.6l-1.7,4.2v4.2l-0.6,1.2l0.5,2l-0.5,1.7h-1.3v4
	l-0.4,1l-0.9,2l-1.1,0.4l-0.3,1.6l0.7,0.4c0,0,0.3,0.5,0.2,0.6s-0.7,0.2-0.7,0.2v0.7l0.8,1l0.3,0.5l-0.7,0.3c0,0-0.1,0.7-0.1,0.8
	c-0.1,0.2-0.1,0.4-0.2,0.6h-0.7l-0.4-0.2l-0.2,0.7l-1.3-0.2l-1.1-0.4l-2.3,3.5"/>
<line class="st7" x1="495.7" y1="508.6" x2="527.3" y2="505.9"/>
<path class="st7" d="M462.8,531.1l5.3-1.3c1-0.1,2-0.1,3,0c0.5,0.2,1.3,0.8,1.6,0.6c0.4-0.1,0.8-0.4,1-0.7l0.8,0.7l0.6,0.7h2.6
	c0.4,0.5,0.9,0.9,1.5,1.1h6.3v1.4h1.2l1.2,1.2l0.5,1.2v1.9l4.9-1.4"/>
<path class="st7" d="M444.4,561.5l2.2,1.1l1.7,0.6h1.6l1-0.8c0.4-0.1,0.9-0.1,1.4,0c0.3,0.1,0.6,0.1,0.9,0l0.7-1.5
	c1.5-0.2,3-0.2,4.4,0c0.9,0.2,1.8,0.5,2.6,1l1.5,1.2v1.6h1.8l1.4-0.7c0.3,0.9,0.5,1.9,0.5,2.9c0,1,0.4,1.2,0,2.3
	c-0.4,0.8-0.7,1.7-0.9,2.6c-0.1,0.7,0.6,1.3,0.4,1.7c-0.5,0.5-0.8,1.1-1.1,1.7c-0.2,0.7-0.2,1.5,0.1,2.2c0.2,0.4,0.3,0.8,0.5,1.3
	l-0.3,1.3"/>
<path class="st7" d="M559.5,496.6l-1.2-1.3c0,0-1,0.4-2.1,0.7c-0.9,0.3-1.8,0.4-2.7,0.5c-1.1,0.1-2.1-0.1-3.1-0.5
	c-0.8-0.5-1.6-0.9-2.4-1.3l-2.6-1.3c-0.8-0.1-1.6-0.5-2.3-1c-1-0.8-2.5-1.9-2.5-1.9v-2.2l0.8-1.4c0,0,1.2,0.5,1.4-1s0.2,0.5,0.2-1.5
	s-0.6-0.4,0-1.9c0.2-0.5,0.5-1,0.6-1.5l0.5-1.5v-1c0,0,1.1-1.2-0.2-1.9s-2.3-1.1-2.3-1.1s-2.3,0.2-2.3-1.2c0-0.7,0.2-1.3,0.5-1.9
	l0.8-1.4c0,0,1,1.2,1.4,1.5s1-0.2,1-0.2s-0.6-1-0.5-1.4l0.1-0.4l1-0.8l1.9-0.1l1,0.6l1.4,0.5c0,0,1,0.4,0.9,0.2c0-0.3,0-0.5,0.1-0.8
	l1.3,0.4l1.1,0.1l0.3-1l-0.8-0.8l-1.3-0.9l0.5-0.9c0.1-0.4,0.2-0.8,0.3-1.2c0-0.2-0.5-0.8-0.5-0.8H549l-0.8-0.3l-0.5-0.8l-1-0.4
	l-1.1-0.4l-0.3-0.8c0,0,0.7,0,0.4-0.9s-0.2,0.1-0.3-0.9l-0.1-1l0.5-0.6l0.4-0.7l-0.8-2l-0.6-1.6l-1.2-1.3l-0.4-1.5l0.2-1.4l1.3-0.4
	l0.4-0.8l-0.2-1.3L544,448l-1.3-0.5l-0.9-0.7h-1.3l-0.6-1.2l0-2.2l-0.2-1.3l-1-1l-0.2-1.8l-1.1-1l-0.8-1.4l0.4-1.4l0-0.8l-0.8-0.7
	l0-0.6l-2.7-2.1l0,0l-0.2-1.5l0.5-0.6l-0.5-0.6l0.2-0.6l-0.7-0.5l1.3-2.6l-0.8-0.5l0.8-1.2l-0.2-1.5l0.5-0.8l-1.2-1.3l0.9-0.4
	l-0.5-0.7l-1.3,0.1l0.7-0.7l0.9,0.1l-0.8-1.1l-0.8,0.9v-1.2l-0.6-1.5l0.4-0.6l-0.3-0.7l-0.8-0.5l-0.5-1.9l-0.6-0.3l0,0l-1.2-4
	l-0.1-0.3l-9.8-5.8l-10.8,0.5l-7.7,2.5l-13.1,2.6l-2.1,5.7l-3.7,5.7l0.5,6.3l-3.6,14.3l0.1,0.3l0.1,0.1l0.2,0.2l0.1,0.1l0.1,0.2
	c0,0,0.3,0.1,0.3,0.1c0.1,0.1,0.2,0.1,0.3,0.2l0.3,0.1l0.4,0.1l0.2,0.1c0,0,0.2,0.1,0.2,0.1c0,0.1,0.1,0.1,0.1,0.2l0.1,0.1l0.2,0.3
	l0.3,0.3h0.6h0.4h0.6l-0.1,0.3l0.1,0.1l0.2-0.1l0.1,0.2l0.3,0.2l-0.1,0.4l-0.1,0.4l0.3,0.2l0.1-0.1l0.3,0.2v0.4v0.3l0.3,0.2l0.2,0.3
	v0.2l0.3,0.1l0.1,0.4l0.3,0.1v0.2l0.3-0.1l0.1,0.1l0.1,0.3l0.5,0.3l0.2,0.5h0.2l0.1,0.8l0.2,0.2l0.1,0.2l0.3,0.1l0.3,0.3l0.2,0.1
	l0.2-0.1l0.2,0.2h0.4l0.3,0.5l0.1,0.1l0.3,0.3l0.5,0.1h0.2l0.1,0.7h0.3l0.4,0.4h0.9l0.3,0.2l0.2,0.1l0.1,0.3h0.6v0.4l0.5,0.5h0.5
	l0.2,0.2l0.6,0.2l0.3-0.1v0.2h0.6l0.2,0.2l0.1,0.3l0.3,0.3l0.3,0.1l0.5-0.1l0.1,0.2l0.3,0.2l0.4,0.1l0.2,0.2v0.5l0.3,0.4l0.4,0.3
	l0.4,0.4l0.1,0.3l0.5,0.5l0.1-0.1l0.3,0l0.1-0.1l0.1,0.1l0.4,0.3l0.6,0.3h0.3h0.4h0.4l0.6,0.1l0.4,0.2h0.6l0.2,0.1v0.3l0.1,0.2h0.2
	h0.1l0.4,0l0.1-0.1h0.3l0.3,0.1l0.3,0.1l0.4,0.1l0.2,0.2l0.2,0.2h0.1h0.3l0.3,0.2h0.4l0.4-0.1h0.5l0.7-0.1l0.3-0.1l0.4-0.1
	c0.1,0,0.2-0.1,0.3-0.1c0.1,0,0.1,0,0.2,0l6.7,3.5v0.2l0.2,0.1v0.2l0.1,0.2h0.2l0.2,0.2h0.2h0.2l0.1,0.2l0.1,0.3l0.3,0.5h0.2
	l0.2,0.1l0.3,0.2h0.3l0.1,0.1l0.2,0.3l0.4,0.1l0.4,0.3c0.1,0,0.1,0.1,0.2,0.1c0.1,0.1,0.1,0.1,0.2,0.1l0.2,0.2h0.5l0.3,0.1l0.2,0.1
	l0.2,0.2h0.4h0.3l0.4,0.3l0.3,0.2l0.4,0.3h0.3l0.5,0.4l0.3,0.1h0.7l0.2,0.4l0.1,0.2h0.1h0.2l0.3-0.1h0.4l0.2-0.1l0.3,0.1h0.3h0.1
	l0.2,0.1l0.6,0.2l0.5,0.4l0,0.3l0.3,0.2l0.2,0.2l0.4,0.4l0.2,0.2l0.2-0.1l0.4-0.5l0.5-0.3l0.2,0.1l0.2,0.2l0.2,0.2l0.4,0l0.1,0.2
	l0.3,0.3h0.4l0.1,0.2h0.2h0.6l0.1,0.4l0.3,0.1l0.4-0.1h0.8l0.3,0.3l0.3,0.4l0.5,0.2l0.3,0.5v0.2l0.6,0.8v0.3h0.4l1.2,1.2l0.2,1.1
	l-0.2,1.1l-1,1.2l-0.7,1.6c0.1,0.5,0.1,1,0,1.5c-0.2,0.4-0.4,0.8-0.6,1.2c-0.3,0.3-0.6,0.6-1,0.9c0,0-1-0.5-1.3,0
	c-0.3,0.3-0.5,0.7-0.5,1.2c-0.1,0.5,0.3,1.2,0,1.6s0.3,1.1,0,1.7c-0.3,0.6-0.4,1.2-0.4,1.8c-0.1,0.5-0.2,1-0.5,1.5
	c-0.1,0.3-1,1.4-1.2,1.9c-0.3,0.6-0.6,1.2-0.9,1.8c-0.4,0.2-0.8,0.3-1.2,0.5c-0.4,0.1-1,0.1-1,0.6c0.1,0.5,0.2,0.9,0.5,1.3v1.5
	c0,0,1.6-0.7,2.2-0.8c0.6-0.3,1.3-0.6,2-0.7c0.7-0.2,1.4-0.2,2.1,0.1c1.1,0.4,2.8,0.8,2.8,0.8l1.8,0.7l2.5,0.4
	c1.4,0.4,2.8,0.5,4.2,0.5c1.6-0.3,2.6-0.5,2.6-0.5c0.3-0.1,0.6-0.1,0.8-0.2l1.3,0.1l1.3,0.6c0.2,0.1,0.4,0.2,0.6,0.2l0.8-0.2
	l0.7,0.7l0,0c0.7-0.6,1.8-1.5,1.8-1.5h1.2l1.3-0.7L559.5,496.6z"/>
<path class="st7" d="M519.6,540.9v-0.8l0.8-1.3c0.1-0.6,0.1-1.1,0.1-1.7c-0.1-0.6-0.2-1.3-0.2-1.9l-0.3-2.1l1.1-1.5l-0.2-1.5
	l-0.9-1.5l0.5-1.4c0,0-0.4-1.1-0.5-1.4c0.1-0.7,0.3-1.3,0.5-2c0.1-0.3,0.2-0.7,0.3-1.4s0.6-1.5,1.3-1.7s0.5-0.6,0.9-1
	c0.4-0.4,0.7-0.9,1-1.3c0.2-0.6,0.3-1.2,0.3-1.8c0.2-0.6,0.4-1.2,0.7-1.7c0,0,0-1.5,0-1.8s0-1.9,0-1.9s0.1-1,0.1-1.6
	c-0.1-0.6-0.1-1.2,0-1.7c0.2-0.9,0.6-0.2,1-0.4c0.6-0.3,1-0.9,1.1-1.6c0.1-0.7,0,0-0.3-0.7s0.1-0.9,0.3-1.3c0.2-0.4,0.3-0.8,0.4-1.2
	c-0.2-0.4-0.5-0.8-0.7-1.2c-0.3-0.4-0.4-0.8-0.5-1.2c0.3-0.6,0.7-1.1,1.1-1.6l1.3-0.9l0.5-0.3"/>
<path class="st7" d="M450.5,472.4c0.5,0,1.3-0.9,1.3-0.9"/>
<path class="st7" d="M455.7,470.2c0.4,0,0.8,0.1,1,0.3c0.3,0.5,0.9,0.1,1.5-0.3c0.6-0.3,1.2-0.6,1.8-0.8c0.6-0.5,0.9-1.3,1-2.1
	c-0.1-0.4,0.3-0.9,0-2s-0.8-5.4-0.8-5.4"/>
<line class="st8" x1="462.7" y1="451.2" x2="467.2" y2="437.8"/>
<path class="st11" d="M471.7,563.7c-0.1-0.8-0.1-1.5,0-2.3l-1.4-2c-0.1-0.7-0.3-1.4-0.5-2c-0.2-0.7-0.2-1.6,0-2.3l0.9-1.3
	c0,0,1.3-0.3,2.1-0.5s5.7-1.1,6.8-1.2s7.6-0.7,8.1-1s2.3-0.8,2.2-3c0,0,1.4,0.1,1.5-0.4s0.2-1.7,0.2-1.7l1.8-0.6c0,0-0.2-3-0.4-3.8
	c0-1,0.1-2,0.4-2.9v-2.2c-0.3-0.5-0.6-1-0.9-1.5c-0.4-0.7-1-0.9-0.9-1.7c-0.1-0.7,0-1.4,0.3-2.1c0.4-0.6,0.6-1.8,1.5-1.9
	s1-1.4,2-1.3c0.9-0.1,1.8,0.3,2.4,0.9c0.5,0.6,0.3,1.4,0.8,1.4s1.5-0.2,2,0.5s0.8,0.5,1.2,1.1s1,2.1,1,2.1c0.2,0.8,0.5,1.7,0.8,2.4
	c0.5,0.9,0.5,2.1,1.4,2.4s1.6,0.3,2.7,0.7c0.8,0.4,1.5,0.9,2.2,1.5c0.9-0.4,1.7-0.9,2.4-1.5c0.5-0.7,1.5-2.5,1.5-2.5l1-2.9l1.6-0.7
	c0.5,1.1,0.8,2.2,0.9,3.4c0,1.5-0.5,1.9,0,3.2s0.5,2,1.6,1.5s1.5-0.1,2-1.2c0.4-0.9,0.7-1.9,0.8-2.9v-3l1.2-1.8l2-1l1.7-1.5l1.3-1.5
	l0.5-1.5v-3.3l0.6-1.4l0.7-1.5c0,0,2.2-2.2,3-2.9c0.8-0.6,1.6-1.2,2.4-1.7l2.5-1.4c0,0,4.5-0.8,5.6-1.5s5.2-1.9,6.7-4.2s2.6-4,2.6-4
	c0.4-1.3,0.8-2.6,1-3.9c0.2-1.5,0.9-1.8,1.6-2.4s1.8-1.5,1.8-1.5h1.2l1.3-0.8l-1.2-1.3c0,0-1,0.4-2.1,0.7c-0.9,0.3-1.8,0.4-2.7,0.5
	c-1.1,0.1-2.1-0.1-3.1-0.5c-0.8-0.5-1.6-0.9-2.4-1.3l-2.6-1.3c-0.8-0.1-1.6-0.5-2.3-1c-1-0.8-2.5-1.9-2.5-1.9v-2.2l0.8-1.4
	c0,0,1.2,0.5,1.4-1s0.2,0.5,0.2-1.5s-0.6-0.4,0-1.9c0.2-0.5,0.5-1,0.6-1.5l0.5-1.5v-1c0,0,1.1-1.2-0.2-1.9s-2.3-1.1-2.3-1.1
	s-2.3,0.2-2.3-1.2c0-0.7,0.2-1.3,0.5-1.9l0.8-1.4c0,0,1,1.2,1.4,1.5s1-0.2,1-0.2s-0.6-1-0.5-1.4l0.1-0.4l1-0.8l1.9-0.1l1,0.6
	l1.4,0.5c0,0,1,0.4,0.9,0.2c0-0.3,0-0.5,0.1-0.8l1.3,0.4l1.1,0.1l0.3-1l-0.8-0.8l-1.3-0.9l0.5-0.9c0.1-0.4,0.2-0.8,0.3-1.2
	c0-0.2-0.5-0.8-0.5-0.8H549l-0.8-0.3l-0.5-0.8l-1-0.4l-1.1-0.4l-0.3-0.8c0,0,0.7,0,0.4-0.9s-0.2,0.1-0.3-0.9l-0.1-1l0.5-0.6l0.4-0.7
	l-0.8-2l-0.6-1.6l-1.2-1.3l-0.4-1.5l0.2-1.4l1.3-0.4l0.4-0.8l-0.2-1.3L544,448l-1.3-0.5l-0.9-0.7h-1.3l-0.6-1.2l0-2.2l-0.2-1.3l-1-1
	l-0.2-1.8l-1.1-1l-0.8-1.4l0.4-1.4l0-0.8l-0.8-0.7l0-0.6l0-0.8l-1-1.5l-0.2-1.3l0.8-1.6l1.5-1.4l0.5-1.1H536l-0.9-0.4l-0.1-1.6
	l0-1.3l0.1-1.2l0.4-1.2l0.6-1c0.3-0.7,0.7-1.5,1.1-2.1h1.1l1-1.2l0-1.7l0.6-1.3l0.3-1.6l-0.8-1.1l-1-0.6l-0.8-1.9L537,406l-1.2,0.3
	l-1.3,1.2l-1.6,1.2l-1.9,0.6l-1.1,1.6l-1.3-4.2l1.9-3.2l0.8-1.1l0.7-1.1l-0.4-1h-1.9l-1.4-0.5l-1.6-0.7l0.1-1.6l-1.6-0.7l-2.1-1.1
	l-2.3-1.5l-1.7-0.5l-5.7-1.1h-2.6c-0.9-0.2-1.8-0.5-2.6-0.9l-2.8-1.4l-0.6-1.9l0.5-2l-0.1-1.8h-1.2l-1.7,0.8l-2.6,0.6
	c0,0,0.8,1.5-2.4,0.5l-3.2-1l-3.3-1l-3-2.2h2v-2.2l-2.9-1.6l-2.3-0.8l-2.2-0.8c-0.6-0.1-1.3-0.4-1.8-0.7l-1.3-0.7h-1.5
	c0,0,0.5,0.9,0.3,1.3c-0.2,0.3-0.5,0.4-0.8,0.4c0.1,0.4,0.1,0.8,0.1,1.2c-0.2,0.3-0.3,0.6-0.5,0.9l-1.2,0.1h-0.7l0.1,1.2l-0.5,0.5
	l-0.7-0.1c0,0-0.1-0.2-0.4,0.5c-0.2,0.6-0.2,1.2-0.2,1.7c-0.1,0.5-0.1,0.9-0.1,1.4l0.5,1.5l-0.1,1.1l-0.7,0.9l-0.1,1l-0.6,1.3
	l-1.1,0.7l-0.8,1.1l-1.4-0.6l-0.3,1.9l0.4,2.2l-0.2,0.9l0.9,1.2l-0.7,1.5l-2,2.3l0.9,3.3l0.8,2.4l0.5,3v4.9l-0.2,2.9l-0.1,4.5
	l-0.6,3.7l-1.3,3.1v3.7l0.3,4.7l-0.8,3.7v4.1l-0.8,3.9l-1.1,2.9l-1.3,2.8l-1,2.7l-2.2,2.5l-1.9,1.6l-0.7,3.3l-0.7,3.3l-0.8,3.3
	l-0.8,1.5l-1.6,0.4l-1.3-2c0,0-1.2-2-1.6-1.3s0.6,3,0.6,3l-0.7,1.2l-1.9,1.3v2.1l-0.7,1.2l1.7,2.3l-0.6,3.4l1.9-0.5l1.9-1.3l2.9,1.6
	l-1,1.7l-0.1,2.2L454,490l-2.3,1.3L451,494l1.2,3.5l1.9,0.1l1.3-2.5c-0.1-1.2,0.2-2.4,0.8-3.4l1.1-1.7c0,0,1.7,0,1.6,3.5
	s1.3,1.5-0.1,3.5s1.5,1.6-1.5,2s-1.7-2.5-2.9,0.5s-1.6,2.9-2.6,4.3c-2,3-1.6-1.3-1.7,2.3s-3-2.2-0.7,2.5c2.3,4.7,1.2,0,1.8,3.9
	c0.6,3.9,0.8,0,0.6,3.3l-0.2,3.3l-2.3,2.8l-1.8,1.5c-1.1,0.6-2.3,1-3.5,1.2c-1.1,0-2.3,1-3.1,1.8s-1.9,1.2-1.7,3
	c0.1,1.2,0.1,2.4,0,3.5v6.2c0,0-0.9,2.5-1.8,5.1s-1.9,3.5-2.5,2.9c-0.5-0.4-1.1-0.6-1.7-0.6c0,0-1.9-0.2-1.2,1s1.8,2.9,1.8,2.9
	l2.7,3.5c0,0-0.3,3.3,0.9,2.3l1.2-1c0.6,0.4,1.1,0.9,1.6,1.3c0.3,0.5,0.7,1,1.1,1.5c2.2,2.3,3.5,3.9,3.5,3.9l-1.3,2.3
	c0,0-1.1,1.8-0.6,2.3c0.3,0.3,2-0.8,2.3-0.5c0.2,0.2,0.3,0.5,0.4,0.8c-0.1,1.2,0,2.4,0.1,3.6c0.4,2.8,0.8,5.5,0.8,5.5
	s1.5,6.4,2.9,5.5c0.9-0.5,1.7-0.9,2.6-1.3c0,0,3.4-2,3.5-2.9c0.2-0.9,0.5-1.8,0.8-2.7l1-1.5l3,2c0,0,2.2-0.8,2.3,1.1
	s0.4,3.7,0.4,3.7l2.6,0.4l2.5-2.7v-4.9l0.3-0.9l-0.1-2l0.6-1.5l0.2-1.2l0.7-0.5l0.7,0.6c0.5,0.4,0.8,1.4,1,1.5
	c0.3,0.2,0.8,0.2,1.1,0l-0.4-2L471.7,563.7z"/>
<path class="st12" d="M417.5,341.4c1.4-0.3,2.9-0.4,4.3-0.4c2.4,0,3.9,0.4,5,1.3c1,0.8,1.6,2,1.5,3.2c-0.1,1.9-1.3,3.5-3.1,4v0
	c2.2,0.4,3.7,2.3,3.8,4.6c0,1.4-0.5,2.7-1.5,3.6c-1.3,1.2-3.3,1.7-6.3,1.7c-1.2,0-2.4-0.1-3.6-0.2V341.4z M419.9,348.8h2.1
	c2.5,0,3.9-1.3,3.9-3c0-2.1-1.6-3-4-3c-0.7,0-1.4,0-2.1,0.2L419.9,348.8z M419.9,357.6c0.7,0.1,1.3,0.1,2,0.1c2.4,0,4.7-0.9,4.7-3.5
	c0-2.5-2.1-3.5-4.7-3.5h-1.9L419.9,357.6z"/>
<path class="st12" d="M449.1,350c0,6.3-3.8,9.6-8.5,9.6c-4.8,0-8.2-3.7-8.2-9.2c0-5.8,3.6-9.6,8.5-9.6S449.1,344.7,449.1,350z
	 M434.9,350.3c0,3.9,2.1,7.4,5.8,7.4s5.8-3.4,5.8-7.6c0-3.6-1.9-7.4-5.8-7.4S434.9,346.4,434.9,350.3L434.9,350.3z"/>
<path class="st12" d="M453.5,341.1h2.4v16.2h7.8v2h-10.1V341.1z"/>
<path class="st12" d="M469.9,341.1v18.2h-2.4v-18.2H469.9z"/>
<path class="st12" d="M479.4,359.3l-5.9-18.2h2.6l2.8,9c0.8,2.5,1.5,4.7,1.9,6.8h0c0.5-2.1,1.3-4.4,2.1-6.8l3.1-9h2.5l-6.5,18.2
	L479.4,359.3z"/>
<path class="st12" d="M494.1,341.1v18.2h-2.4v-18.2H494.1z"/>
<path class="st12" d="M502.5,353.6l-1.9,5.7h-2.4l6.2-18.2h2.8l6.2,18.2h-2.5l-1.9-5.7H502.5z M508.5,351.8l-1.8-5.2
	c-0.4-1.2-0.7-2.3-1-3.3h0c-0.3,1.1-0.6,2.2-0.9,3.3l-1.8,5.3H508.5z"/>
<path class="st12" d="M417.5,341.4c1.4-0.3,2.9-0.4,4.3-0.4c2.4,0,3.9,0.4,5,1.3c1,0.8,1.6,2,1.5,3.2c-0.1,1.9-1.3,3.5-3.1,4v0
	c2.2,0.4,3.7,2.3,3.8,4.6c0,1.4-0.5,2.7-1.5,3.6c-1.3,1.2-3.3,1.7-6.3,1.7c-1.2,0-2.4-0.1-3.6-0.2V341.4z M419.9,348.8h2.1
	c2.5,0,3.9-1.3,3.9-3c0-2.1-1.6-3-4-3c-0.7,0-1.4,0-2.1,0.2L419.9,348.8z M419.9,357.6c0.7,0.1,1.3,0.1,2,0.1c2.4,0,4.7-0.9,4.7-3.5
	c0-2.5-2.1-3.5-4.7-3.5h-1.9L419.9,357.6z"/>
<path class="st12" d="M449.1,350c0,6.3-3.8,9.6-8.5,9.6c-4.8,0-8.2-3.7-8.2-9.2c0-5.8,3.6-9.6,8.5-9.6S449.1,344.7,449.1,350z
	 M434.9,350.3c0,3.9,2.1,7.4,5.8,7.4s5.8-3.4,5.8-7.6c0-3.6-1.9-7.4-5.8-7.4S434.9,346.4,434.9,350.3L434.9,350.3z"/>
<path class="st12" d="M453.5,341.1h2.4v16.2h7.8v2h-10.1V341.1z"/>
<path class="st12" d="M469.9,341.1v18.2h-2.4v-18.2H469.9z"/>
<path class="st12" d="M479.4,359.3l-5.9-18.2h2.6l2.8,9c0.8,2.5,1.5,4.7,1.9,6.8h0c0.5-2.1,1.3-4.4,2.1-6.8l3.1-9h2.5l-6.5,18.2
	L479.4,359.3z"/>
<path class="st12" d="M494.1,341.1v18.2h-2.4v-18.2H494.1z"/>
<path class="st12" d="M502.5,353.6l-1.9,5.7h-2.4l6.2-18.2h2.8l6.2,18.2h-2.5l-1.9-5.7H502.5z M508.5,351.8l-1.8-5.2
	c-0.4-1.2-0.7-2.3-1-3.3h0c-0.3,1.1-0.6,2.2-0.9,3.3l-1.8,5.3H508.5z"/>
<path class="st4" d="M417.5,341.4c1.4-0.3,2.9-0.4,4.3-0.4c2.4,0,3.9,0.4,5,1.3c1,0.8,1.6,2,1.5,3.2c-0.1,1.9-1.3,3.5-3.1,4v0
	c2.2,0.4,3.7,2.3,3.8,4.6c0,1.4-0.5,2.7-1.5,3.6c-1.3,1.2-3.3,1.7-6.3,1.7c-1.2,0-2.4-0.1-3.6-0.2V341.4z M419.9,348.8h2.1
	c2.5,0,3.9-1.3,3.9-3c0-2.1-1.6-3-4-3c-0.7,0-1.4,0-2.1,0.2L419.9,348.8z M419.9,357.6c0.7,0.1,1.3,0.1,2,0.1c2.4,0,4.7-0.9,4.7-3.5
	c0-2.5-2.1-3.5-4.7-3.5h-1.9L419.9,357.6z"/>
<path class="st4" d="M449.1,350c0,6.3-3.8,9.6-8.5,9.6c-4.8,0-8.2-3.7-8.2-9.2c0-5.8,3.6-9.6,8.5-9.6S449.1,344.7,449.1,350z
	 M434.9,350.3c0,3.9,2.1,7.4,5.8,7.4s5.8-3.4,5.8-7.6c0-3.6-1.9-7.4-5.8-7.4S434.9,346.4,434.9,350.3L434.9,350.3z"/>
<path class="st4" d="M453.5,341.1h2.4v16.2h7.8v2h-10.1V341.1z"/>
<path class="st4" d="M469.9,341.1v18.2h-2.4v-18.2H469.9z"/>
<path class="st4" d="M479.4,359.3l-5.9-18.2h2.6l2.8,9c0.8,2.5,1.5,4.7,1.9,6.8h0c0.5-2.1,1.3-4.4,2.1-6.8l3.1-9h2.5l-6.5,18.2
	L479.4,359.3z"/>
<path class="st4" d="M494.1,341.1v18.2h-2.4v-18.2H494.1z"/>
<path class="st4" d="M502.5,353.6l-1.9,5.7h-2.4l6.2-18.2h2.8l6.2,18.2h-2.5l-1.9-5.7H502.5z M508.5,351.8l-1.8-5.2
	c-0.4-1.2-0.7-2.3-1-3.3h0c-0.3,1.1-0.6,2.2-0.9,3.3l-1.8,5.3H508.5z"/>
<path class="st4" d="M417.5,341.4c1.4-0.3,2.9-0.4,4.3-0.4c2.4,0,3.9,0.4,5,1.3c1,0.8,1.6,2,1.5,3.2c-0.1,1.9-1.3,3.5-3.1,4v0
	c2.2,0.4,3.7,2.3,3.8,4.6c0,1.4-0.5,2.7-1.5,3.6c-1.3,1.2-3.3,1.7-6.3,1.7c-1.2,0-2.4-0.1-3.6-0.2V341.4z M419.9,348.8h2.1
	c2.5,0,3.9-1.3,3.9-3c0-2.1-1.6-3-4-3c-0.7,0-1.4,0-2.1,0.2L419.9,348.8z M419.9,357.6c0.7,0.1,1.3,0.1,2,0.1c2.4,0,4.7-0.9,4.7-3.5
	c0-2.5-2.1-3.5-4.7-3.5h-1.9L419.9,357.6z"/>
<path class="st4" d="M449.1,350c0,6.3-3.8,9.6-8.5,9.6c-4.8,0-8.2-3.7-8.2-9.2c0-5.8,3.6-9.6,8.5-9.6S449.1,344.7,449.1,350z
	 M434.9,350.3c0,3.9,2.1,7.4,5.8,7.4s5.8-3.4,5.8-7.6c0-3.6-1.9-7.4-5.8-7.4S434.9,346.4,434.9,350.3L434.9,350.3z"/>
<path class="st4" d="M453.5,341.1h2.4v16.2h7.8v2h-10.1V341.1z"/>
<path class="st4" d="M469.9,341.1v18.2h-2.4v-18.2H469.9z"/>
<path class="st4" d="M479.4,359.3l-5.9-18.2h2.6l2.8,9c0.8,2.5,1.5,4.7,1.9,6.8h0c0.5-2.1,1.3-4.4,2.1-6.8l3.1-9h2.5l-6.5,18.2
	L479.4,359.3z"/>
<path class="st4" d="M494.1,341.1v18.2h-2.4v-18.2H494.1z"/>
<path class="st4" d="M502.5,353.6l-1.9,5.7h-2.4l6.2-18.2h2.8l6.2,18.2h-2.5l-1.9-5.7H502.5z M508.5,351.8l-1.8-5.2
	c-0.4-1.2-0.7-2.3-1-3.3h0c-0.3,1.1-0.6,2.2-0.9,3.3l-1.8,5.3H508.5z"/>
<path class="st12" d="M542.5,472.7l-1.9,5.7h-2.4l6.2-18.2h2.8l6.2,18.2h-2.5l-1.9-5.7H542.5z M548.5,470.9l-1.8-5.2
	c-0.4-1.2-0.7-2.3-0.9-3.3h0c-0.3,1.1-0.6,2.2-0.9,3.3l-1.8,5.3H548.5z"/>
<path class="st12" d="M571.3,477.6c-1.8,0.6-3.7,1-5.6,1c-4.7,0.5-8.9-3-9.3-7.7c0-0.5-0.1-1,0-1.5c0-5.4,3.8-9.4,9.8-9.4
	c1.6,0,3.1,0.2,4.5,0.8l-0.6,1.9c-1.3-0.5-2.6-0.8-4-0.8c-4.4,0-7.3,2.8-7.3,7.3s2.8,7.3,7,7.3c1.1,0.1,2.1-0.1,3.1-0.5v-5.4h-3.7
	v-1.9h6L571.3,477.6z"/>
<path class="st12" d="M578.6,460.2V471c0,4.1,1.8,5.8,4.2,5.8c2.7,0,4.4-1.8,4.4-5.8v-10.8h2.4v10.6c0,5.6-2.9,7.9-6.9,7.9
	c-3.7,0-6.5-2.1-6.5-7.8v-10.7H578.6z"/>
<path class="st12" d="M598,472.7l-1.9,5.7h-2.4l6.2-18.2h2.8l6.2,18.2h-2.5l-1.9-5.7H598z M604,470.9l-1.8-5.2
	c-0.4-1.2-0.7-2.3-1-3.3h0c-0.3,1.1-0.6,2.2-0.9,3.3l-1.8,5.3L604,470.9z"/>
<path class="st12" d="M617,478.4v-7.7l-5.8-10.5h2.7l2.6,5c0.7,1.4,1.2,2.5,1.8,3.8h0c0.5-1.2,1.1-2.4,1.8-3.8l2.6-5h2.7l-6.1,10.5
	v7.8L617,478.4z"/>
<path class="st4" d="M497.7,460.5c1.5-0.2,3-0.4,4.5-0.4c1.8-0.1,3.6,0.4,5.1,1.5c1.1,1,1.6,2.4,1.6,3.8c0.1,1.4-0.4,2.8-1.4,3.9
	c-1.5,1.4-3.5,2.1-5.6,2c-0.6,0-1.3,0-1.9-0.2v7.3h-2.4V460.5z M500.1,469.2c0.6,0.1,1.3,0.2,1.9,0.2c2.8,0,4.6-1.4,4.6-3.9
	s-1.7-3.5-4.3-3.5c-0.7,0-1.5,0-2.2,0.2V469.2z"/>
<path class="st4" d="M516.4,472.7l-1.9,5.7h-2.4l6.2-18.2h2.8l6.2,18.2h-2.5l-1.9-5.7H516.4z M522.4,470.9l-1.8-5.2
	c-0.4-1.2-0.7-2.3-1-3.3h0c-0.3,1.1-0.6,2.2-0.9,3.3l-1.8,5.3L522.4,470.9z"/>
<path class="st4" d="M531.3,460.5c1.5-0.3,3-0.4,4.5-0.4c2.5,0,4.1,0.5,5.3,1.5c1,0.9,1.5,2.2,1.4,3.5c0,2.1-1.4,4-3.4,4.6v0.1
	c1.4,0.5,2.2,1.8,2.7,3.7c0.3,1.7,0.8,3.4,1.4,5h-2.4c-0.5-1.4-0.9-2.9-1.2-4.4c-0.5-2.5-1.5-3.5-3.6-3.5h-2.2v7.9h-2.3V460.5z
	 M533.7,468.8h2.4c2.5,0,4.1-1.4,4.1-3.5c0-2.4-1.7-3.4-4.2-3.4c-0.8,0-1.6,0.1-2.3,0.2V468.8z"/>
<path class="st4" d="M550.2,472.7l-1.9,5.7h-2.4l6.2-18.2h2.8l6.2,18.2h-2.5l-1.9-5.7H550.2z M556.2,470.9l-1.8-5.2
	c-0.4-1.2-0.7-2.3-1-3.3h0c-0.3,1.1-0.6,2.2-0.9,3.3l-1.8,5.3L556.2,470.9z"/>
<path class="st4" d="M578.9,477.6c-1.8,0.6-3.7,1-5.6,1c-4.7,0.5-8.9-3-9.3-7.7c0-0.5-0.1-1,0-1.5c0-5.4,3.8-9.4,9.8-9.4
	c1.6,0,3.1,0.2,4.5,0.8l-0.6,1.9c-1.3-0.5-2.6-0.8-4-0.8c-4.4,0-7.3,2.8-7.3,7.3s2.8,7.3,7,7.3c1.1,0.1,2.1-0.1,3.1-0.5v-5.4h-3.7
	v-1.9h6L578.9,477.6z"/>
<path class="st4" d="M586.2,460.2V471c0,4.1,1.8,5.8,4.2,5.8c2.7,0,4.4-1.8,4.4-5.8v-10.8h2.4v10.6c0,5.6-2.9,7.9-6.9,7.9
	c-3.7,0-6.5-2.1-6.5-7.8v-10.7H586.2z"/>
<path class="st4" d="M605.6,472.7l-1.9,5.7h-2.4l6.2-18.2h2.8l6.2,18.2H614l-1.9-5.7H605.6z M611.6,470.9l-1.8-5.2
	c-0.4-1.2-0.7-2.3-1-3.3h0c-0.3,1.1-0.6,2.2-0.9,3.3l-1.8,5.3L611.6,470.9z"/>
<path class="st4" d="M624.6,478.4v-7.7l-5.8-10.5h2.7l2.6,5c0.7,1.4,1.2,2.5,1.8,3.8h0.1c0.5-1.2,1.1-2.4,1.8-3.8l2.6-5h2.7
	l-6.1,10.4v7.8H624.6z"/>
<path class="st13" d="M283.9,92.2c0.2-1.7,0.3-3.3,0.3-5l3.3-3.8l7.1-3.2c0,0,3.5-3.7,3.6-5.6s0-6.1,0.4-7.3s2.1-6.1,2.5-6.8
	s4.1-2.5,4.7-2.8s10.9-3.8,10.9-3.8l10.9-3.2l9.1-8.7c0,0,6.2-4.8,7.9-4.4s2.1,5.3,2.1,5.3s-2.4,5.7-3.5,6s-5.7,2.8-5.7,2.8l1.1,4.5
	l2.2,3.2c0,0-1.3,4.4-2,5.4s-1.8,6.4-1.8,6.4l2.6,3.3c0,0,5.6-1.7,5.3-2.8s4.4-4.2,4.4-4.2l-2.9-5.3l-3.1-5.5l3.8-2.3l4.4-1.1
	l2.2-2.6l3.5-3.9l2.8-1l2.6-0.5l2.7,1.5c1.4-1.1,3-1.8,4.7-2.3h4.1l3.6,1.4l2.5,3.8l1.9,3.3l7.5,0.7l4.6,0.3l3-3.5l3.3-1.4l2.6,2.2
	l2.6,2.9l4.8,1.2l6.7-0.5l7.1-2.6l6.8-2.8l8.3-3.2l6.3-1l3.5-0.5l11.1-0.4l2.5-4.1l4.4,0.3l1.4,3.1c0,0,2.5,1.1,2,2
	c-1,1.2-2.2,2.3-3.4,3.3l-2.7,2.4l1.7,3.1L470,56l3.3,2c0,0,2.6,2.7,2.6,3.4s1.6,4,1.6,4c1.3,0.7,2.6,1.3,4,1.6
	c1.1,0.1,7.9,2.1,7.9,2.1l6.9,3.2l5,2.2l2.7,4.9l-0.5,7.4l13,0.8l8.4,5.2L544,94l7.5-4.3l12.3,0.7l7.7,5.2l15.8,2.9l9.7,7.5l5.2,5
	l4.2,8.4l4,10l6,9.8L616,145l-10.1,10.1l-6.6,5.5l-2.3,3.9l-0.5,6.2l1.8,2.6l2.7,0.2l2.4,0.1l3.2-2.4l3.6-8.5l1.8-1.9h2.9l18.1,1.5
	l3.2,4.1l-6.7,7.4l-3.9,7.1l3.3,2.8l15-18.9l13.6-0.8l14.9,2.6l3.7,2.4l3.6,2.5l4.7,2.5l4.1,2.3l1.7,1.9l-0.3,5.1l0.8,4.1l2,0.1
	l6.4-3.9l11.4-1.5l3,1.6l6.2,3.8l5,3.2l8.9,1.4l8.9,1.4l8.2,1.4l5.8,7.1l4.2,5.6l4.5,5.4l3.3,5.2l5.1,1.3l10.9,5.6l4,6.1l3.9,7
	l0.3,9l-0.4,6.9l0.3,10.4l-4.4,12.3l-2.9,5l-9,8.8l-5.2,6.3l-4.1,7.3l-1.5,5.6l-1.1,6.1l-4.2,0.6l-4-0.2l-3.1,2.8l-2.1,17.1l0.1,9.5
	l2,6.5l-1.1,7.2l-6.3,15.7l-1.4,8.6l-2.1,9.7l-4.6,8l-3.3,6.7l-4.2,7c0,0-1.7,3.2-2,3.9s-0.8,5.1-0.8,5.1l-5.2,6.3l-15.9,6.5
	l-10.5,3.2l-4.5-0.3l-4.7,2.7l-3.8,2.5l-25.4,12.5l-11,10.2l-3.8,11l-1.1,12.2V502l-0.8,1.9L629.8,516c0,0-4.5,6-4.7,6.6
	s-4.8,7.8-4.8,7.8l-3.7,6.3c0,0-1.8,3.5-2.4,5s-3.6,3.2-3.6,3.2l-1.1-4.4l1.5-4.6l2.3-4.5c0,0,3.7-4.3,1-3.2l-2.7,1
	c0,0,0.4-1.4-2.2,2.5l-2.6,3.8l-2,5.1l0.7,5.9l-2,1.6l-4.3,1.8l-4.2,3.4l-4.8,4.9l0.8,3.7l3.4-1.7l4.1-4.4l2.9-2.9l1.7,0.3
	c0,0,3,1.4,0.3,4l-2.7,2.6l-3.9,4.3c0,0-11,14.2-11.5,14s-7.3,3-7.3,3l-8.7,1.4l-5.8-0.3l-7.6,3l-4.7,5.8l1.1,4l1.4,2.8l4.3,0.3
	l1.3,2l-4.6,18.7l-12.2,9.8l-14.9,6.4l-9.8,2.4l-10.2,0.4c0,0-1.1,13.6-1.2,14.1s-2.5,7.6-2.5,7.6l-5.1,2.5l-7,2l-11.5-0.7l-1,3.2
	l7.5,7.9l1.6,4.6l4.5-0.9l3.9,1.4v2.8l-8,4.5l-0.6,10.2l-1.1,7.5l-5.3,7.8l-6.7,7.9l-3.5,6.7l-0.5,5l2.2,3.6l12.7,8.1
	c0,0,3,1.7,3.1,2.3s0,6,0,6l-3.8,6.5l-5.9,10.5l-0.4,5.8l-0.5,8.1l-3.2-0.2l-2.2,1.9l-1.4,6l0.2,6c-0.1,2.4,0.8,4.7,2.6,6.4
	c1.7,1.6,2.1,4.2,1,6.3l-7,4.3l-1.9,3l0.8,6.4l-2.9,7.6l-5.3-0.3l-4.1-8.5l-0.9-5.6l-2.3,0.7l-4,6.2l-1.7-1l-2-3.2l-5.1-10.1
	l-4.4-3.9l-2.7-3.3l0.3-4.5l-2.4-5.6l-2-7l-2.6-5.3l-4.4-1.7l-3.2-4.5l-1.6-5.4l0.2-2.9l4.1,0.1c0,0,2.6,2.9,3.1-0.3l0.5-3.3
	c0,0,0.5-0.9-2.1-2.4c-4.1-2.2-8.6-3.4-13.3-3.5l-3.1-3.1l2.4-5.4l3.6-6l2.4,2.7l2,4.8l1.9-0.2l-0.1-6.9l0.3-4.5l0.4-7.2l3.9-4.6
	l1-4.4l-1.1-4l-3.8-3l-3.4-0.5l-0.4-2.3l0.5-8.9l0.2-6l-2-3.9l-2.9-3.5l-2.9-0.3l-2.2,2.1l-0.2,3.1l1.5,3l1.3,4.2l1.4,6l-1.9,3.5
	c0,0-1.9,0.4-2.6-0.5c-0.6-1.1-1.1-2.2-1.5-3.4c0,0-1.8-8.4-2-9.1s-0.7-8.5-0.7-8.5l-1.9-8.8l-2-9.1l0.4-7.2l-0.8-6.8
	c0,0-2.1-4.8-2.9-6.6c-0.7-2.2-1.2-4.4-1.5-6.7c-0.1-0.7-2.5-7.4-2.5-7.4l2.8-6.7l2-7.8l-0.6-8.3l-1.8-7l2.5-6.8
	c0,0,1.5-4.9,1.8-6.5s0.7-6.5,0.8-7.5s0.3-10.2,0.3-10.2c-0.3-2.2-0.6-4.3-1.2-6.5c-0.8-3.3-2-9.3-2-9.3l-3.9-7.3l0.5-8.6
	c0,0-0.4-4.7,0.4-6.4s0.7-2.4-1.1-4.9s-0.8-9.9-0.8-9.9s3.8-8.9,3.7-9.6s0.2-14.3,0.2-14.3l0.5-25.5l-7.5-16l1.4-8.5l3.2-7.6
	l-3.5-20.2l-7.2-18.2l-12.8-10.4l-17.9-9.7l-13.4-5.4l-10.5-3.7l-5.7-5.7l-5.3-6.2l-5.5,0.2c0,0-5.7-2.2-5.7-3.3l0.8-13.4L293.5,331
	l-7.3-7.2l-5.8-13.6l-9-13.7c0,0-10.8-13.1-11.3-13.3s-8.2-6.9-8.2-6.9l-8.2-3.6l-4.8-6.3l0.5-8.6l-5.1-6.4l-1.9-3.7l0.2-3.1l4-1.1
	l5.8-5.4l3.9-7.2l1.7-6l-3.6-3.3l-4.1-1.4l-1.3-3.8l5.8-16.7l3.6-11.4l4-5.6l5.7-5.9l4.9-5.6l10.1-17.2l2.7-13.3
	c0,0-0.1-10.4,0-11.6s2.7-10.5,2.7-10.5l-0.9-5.6L283.9,92.2z"/>
<path class="st12" d="M453.3,621.5l-1.9,5.7H449l6.2-18.2h2.8l6.2,18.2h-2.5l-1.9-5.7H453.3z M459.3,619.7l-1.8-5.2
	c-0.4-1.2-0.7-2.3-0.9-3.3h0c-0.3,1.1-0.6,2.2-0.9,3.3l-1.8,5.3L459.3,619.7z"/>
<path class="st12" d="M468.3,609.3c1.5-0.3,3-0.4,4.5-0.4c2.5,0,4.1,0.5,5.3,1.5c1,0.9,1.5,2.2,1.4,3.5c0,2.1-1.4,4-3.4,4.6v0.1
	c1.4,0.5,2.2,1.8,2.7,3.7c0.3,1.7,0.8,3.4,1.4,5h-2.4c-0.5-1.4-0.9-2.9-1.2-4.3c-0.5-2.5-1.5-3.5-3.6-3.5h-2.2v7.9h-2.4V609.3z
	 M470.6,617.6h2.4c2.5,0,4.1-1.4,4.1-3.5c0-2.3-1.7-3.4-4.2-3.4c-0.8,0-1.6,0.1-2.3,0.2V617.6z"/>
<path class="st12" d="M498,626.5c-1.8,0.6-3.7,1-5.6,1c-4.7,0.5-8.9-3-9.3-7.7c0-0.5-0.1-1,0-1.5c0-5.4,3.8-9.4,9.9-9.4
	c1.6,0,3.1,0.2,4.5,0.8l-0.6,1.9c-1.3-0.5-2.6-0.8-4-0.8c-4.4,0-7.3,2.8-7.3,7.3s2.8,7.3,7,7.3c1.1,0.1,2.1-0.1,3.1-0.5v-5.4H492
	v-1.9h6V626.5z"/>
<path class="st12" d="M512.3,618.8h-7.1v6.6h7.9v2h-10.2v-18.2h9.8v2h-7.5v5.8h7.1L512.3,618.8z"/>
<path class="st12" d="M517.5,627.3v-18.2h2.6l5.8,9.2c1.2,1.9,2.3,3.9,3.3,5.9h0c-0.2-2.4-0.3-4.6-0.3-7.5v-7.6h2.2v18.2h-2.4
	l-5.8-9.3c-1.3-2-2.4-4-3.4-6.1h-0.1c0.1,2.3,0.2,4.5,0.2,7.5v7.8L517.5,627.3z"/>
<path class="st12" d="M540.1,611.1h-5.5v-2h13.5v2h-5.6v16.2h-2.4V611.1z"/>
<path class="st12" d="M553.8,609.1v18.2h-2.3v-18.2H553.8z"/>
<path class="st12" d="M559.2,627.3v-18.2h2.6l5.8,9.2c1.2,1.9,2.3,3.9,3.3,5.9h0c-0.2-2.4-0.3-4.6-0.3-7.5v-7.6h2.2v18.2h-2.4
	l-5.8-9.3c-1.3-2-2.4-4-3.4-6.1h-0.1c0.1,2.3,0.2,4.5,0.2,7.5v7.8L559.2,627.3z"/>
<path class="st12" d="M581.3,621.5l-1.9,5.7H577l6.2-18.2h2.8l6.2,18.2h-2.5l-1.9-5.7H581.3z M587.3,619.7l-1.8-5.2
	c-0.4-1.2-0.7-2.3-0.9-3.3h0c-0.3,1.1-0.6,2.2-0.9,3.3l-1.8,5.3L587.3,619.7z"/>
<path class="st4" d="M453.3,621.5l-1.9,5.7H449l6.2-18.2h2.8l6.2,18.2h-2.5l-1.9-5.7H453.3z M459.3,619.7l-1.8-5.2
	c-0.4-1.2-0.7-2.3-0.9-3.3h0c-0.3,1.1-0.6,2.2-0.9,3.3l-1.8,5.3L459.3,619.7z"/>
<path class="st4" d="M468.3,609.3c1.5-0.3,3-0.4,4.5-0.4c2.5,0,4.1,0.5,5.3,1.5c1,0.9,1.5,2.2,1.4,3.5c0,2.1-1.4,4-3.4,4.6v0.1
	c1.4,0.5,2.2,1.8,2.7,3.7c0.3,1.7,0.8,3.4,1.4,5h-2.4c-0.5-1.4-0.9-2.9-1.2-4.3c-0.5-2.5-1.5-3.5-3.6-3.5h-2.2v7.9h-2.4V609.3z
	 M470.6,617.6h2.4c2.5,0,4.1-1.4,4.1-3.5c0-2.3-1.7-3.4-4.2-3.4c-0.8,0-1.6,0.1-2.3,0.2V617.6z"/>
<path class="st4" d="M498,626.5c-1.8,0.6-3.7,1-5.6,1c-4.7,0.5-8.9-3-9.3-7.7c0-0.5-0.1-1,0-1.5c0-5.4,3.8-9.4,9.9-9.4
	c1.6,0,3.1,0.2,4.5,0.8l-0.6,1.9c-1.3-0.5-2.6-0.8-4-0.8c-4.4,0-7.3,2.8-7.3,7.3s2.8,7.3,7,7.3c1.1,0.1,2.1-0.1,3.1-0.5v-5.4H492
	v-1.9h6V626.5z"/>
<path class="st4" d="M512.3,618.8h-7.1v6.6h7.9v2h-10.2v-18.2h9.8v2h-7.5v5.8h7.1L512.3,618.8z"/>
<path class="st4" d="M517.5,627.3v-18.2h2.6l5.8,9.2c1.2,1.9,2.3,3.9,3.3,5.9h0c-0.2-2.4-0.3-4.6-0.3-7.5v-7.6h2.2v18.2h-2.4
	l-5.8-9.3c-1.3-2-2.4-4-3.4-6.1h-0.1c0.1,2.3,0.2,4.5,0.2,7.5v7.8L517.5,627.3z"/>
<path class="st4" d="M540.1,611.1h-5.5v-2h13.5v2h-5.6v16.2h-2.4V611.1z"/>
<path class="st4" d="M553.8,609.1v18.2h-2.3v-18.2H553.8z"/>
<path class="st4" d="M559.2,627.3v-18.2h2.6l5.8,9.2c1.2,1.9,2.3,3.9,3.3,5.9h0c-0.2-2.4-0.3-4.6-0.3-7.5v-7.6h2.2v18.2h-2.4
	l-5.8-9.3c-1.3-2-2.4-4-3.4-6.1h-0.1c0.1,2.3,0.2,4.5,0.2,7.5v7.8L559.2,627.3z"/>
<path class="st4" d="M581.3,621.5l-1.9,5.7H577l6.2-18.2h2.8l6.2,18.2h-2.5l-1.9-5.7H581.3z M587.3,619.7l-1.8-5.2
	c-0.4-1.2-0.7-2.3-0.9-3.3h0c-0.3,1.1-0.6,2.2-0.9,3.3l-1.8,5.3L587.3,619.7z"/>
</svg>
