<svg xmlns="http://www.w3.org/2000/svg" viewBox="0 0 248.96 118.18"><defs><style>.cls-1{fill:#de99ac;}.cls-2{fill:#c4c2c1;}.cls-3{fill:#3e3f3c;}.cls-4{fill:#fff;}.cls-5{fill:#312e2a;}.cls-6{fill:#8d8b88;}</style></defs><title>Recurso 1</title><g id="Capa_2" data-name="Capa 2"><g id="editable"><polygon class="cls-1" points="175.14 14.39 178.7 5.7 182.26 14.39 175.14 14.39"/><polygon class="cls-1" points="183.96 111.93 187.52 103.23 191.08 111.93 183.96 111.93"/><path class="cls-2" d="M12.27,59.71a5.3,5.3,0,0,0-3.52,1.23c-2.1,1.89-4.65,3.46-5.19,6.23-.5,2.54.19,5.13.76,7.65s1,5,1.35,7.51A8.78,8.78,0,0,1,5.41,87C4.2,89.79.34,91.17,0,94.22a5.82,5.82,0,0,0,.81,3.2,15.91,15.91,0,0,0,4.35,5.24,5.84,5.84,0,0,0,2.46,1.26,3.77,3.77,0,0,0,.69.06,7,7,0,0,0,3.36-1.1A29.14,29.14,0,0,0,18.6,97c2.19-2.41,4.22-5.1,5-8.24a24.55,24.55,0,0,0,.53-6.35A39,39,0,0,0,23.91,77c-.82-5.7-3.67-11-7.28-15.49a6,6,0,0,0-4.37-1.83"/><path class="cls-3" d="M17.15,70.58,10.23,93.94a1.65,1.65,0,0,1-1.66,1.34,1.62,1.62,0,0,1-1.63-1.63A2.06,2.06,0,0,1,7.07,93l6.85-23.36a1.6,1.6,0,0,1,1.7-1.28A1.56,1.56,0,0,1,17.24,70a1.81,1.81,0,0,1-.1.54"/><path class="cls-2" d="M216.2,0a2.33,2.33,0,0,0-.45,0,5.12,5.12,0,0,0-1.68.8,41.31,41.31,0,0,0-11,10.7,5.84,5.84,0,0,0-.37,6,8.38,8.38,0,0,0,4.13,3.38,21.48,21.48,0,0,1,4.74,2.48c3.56,2.9,4.53,8.91,8.51,11.14,1.07.6,2.3.88,3.42,1.4,2.6,1.21,4.43,3.66,6.12,6.1s3.38,5,5.79,6.54a8,8,0,0,0,4.26,1.26,7.27,7.27,0,0,0,4.3-1.4,13,13,0,0,0,3.4-4,11.29,11.29,0,0,0,1.53-3.88,8.77,8.77,0,0,0-1.13-5.39c-2.59-5-7.21-8.46-8.58-14.23-.67-2.86-.51-6.14-1.68-8.69-1.74-3.77-5.87-4.95-9.51-6.32A45.46,45.46,0,0,1,218.66,1a4.61,4.61,0,0,0-2.46-1"/><path class="cls-4" d="M128.63,27.76a2,2,0,0,0-2.05,2.05v7.45h-9V29.81a2.05,2.05,0,1,0-4.1,0V49a2,2,0,0,0,2.05,2.05A2,2,0,0,0,117.59,49V41h9v8a2.05,2.05,0,1,0,4.1,0V29.81A2,2,0,0,0,128.63,27.76Zm-32,3.55a5.4,5.4,0,0,1,4.14,1.88,2.08,2.08,0,0,0,1.57.79,1.77,1.77,0,0,0,1.81-1.85,2.06,2.06,0,0,0-.55-1.37,8.8,8.8,0,0,0-7-3.14c-5.57,0-10.19,4.24-10.19,11.79S91,51.21,96.57,51.21a8.8,8.8,0,0,0,7-3.15,2.06,2.06,0,0,0,.55-1.37,1.77,1.77,0,0,0-1.81-1.85,2.08,2.08,0,0,0-1.57.79,5.4,5.4,0,0,1-4.14,1.88c-3.52,0-6.12-3.18-6.12-8.1S93.09,31.31,96.61,31.31ZM151.33,29a2,2,0,0,0-3.69,0l-7.73,19.42a1.86,1.86,0,0,0,1.78,2.63,1.67,1.67,0,0,0,1.74-1.2L145,46h9l1.54,3.86a1.66,1.66,0,0,0,1.74,1.2,1.86,1.86,0,0,0,1.78-2.63Zm-5.06,13.44,3.21-8.55,3.21,8.55Zm56.14-14.75c-6,0-10,5.07-10,11.75s4,11.74,10,11.74,10-5.07,10-11.74S208.36,27.71,202.41,27.71Zm0,19.81c-4.05-.08-5.89-3.91-5.89-8.07s1.84-8.07,5.89-8.07,6,3.89,5.89,8.07S206.37,47.6,202.41,47.52ZM176.64,31.38a5.37,5.37,0,0,1,4.12,1.87,2.07,2.07,0,0,0,1.57.78,1.76,1.76,0,0,0,1.81-1.84,2.05,2.05,0,0,0-.55-1.36,8.76,8.76,0,0,0-7-3.13c-5.55,0-10.15,4.22-10.15,11.74s4.6,11.74,10.15,11.74a8.77,8.77,0,0,0,7-3.13,2,2,0,0,0,.55-1.36,1.76,1.76,0,0,0-1.81-1.84,2.07,2.07,0,0,0-1.57.78,5.38,5.38,0,0,1-4.12,1.87c-3.51,0-6.09-3.17-6.09-8.07S173.14,31.38,176.64,31.38Z"/><path class="cls-5" d="M233.12,12.15H208.76a1.79,1.79,0,0,0-.55.06,1.56,1.56,0,0,0-1.1,2,1.6,1.6,0,0,0,1.71,1.26l24.34-.07a2.05,2.05,0,0,0,.62,0,1.62,1.62,0,0,0,1.1-2A1.65,1.65,0,0,0,233.12,12.15Z"/><path class="cls-4" d="M43.51,18.74a.71.71,0,0,1,0,1.41H33.38a.77.77,0,0,1-.78-.78v-16a.78.78,0,1,1,1.57,0V18.74Z"/><path class="cls-4" d="M63.52,19.29a.84.84,0,0,1,.1.37.7.7,0,0,1-.76.71.72.72,0,0,1-.71-.5L60,15.08H51l-2.14,4.78a.72.72,0,0,1-.71.5.7.7,0,0,1-.76-.71.86.86,0,0,1,.1-.37L54.8,3.06a.77.77,0,0,1,1.46,0Zm-4.1-5.59-3.89-9-3.89,9Z"/><path class="cls-4" d="M91.91,17.33a9.21,9.21,0,0,1-7.13,3.13c-5.56,0-8.93-4.08-8.93-9a8.67,8.67,0,0,1,8.88-9,8.23,8.23,0,0,1,5.83,2.22A1.48,1.48,0,0,1,91,5.73a1.41,1.41,0,0,1-1.44,1.46,1.81,1.81,0,0,1-1-.37,5.84,5.84,0,0,0-3.84-1.44c-3.42,0-5.67,2.59-5.67,6.06s2.09,6.22,5.72,6.22a6.47,6.47,0,0,0,4.36-1.57V13.41h-3.4A1.46,1.46,0,0,1,84.28,12a1.44,1.44,0,0,1,1.46-1.44h4.91a1.61,1.61,0,0,1,1.62,1.62v4.15A1.44,1.44,0,0,1,91.91,17.33Z"/><path class="cls-4" d="M108.31,4.16a1.59,1.59,0,1,1,3.19,0v9c0,4.49-2.79,7.34-7.44,7.34s-7.45-2.85-7.45-7.34v-9a1.59,1.59,0,1,1,3.19,0v9.3c0,2.43,1.46,4.13,4.26,4.13s4.26-1.7,4.26-4.13Z"/><path class="cls-4" d="M128,20.15h-9.8a1.61,1.61,0,0,1-1.62-1.59V4.34a1.61,1.61,0,0,1,1.62-1.59h9.4a1.47,1.47,0,0,1,1.51,1.46,1.49,1.49,0,0,1-1.51,1.49h-7.84V9.86h4.31a1.49,1.49,0,0,1,1.49,1.49,1.47,1.47,0,0,1-1.49,1.46h-4.31V17.2H128a1.49,1.49,0,0,1,1.51,1.49A1.47,1.47,0,0,1,128,20.15Z"/><path class="cls-4" d="M147.95,18.76a1.58,1.58,0,0,1-1.59,1.59,1.43,1.43,0,0,1-1.41-.86l-3.06-6.3h-5.25v5.56a1.59,1.59,0,0,1-3.19,0V4.34A1.58,1.58,0,0,1,135,2.75h6.71c4.34,0,6.19,2.14,6.19,5.22a4.75,4.75,0,0,1-2.87,4.65l2.69,5.46A1.55,1.55,0,0,1,147.95,18.76ZM142.2,5.68h-5.56v4.78h5.56A2.39,2.39,0,0,0,144.74,8,2.31,2.31,0,0,0,142.2,5.68Z"/><path class="cls-4" d="M167,18.76a1.58,1.58,0,0,1-1.59,1.59,1.43,1.43,0,0,1-1.41-.86L161,13.2h-5.25v5.56a1.59,1.59,0,0,1-3.19,0V4.34a1.58,1.58,0,0,1,1.59-1.59h6.71C165.18,2.75,167,4.89,167,8a4.75,4.75,0,0,1-2.87,4.65l2.69,5.46A1.55,1.55,0,0,1,167,18.76ZM161.29,5.68h-5.56v4.78h5.56A2.39,2.39,0,0,0,163.83,8,2.31,2.31,0,0,0,161.29,5.68Z"/><path class="cls-4" d="M182.47,16.31h-7.73l-1.49,3.19a1.41,1.41,0,0,1-1.33.86,1.48,1.48,0,0,1-1.51-1.49,1.39,1.39,0,0,1,.16-.63l6.69-14.86a1.38,1.38,0,0,1,1.36-.84,1.34,1.34,0,0,1,1.36.84l6.69,14.86a1.39,1.39,0,0,1,.16.63,1.48,1.48,0,0,1-1.52,1.49,1.37,1.37,0,0,1-1.33-.86Zm-3.87-9.43-2.72,6.63h5.43Z"/><path class="cls-4" d="M38.34,49h-5a.77.77,0,0,1-.78-.78V32.36a.77.77,0,0,1,.78-.78h5A8.36,8.36,0,0,1,47,40.27,8.36,8.36,0,0,1,38.34,49Zm-.1-16H34.16V47.56h4.08c4.55,0,7.21-3.19,7.21-7.29S42.78,33,38.24,33Z"/><path class="cls-4" d="M53.28,47.56h9.3a.71.71,0,0,1,0,1.41H52.5a.77.77,0,0,1-.78-.78V32.36a.77.77,0,0,1,.78-.78H62.55a.71.71,0,0,1,0,1.41H53.28v6.3h5.38a.71.71,0,0,1,0,1.41H53.28Z"/><path class="cls-4" d="M78.9,47.56a.71.71,0,0,1,0,1.41H68.76a.77.77,0,0,1-.78-.78v-16a.78.78,0,1,1,1.57,0V47.56Z"/><path class="cls-6" d="M131.61,70.17a2,2,0,0,0-2.05,2.05v7.45h-9V72.22a2.05,2.05,0,1,0-4.1,0V91.43a2,2,0,0,0,2.05,2.05,2,2,0,0,0,2.05-2.05v-8h9v8a2.05,2.05,0,1,0,4.1,0V72.22A2,2,0,0,0,131.61,70.17Zm-32,3.55a5.4,5.4,0,0,1,4.14,1.88,2.07,2.07,0,0,0,1.57.79,1.77,1.77,0,0,0,1.81-1.85,2.06,2.06,0,0,0-.55-1.37,8.8,8.8,0,0,0-7-3.14C94,70,89.36,74.27,89.36,81.83S94,93.62,99.55,93.62a8.8,8.8,0,0,0,7-3.15,2.06,2.06,0,0,0,.55-1.37,1.77,1.77,0,0,0-1.81-1.85,2.08,2.08,0,0,0-1.57.79,5.4,5.4,0,0,1-4.14,1.88c-3.52,0-6.12-3.18-6.12-8.1S96.06,73.72,99.58,73.72Zm54.72-2.29a2,2,0,0,0-3.69,0l-7.73,19.42a1.86,1.86,0,0,0,1.78,2.63,1.67,1.67,0,0,0,1.74-1.2l1.54-3.86h9l1.54,3.86a1.66,1.66,0,0,0,1.74,1.2A1.86,1.86,0,0,0,162,90.85Zm-5.06,13.44,3.21-8.55,3.21,8.55Zm56.14-14.75c-6,0-10,5.07-10,11.75s4,11.74,10,11.74,10-5.07,10-11.74S211.34,70.12,205.38,70.12Zm0,19.81c-4.05-.08-5.89-3.91-5.89-8.07s1.84-8.07,5.89-8.07,6,3.89,5.89,8.07S209.34,90,205.38,89.93ZM179.62,73.79a5.37,5.37,0,0,1,4.12,1.87,2.07,2.07,0,0,0,1.57.78,1.76,1.76,0,0,0,1.81-1.84,2.05,2.05,0,0,0-.55-1.36,8.76,8.76,0,0,0-7-3.13c-5.55,0-10.15,4.22-10.15,11.74s4.6,11.74,10.15,11.74a8.77,8.77,0,0,0,7-3.13,2,2,0,0,0,.55-1.36,1.76,1.76,0,0,0-1.81-1.84,2.07,2.07,0,0,0-1.57.78,5.38,5.38,0,0,1-4.12,1.87c-3.51,0-6.09-3.17-6.09-8.07S176.11,73.79,179.62,73.79Z"/><path class="cls-6" d="M37,91.59a.77.77,0,0,1-.78-.78V75.39H30.6a.71.71,0,0,1,0-1.41H43.45a.71.71,0,0,1,0,1.41H37.81V90.81A.77.77,0,0,1,37,91.59Z"/><path class="cls-6" d="M48.15,74.56a.78.78,0,1,1,1.57,0v7.24H60.29V74.56a.78.78,0,1,1,1.57,0V90.81a.78.78,0,1,1-1.57,0V83.23H49.71v7.58a.78.78,0,1,1-1.57,0Z"/><path class="cls-6" d="M69.43,90h9.3a.71.71,0,1,1,0,1.41H68.65a.77.77,0,0,1-.78-.78V74.77a.77.77,0,0,1,.78-.78H78.7a.71.71,0,1,1,0,1.41H69.43v6.3h5.38a.71.71,0,0,1,0,1.41H69.43Z"/><path class="cls-6" d="M171.94,112.57l3.94-11.16a1.37,1.37,0,0,1,1.41-1,1.4,1.4,0,0,1,1.46,1.49,1.44,1.44,0,0,1-.08.44l-5.3,14.89a1.54,1.54,0,0,1-2.87,0l-3.74-11.29L163,117.22a1.54,1.54,0,0,1-2.87,0l-5.3-14.89a1.47,1.47,0,0,1-.08-.44,1.4,1.4,0,0,1,1.46-1.49,1.37,1.37,0,0,1,1.41,1l3.94,11.16,3.76-11.18a1.49,1.49,0,0,1,2.82,0Z"/><path class="cls-6" d="M191.37,114.13h-7.73l-1.49,3.19a1.41,1.41,0,0,1-1.33.86,1.48,1.48,0,0,1-1.51-1.49,1.39,1.39,0,0,1,.16-.63l6.69-14.86a1.38,1.38,0,0,1,1.36-.84,1.34,1.34,0,0,1,1.36.84l6.69,14.86a1.39,1.39,0,0,1,.16.63,1.48,1.48,0,0,1-1.52,1.49,1.37,1.37,0,0,1-1.33-.86Zm-3.87-9.43-2.72,6.63h5.43Z"/><path class="cls-6" d="M214.2,116.59a1.58,1.58,0,0,1-1.59,1.59,1.43,1.43,0,0,1-1.41-.86l-3.06-6.3h-5.25v5.56a1.59,1.59,0,0,1-3.19,0V102.17a1.58,1.58,0,0,1,1.59-1.59H208c4.34,0,6.19,2.14,6.19,5.22a4.75,4.75,0,0,1-2.87,4.65l2.69,5.46A1.55,1.55,0,0,1,214.2,116.59Zm-5.75-13.09h-5.56v4.78h5.56a2.39,2.39,0,0,0,2.53-2.46A2.31,2.31,0,0,0,208.45,103.5Z"/></g></g></svg>