<?xml version="1.0" encoding="utf-8"?>
<!-- Generator: Adobe Illustrator 21.0.0, SVG Export Plug-In . SVG Version: 6.00 Build 0)  -->
<svg version="1.1" id="Capa_1" xmlns="http://www.w3.org/2000/svg" xmlns:xlink="http://www.w3.org/1999/xlink" x="0px" y="0px"
	 viewBox="0 0 848 855" style="enable-background:new 0 0 848 855;" xml:space="preserve">
<style type="text/css">
	.st0{fill:#312E2A;}
	.st1{fill:none;stroke:#C2C3C9;stroke-width:0.5;stroke-linecap:round;stroke-linejoin:round;}
	.st2{fill:none;stroke:#FFFFFF;stroke-width:2.5;stroke-linecap:round;stroke-linejoin:round;stroke-dasharray:0,5;}
	.st3{fill:none;stroke:#87868A;stroke-width:2;stroke-miterlimit:10;}
	.st4{opacity:0.81;}
</style>
<title>todo</title>
<g id="texto_x5F_ing">
	<path class="st0" d="M393.1,110.5L393.1,110.5c-0.1,1.6-0.7,3-1.8,4.1c-1.2,1-2.7,1.6-4.3,1.5c-1.8,0.1-3.5-0.7-4.6-2.1
		c-1.2-1.5-1.8-3.4-1.8-5.3v-2.8c-0.1-1.9,0.5-3.8,1.8-5.3c1.1-1.4,2.9-2.1,4.6-2c1.6-0.1,3.1,0.4,4.3,1.4c1.1,1.1,1.8,2.5,1.8,4.1
		v0.1h-1.3c-0.1-1.2-0.6-2.4-1.5-3.3c-0.9-0.8-2.1-1.2-3.4-1.1c-1.4,0-2.7,0.6-3.6,1.7c-0.9,1.3-1.4,2.8-1.4,4.4v2.8
		c-0.1,1.6,0.4,3.2,1.4,4.5c0.8,1.1,2.2,1.8,3.6,1.7c1.2,0.1,2.4-0.3,3.3-1.1c0.9-0.9,1.4-2,1.5-3.3L393.1,110.5z"/>
	<path class="st0" d="M406.9,107.6h-8.2v7.1h9.4v1.2h-10.8V98.8h10.8v1.2h-9.4v6.4h8.2L406.9,107.6z"/>
	<path class="st0" d="M413.1,108.1v7.7h-1.4V98.8h5.8c1.5-0.1,3,0.3,4.2,1.2c1,0.9,1.5,2.2,1.5,3.5c0,0.9-0.3,1.7-0.8,2.4
		c-0.6,0.7-1.3,1.3-2.2,1.6c0.9,0.2,1.7,0.7,2.3,1.4c0.5,0.8,0.7,1.7,0.7,2.6v1.6c0,0.5,0.1,1,0.2,1.4c0.1,0.4,0.3,0.7,0.6,1v0.3
		h-1.4c-0.3-0.3-0.5-0.7-0.6-1.2c-0.1-0.5-0.2-1-0.2-1.6v-1.5c0.1-0.9-0.3-1.8-1-2.5c-0.8-0.6-1.8-1-2.8-0.9L413.1,108.1z
		 M413.1,106.9h4.2c1.2,0.1,2.4-0.2,3.4-0.9c0.7-0.6,1.1-1.6,1.1-2.5c0.1-1-0.3-1.9-1.1-2.6c-0.9-0.7-2.1-1-3.2-0.9h-4.4V106.9z"/>
	<path class="st0" d="M429.5,108.1v7.7h-1.4V98.8h5.8c1.5-0.1,3,0.3,4.2,1.2c1,0.9,1.5,2.2,1.5,3.5c0,0.9-0.3,1.7-0.8,2.4
		c-0.6,0.7-1.3,1.3-2.2,1.6c0.9,0.2,1.7,0.7,2.3,1.4c0.5,0.8,0.7,1.7,0.7,2.6v1.6c0,0.5,0.1,1,0.2,1.4c0.1,0.4,0.3,0.7,0.6,1v0.3
		h-1.4c-0.3-0.3-0.5-0.7-0.6-1.2c-0.1-0.5-0.2-1-0.2-1.6v-1.5c0.1-0.9-0.3-1.8-1-2.5c-0.8-0.6-1.8-1-2.8-0.9L429.5,108.1z
		 M429.5,106.9h4.2c1.2,0.1,2.4-0.2,3.4-0.9c0.7-0.6,1.1-1.6,1.1-2.5c0.1-1-0.3-1.9-1.1-2.6c-0.9-0.7-2.1-1-3.2-0.9h-4.4V106.9z"/>
	<path class="st0" d="M453.7,111.1h-7.8l-1.8,4.8h-1.5l6.5-17.1h1.3l6.4,17.1h-1.5L453.7,111.1z M446.4,109.8h6.9l-3.4-9.2h-0.1
		L446.4,109.8z"/>
	<path class="st0" d="M460.1,115.8V98.8h5c1.9-0.1,3.8,0.7,5.2,2.1c1.4,1.4,2.1,3.4,2,5.4v2.2c0.1,2-0.6,3.9-2,5.4
		c-1.4,1.4-3.2,2.1-5.2,2.1H460.1z M461.5,100v14.7h3.6c1.6,0,3.1-0.6,4.2-1.8c1.1-1.2,1.7-2.8,1.6-4.5v-2.2
		c0.1-1.6-0.5-3.2-1.6-4.4c-1.1-1.2-2.6-1.8-4.2-1.8H461.5z"/>
	<path class="st0" d="M488.9,108.7c0.1,1.9-0.6,3.9-1.8,5.3c-1.2,1.4-3,2.1-4.9,2c-1.8,0.1-3.6-0.6-4.8-2c-1.2-1.5-1.9-3.4-1.8-5.3
		v-2.8c-0.1-1.9,0.5-3.8,1.8-5.3c1.2-1.4,3-2.1,4.8-2.1c1.8-0.1,3.6,0.7,4.9,2.1c1.3,1.5,1.9,3.4,1.8,5.3L488.9,108.7z M487.5,105.9
		c0.1-1.6-0.4-3.2-1.4-4.5c-1-1.1-2.4-1.8-3.9-1.7c-1.5-0.1-2.9,0.6-3.8,1.7c-1,1.3-1.4,2.9-1.4,4.5v2.8c-0.1,1.6,0.4,3.2,1.4,4.5
		c0.9,1.1,2.3,1.8,3.8,1.7c1.5,0.1,2.9-0.5,3.9-1.7c1-1.3,1.5-2.9,1.4-4.5L487.5,105.9z"/>
	<path class="st0" d="M485.8,336.4v7.1h-1.4v-17.1h5.9c1.5-0.1,3,0.4,4.1,1.4c2,2,2,5.2,0,7.3c-1.2,1-2.6,1.5-4.1,1.4L485.8,336.4z
		 M485.8,335.2h4.5c1.2,0.1,2.3-0.3,3.2-1.1c0.7-0.7,1.1-1.7,1.1-2.7c0-1-0.3-2-1-2.7c-0.9-0.8-2-1.2-3.2-1.1h-4.5L485.8,335.2z"/>
	<path class="st0" d="M509,338.8h-7.8l-1.8,4.8H498l6.5-17.1h1.3l6.4,17.1h-1.5L509,338.8z M501.6,337.5h6.9l-3.4-9.2h-0.1
		L501.6,337.5z"/>
	<path class="st0" d="M528,343.5h-1.4l-9.7-14.7h-0.1v14.7h-1.4v-17h1.4l9.7,14.6h0.1v-14.6h1.4V343.5z"/>
	<path class="st0" d="M544.5,327.6h-5.9v15.9h-1.4v-15.9h-5.9v-1.2h13.2L544.5,327.6z"/>
	<path class="st0" d="M557.1,338.8h-7.8l-1.8,4.8H546l6.5-17.1h1.3l6.4,17.1h-1.5L557.1,338.8z M549.7,337.5h6.9l-3.4-9.2h-0.1
		L549.7,337.5z"/>
	<path class="st0" d="M576,343.5h-1.4l-9.7-14.7h-0.1v14.7h-1.4v-17h1.4l9.7,14.6h0.1v-14.6h1.4L576,343.5z"/>
	<path class="st0" d="M590.3,338.8h-7.8l-1.8,4.8h-1.5l6.5-17.1h1.3l6.4,17.1H592L590.3,338.8z M583,337.5h6.9l-3.4-9.2h-0.1
		L583,337.5z"/>
	<path class="st0" d="M598.1,342.3h8.4v1.2h-9.8v-17.1h1.4L598.1,342.3z"/>
	<polyline class="st1" points="546.7,115.8 546.8,125.3 548.9,135.3 544.2,143.2 524.8,147.4 524.8,153.8 516.5,158.5 507.9,162.1 
		501.5,169.5 498.8,179.8 491.7,186.5 479,186.9 482.2,191.3 496,199.1 494,209.8 489.3,212.2 489.3,224.4 483.8,235.4 485.8,254.4 
		481.4,264.6 473.1,261.9 466.4,255.2 460.9,250.8 443.1,259.5 434.1,266.6 442,274.5 455.4,281.6 454.6,284.8 441.5,296.6 
		442.7,303.7 453.8,302.1 471.1,295.4 491.3,293.5 494,297.8 494.4,303.3 468,311.6 453.4,316.4 450.6,327 451.8,330.2 466,339.6 
		480.2,351.9 480.6,360.5 475.1,372.4 470,389.8 471.9,402 483.4,400.8 503.1,402.8 515.8,413.8 530.7,416.6 537.5,426.5 559.5,428 
		582,445.4 601,447.4 615.2,451.3 636.4,451 	"/>
	<path class="st1" d="M587.9,513l-13.8-4.7l-17-5.5l-1.1-22.5l-23.7-0.4l-11.4-6.7l-11.9-5.5l4.7-22.9l4.3-5.9l-5.9-4.3l0.8-8.7
		l9.1-0.4l8.7-8.8l6.3,9.2h0l-6.3-9.2l-15-2.8l-12.6-11l-19.7-2l-11.4,1.2l-2-12.2l5.1-17.4l5.5-11.8l-0.4-8.7L466,339.6l-14.2-9.5
		l-1.2-3.2l2.8-10.7l14.6-4.7l26.4-8.3l-0.4-5.5l-2.8-4.3l-20.1,2l-17.4,6.7l-11,1.6l-1.2-7.1l13-11.8l0.8-3.2l-13.4-7.1l-7.9-7.9
		l9.1-7.1l17.8-8.7l5.5,4.3l6.7,6.7l8.3,2.8l4.3-10.3l-2-18.9l5.5-11v-12.3l4.7-2.4l2-10.7l-13.8-7.9l-3.2-4.3l12.6-0.4l7.1-6.7
		l2.8-10.3l6.3-7.5l8.7-3.6l8.3-4.7v-5.6l-4.8,1.4h-20l-7.4-4.7l-23.1-2.6l-11.6-6.8l-11,3.7l-13.7-1.6l-7.5-8.4l-11-10.5l-2.1,8.9
		l-1.1,11.6h-19.5l-6.8,6.3l-5.3-5.2l-5.3-7.4l-4.2,6.8l-4.7,16.8h-8.4l-20.5-16.8l-26.3-7.4l-13.7,4.2l-10.5,3.7l-8.4-5.8
		L260,122.7l23-4.6l-60.5,10.8l-19.2,50.3l0.5-0.8l15.8,0.4l21.7,6.7l11.4,10.7l26.5,4.8l-8.7,7.1l-1.6,15.3l-21.3,1.6l5.1,10.7
		l17.4,19.3l1.2,9.9l-10.3,13.8l-15.4-9.1l-14.2,9.5l-14.6,7.9l-18.9-6.3l-14.2-5.5l-12.6-2.3l0.8,17.5l-35.3,130.8l0.6,2.4l1.3,1
		l1.5,2.1l1.2,1.2l1.3,1.6c0,0,2.2,0.7,2.2,0.9s2.1,2,2.1,2l2.9,1.3l3.7,1.1l1.9,1.1c0,0,1.6,0.9,1.6,1.1c0.3,0.6,0.6,1.2,1,1.7
		l1,1.4l1.5,2.5l2.1,3l5.2-0.1l1.9,0.1h6.8l-0.7,2.7l1,1l1.8-1.1l0.7,1.7l2.2,1.8l-1,3.9l-1.2,3.5l2.5,2.3l1.1-1l2.3,1.7l0.1,3.2
		l-0.2,3l0.7,0.6l5.4-6.4l21.3,1.6l17,8.3l7.1,7.9l-6.7,4l33.9,25.3l47,21.3l43.8,3.5l14.6-4l23.7-1.6l1.6,6.7l-24.9,12.6l3.5,10.7
		l20.5,2l7.9,11.4l30.4-7.5l9.5,20.9l2.4,11.4l19.7,15.8l11,1.6l24.1,5.6l11,15l17,11l11-2.4l-8.7-16.6l-8.3-12.2l12.2-9.5l-5.1-9.1
		l-4.3-10.7l7.1-5.1l-1.2-13l6.3-6.7l7.1-13.8l-20.1-7.9l3.2-7.9l11-11.8l5.9,3.5l16.6,7.5l20.3,1.6l13-6.3L587.9,513z"/>
	<path class="st2" d="M206.7,173.7l8.4,4.4c0,0,3.8,1.8,4.5,2.3s9.4,0,9.4,0l14.6-3.4l34.3,12.7l42.7,19.4l26.2,11L371,223l25.8,8
		c0,0,15,6.8,22.5,5.5l2,17.8l6.3,7.6v12.3l3.9,5.9l4.6,3.4v19l4.2,10.6l-5.1,6L424,329.2c0,0-3.8,69.4-4.7,67.7s57,0,57,0l16.5,4.9
		L453,427.5l-0.9,11.2h-8.5l-5.1,3.6l-0.4,7l-5.1,10.6l-16.1,22.4l2.2,34.3l-5.6,12.7l-3.4,22.4l-7.2,4.2l-8.9,4.5l-15.2,4.8
		l-18.9,4.2l-6.9-2.1l-0.9,7.2h-7.6l-2.5,8.5l-9.1,11"/>
	<polyline class="st2" points="491.9,402.3 503.1,402.8 576.1,407.8 594.5,407.8 599.3,427.5 631.1,428.1 	"/>
	<path class="st0" d="M184.2,228.2l6.3,15h0.1l6.3-15h1.9v17.1h-1.4v-7.5l0.1-7.5h-0.1l-6.3,15h-1l-6.3-15h-0.1l0.1,7.4v7.5h-1.4
		v-17H184.2z"/>
	<path class="st0" d="M213.4,237h-8.2v7h9.4v1.2h-10.8v-17h10.8v1.2h-9.4v6.4h8.2L213.4,237z"/>
	<path class="st0" d="M218.2,245.2v-17.1h5c1.9-0.1,3.8,0.7,5.2,2.1c1.4,1.4,2.1,3.4,2,5.4v2.2c0.1,2-0.6,3.9-2,5.4
		c-1.4,1.4-3.2,2.1-5.2,2.1L218.2,245.2z M219.6,229.4V244h3.6c1.6,0,3.1-0.6,4.2-1.8c1.1-1.2,1.7-2.8,1.6-4.5v-2.2
		c0.1-1.6-0.5-3.2-1.6-4.4c-1.1-1.2-2.6-1.8-4.2-1.8L219.6,229.4z"/>
	<path class="st0" d="M243.7,240.5h-7.8l-1.8,4.8h-1.4l6.5-17.1h1.3l6.4,17.1h-1.4L243.7,240.5z M236.4,239.2h6.9l-3.4-9.2h-0.1
		L236.4,239.2z"/>
	<path class="st0" d="M262.7,245.2h-1.4l-9.7-14.7h-0.1v14.7h-1.4v-17.1h1.4l9.7,14.6h0.1v-14.6h1.4V245.2z"/>
	<path class="st0" d="M280.2,238.1c0.1,1.9-0.6,3.9-1.8,5.3c-1.2,1.4-3,2.1-4.9,2c-1.8,0.1-3.6-0.6-4.8-2c-1.2-1.5-1.9-3.4-1.8-5.3
		v-2.8c-0.1-1.9,0.5-3.8,1.8-5.3c1.2-1.4,3-2.1,4.8-2.1c1.8-0.1,3.6,0.7,4.9,2.1c1.3,1.5,1.9,3.4,1.8,5.3L280.2,238.1z M278.8,235.3
		c0.1-1.6-0.4-3.2-1.4-4.5c-1-1.1-2.4-1.8-3.9-1.7c-1.5-0.1-2.9,0.6-3.8,1.7c-1,1.3-1.4,2.9-1.4,4.5v2.8c-0.1,1.6,0.4,3.2,1.4,4.5
		c0.9,1.1,2.3,1.8,3.8,1.7c1.5,0.1,2.9-0.5,3.9-1.7c1-1.3,1.5-2.9,1.4-4.5L278.8,235.3z"/>
	<path class="st0" d="M294.3,241.1c0-0.9-0.3-1.7-1-2.3c-1.1-0.8-2.3-1.3-3.6-1.6c-1.5-0.3-3-0.9-4.2-1.8c-0.9-0.7-1.5-1.8-1.4-3
		c0-1.3,0.6-2.5,1.6-3.2c1.2-0.9,2.7-1.3,4.1-1.2c1.6-0.1,3.1,0.4,4.3,1.5c1,0.9,1.6,2.2,1.6,3.6v0.1h-1.3c0-1.1-0.4-2.1-1.2-2.8
		c-0.9-0.8-2.1-1.2-3.3-1.1c-1.1-0.1-2.3,0.2-3.2,0.9c-0.7,0.5-1.2,1.4-1.1,2.3c0,0.8,0.4,1.6,1.1,2.1c1.1,0.7,2.4,1.3,3.7,1.5
		c1.5,0.3,2.9,1,4.2,1.9c0.9,0.8,1.4,1.9,1.4,3.1c0,1.3-0.6,2.5-1.7,3.3c-1.3,0.8-2.7,1.3-4.3,1.2c-1.6,0-3.1-0.4-4.5-1.3
		c-1.3-0.8-2-2.2-1.9-3.7v-0.1h1.3c-0.1,1.2,0.5,2.3,1.5,2.9c1,0.7,2.3,1,3.5,1c1.2,0.1,2.3-0.3,3.3-0.9
		C293.8,242.9,294.3,242,294.3,241.1z"/>
	<path class="st3" d="M645.2,747.3l0.1-2.9l-5.1-7.6l-0.2-2.2l-2.2-4.5l-4.7-2.1l-2.7-3.9l-3-2.9l-6.6-0.2l-3.3,0.6l-2.2-0.9
		l-0.7-3.4h-5l-2.1-0.2l-0.9-2.2l-3.6-0.4l-2.3-2.4l-1.1-1.9l-3.1-0.6l-1.5-1.6l-1.5-2.2l-2-1l-4.4,2.5l-3.8,4.1l-2,1.1l-1.9-1.5
		l-3.3-3.5l-1.4-1.9l-2.2-1.7l-0.4-3l-4.7-3.3l-4.9-1.6l-1.8-0.6l-1.1-0.3l-2.4-0.4L555,694l-1.4,0.5l-3.3-0.5l-2.3,0.7l-1.3,0.1
		l-1.1-0.3l-1.2-1.8l-1.6-3.6h-2.1l-4.2-0.1l-3-1.1l-4.5-3.7l-2.2,0.1l-3-3l-2.6-1.6l-3.4-2.7l-2.3-0.1l-3.5-0.5l-1.6-1.8l-2-1
		l-2.7-1.1h-2.4l-1.7-0.1l-1.5-1.7c-0.6-0.4-1.1-0.9-1.5-1.4c-0.4-0.5-0.9-0.9-1.4-1.3l-3.2-2.4l-3.7-0.8l-1.2-2.4l-0.8-1.2h-2.6
		l-2.2-1.5l-2-0.9l-1.5-0.3l-2.4-4.2l-1.1-2.5l-1.1-1.5l-1.5-0.2H472l-1.2-2.3l-1.6-0.1l-1-1.6l-0.4-1.6l-2.1-1.1l0.2-1.5
		l-57.3-34.4c-0.6-0.2-1.3-0.2-1.9-0.1c-0.8,0.3-1.6,0.7-2.3,1.1l-3.1,1l-2.7,1l-6.3,0.7l-4.1,0.3l-3.1,0.6l-3.2-0.3l-2.7-1.5
		l-2.3,0.2l-1.2,0.2l-1.6-2l-1.7-1.5l-3.4-1.3l-2.5-1.1l-2.3-1.2l-2.6-0.1l-1.3,0.8l-3.5-0.6l-1.3-0.2l-2.1-0.3l-0.6-2.1l-0.1-3
		l-1.8-0.6l-5,0.1l-3.6-1.6l-5.5-1.6l-3.5-0.1l-3.5-0.5l-2.4,0.1l-5-3.1l-3.7-2.5l-1-0.6l-1.3,1l-2.8-0.6l-1,0.9l-3.9-4.9l-0.5-3
		l-3-3.6l-3-2.9l-2.3-3.4l0.5-4.8l-1.8-2.1l-3-1.2l-2.2-1.7l-0.9-1.8l-4.8,0.4l-2.4-1.1l-2.7-2.5l-0.9-2.4l-1.4-1.5l-2.2-0.2
		l-2.7-0.2V550l-2.6,1l-5.4-2.3l-2-2l-4.1,0.1l-4-5.2l-0.3-3.4l-4.9-0.5l-1-3l-1.6-1l-2.3-2.1l-4.5-0.1l-3-0.2l-3.2-4.2l-2.4-0.3
		l-1-6.6l-2.1-0.4l-3.9-0.7l-2.7-2.8l-0.5-1.1l-2.3-4.9l-3.4-0.2l-1.9-2.2l-1.4,0.8l-2-1l-2.3-2.7l-2.3-1l-1-1.6l-1.6-1.7l-0.3-7.4
		l-2-0.2l-1.4-5l-3.9-3.2l-0.6-2.6l-1-1l-2.3,0.8l0.4-1.8l-2.2-1l-1.2-3.3l-2.2-0.9l0.2-1.6l-1.9-2.4l-2.5-2l0.2-3l-0.1-3.2
		l-2.3-1.7l-1.1,1l-2.5-2.3l1.1-3.5l1-3.9l-2.1-1.8l-0.7-1.7l-1.8,1.1l-1-1l0.7-2.7h-6.8l-1.9-0.1l-5.2,0.1l-2.1-3l-1.5-2.5l-1-1.4
		c-0.4-0.5-0.7-1.1-1-1.7c0-0.3-1.6-1.1-1.6-1.1l-1.9-1.1l-3.7-1.1l-2.9-1.3c0,0-2.1-1.7-2.1-2s-2.2-0.9-2.2-0.9l-1.3-1.6l-1.2-1.2
		l-1.5-2.1l-1.3-1l-0.6-2.4l35.3-130.9l-2.5-57.9l33.5-51.8l19.8-51.8l114.8-20.6L405,88.1l94.5-2l93.1,58.2l0.1,0.8l1.6,10.3
		l2.5,18.5l-2.3,8.1l4.8,2.8l4.1,17.9l6.5,4.8l2.3,6.3l-3.9,5.7l5,14.1l-0.7,10.8l7.4-8l6.3,10l-7.5-0.8l-6,6.6l11.2-0.7l3.8,6.4
		l-7.7,3.3l10.1,12.2l-4.2,6.8l1.2,13.9l-6.9,10.6l6.8,5.1l-11.6,23.6l6,4.8l-2,5.1l4,6.1l-4.6,5.6l1.5,14.2l-3.3,11.1l-4.2,6.9
		l2.4,26.8l10.7,0.7l0.1,7.5l5,0.8l0.7,18.2l3.7,4.9l2,13.1l-10.5-0.3l-3,5.4l9.8,9.1l-0.1,8.3l6.3,8.5l-0.6,7l3.9,7.1l10.4,0.1
		l-1.6,7.5l15.8,13.4l-4.3,5.2l0.7,7.7l6.1,0.3L671,551l-6.1,3l1.5,4.1l24.5,14.5l-1.4,18.3l-5.6,2.6l10.5,14.2l0.1,11.2l-4.3,0.4
		l-1.2,6.1l7.2,0.3l0.6,12.5l4.9,0.1l0.3,40.6l-12.2,12.1L689,699l7.4,4.8l-2,6.3l-8.3,0.4l-0.2,6.7l-12.4,8l-11,0.7l1,8.8l-2.1,5.6
		l-16,7.7l-0.3,0.2L645.2,747.3z"/>
	<path class="st0" d="M143.1,92.8c-0.2,0-0.3-0.1-0.3-0.3c0,0,0,0,0,0V75.1c0-0.2,0.1-0.3,0.3-0.3c0,0,0,0,0,0h5.1
		c2.8,0,4.9,1.7,4.9,4.4c0,2-1.4,3.7-3.3,4.1c2.6,0.3,4.5,1.9,4.5,4.6s-1.7,4.8-5.6,4.8L143.1,92.8z M143.5,75.4v7.8h4.3
		c2.8,0,4.6-1.7,4.6-4s-1.8-3.8-4.2-3.8H143.5z M143.5,83.8v8.4h5.2c3.3,0,4.9-1.8,4.9-4.2s-1.9-4.2-5.1-4.2L143.5,83.8z"/>
	<path class="st0" d="M158.4,83.8c0-4.8,2.5-9.3,7.3-9.3s7.3,4.5,7.3,9.3s-2.5,9.3-7.3,9.3S158.4,88.6,158.4,83.8z M172.3,83.8
		c0-4.4-2.2-8.7-6.6-8.7s-6.6,4.3-6.6,8.7s2.2,8.7,6.6,8.7S172.3,88.2,172.3,83.8L172.3,83.8z"/>
	<path class="st0" d="M178.4,92.8c-0.2,0-0.3-0.1-0.3-0.3c0,0,0,0,0,0V74.9c0-0.2,0.1-0.3,0.3-0.3s0.3,0.1,0.3,0.3l0,0v17.3h8.8
		c0.2,0,0.3,0.1,0.3,0.3c0,0,0,0,0,0c0,0.2-0.1,0.3-0.3,0.3l0,0L178.4,92.8z"/>
	<path class="st0" d="M192.8,92.7c0,0.2-0.1,0.3-0.3,0.3s-0.3-0.1-0.3-0.3V74.9c0-0.2,0.1-0.3,0.3-0.3s0.3,0.1,0.3,0.3l0,0V92.7z"/>
	<path class="st0" d="M209.8,74.9c0.1-0.2,0.1-0.3,0.3-0.3c0.2,0,0.3,0.1,0.3,0.3c0,0,0,0,0,0c0,0.1,0,0.1-0.1,0.2l-6.3,17.6
		c-0.1,0.2-0.2,0.3-0.4,0.2c-0.1,0-0.2-0.1-0.2-0.2l-6.3-17.6c0-0.1,0-0.1-0.1-0.2c0-0.2,0.1-0.3,0.3-0.3c0,0,0,0,0,0
		c0.2,0,0.3,0.1,0.3,0.3l6,17.1L209.8,74.9z"/>
	<path class="st0" d="M215.5,92.7c0,0.2-0.1,0.3-0.3,0.3s-0.3-0.1-0.3-0.3V74.9c0-0.2,0.1-0.3,0.3-0.3s0.3,0.1,0.3,0.3l0,0V92.7z"/>
	<path class="st0" d="M227.6,74.8l6.5,17.7c0,0.1,0,0.2,0.1,0.2c0,0.2-0.1,0.3-0.3,0.3c0,0,0,0,0,0c-0.2,0-0.3-0.1-0.4-0.3l-1.9-5.3
		H223l-2,5.3c-0.1,0.2-0.2,0.3-0.4,0.3c-0.2,0-0.3-0.1-0.3-0.3c0,0,0,0,0,0c0-0.1,0-0.2,0.1-0.2l6.6-17.6c0.1-0.2,0.2-0.3,0.4-0.2
		C227.5,74.6,227.6,74.7,227.6,74.8L227.6,74.8z M227.3,75.6l-4,11.2h8.1L227.3,75.6z"/>
	<path class="st0" d="M346.7,700l6.5,17.7c0,0.1,0,0.2,0,0.2c0,0.2-0.1,0.3-0.3,0.3c0,0,0,0,0,0c-0.2,0-0.3-0.1-0.4-0.3l-1.9-5.3
		h-8.5l-1.9,5.3c-0.1,0.2-0.2,0.3-0.4,0.3c-0.2,0-0.3-0.1-0.3-0.3c0,0,0,0,0,0c0-0.1,0-0.2,0-0.2l6.5-17.7c0.1-0.2,0.2-0.3,0.4-0.2
		C346.6,699.8,346.6,699.9,346.7,700L346.7,700z M346.4,700.8l-4,11.2h8.1L346.4,700.8z"/>
	<path class="st0" d="M358.6,709.6v8.3c0,0.2-0.1,0.3-0.3,0.3c-0.2,0-0.3-0.1-0.3-0.3v-17.5c0-0.2,0.1-0.3,0.3-0.3c0,0,0,0,0,0h6.3
		c2.6,0,4.8,2,4.9,4.7c0,2.4-1.7,4.4-4,4.8l4.1,8.2c0,0.1,0,0.1,0,0.2c0,0.2-0.1,0.3-0.3,0.3c-0.2,0-0.2-0.1-0.3-0.2l-4.2-8.4
		L358.6,709.6L358.6,709.6z M358.6,700.6v8.4h6.1c2.3,0,4.2-1.9,4.2-4.2s-1.9-4.2-4.2-4.2l0,0L358.6,700.6z"/>
	<path class="st0" d="M381.3,718.3c-4.9,0-7.3-4.5-7.3-9.3s2.6-9.3,7.3-9.3c2.2,0,4.2,1,5.4,2.8c0.1,0.1,0.1,0.1,0.1,0.2
		c0,0.2-0.1,0.3-0.3,0.3c0,0,0,0,0,0c-0.1,0-0.2-0.1-0.3-0.2c-1.1-1.6-2.9-2.6-4.9-2.6c-4.4,0-6.7,4.3-6.7,8.7s2.2,8.8,6.7,8.8
		c2.1,0,4-0.8,5.4-2.3v-5h-5.1c-0.2,0-0.3-0.1-0.3-0.3c0,0,0,0,0,0c0-0.2,0.1-0.3,0.3-0.3c0,0,0,0,0,0h5.4c0.1,0,0.3,0.1,0.3,0.2
		c0,0,0,0,0,0.1v5.2c0,0.1,0,0.3-0.1,0.4C385.7,717.4,383.5,718.4,381.3,718.3z"/>
	<path class="st0" d="M393.1,718c-0.2,0-0.3-0.1-0.3-0.3c0,0,0,0,0,0v-17.3c0-0.2,0.1-0.3,0.3-0.3c0,0,0,0,0,0h9.1
		c0.2,0,0.3,0.1,0.3,0.2c0,0.2-0.1,0.3-0.2,0.3c0,0-0.1,0-0.1,0h-8.8v7.7h5.8c0.2,0,0.3,0.1,0.3,0.2c0,0.2-0.1,0.3-0.2,0.3
		c0,0-0.1,0-0.1,0h-5.8v8.5h9.1c0.2,0,0.3,0.2,0.2,0.3c0,0.1-0.1,0.2-0.2,0.2L393.1,718z"/>
	<path class="st0" d="M418.9,718l-10.7-16.8v16.7c0,0.2-0.1,0.3-0.3,0.3c0,0,0,0,0,0c-0.2,0-0.3-0.1-0.3-0.3c0,0,0,0,0,0v-17.8
		c0-0.2,0.1-0.3,0.3-0.3c0.1,0,0.3,0.1,0.3,0.2l10.7,16.9v-16.8c0-0.2,0.1-0.3,0.3-0.3c0,0,0,0,0,0c0.2,0,0.3,0.1,0.3,0.3
		c0,0,0,0,0,0v17.8c0,0.1-0.1,0.3-0.2,0.3c0,0,0,0-0.1,0C419.1,718.2,418.9,718.1,418.9,718z"/>
	<path class="st0" d="M429.9,700.6v17.3c0,0.2-0.1,0.3-0.3,0.3c-0.2,0-0.3-0.1-0.3-0.3v-17.3h-5.5c-0.2,0-0.3-0.1-0.3-0.3
		c0,0,0,0,0,0c0-0.2,0.1-0.3,0.3-0.3c0,0,0,0,0,0h11.5c0.2,0,0.3,0.1,0.3,0.3c0,0,0,0,0,0c0,0.2-0.1,0.3-0.3,0.3c0,0,0,0,0,0H429.9z
		"/>
	<path class="st0" d="M440.5,717.9c0,0.2-0.1,0.3-0.3,0.3c-0.2,0-0.3-0.1-0.3-0.3v-17.8c0-0.2,0.1-0.3,0.3-0.3
		c0.2,0,0.3,0.1,0.3,0.3l0,0V717.9z"/>
	<path class="st0" d="M457.8,718l-10.7-16.8v16.7c0,0.2-0.1,0.3-0.3,0.3c0,0,0,0,0,0c-0.2,0-0.3-0.1-0.3-0.3c0,0,0,0,0,0v-17.8
		c0-0.2,0.1-0.3,0.3-0.3c0.1,0,0.3,0.1,0.3,0.2l10.7,16.9v-16.8c0-0.2,0.1-0.3,0.3-0.3c0,0,0,0,0,0c0.2,0,0.3,0.1,0.3,0.3
		c0,0,0,0,0,0v17.8c0,0.1-0.1,0.3-0.2,0.3c0,0,0,0-0.1,0C458,718.2,457.9,718.1,457.8,718z"/>
	<path class="st0" d="M470.4,700l6.5,17.7c0,0.1,0,0.2,0,0.2c0,0.2-0.1,0.3-0.3,0.3c0,0,0,0,0,0c-0.2,0-0.3-0.1-0.4-0.3l-1.9-5.3
		h-8.5l-1.9,5.3c-0.1,0.2-0.2,0.3-0.4,0.3c-0.2,0-0.3-0.1-0.3-0.3c0,0,0,0,0,0c0-0.1,0-0.2,0-0.2l6.5-17.7c0.1-0.2,0.2-0.3,0.4-0.2
		C470.3,699.8,470.3,699.9,470.4,700z M470.1,700.8L466,712h8.1L470.1,700.8z"/>
	<path class="st0" d="M623.7,92.8c-0.2,0-0.3-0.1-0.3-0.3c0,0,0,0,0,0V75.1c0-0.2,0.1-0.3,0.3-0.3c0,0,0,0,0,0h5.1
		c2.8,0,4.9,1.7,4.9,4.4c0,2-1.4,3.7-3.3,4.1c2.6,0.3,4.5,1.9,4.5,4.6s-1.7,4.8-5.6,4.8L623.7,92.8z M624,75.4v7.8h4.3
		c2.8,0,4.6-1.7,4.6-4s-1.8-3.8-4.2-3.8H624z M624,83.8v8.4h5.2c3.3,0,4.9-1.8,4.9-4.2s-1.9-4.2-5.1-4.2H624z"/>
	<path class="st0" d="M640.4,84.4v8.3c0,0.2-0.1,0.3-0.3,0.3s-0.3-0.1-0.3-0.3V75.1c0-0.2,0.1-0.3,0.3-0.3c0,0,0,0,0,0h6.3
		c2.6,0,4.8,2,4.9,4.7c0,2.4-1.7,4.4-4,4.8l4.1,8.2c0,0.1,0.1,0.1,0,0.2c0,0.2-0.1,0.3-0.3,0.3c-0.2,0-0.2-0.1-0.3-0.2l-4.2-8.4
		L640.4,84.4L640.4,84.4z M640.4,75.4v8.4h6.1c2.3,0,4.2-1.9,4.2-4.2c0-2.3-1.9-4.2-4.2-4.2H640.4z"/>
	<path class="st0" d="M662.5,74.8l6.5,17.7c0,0.1,0,0.2,0,0.2c0,0.2-0.1,0.3-0.3,0.3c0,0,0,0,0,0c-0.2,0-0.3-0.1-0.3-0.3l-1.9-5.3
		h-8.5l-1.9,5.3c-0.1,0.2-0.2,0.3-0.3,0.3c-0.2,0-0.3-0.1-0.3-0.3c0,0,0,0,0,0c0-0.1,0-0.2,0-0.2l6.5-17.7c0.1-0.2,0.2-0.3,0.4-0.2
		C662.4,74.6,662.5,74.7,662.5,74.8L662.5,74.8z M662.2,75.6l-4,11.2h8.1L662.2,75.6z"/>
	<path class="st0" d="M673.2,90.9c-0.1-0.1-0.1-0.1-0.1-0.2c0-0.1,0.1-0.3,0.2-0.3c0.1,0,0.2,0,0.2,0.1c1.4,1.3,3.3,2.1,5.2,2.1
		c3.1,0,5-1.6,5-3.8c0-2.6-1.9-3.4-5.5-4.9s-5-3-5-5.2c0-2.8,2.3-4.2,5.4-4.2c1.9-0.1,3.7,0.6,5.1,1.8c0.1,0.1,0.1,0.1,0.1,0.2
		c0,0.1-0.1,0.3-0.3,0.3l0,0c-0.1,0-0.2,0-0.2-0.1c-1.3-1.1-3-1.7-4.7-1.7c-2.8,0-4.8,1.3-4.8,3.6s1.9,3.5,4.8,4.7
		c4,1.7,5.7,2.7,5.7,5.4s-2.1,4.3-5.7,4.3C676.7,93.1,674.7,92.3,673.2,90.9z"/>
	<path class="st0" d="M690.1,92.7c0,0.2-0.1,0.3-0.3,0.3s-0.3-0.1-0.3-0.3V74.9c0-0.2,0.1-0.3,0.3-0.3s0.3,0.1,0.3,0.3l0,0V92.7z"/>
	<path class="st0" d="M696.5,92.8c-0.2,0-0.3-0.1-0.3-0.3c0,0,0,0,0,0V74.9c0-0.2,0.1-0.3,0.3-0.3s0.3,0.1,0.3,0.3l0,0v17.3h8.8
		c0.2,0,0.3,0.1,0.3,0.3c0,0,0,0,0,0c0,0.2-0.1,0.3-0.3,0.3L696.5,92.8z"/>
	<g>
		<path d="M247.2,374.7V357h5c1.1,0,2.1,0.2,3.1,0.6c0.9,0.4,1.7,0.9,2.4,1.6c0.7,0.7,1.2,1.6,1.6,2.6c0.4,1,0.6,2.1,0.6,3.3v1.6
			c0,1.2-0.2,2.3-0.6,3.3c-0.4,1-0.9,1.8-1.6,2.5c-0.7,0.7-1.5,1.2-2.4,1.6c-0.9,0.4-2,0.6-3.1,0.6H247.2z M248.7,358.2v15.2h3.4
			c1,0,1.8-0.2,2.6-0.5c0.8-0.3,1.4-0.8,2-1.4c0.5-0.6,1-1.3,1.2-2.1c0.3-0.8,0.4-1.8,0.4-2.8V365c0-1-0.1-2-0.4-2.8
			c-0.3-0.8-0.7-1.5-1.2-2.1c-0.5-0.6-1.2-1-1.9-1.4c-0.7-0.3-1.6-0.5-2.5-0.5H248.7z"/>
		<path d="M270.2,367.3H265v7.4h-1.5V357h5.8c0.9,0,1.8,0.1,2.5,0.3c0.7,0.2,1.4,0.6,1.9,1c0.5,0.4,0.9,1,1.2,1.6
			c0.3,0.7,0.4,1.4,0.4,2.2c0,0.6-0.1,1.1-0.3,1.7c-0.2,0.5-0.4,1-0.8,1.4c-0.3,0.4-0.7,0.8-1.2,1.1c-0.5,0.3-1,0.5-1.5,0.7l4.4,7.6
			v0.2h-1.6L270.2,367.3z M265,366h4.6c0.7,0,1.3-0.1,1.8-0.3c0.5-0.2,1-0.5,1.3-0.8c0.3-0.4,0.6-0.8,0.8-1.2c0.2-0.5,0.3-1,0.3-1.5
			c0-0.6-0.1-1.2-0.3-1.6s-0.5-0.9-0.9-1.2c-0.4-0.3-0.9-0.6-1.4-0.8c-0.6-0.2-1.2-0.3-1.9-0.3H265V366z"/>
		<path d="M284,366.6l5.4-9.7h1.7l-6.4,11.1v6.7h-1.5V368l-6.4-11.1h1.8L284,366.6z"/>
		<path d="M312.4,369.2c-0.1,0.9-0.3,1.7-0.6,2.4c-0.3,0.7-0.8,1.3-1.3,1.8c-0.5,0.5-1.2,0.9-2,1.1c-0.8,0.3-1.6,0.4-2.6,0.4
			c-1,0-1.9-0.2-2.7-0.6c-0.8-0.4-1.5-0.9-2.1-1.6c-0.6-0.7-1-1.5-1.4-2.5c-0.3-1-0.5-2.1-0.5-3.3v-2.2c0-1.2,0.2-2.3,0.5-3.3
			c0.3-1,0.8-1.8,1.4-2.5c0.6-0.7,1.3-1.2,2.1-1.6c0.8-0.4,1.8-0.6,2.8-0.6c0.9,0,1.8,0.1,2.6,0.4c0.8,0.3,1.4,0.6,1.9,1.1
			c0.5,0.5,1,1.1,1.3,1.8c0.3,0.7,0.5,1.5,0.6,2.4h-1.5c-0.1-0.7-0.3-1.4-0.5-1.9c-0.2-0.6-0.6-1-1-1.4c-0.4-0.4-0.9-0.7-1.5-0.9
			c-0.6-0.2-1.2-0.3-2-0.3c-0.8,0-1.6,0.2-2.2,0.5c-0.7,0.3-1.2,0.8-1.7,1.4c-0.5,0.6-0.8,1.3-1,2.1c-0.2,0.8-0.4,1.7-0.4,2.8v2.3
			c0,1,0.1,1.9,0.3,2.7c0.2,0.8,0.6,1.5,1,2.1c0.4,0.6,1,1.1,1.6,1.4c0.6,0.3,1.4,0.5,2.2,0.5c1.6,0,2.8-0.4,3.6-1.1
			c0.8-0.8,1.3-1.9,1.5-3.4H312.4z"/>
		<path d="M329.3,374.7h-1.5v-8.5h-10.2v8.5h-1.5V357h1.5v8h10.2v-8h1.5V374.7z"/>
		<path d="M343.6,369.7h-8.1l-1.8,5h-1.6l6.7-17.8h1.4l6.7,17.8h-1.6L343.6,369.7z M336,368.5h7.1l-3.6-9.7L336,368.5z"/>
		<path d="M362.1,369.2c-0.1,0.9-0.3,1.7-0.6,2.4c-0.3,0.7-0.8,1.3-1.3,1.8c-0.5,0.5-1.2,0.9-2,1.1c-0.8,0.3-1.6,0.4-2.6,0.4
			c-1,0-1.9-0.2-2.7-0.6c-0.8-0.4-1.5-0.9-2.1-1.6c-0.6-0.7-1-1.5-1.4-2.5c-0.3-1-0.5-2.1-0.5-3.3v-2.2c0-1.2,0.2-2.3,0.5-3.3
			c0.3-1,0.8-1.8,1.4-2.5c0.6-0.7,1.3-1.2,2.1-1.6c0.8-0.4,1.8-0.6,2.8-0.6c0.9,0,1.8,0.1,2.6,0.4c0.8,0.3,1.4,0.6,1.9,1.1
			c0.5,0.5,1,1.1,1.3,1.8c0.3,0.7,0.5,1.5,0.6,2.4h-1.5c-0.1-0.7-0.3-1.4-0.5-1.9c-0.2-0.6-0.6-1-1-1.4c-0.4-0.4-0.9-0.7-1.5-0.9
			c-0.6-0.2-1.2-0.3-2-0.3c-0.8,0-1.6,0.2-2.2,0.5c-0.7,0.3-1.2,0.8-1.7,1.4c-0.5,0.6-0.8,1.3-1,2.1c-0.2,0.8-0.4,1.7-0.4,2.8v2.3
			c0,1,0.1,1.9,0.3,2.7c0.2,0.8,0.6,1.5,1,2.1c0.4,0.6,1,1.1,1.6,1.4c0.6,0.3,1.4,0.5,2.2,0.5c1.6,0,2.8-0.4,3.6-1.1
			c0.8-0.8,1.3-1.9,1.5-3.4H362.1z"/>
		<path d="M378.8,366.8c0,1.2-0.2,2.4-0.5,3.4c-0.3,1-0.8,1.9-1.4,2.6c-0.6,0.7-1.3,1.3-2.2,1.6c-0.9,0.4-1.8,0.6-2.9,0.6
			c-1,0-2-0.2-2.8-0.6c-0.9-0.4-1.6-0.9-2.2-1.6s-1.1-1.6-1.4-2.6c-0.3-1-0.5-2.1-0.5-3.4v-1.9c0-1.2,0.2-2.4,0.5-3.4
			c0.3-1,0.8-1.9,1.4-2.6c0.6-0.7,1.3-1.3,2.2-1.6c0.9-0.4,1.8-0.6,2.8-0.6c1,0,2,0.2,2.9,0.6c0.9,0.4,1.6,0.9,2.2,1.6
			c0.6,0.7,1.1,1.6,1.4,2.6c0.3,1,0.5,2.1,0.5,3.4V366.8z M377.3,364.9c0-1-0.1-2-0.4-2.8c-0.2-0.8-0.6-1.6-1.1-2.2
			c-0.5-0.6-1-1-1.7-1.4c-0.7-0.3-1.4-0.5-2.3-0.5c-0.8,0-1.6,0.2-2.3,0.5c-0.7,0.3-1.2,0.8-1.7,1.4c-0.5,0.6-0.8,1.3-1.1,2.2
			c-0.2,0.8-0.4,1.8-0.4,2.8v1.9c0,1.1,0.1,2,0.4,2.9c0.3,0.8,0.6,1.6,1.1,2.2c0.5,0.6,1,1,1.7,1.4c0.7,0.3,1.4,0.5,2.3,0.5
			c0.9,0,1.6-0.2,2.3-0.5c0.7-0.3,1.2-0.8,1.7-1.4c0.5-0.6,0.8-1.3,1-2.2c0.2-0.8,0.4-1.8,0.4-2.9V364.9z"/>
	</g>
	<g class="st4">
		<path d="M561.3,598.9l0.5,2.8l0.7-2.6l3.9-13.1h1.4l3.8,13.1l0.7,2.7l0.6-2.8l3.2-13h1.5l-4.6,17.8h-1.4l-4-13.9l-0.5-1.8
			l-0.4,1.8l-4.1,13.9h-1.4l-4.5-17.8h1.5L561.3,598.9z"/>
		<path d="M590.3,595.2h-8.3v7.3h9.6v1.3h-11.1V586h11v1.3h-9.5v6.7h8.3V595.2z"/>
		<path d="M607,587.2h-6.1v16.5h-1.5v-16.5h-6.1V586H607V587.2z"/>
		<path d="M570.6,628.2c-0.1,0.9-0.3,1.7-0.6,2.4c-0.3,0.7-0.8,1.3-1.3,1.8s-1.2,0.9-2,1.1c-0.8,0.3-1.6,0.4-2.6,0.4
			c-1,0-1.9-0.2-2.7-0.6c-0.8-0.4-1.5-0.9-2.1-1.6c-0.6-0.7-1-1.5-1.4-2.5c-0.3-1-0.5-2.1-0.5-3.3v-2.2c0-1.2,0.2-2.3,0.5-3.3
			c0.3-1,0.8-1.8,1.4-2.5c0.6-0.7,1.3-1.2,2.1-1.6c0.8-0.4,1.8-0.6,2.8-0.6c0.9,0,1.8,0.1,2.6,0.4s1.4,0.6,1.9,1.1
			c0.5,0.5,1,1.1,1.3,1.8c0.3,0.7,0.5,1.5,0.6,2.4h-1.5c-0.1-0.7-0.3-1.4-0.5-1.9s-0.6-1-1-1.4c-0.4-0.4-0.9-0.7-1.5-0.9
			c-0.6-0.2-1.2-0.3-2-0.3c-0.8,0-1.6,0.2-2.2,0.5c-0.7,0.3-1.2,0.8-1.7,1.4c-0.5,0.6-0.8,1.3-1,2.1c-0.2,0.8-0.4,1.7-0.4,2.8v2.3
			c0,1,0.1,1.9,0.3,2.7c0.2,0.8,0.6,1.5,1,2.1c0.4,0.6,1,1.1,1.6,1.4c0.6,0.3,1.4,0.5,2.2,0.5c1.6,0,2.8-0.4,3.6-1.1
			c0.8-0.8,1.3-1.9,1.5-3.4H570.6z"/>
		<path d="M587.4,633.7h-1.5v-8.5h-10.2v8.5h-1.5V616h1.5v8h10.2v-8h1.5V633.7z"/>
		<path d="M601.8,628.7h-8.1l-1.8,5h-1.6L597,616h1.4l6.7,17.8h-1.6L601.8,628.7z M594.2,627.5h7.1l-3.6-9.7L594.2,627.5z"/>
		<path d="M620.2,628.2c-0.1,0.9-0.3,1.7-0.6,2.4c-0.3,0.7-0.8,1.3-1.3,1.8c-0.5,0.5-1.2,0.9-2,1.1c-0.8,0.3-1.6,0.4-2.6,0.4
			c-1,0-1.9-0.2-2.7-0.6c-0.8-0.4-1.5-0.9-2.1-1.6c-0.6-0.7-1-1.5-1.4-2.5s-0.5-2.1-0.5-3.3v-2.2c0-1.2,0.2-2.3,0.5-3.3
			c0.3-1,0.8-1.8,1.4-2.5c0.6-0.7,1.3-1.2,2.1-1.6c0.8-0.4,1.8-0.6,2.8-0.6c0.9,0,1.8,0.1,2.6,0.4c0.8,0.3,1.4,0.6,1.9,1.1
			c0.5,0.5,1,1.1,1.3,1.8c0.3,0.7,0.5,1.5,0.6,2.4h-1.5c-0.1-0.7-0.3-1.4-0.5-1.9s-0.6-1-1-1.4c-0.4-0.4-0.9-0.7-1.5-0.9
			c-0.6-0.2-1.2-0.3-2-0.3c-0.8,0-1.6,0.2-2.2,0.5c-0.7,0.3-1.2,0.8-1.7,1.4c-0.5,0.6-0.8,1.3-1,2.1c-0.2,0.8-0.4,1.7-0.4,2.8v2.3
			c0,1,0.1,1.9,0.3,2.7c0.2,0.8,0.6,1.5,1,2.1c0.4,0.6,1,1.1,1.6,1.4c0.6,0.3,1.4,0.5,2.2,0.5c1.6,0,2.8-0.4,3.6-1.1
			c0.8-0.8,1.3-1.9,1.5-3.4H620.2z"/>
		<path d="M637,625.8c0,1.2-0.2,2.4-0.5,3.4c-0.3,1-0.8,1.9-1.4,2.6c-0.6,0.7-1.3,1.3-2.2,1.6s-1.8,0.6-2.9,0.6c-1,0-2-0.2-2.8-0.6
			s-1.6-0.9-2.2-1.6s-1.1-1.6-1.4-2.6c-0.3-1-0.5-2.1-0.5-3.4v-1.9c0-1.2,0.2-2.4,0.5-3.4c0.3-1,0.8-1.9,1.4-2.6
			c0.6-0.7,1.3-1.3,2.2-1.6c0.8-0.4,1.8-0.6,2.8-0.6c1,0,2,0.2,2.9,0.6c0.9,0.4,1.6,0.9,2.2,1.6s1.1,1.6,1.4,2.6
			c0.3,1,0.5,2.1,0.5,3.4V625.8z M635.5,623.9c0-1-0.1-2-0.4-2.8s-0.6-1.6-1.1-2.2c-0.5-0.6-1-1-1.7-1.4c-0.7-0.3-1.4-0.5-2.3-0.5
			c-0.8,0-1.6,0.2-2.3,0.5c-0.7,0.3-1.2,0.8-1.7,1.4c-0.5,0.6-0.8,1.3-1.1,2.2c-0.2,0.8-0.4,1.8-0.4,2.8v1.9c0,1.1,0.1,2,0.4,2.9
			c0.3,0.8,0.6,1.6,1.1,2.2c0.5,0.6,1,1,1.7,1.4c0.7,0.3,1.4,0.5,2.3,0.5c0.9,0,1.6-0.2,2.3-0.5c0.7-0.3,1.2-0.8,1.7-1.4
			s0.8-1.3,1-2.2c0.2-0.8,0.4-1.8,0.4-2.9V623.9z"/>
	</g>
</g>
</svg>
