<svg xmlns="http://www.w3.org/2000/svg" viewBox="0 0 236.59 140.45"><defs><style>.cls-1{fill:#c6e6e7;}.cls-2{fill:#e6eec5;}.cls-3{fill:#3e3f3c;}.cls-4{fill:#fff;}.cls-5{fill:#8d8b88;}.cls-6{fill:#312e2a;}</style></defs><title>Recurso 2</title><g id="Capa_2" data-name="Capa 2"><g id="editable"><path class="cls-1" d="M71.83,35.26c-3.56,0-6.15-2.76-6.15-6.56s2.58-6.56,6.15-6.56S78,24.89,78,28.7,75.39,35.26,71.83,35.26Z"/><path class="cls-2" d="M12.27,0A5.3,5.3,0,0,0,8.75,1.23C6.65,3.11,4.1,4.69,3.55,7.45c-.5,2.54.19,5.13.76,7.65s1,5,1.35,7.51a8.78,8.78,0,0,1-.26,4.65C4.2,30.08.34,31.46,0,34.51a5.82,5.82,0,0,0,.81,3.2,15.91,15.91,0,0,0,4.35,5.24,5.84,5.84,0,0,0,2.46,1.26,3.77,3.77,0,0,0,.69.06,7,7,0,0,0,3.36-1.1,29.14,29.14,0,0,0,6.92-5.86c2.19-2.41,4.22-5.1,5-8.24a24.55,24.55,0,0,0,.53-6.35,39,39,0,0,0-.27-5.41c-.82-5.7-3.67-11-7.28-15.49A6,6,0,0,0,12.27,0"/><path class="cls-3" d="M17.15,10.87,10.23,34.23a1.65,1.65,0,0,1-1.66,1.34,1.62,1.62,0,0,1-1.63-1.63,2.06,2.06,0,0,1,.13-.61L13.91,10a1.6,1.6,0,0,1,1.7-1.28,1.56,1.56,0,0,1,1.63,1.63,1.81,1.81,0,0,1-.1.54"/><path class="cls-2" d="M200.35,79.82a2.33,2.33,0,0,0-.45,0,5.12,5.12,0,0,0-1.68.8,41.31,41.31,0,0,0-11,10.7,5.84,5.84,0,0,0-.37,6,8.38,8.38,0,0,0,4.13,3.38,21.48,21.48,0,0,1,4.74,2.48c3.56,2.9,4.53,8.91,8.51,11.14,1.07.6,2.3.88,3.42,1.4,2.6,1.21,4.43,3.66,6.12,6.1s3.38,5,5.79,6.54a8,8,0,0,0,4.26,1.26,7.27,7.27,0,0,0,4.3-1.4,13,13,0,0,0,3.4-4,11.29,11.29,0,0,0,1.53-3.88,8.77,8.77,0,0,0-1.13-5.39c-2.59-5-7.21-8.46-8.58-14.23-.67-2.86-.51-6.14-1.68-8.69-1.74-3.77-5.87-4.95-9.51-6.32a45.46,45.46,0,0,1-9.32-4.82,4.61,4.61,0,0,0-2.46-1"/><path class="cls-4" d="M125.9,45a2,2,0,0,0-2.05,2.05V54.5h-9V47.05a2.05,2.05,0,1,0-4.1,0V66.26a2,2,0,0,0,2.05,2.05,2,2,0,0,0,2.05-2.05v-8h9v8a2.05,2.05,0,0,0,4.1,0V47.05A2,2,0,0,0,125.9,45Zm-32,3.55A5.4,5.4,0,0,1,98,50.44a2.08,2.08,0,0,0,1.57.79,1.77,1.77,0,0,0,1.81-1.85,2.06,2.06,0,0,0-.55-1.37,8.8,8.8,0,0,0-7-3.14c-5.57,0-10.19,4.24-10.19,11.79s4.61,11.79,10.19,11.79a8.8,8.8,0,0,0,7-3.15,2.06,2.06,0,0,0,.55-1.37,1.77,1.77,0,0,0-1.81-1.85,2.08,2.08,0,0,0-1.57.79,5.4,5.4,0,0,1-4.14,1.88c-3.52,0-6.12-3.18-6.12-8.1S90.35,48.56,93.87,48.56Zm54.72-2.29a2,2,0,0,0-3.69,0l-7.73,19.42a1.86,1.86,0,0,0,1.78,2.63,1.67,1.67,0,0,0,1.74-1.2l1.54-3.86h9l1.54,3.86a1.66,1.66,0,0,0,1.74,1.2,1.86,1.86,0,0,0,1.78-2.63ZM143.53,59.7l3.21-8.55L150,59.7Zm56.14-14.75c-6,0-10,5.07-10,11.75s4,11.74,10,11.74,10-5.07,10-11.74S205.63,44.95,199.67,44.95Zm0,19.81c-4.05-.08-5.89-3.91-5.89-8.07s1.84-8.07,5.89-8.07,6,3.89,5.89,8.07S203.63,64.84,199.67,64.76ZM173.91,48.63A5.37,5.37,0,0,1,178,50.5a2.07,2.07,0,0,0,1.57.78,1.76,1.76,0,0,0,1.81-1.84,2.05,2.05,0,0,0-.55-1.36,8.76,8.76,0,0,0-7-3.13c-5.55,0-10.15,4.22-10.15,11.74s4.6,11.74,10.15,11.74a8.77,8.77,0,0,0,7-3.13,2,2,0,0,0,.55-1.36,1.76,1.76,0,0,0-1.81-1.84,2.07,2.07,0,0,0-1.57.78,5.38,5.38,0,0,1-4.12,1.87c-3.51,0-6.09-3.17-6.09-8.07S170.4,48.63,173.91,48.63Z"/><path class="cls-5" d="M84.82,114.38a1.67,1.67,0,0,0,1.74-1.2l1.54-3.86h9l1.54,3.86a1.66,1.66,0,0,0,1.74,1.2,1.86,1.86,0,0,0,1.78-2.63L94.46,92.33a2,2,0,0,0-3.69,0L83,111.75a1.86,1.86,0,0,0,1.78,2.63Zm7.79-17.16,3.21,8.55H89.4Z"/><path class="cls-5" d="M58.68,114.38a2,2,0,0,0,2.05-2.05v-8h9v8a2.05,2.05,0,1,0,4.1,0V93.12a2.05,2.05,0,1,0-4.1,0v7.45h-9V93.12a2.05,2.05,0,1,0-4.1,0v19.21A2,2,0,0,0,58.68,114.38Z"/><path class="cls-5" d="M39.71,114.52a8.8,8.8,0,0,0,7-3.15,2.06,2.06,0,0,0,.55-1.37,1.77,1.77,0,0,0-1.81-1.85,2.08,2.08,0,0,0-1.57.79,5.4,5.4,0,0,1-4.14,1.88c-3.52,0-6.12-3.18-6.12-8.1s2.6-8.1,6.12-8.1a5.4,5.4,0,0,1,4.14,1.88,2.07,2.07,0,0,0,1.57.79,1.77,1.77,0,0,0,1.81-1.85,2.06,2.06,0,0,0-.55-1.37,8.8,8.8,0,0,0-7-3.14c-5.57,0-10.19,4.24-10.19,11.79S34.14,114.52,39.71,114.52Z"/><path class="cls-5" d="M145.54,91c-6,0-10,5.07-10,11.75s4,11.74,10,11.74,10-5.07,10-11.74S151.5,91,145.54,91Zm0,19.81c-4.05-.08-5.89-3.91-5.89-8.07s1.84-8.07,5.89-8.07,6,3.89,5.89,8.07S149.5,110.9,145.54,110.82Z"/><path class="cls-5" d="M119.78,94.69a5.37,5.37,0,0,1,4.12,1.87,2.07,2.07,0,0,0,1.57.78,1.76,1.76,0,0,0,1.8-1.84,2.05,2.05,0,0,0-.54-1.36,8.76,8.76,0,0,0-7-3.13c-5.55,0-10.15,4.22-10.15,11.74s4.6,11.74,10.15,11.74a8.77,8.77,0,0,0,7-3.13,2,2,0,0,0,.54-1.36,1.76,1.76,0,0,0-1.8-1.84,2.07,2.07,0,0,0-1.57.78,5.38,5.38,0,0,1-4.12,1.87c-3.51,0-6.09-3.17-6.09-8.07S116.27,94.69,119.78,94.69Z"/><path class="cls-6" d="M217.27,92H192.91a1.79,1.79,0,0,0-.55.06,1.56,1.56,0,0,0-1.1,2A1.6,1.6,0,0,0,193,95.32l24.34-.07a2.05,2.05,0,0,0,.62,0,1.62,1.62,0,0,0,1.1-2A1.65,1.65,0,0,0,217.27,92Z"/><path class="cls-4" d="M40.88,37.39h-9.8a1.61,1.61,0,0,1-1.62-1.59V21.58A1.61,1.61,0,0,1,31.08,20h9.4A1.47,1.47,0,0,1,42,21.45a1.49,1.49,0,0,1-1.52,1.49H32.65V27.1H37a1.49,1.49,0,0,1,1.49,1.49A1.47,1.47,0,0,1,37,30H32.65v4.39h8.23a1.49,1.49,0,0,1,1.52,1.49A1.47,1.47,0,0,1,40.88,37.39Z"/><path class="cls-4" d="M57.13,33.31a1.81,1.81,0,0,1,1-.37,1.4,1.4,0,0,1,1.44,1.46,1.47,1.47,0,0,1-.5,1.07,8.22,8.22,0,0,1-5.82,2.22c-5.12,0-8.88-3.55-8.88-9s3.76-9,8.88-9a8.23,8.23,0,0,1,5.82,2.22,1.47,1.47,0,0,1,.5,1.07,1.4,1.4,0,0,1-1.44,1.46,1.82,1.82,0,0,1-1-.37,5.84,5.84,0,0,0-3.84-1.44c-3.42,0-5.67,2.59-5.67,6.06s2.25,6.06,5.67,6.06A5.84,5.84,0,0,0,57.13,33.31Z"/><path class="cls-4" d="M71.8,37.7a8.82,8.82,0,0,1-8.93-9,8.93,8.93,0,1,1,17.87,0A8.82,8.82,0,0,1,71.8,37.7Zm0-15.15c-3.55,0-5.72,2.82-5.72,6.14s2.17,6.14,5.72,6.14,5.72-2.82,5.72-6.14S75.35,22.55,71.8,22.55Z"/><path class="cls-4" d="M95.12,29.53l3.4,6.95a.84.84,0,0,1,.11.37.76.76,0,0,1-.76.76.73.73,0,0,1-.73-.44l-3.68-7.5H87v7.16a.76.76,0,0,1-.78.78.77.77,0,0,1-.79-.78v-16a.79.79,0,0,1,.79-.78h7.5c3.45,0,5.36,2.06,5.36,4.83A4.54,4.54,0,0,1,95.12,29.53ZM94,21.4H87v6.84h7a3.25,3.25,0,0,0,3.47-3.42A3.25,3.25,0,0,0,94,21.4Z"/><path class="cls-4" d="M114.05,29.53l3.4,6.95a.84.84,0,0,1,.11.37.76.76,0,0,1-.76.76.73.73,0,0,1-.73-.44l-3.68-7.5h-6.45v7.16a.76.76,0,0,1-.78.78.77.77,0,0,1-.79-.78v-16a.79.79,0,0,1,.79-.78h7.5c3.45,0,5.36,2.06,5.36,4.83A4.54,4.54,0,0,1,114.05,29.53ZM113,21.4h-7v6.84h7a3.25,3.25,0,0,0,3.47-3.42A3.25,3.25,0,0,0,113,21.4Z"/><path class="cls-4" d="M124.87,36h9.3a.71.71,0,0,1,0,1.41H124.08a.77.77,0,0,1-.79-.78V20.78a.77.77,0,0,1,.79-.78h10.06a.71.71,0,0,1,0,1.41h-9.27v6.3h5.38a.71.71,0,0,1,0,1.41h-5.38Z"/><path class="cls-4" d="M153.57,34.78a9.44,9.44,0,0,1-7.05,2.93c-5.85,0-8.7-4.52-8.7-9,0-5.07,3.61-9,8.7-9a8.23,8.23,0,0,1,6,2.43.85.85,0,0,1,.21.55.67.67,0,0,1-.71.68.72.72,0,0,1-.55-.21,6.86,6.86,0,0,0-5-2c-4.31,0-7.13,3.47-7.13,7.58s2.43,7.68,7.18,7.68a8.08,8.08,0,0,0,5.7-2.22V30.28h-5a.68.68,0,1,1,0-1.36H153a.72.72,0,0,1,.76.73v4.52A.89.89,0,0,1,153.57,34.78Z"/><path class="cls-4" d="M159.83,37.6a.77.77,0,0,1-.78-.78V20.57a.78.78,0,0,1,1.57,0V36.81A.77.77,0,0,1,159.83,37.6Z"/><path class="cls-4" d="M174.41,37.7a8.73,8.73,0,0,1-8.78-9,8.75,8.75,0,1,1,17.5,0A8.69,8.69,0,0,1,174.41,37.7Zm0-16.64c-4.49,0-7.21,3.63-7.21,7.63s2.72,7.63,7.21,7.63,7.16-3.63,7.16-7.63S178.9,21.06,174.41,21.06Z"/><path class="cls-4" d="M201.18,37.6a.69.69,0,0,1-.6-.34L189.5,22.66V36.87a.74.74,0,0,1-1.49,0V20.54a.73.73,0,0,1,.78-.76.75.75,0,0,1,.6.34l11,14.63V20.54a.75.75,0,1,1,1.49,0V36.87A.71.71,0,0,1,201.18,37.6Z"/><path class="cls-4" d="M209.5,36h9.3a.71.71,0,0,1,0,1.41H208.72a.77.77,0,0,1-.78-.78V20.78a.77.77,0,0,1,.78-.78h10.06a.71.71,0,1,1,0,1.41H209.5v6.3h5.38a.71.71,0,0,1,0,1.41H209.5Z"/><path class="cls-4" d="M230.11,37.7a11,11,0,0,1-6.58-2.17.89.89,0,0,1-.37-.65.62.62,0,0,1,.65-.63,1.09,1.09,0,0,1,.63.24,9.65,9.65,0,0,0,5.64,1.85c3.13,0,4.94-1.28,4.94-3.21s-2-2.87-5-3.79c-5.17-1.57-6.48-3.19-6.48-5.22,0-3,3-4.44,6.48-4.44a9.79,9.79,0,0,1,5.62,1.67.65.65,0,0,1,.37.55.68.68,0,0,1-.71.68.86.86,0,0,1-.42-.13A9.34,9.34,0,0,0,230,21c-2.72,0-4.88.91-4.88,3.08,0,1.78,1.44,2.66,4.94,3.81,4.1,1.36,6.56,2.25,6.56,5.15S234.13,37.7,230.11,37.7Z"/><path class="cls-1" d="M71.91,138.07c-3.56,0-6.15-2.76-6.15-6.56s2.58-6.56,6.15-6.56,6.15,2.76,6.15,6.56S75.47,138.07,71.91,138.07Z"/><path class="cls-5" d="M40.88,140.13h-9.8a1.61,1.61,0,0,1-1.62-1.59V124.33a1.61,1.61,0,0,1,1.62-1.59h9.4A1.47,1.47,0,0,1,42,124.2a1.49,1.49,0,0,1-1.52,1.49H32.65v4.15H37a1.49,1.49,0,0,1,1.49,1.49A1.47,1.47,0,0,1,37,132.79H32.65v4.39h8.23a1.49,1.49,0,0,1,1.52,1.49A1.47,1.47,0,0,1,40.88,140.13Z"/><path class="cls-5" d="M57.13,136.06a1.81,1.81,0,0,1,1-.37,1.41,1.41,0,0,1,1.44,1.46,1.48,1.48,0,0,1-.5,1.07,8.23,8.23,0,0,1-5.83,2.22c-5.12,0-8.88-3.55-8.88-9s3.76-9,8.88-9a8.23,8.23,0,0,1,5.83,2.22,1.48,1.48,0,0,1,.5,1.07,1.41,1.41,0,0,1-1.44,1.46,1.82,1.82,0,0,1-1-.37,5.84,5.84,0,0,0-3.84-1.44c-3.42,0-5.67,2.59-5.67,6.06s2.25,6.06,5.67,6.06A5.83,5.83,0,0,0,57.13,136.06Z"/><path class="cls-5" d="M71.8,140.45a9,9,0,1,1,8.93-9A8.82,8.82,0,0,1,71.8,140.45Zm0-15.15c-3.55,0-5.72,2.82-5.72,6.14s2.17,6.14,5.72,6.14,5.72-2.82,5.72-6.14S75.35,125.29,71.8,125.29Z"/><path class="cls-5" d="M95.12,132.27l3.4,6.95a.84.84,0,0,1,.11.37.76.76,0,0,1-.76.76.73.73,0,0,1-.73-.44l-3.68-7.5H87v7.16a.76.76,0,0,1-.78.78.77.77,0,0,1-.79-.78v-16a.79.79,0,0,1,.79-.78h7.5c3.45,0,5.36,2.06,5.36,4.83A4.54,4.54,0,0,1,95.12,132.27ZM94,124.14H87V131h7a3.42,3.42,0,1,0,0-6.84Z"/><path class="cls-5" d="M105.93,138.72h9.3a.71.71,0,0,1,0,1.41H105.15a.77.77,0,0,1-.79-.78V123.52a.77.77,0,0,1,.79-.78h10.06a.71.71,0,0,1,0,1.41h-9.27v6.3h5.38a.71.71,0,1,1,0,1.41h-5.38Z"/><path class="cls-5" d="M134.64,137.52a9.44,9.44,0,0,1-7.05,2.93c-5.85,0-8.7-4.52-8.7-9,0-5.07,3.61-9,8.7-9a8.23,8.23,0,0,1,6,2.43.85.85,0,0,1,.21.55.67.67,0,0,1-.71.68.72.72,0,0,1-.55-.21,6.86,6.86,0,0,0-5-2c-4.31,0-7.13,3.47-7.13,7.58s2.43,7.68,7.18,7.68a8.08,8.08,0,0,0,5.7-2.22V133h-5a.68.68,0,1,1,0-1.36h5.75a.72.72,0,0,1,.76.73v4.52A.89.89,0,0,1,134.64,137.52Z"/><path class="cls-5" d="M140.9,140.34a.77.77,0,0,1-.78-.78V123.31a.78.78,0,0,1,1.57,0v16.25A.77.77,0,0,1,140.9,140.34Z"/><path class="cls-5" d="M155.47,140.45a9,9,0,1,1,8.72-9A8.73,8.73,0,0,1,155.47,140.45Zm0-16.64c-4.49,0-7.21,3.63-7.21,7.63s2.72,7.63,7.21,7.63,7.16-3.63,7.16-7.63S160,123.81,155.47,123.81Z"/><path class="cls-5" d="M182.24,140.34a.69.69,0,0,1-.6-.34l-11.08-14.6v14.21a.75.75,0,0,1-1.49,0V123.28a.73.73,0,0,1,.79-.76.75.75,0,0,1,.6.34l11.05,14.63V123.28a.74.74,0,1,1,1.49,0v16.33A.71.71,0,0,1,182.24,140.34Z"/><path class="cls-5" d="M195.17,140.45a11,11,0,0,1-6.58-2.17.89.89,0,0,1-.37-.65.62.62,0,0,1,.65-.63,1.08,1.08,0,0,1,.63.24,9.65,9.65,0,0,0,5.64,1.85c3.13,0,4.94-1.28,4.94-3.21s-2-2.87-5-3.79c-5.17-1.57-6.48-3.19-6.48-5.22,0-3,3-4.44,6.48-4.44a9.8,9.8,0,0,1,5.62,1.67.65.65,0,0,1,.37.55.68.68,0,0,1-.71.68.87.87,0,0,1-.42-.13,9.33,9.33,0,0,0-4.88-1.41c-2.72,0-4.88.91-4.88,3.08,0,1.78,1.44,2.66,4.94,3.81,4.1,1.36,6.56,2.25,6.56,5.15S199.19,140.45,195.17,140.45Z"/><path class="cls-4" d="M35.6,66.21h-5a.77.77,0,0,1-.78-.78V49.6a.77.77,0,0,1,.78-.78h5a8.36,8.36,0,0,1,8.67,8.7A8.36,8.36,0,0,1,35.6,66.21Zm-.1-16H31.43V64.8H35.5c4.55,0,7.21-3.19,7.21-7.29S40,50.23,35.5,50.23Z"/><path class="cls-4" d="M50.54,64.8h9.3a.71.71,0,0,1,0,1.41H49.76a.77.77,0,0,1-.78-.78V49.6a.77.77,0,0,1,.78-.78H59.82a.71.71,0,0,1,0,1.41H50.54v6.3h5.38a.71.71,0,1,1,0,1.41H50.54Z"/><path class="cls-4" d="M76.16,64.8a.71.71,0,0,1,0,1.41H66a.77.77,0,0,1-.78-.78v-16a.78.78,0,1,1,1.57,0V64.8Z"/></g></g></svg>