<?xml version="1.0" encoding="utf-8"?>
<!-- Generator: Adobe Illustrator 21.0.0, SVG Export Plug-In . SVG Version: 6.00 Build 0)  -->
<svg version="1.1" id="PARAGUAY" xmlns="http://www.w3.org/2000/svg" xmlns:xlink="http://www.w3.org/1999/xlink" x="0px" y="0px"
	 viewBox="0 0 848 855" style="enable-background:new 0 0 848 855;" xml:space="preserve">
<style type="text/css">
	.st0{display:none;fill:#F3F3F5;}
	.st1{fill:#E2E4E7;}
	.st2{opacity:0.5;}
	.st3{opacity:0.5;fill:#0098A6;enable-background:new    ;}
	.st4{opacity:0.6;}
	.st5{fill:#312E2A;}
	.st6{opacity:0.3;}
	.st7{opacity:0.16;}
	.st8{fill:none;stroke:#87868A;stroke-width:2;stroke-miterlimit:10;}
</style>
<title>zoom_2_esp</title>
<rect class="st0" width="848" height="855"/>
<path class="st1" d="M397.6,53.2l79.4,49.2l0.9,8.2l0.9,6.7l1.1,7.3l0.3,4.1l-1.5,5.8l3.5,2l1.7,5.9l1.8,9.6l5.5,3.8l2,5.9l-3.3,4.8
	l2.5,6.8l1.7,4.8l-0.5,9.1l6.1-6.8l5.3,8.5l-6.1-0.8l-4.2,5.8l8.3-0.1l3.3,4.9l-6.6,2.8l4.9,5.9l3.8,4.4l-3,6l0.4,6v5.6l-5.5,9.3
	l6,4.1l-2.6,4.3l-4.7,9.5l-2.5,6.6l4.7,3.8l-1.7,4.3l3.5,5.2l-3.9,4.8l1.2,7l0.1,5.1l-2.3,9.6l-3.5,3.9l1.3,7.8l1.8-1.6l1.5,0.5
	l1,2.5l1.9,1l1.9,0.3l1.6,0.6l2.7-0.9l2.7,2.4l2.1-2.1l1.6,0.9l1.9-1.2l0.5-2l2.4,0.2l0.8-1.2l1.8,0.8l2.5,0.2l2-0.6l0.7,2.4
	l1.3,1.2l0.5,2.5l1.1,1.5h1.7l1,0.5l2.1-1l3.4,1.9h3.6l2.4,0.5l2.6,0.6l0.6,1.3l1.2,0.9l2.1,0.6l2.6-0.5l1.9-0.9l1.9,1.6l1.7,0.7
	l1.9,0.2l2.3-1.7v-0.8l4.9,1.1l1-0.2l3.4,1l3.4-0.3l2.2-0.1l2.9-0.8l1.6,1l1.7,0.5l4.3,1.6l1.5-1.1l1.1,1.7l1.1,2.3l2.3-0.1l2.7-1.2
	l0.8-2.4h1.5l1.9-0.9l3,0.6l2.2-0.7v-1.5l2.8,2.1l2,0.5l3.1-1.5l1.5-1.7l2.8-1.9l1-2.1l1.7-2.6l1.2-3.7l1.4-1l2.8-1.5l2.2,0.3l4-0.7
	l1,1.9l1.2,3.3l0.6,3.5l1.5,1.5l3.6,2.9l2,1.2l2.3,1l1.5-0.2l0.9,2.4l2.5,1.5l3.3,0.5h3.3l1.1-0.6l2.3,0.6l2.2-0.5l1.8,0.4l2.4,0.5
	l2.6-0.8l0.9,1l1.9,0.1l1.9-1l1.7,0.4l3.7-0.1l2,3.2l3.6,5l0.7,1.5h4l0.7,3.5l-0.4,3.6l-0.7,1.5l0.3,3.5l1.7,3.3l1.9,1.3l0.9,1.5
	l2.3,1.6l0.9,1.4h1.4l1.4,2.8l0.6,3.6v6.4l-2.8,4l-0.7,2.4l-0.8,3.6l0.1,2.3l1.1,1l-0.1,2.2l0.2,2.3l0.7,1.9l1.4,2.3l-1,2.4
	l-0.2,1.3l2.1,1.5v4.4l1,1.9v3.7h3l1.8,1.1v1.8l1.6,1.6v1.6l-1.9,0.6l0.7,1.5l1.2,1.7l-0.9,1.4l-1.2,1.8l-0.1,1.7l-0.4,1.5l1.3,1.1
	l1.3,2.5l1.1,0.6v3.3l-1.4,1.9l-1,2.7l-0.9,2.6v2.4l0.8,2.3l0.3,1.9l0.7,2.2l-0.8,2.3l0.1,2l2.7,1.1l1.6,1.9l1,1.7l0.7,2.9l0.4,1.3
	h1.5l-0.5,2.1l0.5,2.5l0.5,1.6l-1.4,3.7l0.7,2.1l0.7,2.9l-0.7,3.1l0.7,1.9l0.9,2.6l1.6,1.1l2.1,0.5l3,2.4l2.3-3.4l2.7,1.5l2.8,1.9
	l1.1,1.2l2-0.5l1.8-1.5l2.2,0.1l1.2-0.4l1.2,0.4l3.1-2.1l2.9,2.4l2.1-0.7l1.7-1l1.9-0.9l2.8,0.1l2.2,0.3l1.2-0.4l0.6-3.1l1.4-1.4
	l1.8-1.3l1.2,0.6l1.7,0.2l2-2.4l1.4,0.8l2.1-2.1l1.7,0.2l0.9-0.6l2,0.7l1.8-0.4l1.6-1v-1.5l2.4-2.4l1.6,1.3l1.8,0.4l0.8,1.3l0.8,0.6
	l1.8-0.9l2.2,1.5v1.6l2.3-0.2l2.7,1.3l1.8,0.6l2.6,1.1l1.4,0.4l0.5,1.1l1.1,2.6l0.7,1.9h1l0.7,1.5l1.5,1.2l2.6,1.7l1.5-0.4l2.3,1.4
	l1.5,2.4v2.2l-4.3,4.1l-1.4,2.1l-0.1,2.1l1.3,2.5l0.1,4.8l1.5,2.7l1.9,1.4l1.4,3.4l0.7,3v1.7l-1.6,3.2l-1.1,2.5l-2.7,3.6l-1,3.5
	l0.2,3.1l0.6,3.9l-0.1,6l-0.8,4.5l-2.8,3l-2.4,5.2l-1,4.6l-3.3,10.8l-1.2,8.4l-0.3,3.4l0.2,2.6l1.7,2.6l1.1,2.7l-1.3,2.2l-3,3.2
	l-1.2,4.4l-1.1,3.8l-1.7,2l-1.9,1.9l-2,2.3l-2.1,2.3l-2.2,4l-1.4,1.2l-0.1,1.6l2.1,2.3l-0.3,4.1l0.2,3.7v3.1l0.3,2.8l0.6,2l-1,0.5
	l-2.1-0.7H780l-1.4,0.7l0.3,3l1.8,3.5l0.2,3.6l3.6,5.2l-1.9,4.1l-0.7,1.9l-0.2,1.7l0.1,3.1l0.7,1l-0.2,1.3l-0.8,0.7h-3.2l-1.5,1.1
	l-0.3,1.9l1.7,2.8l0.7,3.5l0.4,2.8l-1.5,1.8l-1.2,2l1.1,2.6l3.6,2.5l-1.5,2.3l-2,1.3l-1.6,1.5l0.6,1.7l1.8,1.7l-0.5,2.3l-2.6,3.1
	l-0.9,2.7l-0.2,3l-1.2,3.3l-3,2.8l-2.8,2.1l-2.1,2.3l-0.5,3.4l1.2,1.7l0.7,3.3l-1.2,2.3l-1.6,2.3h-1.4l-2.5-1.6l-3.2,0.7l-3.6,2.3
	l-0.2,1.9l-0.1,2.8l-0.1,2.3l-0.7,1.9l-1.8,0.5h-3l-3.2,0.5l-2.1,1.5l-3.5,3.2l-2.2,1.8l-0.3,3.8l1.2,2.4l-0.2,1.5
	c0,0-1.9,0.7-2.6,0.9s-3.9,0.7-3.9,0.7l-3.4-2.6l-2.9,0.8l-1.3,1l-5.4,0.3l-4,2l-2.8,2.9l-1.1,4.8l0.2,2.6l-0.7,1h-3l-2.9-0.7
	l-1.9,0.7l-1,2.3l0.3,1.4l-0.2,1.4h-1.5l-1.4-0.4l-1.5,0.9l-0.2,2.3l2.9,3.9l0.7,2l-1.5,1.6l-1,0.7l1.3,4.2l-1.5,1.5l-1.9,1.7
	l-2,0.7l-2.4,0.9l-2.2,2.8l-1.3,2.3l-1.2,0.8H682l-3.6-0.9l-1.5-2.3l-1.9-1.9l-1.8-4.2l-6.7,0.4l-3.2-1.4l-3.3-2.2l-5.5-0.4
	l-3.5,1.2l-6.4,4.6l-4,2.8l-2.7,2.9l-1.5,4.8l-3.5,4l-2.9,3.6h-2.8l-4-3.6l-1.9-5.2l-5.7-4l-8.7,1.9l-3,1.5l-1,1.2l-0.2,1.5
	l-1.8,0.5l-4.3-2.9l-3.2-3.2l-3.6-1.9h-2.8l-9.4,6.1l-8.6,0.3l-5.2-1.1l-5.4-2.6l-3.2-2.4l-3.2-0.2l-3.2-0.1l-3.1,1l-1.9,1.1
	l-3.1,0.6l-4.4-1.3l-2.1-1.5l-3-1.9l-2.6-1.5l-3.3-1.5l-0.9-1.5l-1.9-1.5l-2.9-0.2l-3.6,0.4l-3.4,0.2l-2.7-3l-3.1-2.7l-2.8-0.5
	l-4,0.3l-3.1-0.4l-2.6-0.3l-5.6,0.9l-4.6,0.8l-3.1-0.2l-3.3-1l-1.9-1l-2.4,1.2l-4.7,1l-3.6,0.5l-2.8,0.3l-3.6-1l-2.3-0.2l-2.6,1.1
	l-1.5,1l-2.6,0.2h-2.7l-0.2-1.2l1.2-1.7V795l-0.6-2.5l-2.7-1l-1.8-1.5l-0.9-2.2l1.4-4l2.2-0.8l3.1-0.2l2.2-0.2v-6.9l1.5-0.1l1,0.2
	l1,2l1-1.2c0,0,0.2-1.6,0-1.7c-0.6-0.6-1.1-1.1-1.6-1.8l0.6-1.5l3.1,0.7l0.6-1.5l-2.5-4.3v-1.7l1.5,0.5l4.1-1l4.1-2.4l0.7-2.8l2.9,1
	l1-0.6c0-0.7,0-1.3-0.2-2c-0.2-0.2-0.7-2.9-0.7-2.9l0.9-0.8l2.9-0.6l0.2-1.5l-0.7-1.7l0.9-0.7l1.6,0.7l1.7-1.1l-0.6-1.7l-0.2-4.9
	l-0.4-1.9l-0.2-1.6l0.9-0.1l1,0.9l1.6,0.6l1.4-0.3l0.7-1.2l-1-1.7l0.3-1.1l0.3-2l-0.3-2.2l-0.6-1.1l-1.3-1l0.3-2.2l1-2.3l-1.8-1.1
	l-0.3-1.5l1.1-0.7l2.1,0.2l1-0.6l-1.9-1.9l-1.6-2.4l0.4-2.6c0,0,1.2-1.2,1.5-1.2c0.7-0.3,1.5-0.6,2.2-1l1.5-2.8l0.1-1.9l-1.1-1.7
	l0.2-2.7l2.7-0.8l2.4-1.9l-0.2-1.5l-1.6-0.7c0,0-1.5-1-1.5-1.2c-0.3-0.6-0.7-1.1-1.1-1.5l1.1-0.3l1.9,0.7l0.4-3.6l1.2-1.5l1.9-1.7
	l1.8-0.7l2.3,0.5l4.3-2.4l2.8-2l2.1-2.8l2.8-1.7l2-0.1l1-1.5l-0.3-1.4l-2.2-1.3l-1-1.3l1.3-2.5l1.7-0.4l1.8-1.1l-0.5-1.4l-1.6-1.2
	l-0.1-2.5l1.7-1l2.1,0.1l1.5-1.6l0.5-2.5l-2.2-2.3l-0.9-2l0.9-0.5l2.1,0.7l2.3-0.9l3.5-3.4l-0.4-0.7l-2.6,0.1l-0.3-1.4l1.2-2.1
	l0.7-1.7l1.9-1.1l1.9,1.4l1.1,0.8l0.8-0.4l0.1-4.1V641l1.2-0.3l1.8,1.3l0.6,0.9l1.5-0.2l0.6-1.7l0.1-1.9l0.7-1l1.8,0.2l0.2-1.6
	l0.7-2.3l-0.9-1.5l1.9-5.7l-3.3-4l-2.6-1.9l-3.8-3.3l-2.8-2.8l0.1-3.1l-4.4-6.5l-0.2-1.9l-1.9-3.8l-4-1.8l-2.2-3.3l-2.5-2.4
	l-5.6-0.2l-2.8,0.5l-1.9-0.7l-0.6-2.9h-4.3l-1.8-0.2l-0.7-1.9l-3.1-0.3l-1.9-2l-1-1.6l-2.7-0.5l-1.3-1.3l-1.3-1.9l-1.7-0.8l-3.7,2.1
	l-3.2,3.5l-1.7,1l-1.6-1.3l-2.8-2.9l-1.2-1.6l-1.9-1.5l-0.3-2.5l-4-2.8l-4.1-1.4l-1.6-0.5l-0.9-0.3l-2-0.3l-1.9-0.8l-1.2,0.4
	l-2.8-0.4l-1.9,0.6l-1.1,0.1l-0.9-0.3l-1-1.5l-1.4-3.1h-1.8l-3.6-0.1l-2.6-1l-3.8-3.2l-1.9,0.1l-2.6-2.6l-2.2-1.4l-2.9-2.3l-1.9-0.1
	l-3-0.4l-1.4-1.5l-1.7-0.8l-2.3-1h-2l-1.5-0.1l-1.3-1.5c-0.5-0.4-0.9-0.8-1.3-1.2c-0.4-0.4-0.8-0.8-1.2-1.1l-2.8-2l-3.1-0.7l-1-2
	l-0.6-1h-2.2l-1.9-1.3l-1.7-0.7l-1.3-0.2l-2-3.6l-1-2.1l-1-1.3l-1.3-0.2h-1.3l-1-1.9l-1.4-0.1l-0.8-1.4l-0.3-1.4l-1.8-1l0.2-1.3
	l-48.6-29.2c-0.4-0.1-0.7-0.1-1.1-0.1c-0.2,0-0.3,0-0.5,0.1c-0.7,0.3-1.3,0.6-1.9,1l-2.7,0.9l-2.3,0.9l-5.3,0.6l-3.5,0.2l-2.7,0.5
	l-2.8-0.2l-2.3-1.3l-1.9,0.2l-1,0.2l-1.5-1.9l-1.5-1.3l-2.9-1.1l-2.1-1l-1.9-1l-2.2-0.1l-1.1,0.6l-3-0.5l-1.1-0.2l-1.8-0.2l-0.5-1.8
	l-0.1-2.6l-1.5-0.5l-4.3,0.1l-3.1-1.4l-4.6-1.3l-3-0.1l-3-0.4l-2,0.1l-4.2-2.7l-3.1-2.1l-0.8-0.5l-1.1,0.9l-2.4-0.5l-0.9,0.7
	l-3.3-4.1l-0.4-2.6l-2.6-3.1l-2.5-2.4l-1.9-2.9l0.4-4l-1.5-1.8l-2.6-1.1l-1.9-1.5l-0.7-1.5l-4,0.3l-2-1l-2.3-2.1l-0.7-2l-1.3-1.2
	l-1.9-0.2l-2.3-0.2v-1.5l-2.2,0.8l-4.6-1.9l-1.7-1.7l-3.5,0.1l-3.4-4.5l-0.2-2.9l-4.1-0.4l-0.9-2.5l-1.4-0.9l-1.9-1.8l-3.8-0.1
	l-2.5-0.2l-2.8-3.6l-2-0.2l-0.9-5.6l-1.8-0.3l-3.3-0.6l-2.3-2.4l-0.4-1l-1.9-4.1l-2.9-0.2l-1.6-1.9l-1.2,0.6l-1.7-0.9l-1.9-2.3
	l-1.9-0.8l-0.8-1.4l-1.4-1.5l-0.2-6.3l-1.7-0.2l-1.2-4.3l-3.3-2.8l-0.5-2.2l-0.9-0.8l-1.9,0.6l0.3-1.5l-1.9-0.9l-1.1-2.8l-1.9-0.7
	l0.2-1.4l-1.6-2l-2.1-1.7l0.2-2.5l-0.1-2.8l-1.9-1.5l-1,0.8l-2.1-1.9l1-3l0.9-3.3l-1.9-1.5l-0.6-1.5l-1.5,1l-0.9-0.9l0.6-2.3h-5.8
	l-1.6-0.1l-4.4,0.1l-1.8-2.5l-1.3-2.1l-0.9-1.2c-0.3-0.5-0.6-1-0.8-1.5c0-0.2-1.4-1-1.4-1l-1.6-0.9l-3.2-1l-2.4-1.1
	c0,0-1.8-1.5-1.8-1.7s-1.8-0.8-1.8-0.8l-1.1-1.3l-1-1l-1.3-1.8l-1.1-0.8l-0.5-2.1l30-111.2l-2.2-49.2l28.5-44l16.8-44L260,72.4
	L317.3,55L397.6,53.2 M714.7,465.9L714.7,465.9 M397.6,42.2h-0.2L317.1,44c-1,0-2,0.2-3,0.5l-56.7,17.3l-96.8,17.4
	c-3.8,0.7-7,3.3-8.3,6.9l-16.4,42.9l-27.8,43c-1.2,1.9-1.9,4.2-1.8,6.5l2.1,47.5L78.7,335.4c-0.5,1.8-0.5,3.6-0.1,5.4l0.5,2.1
	c0.5,2.4,1.8,4.5,3.7,6l0.3,0.4c0.4,0.5,0.8,1,1.2,1.5l0.6,0.6l0.7,0.9c1.1,1.4,2.5,2.5,4.1,3.2c0.4,0.4,0.9,0.7,1.2,1
	c0.7,0.6,1.5,1.1,2.3,1.5l2.4,1.1c0.4,0.2,0.9,0.4,1.3,0.5l1.4,0.4l0.5,0.7l0.9,1.6c0.2,0.3,0.3,0.5,0.5,0.8l1.8,2.5
	c2.1,2.9,5.4,4.6,9,4.6h0.3l2.9-0.1c-0.2,3.3,1.1,6.4,3.5,8.6l1.5,1.4c0.4,2.7,1.8,5.2,4,6.9l0,0c0.7,2,1.9,3.8,3.6,5.1
	c0.4,0.7,0.8,1.4,1.3,2c1.1,2.4,3,4.3,5.4,5.4c0.3,0.3,0.6,0.6,0.9,0.8l0.7,0.6l0.3,1c0.3,1.1,0.8,2.2,1.5,3.2v0.7
	c0.1,2.7,1.2,5.2,3,7.1l0.5,0.5l0.2,0.3c1.1,1.9,2.8,3.4,4.8,4.4l0.3,0.3c0.9,1.1,2,1.9,3.3,2.6l1.7,0.9c0.7,0.4,1.5,0.7,2.2,0.9
	c0.3,0.2,0.7,0.4,1,0.5c0.5,1.1,1.2,2.1,2,3l2.3,2.4c1,1,2.2,1.9,3.5,2.4c1,3,3.3,5.3,6.2,6.5l0.3,0.4c1.9,2.5,4.8,4,8,4.3l1.8,0.1
	c1.2,2,3,3.6,5.2,4.5l3.3,4.3c2,2.6,4.9,4.1,8.1,4.3c0.5,0.3,1,0.6,1.5,0.8l4.6,1.9c0.7,0.3,1.5,0.5,2.2,0.7
	c0.6,0.3,1.2,0.5,1.9,0.6c0.3,0.3,0.6,0.7,0.9,1l2.3,2.1c0.8,0.8,1.7,1.4,2.7,1.9l2,1c1.3,0.6,2.7,1,4.2,1.1l0,0
	c0.2,1.7,0.8,3.2,1.8,4.6l1.9,2.9c0.4,0.7,0.9,1.3,1.5,1.8l2.1,2l0.3,0.3c0.3,1.7,1.1,3.4,2.2,4.7l3.3,4.1c2.6,3.3,6.9,4.8,11,3.8
	l0,0l4.2,2.7c1.8,1.1,3.8,1.7,5.9,1.7h0.4h1.1l2,0.3c0.4,0.1,0.8,0.1,1.2,0.1h1.6l2.5,0.7l2.3,1c0.5,0.2,1,0.4,1.5,0.6
	c1.7,2.8,4.6,4.6,7.8,5.1l1.7,0.2l1,0.1l2.9,0.5c1.1,0.2,2.2,0.2,3.3,0l1.2,0.5l0.6,0.3l0.7,0.3l0.4,0.5c2.1,2.7,5.3,4.2,8.7,4.2
	h0.7c1.1,0.5,2.4,0.8,3.6,1l2.8,0.2c0.3,0,0.7,0,1,0c0.7,0,1.3-0.1,2-0.2l2.1-0.4l2.9-0.2h0.4l5.3-0.6c1-0.1,1.9-0.3,2.9-0.7l2-0.8
	l0.8-0.3l40.8,24.5c0.6,1,1.4,1.8,2.2,2.6l0.5,0.9c2.1,2.6,4.6,4.8,7.5,6.5l1.4,2.5c1.6,2.8,4.3,4.7,7.4,5.3l0.7,0.5
	c0.5,0.3,1,0.7,1.6,0.9c1.6,2,3.9,3.4,6.4,3.9l0.8,0.2l0.4,0.3c0.6,0.6,1.2,1.2,1.8,1.8l0.7,0.8c1.9,2.2,4.7,3.5,7.6,3.7l1.5,0.1
	h0.1c1.7,1.8,4,2.9,6.4,3.2l2.3,0.3l0.3,0.2c0.3,0.2,0.6,0.4,0.9,0.6l1.1,0.7l1.7,1.7c1.5,1.5,3.4,2.5,5.5,3l0.9,0.8
	c0.9,0.8,2,1.4,3.2,1.8l2.6,1c0.8,0.3,1.7,0.5,2.6,0.6c1.4,2.1,3.6,3.6,6,4.3l0.9,0.3c1,0.3,2,0.4,3,0.4h0.6l1.1-0.1
	c0.7,0,1.4-0.2,2.1-0.3l0.5,0.1c0.5,0.1,1,0.1,1.6,0.1h0.3c0.3,0.1,0.7,0.2,1,0.2l1.3,0.2l0.2,0.1l1.5,0.5l1.7,0.5
	c0.7,1.7,1.9,3.2,3.3,4.3l0.7,0.6l0.3,0.5c0.3,0.3,0.5,0.7,0.9,1l2.8,2.9c0.4,0.4,0.8,0.8,1.2,1.1l1.6,1.3c3.5,2.7,8.3,3.1,12.2,0.8
	l1.7-1c0.5-0.3,1-0.6,1.5-1l0.6,0.2l1.3,1.4c3.3,2.4,7,4.3,10.9,5.6c1.1,1,2.3,1.8,3.7,2.4l1.9,0.7c1.9,0.7,3.9,0.9,5.9,0.6l1.5-0.3
	l0.7,1c1.1,1.6,2.6,2.9,4.4,3.7c0.3,1.3,0.8,2.5,1.6,3.7l2.4,3.6c0,2.8,1.2,5.5,3.1,7.5l2.8,2.8c0.2,0.2,0.4,0.4,0.7,0.6l3.8,3.3
	l0.5,0.4v0.1l-0.3,0.1c-2.8,0.7-5.1,2.5-6.6,5h-0.1l-1.9,1.1c-2.2,1.3-3.8,3.2-4.7,5.6l-0.3,0.9l-0.8,1.3c-0.3,0.6-0.6,1.2-0.8,1.8
	l-0.3,0.2c-4.2,2.3-6.5,7-5.6,11.8c-1.9,2.1-2.9,4.9-2.8,7.7v1l-0.1,0.2l-1.3,2.5c-0.9,1.7-1.3,3.5-1.2,5.4l-0.2,0.2l-1.1,1.5
	l-1,0.7l-0.3,0.2h-0.2c-1.3,0-2.6,0.2-3.8,0.7l-1.8,0.7c-1.4,0.5-2.6,1.2-3.7,2.2l-1.9,1.7c-0.4,0.3-0.7,0.7-1,1.1l-1.2,1.5
	c-0.2,0.3-0.5,0.6-0.7,0.9c-4.3,2.6-6.3,7.8-4.8,12.6c-0.5,1.1-0.8,2.3-0.9,3.5l-0.2,2.7c0,0.3,0,0.6,0,0.9
	c-0.4,0.3-0.6,0.6-0.9,0.9c-1.6,1.6-2.7,3.8-3.1,6.1l-0.4,2.6c0,3.1-0.2,6.3-0.6,9.4l0.3,1.5c0.1,0.4,0.2,0.9,0.4,1.3v0.3
	c-0.2,1.1-0.2,2.2,0,3.2c-2.4,2.5-3.5,5.9-3,9.3l0.2,1.6v0.3c-1.1,1.1-1.9,2.3-2.5,3.7l-0.5,0.5c-1.6,2.6-3.4,5.1-5.4,7.4h-0.8
	c-6.1,0-11,4.9-11,11l0,0v1.7c0,0.1,0,0.1,0,0.2c-2.3,1.6-3.9,3.9-4.5,6.6l-0.6,0.2c-3.1,1.1-5.5,3.6-6.6,6.7l-1.4,4
	c-0.9,2.5-0.8,5.3,0.2,7.8l0.9,2.2c0.7,1.7,1.8,3.2,3.2,4.3c0,0.9,0,1.7,0.2,2.6l0.2,1.2c1,5.1,5.5,8.8,10.8,8.8h2.7h0.7l2.6-0.2
	c1.8-0.1,3.6-0.7,5.2-1.7l1.1,0.3c1.4,0.4,2.9,0.5,4.3,0.4l2.8-0.3h0.2l3.6-0.5c0.3,0,0.6-0.1,0.9-0.2l4.7-1h0.1l1.9,0.6
	c0.8,0.3,1.6,0.4,2.5,0.5l3.1,0.2c0.3,0,0.6,0,0.9,0c0.6,0,1.3-0.1,1.9-0.2l4.5-0.8l4-0.6l1,0.1l3.1,0.4c0.5,0.1,0.9,0.1,1.4,0.1
	c0.3,0,0.6,0,0.9,0l1.3-0.1l2.1,2.4c2.1,2.3,5.1,3.7,8.2,3.7h0.6l3.4-0.2l0.7,0l0.8-0.1c0.9,0.8,1.9,1.4,2.9,1.9l3.1,1.3l1.9,0.9
	l2.3,1.5l1.9,1.3c1,0.7,2,1.2,3.1,1.5l4.4,1.3c1.7,0.5,3.4,0.6,5.1,0.3l3.1-0.6c1.3-0.2,2.5-0.7,3.5-1.3l0.9-0.5h0.2h0.9l0.4,0.3
	c0.6,0.5,1.3,0.9,2,1.2l5.4,2.6c0.8,0.4,1.6,0.6,2.4,0.8l5.2,1.1c0.8,0.2,1.6,0.3,2.3,0.3h0.4l8.6-0.3c2-0.1,3.9-0.7,5.6-1.8l4.7-3
	l0.6,0.6c0.5,0.5,1,0.9,1.6,1.3l4.3,2.9c2.7,1.8,6,2.4,9.1,1.5l1.8-0.5c2.6-0.7,4.9-2.4,6.4-4.7l0.6-0.1l0.4,1.1
	c0.6,1.7,1.7,3.2,3,4.4l4,3.6c2,1.8,4.6,2.7,7.3,2.7h2.8c3.3,0,6.5-1.5,8.6-4.1l2.8-3.4l3.3-3.8c1-1.2,1.8-2.6,2.3-4.2l0.7-2.4
	l0.1-0.1l3.1-2.2l0.1-0.1l5-3.6h0.3l0.9,0.6c0.6,0.4,1.1,0.7,1.8,0.9l3.2,1.4c1.4,0.6,2.8,0.9,4.3,0.9h0.2l0.3,0.3l1.2,1.3l1,1.5
	c1.5,2.2,3.8,3.8,6.4,4.5l3.6,0.9c0.9,0.2,1.8,0.3,2.7,0.3h3.5c2.2,0,4.3-0.6,6.1-1.8l1.2-0.8c1.4-0.9,2.6-2.2,3.5-3.7l0.7-1.3
	l1.1-0.3c1.5-0.5,2.9-1.3,4.1-2.3l1.9-1.7l0.4-0.3l1.5-1.5c2.6-5.3,4-11.2,4.1-17.1c3.3-0.3,6.4-2.1,8.2-4.9l0.7-1
	c1.3-2,2-4.4,1.8-6.8l0-0.9l2.8-0.2c0.7,0,1.4-0.1,2-0.3c2,1,4.3,1.3,6.5,1c3.8-0.6,4.5-0.8,4.9-0.8c1.3-0.3,2.5-0.8,3.8-1.3
	c3.9-1.5,6.6-5,7.1-9.2l0.2-1.5c0.1-1,0.1-2-0.1-3l0.4-0.4h1.8c1,0,1.9-0.1,2.9-0.4l1.8-0.5c3.5-1,6.4-3.6,7.5-7.1l0.7-1.9
	c0.1-0.2,0.2-0.5,0.2-0.7h0.4c3.6,0,7-1.8,9.1-4.8l1.6-2.3c0.3-0.4,0.5-0.8,0.7-1.2l1.2-2.3c1.2-2.3,1.5-4.9,1-7.4l-0.4-2l0.5-0.5
	l3-2.8c1.3-1.2,2.3-2.7,2.9-4.3l1.2-3.3c0.3-0.9,0.6-1.9,0.6-2.9l0.1-1.3l1.1-1.3c1.2-1.4,2-3,2.3-4.8l0.5-2.3
	c0.2-1.1,0.3-2.1,0.2-3.2l1.1-1.6c2.6-3.9,2.4-9-0.5-12.7c0.3-1.3,0.3-2.6,0.1-3.8l-0.4-2.8v-0.3c1.8-1.6,3-3.8,3.5-6.1l0.2-1.3
	c0.4-1.9,0.2-3.9-0.5-5.7l1.6-3.4c1.7-3.5,1.3-7.7-0.9-10.9l-1-1.4c3.1-2.8,4.3-7.1,3.2-11.1l-0.3-1.2l-0.2-1.3v-2.5
	c0-0.2,0-0.3,0-0.5l-0.1-3l0.3-3.5c0.1-1.3,0-2.6-0.4-3.8l1.2-1.3l0.1-0.2l1.8-2.1l1.7-1.7c0.2-0.2,0.3-0.4,0.5-0.5l1.7-2
	c1-1.2,1.7-2.5,2.1-3.9l1.1-3.8l0.1-0.2l0.5-1.8l1.2-1.3c0.5-0.6,1-1.2,1.4-1.9l1.3-2.2c1.8-3,2-6.7,0.7-9.9l-1.1-2.7
	c-0.3-0.6-0.6-1.2-0.9-1.7l0,0l0.1-1.2l1-7.3l3.1-9.9c0.1-0.3,0.2-0.5,0.2-0.8l0.8-3.5l1.2-2.5l1.6-1.7c1.5-1.5,2.4-3.5,2.8-5.6
	l0.8-4.5c0.1-0.6,0.1-1.1,0.1-1.7l0.1-6c0-0.6,0-1.2-0.1-1.7l-0.5-3.5v-0.5l1.4-1.8c0.5-0.6,0.9-1.3,1.2-2.1l1-2.3l1.5-2.9
	c0.8-1.5,1.2-3.3,1.2-5v-1.7c0-0.8-0.1-1.6-0.3-2.3l-0.7-3c-0.1-0.6-0.3-1.2-0.6-1.8l-1.4-3.4c-0.6-1.5-1.5-2.8-2.7-3.9v-1
	c0-0.5-0.1-1-0.1-1.6l1.2-1.2c2.2-2.1,3.4-4.9,3.4-7.9v-2.2c0-2.1-0.6-4.1-1.7-5.9l-1.6-2.4c-0.9-1.4-2.1-2.6-3.6-3.5l-2.3-1.4
	c-1.7-0.1-3.3-1-4.3-2.4l-0.4-0.9l-0.5-1.1c-1.3-3-3.9-5.3-7-6.2l-0.7-0.2l-2-0.9l-0.7-0.3l-1.3-0.5l-2.2-1l-0.5-0.2l-0.6-0.4
	l-2.2-1.5c-2.1-0.8-4.2-1.6-6.3-2.4c-4.3-3.2-10.3-2.8-14.2,0.9l-1.6,1.5c-3.6,0.8-7,1.8-10.4,3.2c-2.1,0.1-4.1,0.9-5.8,2.1
	l-1.8,1.3c-0.5,0.3-0.9,0.7-1.3,1.1l-1.3,1.3c-1.3,0.1-2.5,0.5-3.6,1l-0.1,0.1c-3.3-1.3-7.1-0.9-10.1,1c-0.3,0.1-0.6,0.1-0.9,0.2
	h-0.7c-0.8,0-1.6,0.1-2.4,0.3l-2.5-1.5c-1.4-0.8-3-1.3-4.7-1.4l-0.4-2l0.1-0.2c0.8-2.2,0.9-4.7,0.2-7l-0.3-0.8
	c-0.8-4.1-2.1-8.1-3.9-11.9l-1-1.7c-0.4-0.7-0.9-1.3-1.4-1.9l-0.8-0.8c-0.1-0.8-0.3-1.7-0.5-2.5l-0.5-1.4l-0.2-1.1
	c-0.1-0.6-0.2-1.2-0.4-1.7l0,0l0.4-1l0.5-0.7c1.4-1.9,2.2-4.2,2.2-6.5v-3.3c0-2.3-0.7-4.5-2-6.3c0.3-2.7,0.6-5.4,0.9-8.2v-1.7
	c-0.8-4.9-3.1-9.3-6.7-12.7l-0.7-0.4v-1.4c0-1.5-0.3-3-0.9-4.4c0.2-2.3-0.4-4.5-1.6-6.5l-0.6-1v-0.1l0-1.4c0.1-1.5-0.2-3-0.8-4.5
	v-0.1l0.1-0.4l1.8-2.6c1.2-1.8,1.9-4,1.9-6.2v-6.4c0-0.6,0-1.1-0.1-1.7l-0.6-3.6c-0.2-1.1-0.5-2.2-1-3.2l-1.4-2.8
	c-1.1-2.3-3-4.1-5.3-5.1l-0.4-0.3l-0.5-0.3c-0.4-0.6-0.9-1.2-1.4-1.7c0-0.2,0-0.3,0.1-0.5l0.4-3.6c0.1-1.1,0.1-2.2-0.1-3.3l-0.7-3.5
	c-0.8-4.4-4.3-7.9-8.7-8.8l-1.3-1.8l-1.8-2.9c-2-3.2-5.5-5.2-9.3-5.2H679l-2.3,0l-0.3-0.1c-2.4,0.1-4.8,0-7.2-0.4
	c-1.1,0-2.1,0.2-3.2,0.5l-1.2-0.3c-2.3,0.1-4.7-0.1-7-0.4c-0.9,0-1.8,0.1-2.6,0.3c-2-2.4-4.8-3.8-7.9-4l-0.1-0.1l-1.2-1
	c-0.1-0.5-0.3-1.1-0.5-1.6l-1.2-3.3c-0.1-0.4-0.3-0.8-0.5-1.1l-1-1.9c-2.2-4.3-7-6.7-11.8-5.9l-2.2,0.4l-0.4-0.1
	c-2.4-0.4-4.9,0.1-7,1.3l-2.8,1.5c-0.3,0.2-0.7,0.4-1,0.6l-1.4,1c-1.9,1.4-3.4,3.3-4.1,5.6l-0.8,2.3l-0.9,1.4l-0.1,0.2
	c-2.8-1-5.9-0.8-8.6,0.5c-0.3,0.2-0.6,0.3-0.9,0.5c-2.1,0.5-4.3,1-6.5,1.5c-2-0.9-4.2-1.1-6.4-0.7c-0.3-0.1-0.5-0.2-0.8-0.3
	l-0.3-0.1l-0.4-0.2c-2.6-1.6-5.7-2-8.6-1.2l-1.7,0.5h-0.9h-0.6l-1.2,0.1l-1.3-0.4c-1.1-0.3-2.1-0.5-3.3-0.5h-0.8l-2.8-0.6
	c-2.1-0.5-4.2-0.3-6.2,0.4c-2.1-0.8-4.3-1-6.5-0.5c-1.1-0.7-2.2-1.1-3.5-1.4l-2.6-0.6h-0.2l-2.4-0.5c-0.7-0.1-1.4-0.2-2.2-0.2h-0.7
	l-0.9-0.5c-1.1-0.6-2.2-1-3.4-1.2c-1.9-5.2-7.4-8.2-12.8-6.9c-4.7-0.8-9.6,0.1-13.7,2.5c-0.6-0.1-1.3-0.2-1.9-0.2
	c0.1-0.2,0.1-0.4,0.2-0.6l2.2-9.5c0.2-0.9,0.3-1.8,0.3-2.7l-0.1-5.1c0-0.5-0.1-1-0.1-1.5l-0.3-2l0.7-0.9c3.1-3.7,3.3-9,0.6-13.1
	l-0.3-0.4c1-3.5,0.2-7.2-2.1-10l3.8-7.5l2.4-4c2.4-4,2-9-0.9-12.6l0.5-0.8c1-1.7,1.6-3.7,1.6-5.6V224c0-0.3,0-0.5,0-0.8l-0.2-3
	l1.7-3.3c2-4,1.4-8.7-1.5-12.1l-0.7-0.8c1.9-3.6,1.7-8-0.6-11.3l0,0c1.1-3.1,0.7-6.6-1-9.4l-5.3-8.5c-1.4-2.3-3.7-4-6.3-4.8
	l-0.1-0.3l-0.6-1.6l0.1-0.1c1.9-2.8,2.4-6.4,1.3-9.7l-2-5.9c-0.8-2.3-2.2-4.2-4.2-5.6l-1.8-1.2l-1-5.1c-0.1-0.3-0.1-0.7-0.2-1
	l-1.7-5.9c-0.3-1.2-0.9-2.3-1.6-3.3c0.1-0.8,0.1-1.6,0.1-2.3l-0.3-4.1c0-0.3,0-0.6-0.1-0.8l-1.1-7.1l-0.9-6.4l-0.9-8.1
	c-0.4-3.4-2.3-6.4-5.1-8.2l-79.4-49.2C401.6,42.8,399.6,42.2,397.6,42.2z"/>
<g class="st2">
	<polygon class="st3" points="490.1,166.3 489.9,166.6 489.9,166.7 	"/>
	<polygon class="st3" points="493.5,176.4 493.5,174.1 490.3,167.8 	"/>
	<polygon class="st3" points="485.8,152 484,142.6 482.2,136.7 479,134.7 481.8,138.2 485.7,152 	"/>
	<polygon class="st3" points="480.3,128.8 480,124.7 479.5,116.6 478,111.8 478.1,116 479.4,128 479,133.9 	"/>
	<polygon class="st3" points="492.8,160.9 492.9,160.8 491.3,156 487.1,153.1 491.4,156.5 	"/>
	<polygon class="st3" points="504.5,196.5 505.6,198.9 498.9,201.6 508.3,212.4 508.5,212 505.1,206.9 499.9,201.7 506.5,198.9 	"/>
	<polygon class="st3" points="504.8,189 505.2,189.1 499.9,180.6 497.9,183.3 499.8,181.4 	"/>
	<polygon class="st3" points="137,387.1 138,387.6 136.6,386.1 	"/>
	<polygon class="st3" points="141.8,391.9 142.2,392.3 141.8,391.8 	"/>
	<polygon class="st3" points="138.5,389.6 139.5,389.3 138.8,388.5 	"/>
	<polygon class="st3" points="397.7,53.3 317.5,55 275.5,67.8 282.4,65.8 310.6,57.3 317.8,55.2 397.5,53.7 438.1,78.5 438.1,78.8 
		475.8,102.1 477.8,109.8 477,102.5 	"/>
	<polygon class="st3" points="150.5,408.3 151.5,408.7 150.2,407.8 	"/>
	<polygon class="st3" points="146.3,398.9 146.4,399 147.6,399.1 147.6,399 	"/>
	<polygon class="st3" points="134.1,383.6 134.4,383.7 134.1,383.4 	"/>
	<polygon class="st3" points="120,173.7 117.3,178 117.6,185.4 117.3,178 	"/>
	<polygon class="st3" points="457.9,574.6 458.4,575 458.4,574.8 	"/>
	<polygon class="st3" points="504.6,217.4 506,227.9 506,224.1 505.5,218.1 508.1,212.8 	"/>
	<polygon class="st3" points="499,281.5 502.9,276.8 502.9,276.7 498.5,281.4 498.9,283.9 	"/>
	<polygon class="st3" points="154.4,411.3 156.1,412.2 156.4,412 153,409.7 	"/>
	<polygon class="st3" points="500.4,293.6 500.1,292.9 498.9,299.5 495.3,306.9 498.2,303.1 	"/>
	<polygon class="st3" points="495.9,263.3 501.2,267.2 497,262.9 499,257.2 	"/>
	<polygon class="st3" points="501.6,193.1 496,193.1 498.6,189 498.4,189 493.2,194.2 502.4,194 	"/>
	<polygon class="st3" points="506.4,243.1 500.9,238 500.4,238.8 505.8,243.3 501.8,251.4 503.8,247.4 	"/>
	<polygon class="st3" points="495.8,185.5 495.2,184.1 495.5,185.8 	"/>
	<polygon class="st3" points="438.8,570.1 439.5,569.9 438.6,569.9 	"/>
	<polygon class="st3" points="412.7,554.6 409.9,554.7 411.2,554.9 413.1,555 416,557.2 416.7,557.7 416.6,557.5 	"/>
	<polygon class="st3" points="399.6,551.1 400.8,551.2 402.8,551.2 401.9,550.6 	"/>
	<polygon class="st3" points="420.8,561.2 420.9,561.2 420.8,561.2 	"/>
	<polygon class="st3" points="429,565.3 432.6,565.3 432.8,565.3 428.1,564.9 	"/>
	<polygon class="st3" points="442.2,569.7 443.6,569.9 444.4,569.7 444.2,569.6 	"/>
	<polygon class="st3" points="374.4,532.2 375.5,532.2 374.2,531.8 	"/>
	<polygon class="st3" points="158.4,412.9 158.9,413.4 161.4,413.6 161.3,413.3 	"/>
	<polygon class="st3" points="388.8,543.1 389.6,544.6 392.4,545.2 392.3,545.1 	"/>
	<polygon class="st3" points="384.3,540.5 385.8,541.5 386.3,541.5 385.1,540.8 	"/>
	<polygon class="st3" points="496.1,592.2 498,592.9 500.8,592.4 506.1,592.6 506,592.5 	"/>
	<polygon class="st3" points="531.5,610.8 532.4,609.9 529.5,611.1 	"/>
	<polygon class="st3" points="535.8,596.5 536.9,604.2 536.2,605.8 537,604.9 536.1,597.4 545.5,596.9 555.2,589.5 545.1,595.9 	"/>
	<polygon class="st3" points="563.7,581.2 565,578.6 564.5,578.2 	"/>
	<polygon class="st3" points="521.5,612.9 521.4,615.3 523.4,613.5 522.2,613.9 	"/>
	<polygon class="st3" points="517.1,605.8 519.4,609.2 517,604.1 	"/>
	<polygon class="st3" points="468.9,583.3 466.6,584.5 466.6,584.5 467.1,585.4 468.8,584.4 472.1,580.9 475.3,579.1 474.3,578.2 	
		"/>
	<polygon class="st3" points="483.7,584.9 485.6,586.9 486.8,587 483.2,584 	"/>
	<polygon class="st3" points="489.5,589.1 491.2,589.3 493.2,589.3 489.3,588.6 	"/>
	<polygon class="st3" points="371,528.4 371.1,528.8 371.9,530.2 372.8,530.2 372.5,529.6 	"/>
	<polygon class="st3" points="380.9,539.3 381.2,539.3 380.9,539.2 	"/>
	<polygon class="st3" points="203.4,447.3 205.2,448 206.3,447.7 205.7,447.5 	"/>
	<polygon class="st3" points="187.7,436.7 190.2,437 187.6,436.4 	"/>
	<polygon class="st3" points="213.6,452.5 215.8,454.4 216.4,454.8 215.1,453.6 	"/>
	<polygon class="st3" points="207.4,448.1 207.4,448.7 209.2,448.8 209,448.7 	"/>
	<polygon class="st3" points="200.6,446.1 202.1,446.7 200.4,445.9 	"/>
	<polygon class="st3" points="177.3,431.3 179.7,431.5 183.5,431.5 183.9,431.9 182.9,430.5 	"/>
	<polygon class="st3" points="166.3,420.9 166.4,421 169.7,421.6 170.8,421.8 170.8,421.1 	"/>
	<polygon class="st3" points="163.8,417.7 164.1,418.7 164.7,419.3 163.4,416.9 	"/>
	<polygon class="st3" points="172.4,427.5 172.6,427.5 172.4,427.4 	"/>
	<polygon class="st3" points="274.9,492.2 275.3,492.3 276.4,492.5 279.4,492.9 280.5,492.3 282.7,492.4 284.4,493.3 282.8,492.2 	
		"/>
	<polygon class="st3" points="297.8,499.6 297.9,499.6 300.6,499.9 303.3,499.4 306.8,499.2 312.1,498.6 314.4,497.7 314.8,497.6 
		311.5,498.6 	"/>
	<polygon class="st3" points="273.5,492 273.6,492.1 273.4,491.6 	"/>
	<polygon class="st3" points="292.5,498.5 292.6,498.7 293.6,498.5 294.3,498.5 294,498.3 	"/>
	<polygon class="st3" points="266.9,487.2 267.1,487.3 271.4,487.2 271.4,487.2 271.4,487.2 	"/>
	<polygon class="st3" points="238.9,480.1 239.6,479.5 238.6,479.8 	"/>
	<polygon class="st3" points="222.6,456.6 224.4,458.1 224.8,458.2 222.4,456.3 	"/>
	<polygon class="st3" points="251.1,484 251.4,484.2 253.4,484.1 256.4,484.5 259.4,484.6 261.8,485.3 260,484.5 	"/>
	<polygon class="st3" points="216.9,455 217.8,455.4 221,455.2 220.8,455 	"/>
	<polygon class="st3" points="240.1,479.4 242.1,479.8 242.9,479.3 242.3,478.9 	"/>
	<polygon class="st3" points="146.5,132.1 120,173.7 145.8,134 	"/>
	<polygon class="st3" points="118.6,212.2 118.8,212.3 117.6,185.4 	"/>
</g>
<g class="st4">
	<polygon class="st5" points="500.2,292.6 499,299 500.2,293.5 500.2,291.7 500.1,291.7 	"/>
	<polygon class="st5" points="498.8,299.6 496.2,305.1 498.1,303 	"/>
</g>
<g class="st6">
	<polygon class="st5" points="719.8,490.1 722.8,492.5 723.5,491.3 716,488.4 717.7,489.6 	"/>
</g>
<g class="st7">
	<polygon class="st5" points="521.3,612.7 521.4,612.2 519.6,609.6 520.8,612 	"/>
	<polygon class="st5" points="500.2,291.7 500.2,291.7 500.2,293.5 	"/>
	<polygon class="st5" points="499,299 500.2,293.5 499,299 	"/>
	<polygon class="st5" points="496.2,305.1 498.1,303 496.2,305.1 	"/>
	<polygon class="st5" points="719.8,490.1 722.8,492.5 723.5,491.3 716,488.4 717.7,489.6 	"/>
	<path class="st5" d="M685.4,669.9l0.1,0.2L685.4,669.9z"/>
	<path class="st5" d="M685.5,670.1l-0.1-0.2L685.5,670.1z"/>
	<polygon class="st5" points="500.2,292.6 499,299 500.2,293.5 500.2,291.7 500.1,291.7 	"/>
	<polygon class="st5" points="496.2,305.1 498.1,303 498.8,299.6 	"/>
	<polygon class="st5" points="723.5,491.3 723.5,491.3 722.8,492.5 	"/>
</g>
<path class="st3" d="M89.3,338.3l30-111.2l-2.2-49.2l28.5-44l16.8-44L260,72.4L317.3,55l80.2-1.7l79.4,49.2l0.9,8.2l0.9,6.7l1.1,7.3
	l0.3,4.1l-1.5,5.8l3.5,2l1.7,5.9l1.8,9.6l5.5,3.8l2,5.9l-3.3,4.8l2.5,6.8l1.7,4.8l-0.4,9.1l6.1-6.8l5.3,8.5l-6.1-0.8l-4.2,5.8
	l8.3-0.1l3.3,4.9l-6.6,2.8l4.9,5.9l3.8,4.4l-3,6l0.4,6v5.6l-5.5,9.3l6,4.1l-2.6,4.3l-4.8,9.5l-2.5,6.6l4.7,3.8l-1.7,4.3l3.5,5.2
	l-3.9,4.8l1.2,7l0.1,5.1l-2.2,9.5l-3.5,3.9l1.3,7.8l1.8-1.6l1.5,0.5l1,2.5l1.9,1l1.9,0.3l1.6,0.6l2.7-0.9l2.7,2.4l2.1-2.1l1.6,0.9
	l1.9-1.2l0.5-2l2.4,0.2l0.8-1.2l1.8,0.8l2.5,0.2l2-0.6l0.7,2.4l1.3,1.2l0.5,2.5l1.1,1.5h1.7l1,0.5l2.1-1l3.4,1.9h3.6l2.4,0.5
	l2.6,0.6l0.6,1.3l1.2,0.9l2.1,0.6l2.6-0.5l1.9-0.9l1.9,1.6l1.7,0.7l1.9,0.2l2.3-1.7v-0.8l4.9,1.1l1-0.2l3.4,1l3.4-0.3l2.2-0.1
	l2.9-0.8l1.6,1l1.7,0.5l4.3,1.6l1.5-1.1l1.1,1.7l1.1,2.3l2.3-0.1l2.7-1.2l0.8-2.4h1.5l1.9-0.9l3,0.6l2.2-0.7v-1.5l2.8,2.1l2,0.5
	l3.1-1.5l1.5-1.7l2.8-1.9l1-2.1l1.7-2.6l1.2-3.7l1.4-1l2.8-1.5l2.2,0.3l4-0.7l1,1.9l1.2,3.3l0.6,3.5l1.5,1.5l3.6,2.9l2,1.2l2.3,1
	l1.5-0.2l0.9,2.4l2.5,1.5l3.3,0.5h3.3l1.1-0.6l2.3,0.6l2.2-0.5l1.8,0.4l2.4,0.5l2.6-0.8l0.9,1l1.9,0.1l1.9-1l1.7,0.4l3.7-0.1l2,3.2
	l3.6,5l0.7,1.5h4l0.7,3.5l-0.4,3.6l-0.7,1.5l0.3,3.5l1.7,3.3l1.9,1.3l0.9,1.5l2.3,1.6l0.9,1.4h1.4l1.4,2.8l0.6,3.6v6.4l-2.8,4
	l-0.7,2.4l-0.8,3.6l0.1,2.3l1.1,1l-0.1,2.2l0.2,2.3l0.7,1.9l1.4,2.3l-1,2.4l-0.2,1.3l2.1,1.5v4.4l1,1.9v3.7h3l1.8,1.1v1.8l1.6,1.6
	v1.6l-1.9,0.6l0.7,1.5l1.2,1.7l-0.9,1.4l-1.2,1.8l-0.1,1.7l-0.4,1.5l1.3,1.1l1.3,2.5l1.1,0.6v3.3l-1.4,1.9l-1,2.7l-0.9,2.7v2.4
	l0.8,2.3l0.3,1.9l0.7,2.2l-0.8,2.3l0.1,2l2.7,1.1l1.6,1.9l1,1.7l0.7,2.9l0.4,1.3h1.5l-0.5,2.1l0.5,2.5l0.5,1.6l-1.4,3.7l0.7,2.1
	l0.7,2.9l-0.7,3.1l0.7,1.9l0.9,2.6l1.6,1.1l2.1,0.5l3,2.4l2.3-3.4l2.7,1.5l2.8,1.9l1.1,1.2l2-0.5l1.8-1.5l2.2,0.1l1.2-0.4l1.2,0.4
	l3.1-2.1l2.9,2.4l2.1-0.7l1.7-1l1.9-0.9l2.8,0.1l2.2,0.3l1.2-0.4l0.6-3.1l1.4-1.4l1.8-1.3l1.2,0.6l1.7,0.2l2-2.4l1.5,0.8l2.1-2.1
	l1.7,0.2l0.9-0.6l2,0.7l1.8-0.4l1.6-1v-1.5l2.4-2.4l1.6,1.3l1.8,0.4l0.8,1.3l0.8,0.6l1.8-0.9l2.2,1.5v1.6l2.3-0.2l2.7,1.3l1.8,0.6
	l2.6,1.1l1.4,0.4l0.5,1.1l1.1,2.6l0.7,1.9h1l0.7,1.5l1.5,1.2l2.6,1.7l1.5-0.4l2.3,1.4l1.5,2.4v2.2l-4.3,4.1l-1.4,2.1l-0.1,2.1
	l1.3,2.5l0.1,4.8l1.5,2.7l1.9,1.4l1.4,3.4l0.7,3v1.7l-1.6,3.2l-1.1,2.6l-2.7,3.6l-1,3.5l0.2,3.1l0.6,3.9l-0.1,6l-0.8,4.5l-2.8,3
	l-2.4,5.2l-1,4.6l-3.3,10.8l-1.2,8.4l-0.3,3.4l0.2,2.6l1.7,2.6l1.1,2.7l-1.3,2.2l-3,3.2l-1.2,4.4l-1.1,3.8l-1.7,2l-1.9,1.9l-2,2.3
	l-2.1,2.3l-2.2,4l-1.4,1.2l-0.1,1.6l2.1,2.3l-0.3,4.1l0.2,3.7v3.1l0.3,2.8l0.6,2l-1,0.5l-2.1-0.7H780l-1.4,0.7l0.3,3l1.8,3.5
	l0.2,3.6l3.6,5.2l-1.9,4.1l-0.7,1.9l-0.2,1.7l0.1,3.1l0.7,1l-0.2,1.3l-0.8,0.7h-3.2l-1.5,1.1l-0.3,1.9l1.7,2.8l0.7,3.5l0.4,2.8
	l-1.5,1.8l-1.2,2l1.1,2.6l3.6,2.5l-1.5,2.3l-2,1.3l-1.6,1.5l0.6,1.7l1.8,1.7l-0.5,2.3l-2.6,3.1l-0.9,2.7l-0.2,3l-1.2,3.3l-3,2.8
	l-2.8,2.1l-2.1,2.3l-0.5,3.4l1.2,1.7l0.7,3.3l-1.2,2.3l-1.6,2.3h-1.4l-2.5-1.6l-3.2,0.7l-3.6,2.3l-0.2,1.9l-0.1,2.8l-0.1,2.3
	l-0.7,1.9l-1.8,0.5h-3l-3.2,0.5l-2.1,1.5l-3.5,3.2l-2.2,1.8l-0.3,3.8l1.2,2.4l-0.2,1.5c0,0-1.9,0.7-2.6,0.9s-3.9,0.7-3.9,0.7
	l-3.4-2.6l-2.9,0.8l-1.3,1l-5.4,0.3l-4,2l-2.8,2.9l-1.1,4.8l0.2,2.6l-0.7,1h-3l-2.9-0.7l-1.9,0.7l-1,2.3l0.3,1.4l-0.2,1.4h-1.5
	l-1.4-0.4l-1.5,0.9l-0.2,2.3l2.9,3.9l0.7,2l-1.5,1.6l-1,0.7l1.3,4.2l-1.5,1.5l-1.9,1.7l-2,0.7l-2.4,0.9l-2.2,2.8l-1.3,2.3l-1.2,0.8
	H682l-3.6-0.9l-1.5-2.3l-1.9-1.9l-1.8-4.2l-6.7,0.4l-3.2-1.4l-3.3-2.2l-5.5-0.4l-3.5,1.2l-6.4,4.6l-4,2.8l-2.7,2.9l-1.5,4.8l-3.5,4
	l-2.9,3.6h-2.8l-4-3.6l-1.9-5.2l-5.7-4l-8.7,1.9l-3,1.5l-1,1.2l-0.2,1.5l-1.8,0.5l-4.3-2.9l-3.2-3.2l-3.6-1.9h-2.8l-9.4,6.1
	l-8.6,0.3l-5.2-1.1l-5.4-2.6l-3.2-2.4l-3.2-0.2l-3.2-0.1l-3.1,1l-1.9,1.1l-3.1,0.6l-4.4-1.3l-2.1-1.5l-3-1.9l-2.6-1.5l-3.3-1.5
	l-0.9-1.5l-1.9-1.5l-2.9-0.2l-3.6,0.4l-3.4,0.2l-2.7-3l-3.1-2.7l-2.8-0.5l-4,0.3l-3.1-0.4l-2.6-0.3l-5.6,0.9l-4.6,0.8l-3.1-0.2
	l-3.3-1l-1.9-1l-2.4,1.2l-4.7,1l-3.6,0.5l-2.8,0.3l-3.6-1l-2.3-0.2l-2.6,1.1l-1.5,1l-2.6,0.2h-2.7l-0.2-1.2l1.2-1.7V795l-0.6-2.5
	l-2.7-1l-1.8-1.5l-0.9-2.2l1.4-4l2.2-0.8l3.1-0.2l2.2-0.2v-6.9l1.5-0.1l1,0.2l1,2l1-1.2c0,0,0.2-1.6,0-1.7c-0.6-0.6-1.1-1.1-1.6-1.8
	l0.6-1.5l3.1,0.7l0.6-1.5l-2.5-4.3v-1.7l1.5,0.5l4.1-1l4.1-2.4l0.7-2.8l2.9,1l1-0.6c0-0.7,0-1.3-0.2-2c-0.2-0.2-0.7-2.9-0.7-2.9
	l0.9-0.8l2.9-0.6l0.2-1.5l-0.7-1.7l0.9-0.7l1.6,0.7l1.7-1.1l-0.6-1.7l-0.2-4.9l-0.4-1.9l-0.2-1.6l0.9-0.1l1,0.9l1.6,0.6l1.4-0.3
	l0.7-1.2l-1-1.7l0.3-1.1l0.3-2l-0.3-2.2l-0.6-1.1l-1.3-1l0.3-2.2l1-2.3l-1.8-1.1l-0.3-1.5l1.1-0.7l2.1,0.2l1-0.6l-1.9-1.9l-1.6-2.4
	l0.4-2.6c0,0,1.2-1.2,1.5-1.2c0.7-0.3,1.5-0.6,2.2-1l1.5-2.8l0.1-1.9l-1.1-1.7l0.2-2.7l2.7-0.8l2.4-1.9l-0.2-1.5l-1.6-0.7
	c0,0-1.5-1-1.5-1.2c-0.3-0.6-0.7-1.1-1.1-1.5l1.1-0.3l1.9,0.7l0.4-3.6l1.2-1.5l1.9-1.7l1.8-0.7l2.3,0.5l4.3-2.4l2.8-2l2.1-2.8
	l2.8-1.7l2-0.1l1-1.5l-0.3-1.4l-2.2-1.3l-1-1.3l1.3-2.5l1.7-0.4l1.8-1.1l-0.5-1.4l-1.6-1.2l-0.1-2.5l1.7-1l2.1,0.1l1.5-1.6l0.5-2.5
	l-2.2-2.3l-0.9-2l0.9-0.5l2.1,0.7l2.3-0.9l3.5-3.4l-0.4-0.7l-2.6,0.1l-0.3-1.4l1.2-2.1l0.7-1.7l1.9-1.1l1.9,1.4l1.1,0.8l0.8-0.4
	l0.1-4.1V641l1.2-0.3l1.8,1.3l0.6,0.9l1.5-0.2l0.6-1.7l0.1-1.9l0.7-1l1.8,0.2l0.2-1.6l0.7-2.3l-0.9-1.5l1.9-5.7l-3.3-4l-2.6-1.9
	l-3.8-3.3l-2.8-2.8l0.1-3.1l-4.4-6.5l-0.2-1.9l-1.9-3.8l-4-1.8l-2.2-3.3l-2.5-2.4l-5.6-0.2l-2.8,0.5l-1.9-0.7l-0.6-2.9h-4.3
	l-1.8-0.2l-0.7-1.9l-3.1-0.3l-1.9-2l-1-1.6l-2.7-0.5l-1.3-1.3l-1.3-1.9l-1.7-0.8l-3.7,2.1l-3.2,3.5l-1.7,1l-1.6-1.3l-2.8-2.9
	l-1.2-1.6l-1.9-1.5l-0.3-2.5l-4-2.8l-4.1-1.4l-1.6-0.5l-0.9-0.3l-2-0.3l-1.9-0.8l-1.2,0.4l-2.8-0.4l-1.9,0.6l-1.1,0.1l-0.9-0.3
	l-1-1.5l-1.4-3.1h-1.8l-3.6-0.1l-2.6-1l-3.8-3.2l-1.9,0.1l-2.6-2.6l-2.2-1.4l-2.9-2.3l-1.9-0.1l-3-0.4l-1.4-1.5l-1.7-0.8l-2.3-1h-2
	l-1.5-0.1l-1.3-1.5c-0.5-0.4-0.9-0.8-1.3-1.2c-0.4-0.4-0.8-0.8-1.2-1.1l-2.8-2l-3.1-0.7l-1-2l-0.6-1h-2.2l-1.9-1.3l-1.7-0.7
	l-1.3-0.2l-2-3.6l-1-2.1l-1-1.3l-1.3-0.2h-1.3l-1-1.9l-1.4-0.1l-0.8-1.4l-0.3-1.4l-1.8-1l0.2-1.3l-48.6-29.2
	c-0.5-0.1-1.1-0.2-1.6-0.1c-0.7,0.3-1.3,0.6-1.9,1l-2.7,0.9l-2.3,0.9l-5.3,0.6l-3.5,0.2l-2.7,0.5l-2.8-0.2l-2.3-1.3l-1.9,0.2l-1,0.2
	l-1.5-1.9l-1.5-1.3l-2.9-1.1l-2.1-1l-1.9-1l-2.2-0.1l-1.1,0.6l-3-0.5l-1.1-0.2l-1.8-0.2l-0.5-1.8l-0.1-2.6l-1.5-0.5l-4.3,0.1
	l-3.1-1.4l-4.6-1.3l-3-0.1l-3-0.4l-2,0.1l-4.2-2.7l-3.1-2.1l-0.8-0.5l-1.1,0.9l-2.4-0.5l-0.9,0.7l-3.3-4.1l-0.4-2.6l-2.6-3.1
	l-2.5-2.4l-1.9-2.9l0.4-4l-1.5-1.8l-2.6-1.1l-1.9-1.5l-0.7-1.5l-4,0.3l-2-1l-2.3-2.1l-0.7-2l-1.3-1.2l-1.9-0.2l-2.3-0.2v-1.5
	l-2.2,0.8l-4.6-1.9l-1.7-1.7l-3.5,0.1l-3.4-4.5l-0.2-2.9l-4.1-0.4l-0.9-2.5l-1.4-0.9l-1.9-1.8l-3.8-0.1l-2.5-0.2l-2.8-3.6l-2-0.2
	l-0.9-5.6l-1.8-0.3l-3.3-0.6l-2.3-2.4l-0.4-1l-1.9-4.1l-2.9-0.2l-1.6-1.9l-1.2,0.6l-1.7-0.9l-1.9-2.3l-1.9-0.8l-0.8-1.4l-1.4-1.5
	l-0.2-6.3l-1.7-0.2l-1.2-4.3l-3.3-2.8l-0.5-2.2l-0.9-0.8l-1.9,0.6l0.3-1.5l-1.9-0.9l-1.1-2.8l-1.9-0.7l0.2-1.4l-1.6-2l-2.1-1.7
	l0.2-2.5l-0.1-2.8l-1.9-1.5l-1,0.8l-2.1-1.9l1-3l0.9-3.3l-1.9-1.5l-0.6-1.5l-1.5,1l-0.9-0.9l0.6-2.3h-5.8l-1.6-0.1l-4.4,0.1
	l-1.8-2.5l-1.3-2.1l-0.9-1.2c-0.3-0.5-0.6-1-0.8-1.5c0-0.2-1.4-1-1.4-1l-1.6-0.9l-3.2-1l-2.4-1.1c0,0-1.8-1.5-1.8-1.7
	s-1.8-0.8-1.8-0.8l-1.1-1.3l-1-1l-1.3-1.8l-1.1-0.8L89.3,338.3z"/>
<path class="st8" d="M89.3,338.3l30-111.2l-2.2-49.2l28.5-44l16.8-44L260,72.4L317.3,55l80.2-1.7l79.4,49.2l0.9,8.2l0.9,6.7l1.1,7.3
	l0.3,4.1l-1.5,5.8l3.5,2l1.7,5.9l1.8,9.6l5.5,3.8l2,5.9l-3.3,4.8l2.5,6.8l1.7,4.8l-0.4,9.1l6.1-6.8l5.3,8.5l-6.1-0.8l-4.2,5.8
	l8.3-0.1l3.3,4.9l-6.6,2.8l4.9,5.9l3.8,4.4l-3,6l0.4,6v5.6l-5.5,9.3l6,4.1l-2.6,4.3l-4.8,9.5l-2.5,6.6l4.7,3.8l-1.7,4.3l3.5,5.2
	l-3.9,4.8l1.2,7l0.1,5.1l-2.2,9.5l-3.5,3.9l1.3,7.8l1.8-1.6l1.5,0.5l1,2.5l1.9,1l1.9,0.3l1.6,0.6l2.7-0.9l2.7,2.4l2.1-2.1l1.6,0.9
	l1.9-1.2l0.5-2l2.4,0.2l0.8-1.2l1.8,0.8l2.5,0.2l2-0.6l0.7,2.4l1.3,1.2l0.5,2.5l1.1,1.5h1.7l1,0.5l2.1-1l3.4,1.9h3.6l2.4,0.5
	l2.6,0.6l0.6,1.3l1.2,0.9l2.1,0.6l2.6-0.5l1.9-0.9l1.9,1.6l1.7,0.7l1.9,0.2l2.3-1.7v-0.8l4.9,1.1l1-0.2l3.4,1l3.4-0.3l2.2-0.1
	l2.9-0.8l1.6,1l1.7,0.5l4.3,1.6l1.5-1.1l1.1,1.7l1.1,2.3l2.3-0.1l2.7-1.2l0.8-2.4h1.5l1.9-0.9l3,0.6l2.2-0.7v-1.5l2.8,2.1l2,0.5
	l3.1-1.5l1.5-1.7l2.8-1.9l1-2.1l1.7-2.6l1.2-3.7l1.4-1l2.8-1.5l2.2,0.3l4-0.7l1,1.9l1.2,3.3l0.6,3.5l1.5,1.5l3.6,2.9l2,1.2l2.3,1
	l1.5-0.2l0.9,2.4l2.5,1.5l3.3,0.5h3.3l1.1-0.6l2.3,0.6l2.2-0.5l1.8,0.4l2.4,0.5l2.6-0.8l0.9,1l1.9,0.1l1.9-1l1.7,0.4l3.7-0.1l2,3.2
	l3.6,5l0.7,1.5h4l0.7,3.5l-0.4,3.6l-0.7,1.5l0.3,3.5l1.7,3.3l1.9,1.3l0.9,1.5l2.3,1.6l0.9,1.4h1.4l1.4,2.8l0.6,3.6v6.4l-2.8,4
	l-0.7,2.4l-0.8,3.6l0.1,2.3l1.1,1l-0.1,2.2l0.2,2.3l0.7,1.9l1.4,2.3l-1,2.4l-0.2,1.3l2.1,1.5v4.4l1,1.9v3.7h3l1.8,1.1v1.8l1.6,1.6
	v1.6l-1.9,0.6l0.7,1.5l1.2,1.7l-0.9,1.4l-1.2,1.8l-0.1,1.7l-0.4,1.5l1.3,1.1l1.3,2.5l1.1,0.6v3.3l-1.4,1.9l-1,2.7l-0.9,2.7v2.4
	l0.8,2.3l0.3,1.9l0.7,2.2l-0.8,2.3l0.1,2l2.7,1.1l1.6,1.9l1,1.7l0.7,2.9l0.4,1.3h1.5l-0.5,2.1l0.5,2.5l0.5,1.6l-1.4,3.7l0.7,2.1
	l0.7,2.9l-0.7,3.1l0.7,1.9l0.9,2.6l1.6,1.1l2.1,0.5l3,2.4l2.3-3.4l2.7,1.5l2.8,1.9l1.1,1.2l2-0.5l1.8-1.5l2.2,0.1l1.2-0.4l1.2,0.4
	l3.1-2.1l2.9,2.4l2.1-0.7l1.7-1l1.9-0.9l2.8,0.1l2.2,0.3l1.2-0.4l0.6-3.1l1.4-1.4l1.8-1.3l1.2,0.6l1.7,0.2l2-2.4l1.5,0.8l2.1-2.1
	l1.7,0.2l0.9-0.6l2,0.7l1.8-0.4l1.6-1v-1.5l2.4-2.4l1.6,1.3l1.8,0.4l0.8,1.3l0.8,0.6l1.8-0.9l2.2,1.5v1.6l2.3-0.2l2.7,1.3l1.8,0.6
	l2.6,1.1l1.4,0.4l0.5,1.1l1.1,2.6l0.7,1.9h1l0.7,1.5l1.5,1.2l2.6,1.7l1.5-0.4l2.3,1.4l1.5,2.4v2.2l-4.3,4.1l-1.4,2.1l-0.1,2.1
	l1.3,2.5l0.1,4.8l1.5,2.7l1.9,1.4l1.4,3.4l0.7,3v1.7l-1.6,3.2l-1.1,2.6l-2.7,3.6l-1,3.5l0.2,3.1l0.6,3.9l-0.1,6l-0.8,4.5l-2.8,3
	l-2.4,5.2l-1,4.6l-3.3,10.8l-1.2,8.4l-0.3,3.4l0.2,2.6l1.7,2.6l1.1,2.7l-1.3,2.2l-3,3.2l-1.2,4.4l-1.1,3.8l-1.7,2l-1.9,1.9l-2,2.3
	l-2.1,2.3l-2.2,4l-1.4,1.2l-0.1,1.6l2.1,2.3l-0.3,4.1l0.2,3.7v3.1l0.3,2.8l0.6,2l-1,0.5l-2.1-0.7H780l-1.4,0.7l0.3,3l1.8,3.5
	l0.2,3.6l3.6,5.2l-1.9,4.1l-0.7,1.9l-0.2,1.7l0.1,3.1l0.7,1l-0.2,1.3l-0.8,0.7h-3.2l-1.5,1.1l-0.3,1.9l1.7,2.8l0.7,3.5l0.4,2.8
	l-1.5,1.8l-1.2,2l1.1,2.6l3.6,2.5l-1.5,2.3l-2,1.3l-1.6,1.5l0.6,1.7l1.8,1.7l-0.5,2.3l-2.6,3.1l-0.9,2.7l-0.2,3l-1.2,3.3l-3,2.8
	l-2.8,2.1l-2.1,2.3l-0.5,3.4l1.2,1.7l0.7,3.3l-1.2,2.3l-1.6,2.3h-1.4l-2.5-1.6l-3.2,0.7l-3.6,2.3l-0.2,1.9l-0.1,2.8l-0.1,2.3
	l-0.7,1.9l-1.8,0.5h-3l-3.2,0.5l-2.1,1.5l-3.5,3.2l-2.2,1.8l-0.3,3.8l1.2,2.4l-0.2,1.5c0,0-1.9,0.7-2.6,0.9s-3.9,0.7-3.9,0.7
	l-3.4-2.6l-2.9,0.8l-1.3,1l-5.4,0.3l-4,2l-2.8,2.9l-1.1,4.8l0.2,2.6l-0.7,1h-3l-2.9-0.7l-1.9,0.7l-1,2.3l0.3,1.4l-0.2,1.4h-1.5
	l-1.4-0.4l-1.5,0.9l-0.2,2.3l2.9,3.9l0.7,2l-1.5,1.6l-1,0.7l1.3,4.2l-1.5,1.5l-1.9,1.7l-2,0.7l-2.4,0.9l-2.2,2.8l-1.3,2.3l-1.2,0.8
	H682l-3.6-0.9l-1.5-2.3l-1.9-1.9l-1.8-4.2l-6.7,0.4l-3.2-1.4l-3.3-2.2l-5.5-0.4l-3.5,1.2l-6.4,4.6l-4,2.8l-2.7,2.9l-1.5,4.8l-3.5,4
	l-2.9,3.6h-2.8l-4-3.6l-1.9-5.2l-5.7-4l-8.7,1.9l-3,1.5l-1,1.2l-0.2,1.5l-1.8,0.5l-4.3-2.9l-3.2-3.2l-3.6-1.9h-2.8l-9.4,6.1
	l-8.6,0.3l-5.2-1.1l-5.4-2.6l-3.2-2.4l-3.2-0.2l-3.2-0.1l-3.1,1l-1.9,1.1l-3.1,0.6l-4.4-1.3l-2.1-1.5l-3-1.9l-2.6-1.5l-3.3-1.5
	l-0.9-1.5l-1.9-1.5l-2.9-0.2l-3.6,0.4l-3.4,0.2l-2.7-3l-3.1-2.7l-2.8-0.5l-4,0.3l-3.1-0.4l-2.6-0.3l-5.6,0.9l-4.6,0.8l-3.1-0.2
	l-3.3-1l-1.9-1l-2.4,1.2l-4.7,1l-3.6,0.5l-2.8,0.3l-3.6-1l-2.3-0.2l-2.6,1.1l-1.5,1l-2.6,0.2h-2.7l-0.2-1.2l1.2-1.7V795l-0.6-2.5
	l-2.7-1l-1.8-1.5l-0.9-2.2l1.4-4l2.2-0.8l3.1-0.2l2.2-0.2v-6.9l1.5-0.1l1,0.2l1,2l1-1.2c0,0,0.2-1.6,0-1.7c-0.6-0.6-1.1-1.1-1.6-1.8
	l0.6-1.5l3.1,0.7l0.6-1.5l-2.5-4.3v-1.7l1.5,0.5l4.1-1l4.1-2.4l0.7-2.8l2.9,1l1-0.6c0-0.7,0-1.3-0.2-2c-0.2-0.2-0.7-2.9-0.7-2.9
	l0.9-0.8l2.9-0.6l0.2-1.5l-0.7-1.7l0.9-0.7l1.6,0.7l1.7-1.1l-0.6-1.7l-0.2-4.9l-0.4-1.9l-0.2-1.6l0.9-0.1l1,0.9l1.6,0.6l1.4-0.3
	l0.7-1.2l-1-1.7l0.3-1.1l0.3-2l-0.3-2.2l-0.6-1.1l-1.3-1l0.3-2.2l1-2.3l-1.8-1.1l-0.3-1.5l1.1-0.7l2.1,0.2l1-0.6l-1.9-1.9l-1.6-2.4
	l0.4-2.6c0,0,1.2-1.2,1.5-1.2c0.7-0.3,1.5-0.6,2.2-1l1.5-2.8l0.1-1.9l-1.1-1.7l0.2-2.7l2.7-0.8l2.4-1.9l-0.2-1.5l-1.6-0.7
	c0,0-1.5-1-1.5-1.2c-0.3-0.6-0.7-1.1-1.1-1.5l1.1-0.3l1.9,0.7l0.4-3.6l1.2-1.5l1.9-1.7l1.8-0.7l2.3,0.5l4.3-2.4l2.8-2l2.1-2.8
	l2.8-1.7l2-0.1l1-1.5l-0.3-1.4l-2.2-1.3l-1-1.3l1.3-2.5l1.7-0.4l1.8-1.1l-0.5-1.4l-1.6-1.2l-0.1-2.5l1.7-1l2.1,0.1l1.5-1.6l0.5-2.5
	l-2.2-2.3l-0.9-2l0.9-0.5l2.1,0.7l2.3-0.9l3.5-3.4l-0.4-0.7l-2.6,0.1l-0.3-1.4l1.2-2.1l0.7-1.7l1.9-1.1l1.9,1.4l1.1,0.8l0.8-0.4
	l0.1-4.1V641l1.2-0.3l1.8,1.3l0.6,0.9l1.5-0.2l0.6-1.7l0.1-1.9l0.7-1l1.8,0.2l0.2-1.6l0.7-2.3l-0.9-1.5l1.9-5.7l-3.3-4l-2.6-1.9
	l-3.8-3.3l-2.8-2.8l0.1-3.1l-4.4-6.5l-0.2-1.9l-1.9-3.8l-4-1.8l-2.2-3.3l-2.5-2.4l-5.6-0.2l-2.8,0.5l-1.9-0.7l-0.6-2.9h-4.3
	l-1.8-0.2l-0.7-1.9l-3.1-0.3l-1.9-2l-1-1.6l-2.7-0.5l-1.3-1.3l-1.3-1.9l-1.7-0.8l-3.7,2.1l-3.2,3.5l-1.7,1l-1.6-1.3l-2.8-2.9
	l-1.2-1.6l-1.9-1.5l-0.3-2.5l-4-2.8l-4.1-1.4l-1.6-0.5l-0.9-0.3l-2-0.3l-1.9-0.8l-1.2,0.4l-2.8-0.4l-1.9,0.6l-1.1,0.1l-0.9-0.3
	l-1-1.5l-1.4-3.1h-1.8l-3.6-0.1l-2.6-1l-3.8-3.2l-1.9,0.1l-2.6-2.6l-2.2-1.4l-2.9-2.3l-1.9-0.1l-3-0.4l-1.4-1.5l-1.7-0.8l-2.3-1h-2
	l-1.5-0.1l-1.3-1.5c-0.5-0.4-0.9-0.8-1.3-1.2c-0.4-0.4-0.8-0.8-1.2-1.1l-2.8-2l-3.1-0.7l-1-2l-0.6-1h-2.2l-1.9-1.3l-1.7-0.7
	l-1.3-0.2l-2-3.6l-1-2.1l-1-1.3l-1.3-0.2h-1.3l-1-1.9l-1.4-0.1l-0.8-1.4l-0.3-1.4l-1.8-1l0.2-1.3l-48.6-29.2
	c-0.5-0.1-1.1-0.2-1.6-0.1c-0.7,0.3-1.3,0.6-1.9,1l-2.7,0.9l-2.3,0.9l-5.3,0.6l-3.5,0.2l-2.7,0.5l-2.8-0.2l-2.3-1.3l-1.9,0.2l-1,0.2
	l-1.5-1.9l-1.5-1.3l-2.9-1.1l-2.1-1l-1.9-1l-2.2-0.1l-1.1,0.6l-3-0.5l-1.1-0.2l-1.8-0.2l-0.5-1.8l-0.1-2.6l-1.5-0.5l-4.3,0.1
	l-3.1-1.4l-4.6-1.3l-3-0.1l-3-0.4l-2,0.1l-4.2-2.7l-3.1-2.1l-0.8-0.5l-1.1,0.9l-2.4-0.5l-0.9,0.7l-3.3-4.1l-0.4-2.6l-2.6-3.1
	l-2.5-2.4l-1.9-2.9l0.4-4l-1.5-1.8l-2.6-1.1l-1.9-1.5l-0.7-1.5l-4,0.3l-2-1l-2.3-2.1l-0.7-2l-1.3-1.2l-1.9-0.2l-2.3-0.2v-1.5
	l-2.2,0.8l-4.6-1.9l-1.7-1.7l-3.5,0.1l-3.4-4.5l-0.2-2.9l-4.1-0.4l-0.9-2.5l-1.4-0.9l-1.9-1.8l-3.8-0.1l-2.5-0.2l-2.8-3.6l-2-0.2
	l-0.9-5.6l-1.8-0.3l-3.3-0.6l-2.3-2.4l-0.4-1l-1.9-4.1l-2.9-0.2l-1.6-1.9l-1.2,0.6l-1.7-0.9l-1.9-2.3l-1.9-0.8l-0.8-1.4l-1.4-1.5
	l-0.2-6.3l-1.7-0.2l-1.2-4.3l-3.3-2.8l-0.5-2.2l-0.9-0.8l-1.9,0.6l0.3-1.5l-1.9-0.9l-1.1-2.8l-1.9-0.7l0.2-1.4l-1.6-2l-2.1-1.7
	l0.2-2.5l-0.1-2.8l-1.9-1.5l-1,0.8l-2.1-1.9l1-3l0.9-3.3l-1.9-1.5l-0.6-1.5l-1.5,1l-0.9-0.9l0.6-2.3h-5.8l-1.6-0.1l-4.4,0.1
	l-1.8-2.5l-1.3-2.1l-0.9-1.2c-0.3-0.5-0.6-1-0.8-1.5c0-0.2-1.4-1-1.4-1l-1.6-0.9l-3.2-1l-2.4-1.1c0,0-1.8-1.5-1.8-1.7
	s-1.8-0.8-1.8-0.8l-1.1-1.3l-1-1l-1.3-1.8l-1.1-0.8L89.3,338.3z"/>
<g class="st4">
	<path class="st5" d="M685.5,670.1l-0.1-0.2L685.5,670.1z"/>
	<polygon class="st5" points="663.3,803.1 666.5,804.4 660,800.9 	"/>
	<polygon class="st5" points="809.4,504.6 809.9,504.1 809.9,504.1 	"/>
	<polygon class="st5" points="658.7,800.8 658.7,800.8 660,800.9 	"/>
</g>
<path class="st5" d="M85.2,35.8c1.4-0.3,2.9-0.4,4.3-0.4c2.3,0,3.9,0.4,5,1.3c1,0.8,1.6,2,1.5,3.2c-0.1,1.9-1.3,3.5-3.1,4V44
	c2.2,0.4,3.7,2.3,3.8,4.6c0,1.4-0.5,2.7-1.5,3.6c-1.3,1.2-3.3,1.7-6.3,1.7c-1.2,0-2.4-0.1-3.6-0.2L85.2,35.8z M87.6,43.2h2.1
	c2.5,0,3.9-1.3,3.9-3c0-2.1-1.6-3-4-3c-0.7,0-1.4,0-2.1,0.2L87.6,43.2z M87.6,52c0.7,0.1,1.3,0.1,2,0.1c2.4,0,4.7-0.9,4.7-3.5
	c0-2.5-2.1-3.5-4.7-3.5h-2V52z"/>
<path class="st5" d="M116.8,44.5c0,6.3-3.8,9.6-8.4,9.6c-4.8,0-8.2-3.7-8.2-9.2c0-5.8,3.6-9.6,8.4-9.6S116.8,39,116.8,44.5z
	 M102.6,44.8c0,3.9,2.1,7.4,5.8,7.4s5.8-3.4,5.8-7.6c0-3.6-1.9-7.4-5.8-7.4S102.6,40.8,102.6,44.8L102.6,44.8z"/>
<path class="st5" d="M121.2,35.5h2.3v16.2h7.8v2h-10.1V35.5z"/>
<path class="st5" d="M137.6,35.5v18.2h-2.4V35.5H137.6z"/>
<path class="st5" d="M147.1,53.7l-5.9-18.2h2.5l2.8,9c0.8,2.5,1.5,4.7,1.9,6.8h0.1c0.5-2.1,1.3-4.4,2.1-6.8l3.1-9h2.5l-6.5,18.2
	L147.1,53.7z"/>
<path class="st5" d="M161.8,35.5v18.2h-2.4V35.5H161.8z"/>
<path class="st5" d="M170.2,48l-1.9,5.7h-2.4l6.2-18.2h2.8l6.2,18.2h-2.5l-1.9-5.7H170.2z M176.2,46.2l-1.8-5.2
	c-0.4-1.2-0.7-2.3-0.9-3.3h-0.1c-0.3,1.1-0.6,2.2-0.9,3.3l-1.8,5.3L176.2,46.2z"/>
<path class="st5" d="M306.2,609.6l-1.9,5.7h-2.4l6.2-18.2h2.8l6.2,18.2h-2.5l-1.9-5.7H306.2z M312.2,607.8l-1.8-5.2
	c-0.4-1.2-0.7-2.3-0.9-3.3h0c-0.3,1.1-0.6,2.2-0.9,3.3l-1.8,5.3L312.2,607.8z"/>
<path class="st5" d="M321.2,597.4c1.5-0.3,3-0.4,4.5-0.4c2.5,0,4.1,0.5,5.3,1.5c1,0.9,1.5,2.2,1.4,3.5c0,2.1-1.4,4-3.4,4.6v0.1
	c1.4,0.5,2.2,1.8,2.7,3.7c0.3,1.7,0.8,3.4,1.4,5h-2.4c-0.5-1.4-0.9-2.9-1.2-4.3c-0.5-2.5-1.5-3.5-3.6-3.5h-2.2v7.9h-2.4L321.2,597.4
	z M323.5,605.6h2.4c2.5,0,4.1-1.4,4.1-3.5c0-2.3-1.7-3.4-4.2-3.4c-0.8,0-1.6,0.1-2.3,0.2V605.6z"/>
<path class="st5" d="M350.9,614.5c-1.8,0.6-3.7,1-5.6,1c-4.7,0.5-8.9-3-9.3-7.7c0-0.5-0.1-1,0-1.5c0-5.4,3.8-9.4,9.9-9.4
	c1.6,0,3.1,0.3,4.5,0.8l-0.6,1.9c-1.3-0.5-2.6-0.8-4-0.8c-4.4,0-7.3,2.8-7.3,7.3s2.8,7.3,7,7.3c1.1,0.1,2.1-0.1,3.1-0.5v-5.4h-3.7
	v-1.9h6V614.5z"/>
<path class="st5" d="M365.3,606.8h-7.1v6.6h7.9v2h-10.2v-18.2h9.8v2h-7.5v5.8h7.1L365.3,606.8z"/>
<path class="st5" d="M370.5,615.3v-18.2h2.5l5.8,9.2c1.2,1.9,2.3,3.9,3.3,5.9h0c-0.2-2.4-0.3-4.6-0.3-7.5v-7.6h2.2v18.2h-2.4
	l-5.7-9.3c-1.3-2-2.4-4-3.4-6.1h-0.1c0.1,2.3,0.2,4.5,0.2,7.5v7.8L370.5,615.3z"/>
<path class="st5" d="M393,599.1h-5.5v-2H401v2h-5.6v16.2H393V599.1z"/>
<path class="st5" d="M406.7,597.1v18.2h-2.4v-18.2H406.7z"/>
<path class="st5" d="M412.1,615.3v-18.2h2.6l5.8,9.2c1.2,1.9,2.3,3.9,3.3,5.9h0c-0.2-2.4-0.3-4.6-0.3-7.5v-7.6h2.2v18.2h-2.4
	l-5.8-9.2c-1.3-2-2.4-4-3.4-6.1h-0.1c0.1,2.3,0.2,4.5,0.2,7.5v7.8L412.1,615.3z"/>
<path class="st5" d="M434.2,609.6l-1.9,5.7h-2.4l6.2-18.2h2.8l6.2,18.2h-2.5l-1.9-5.7H434.2z M440.2,607.8l-1.8-5.2
	c-0.4-1.2-0.7-2.3-1-3.3h0c-0.3,1.1-0.6,2.2-0.9,3.3l-1.8,5.3L440.2,607.8z"/>
<path class="st5" d="M556.4,81.1c1.4-0.3,2.9-0.4,4.3-0.4c2.3,0,3.9,0.4,5,1.3c1,0.8,1.6,2,1.5,3.2c-0.1,1.9-1.3,3.5-3.1,4v0.1
	c2.2,0.4,3.7,2.3,3.8,4.6c0,1.4-0.5,2.7-1.5,3.6c-1.3,1.2-3.3,1.7-6.3,1.7c-1.2,0-2.4-0.1-3.6-0.2V81.1z M558.7,88.5h2.1
	c2.5,0,3.9-1.3,3.9-3.1c0-2.1-1.6-3-4-3c-0.7,0-1.4,0-2.1,0.2L558.7,88.5z M558.7,97.3c0.7,0.1,1.3,0.1,2,0.1c2.4,0,4.7-0.9,4.7-3.5
	c0-2.5-2.1-3.5-4.7-3.5h-1.9L558.7,97.3z"/>
<path class="st5" d="M572.3,81.1c1.5-0.3,3-0.4,4.5-0.4c2.5,0,4.1,0.5,5.3,1.5c1,0.9,1.5,2.2,1.4,3.5c0,2.1-1.4,4-3.4,4.6v0.1
	c1.4,0.5,2.2,1.8,2.7,3.7c0.3,1.7,0.8,3.4,1.4,5h-2.4c-0.5-1.4-0.9-2.9-1.2-4.3c-0.5-2.5-1.5-3.5-3.6-3.5h-2.2V99h-2.3V81.1z
	 M574.7,89.4h2.4c2.5,0,4.1-1.4,4.1-3.5c0-2.3-1.7-3.4-4.2-3.4c-0.8,0-1.6,0.1-2.3,0.2V89.4z"/>
<path class="st5" d="M591.2,93.3l-1.9,5.7h-2.4l6.2-18.2h2.8l6.2,18.2h-2.5l-1.9-5.7H591.2z M597.2,91.5l-1.8-5.2
	c-0.4-1.2-0.7-2.3-1-3.3h0c-0.3,1.1-0.6,2.2-0.9,3.3l-1.8,5.3L597.2,91.5z"/>
<path class="st5" d="M605.8,96.2c1.3,0.8,2.7,1.2,4.2,1.2c2.4,0,3.8-1.3,3.8-3.1s-1-2.7-3.4-3.6c-3-1.1-4.8-2.6-4.8-5.2
	c0-2.8,2.3-4.9,5.9-4.9c1.4,0,2.8,0.3,4,0.9l-0.7,1.9c-1.1-0.6-2.3-0.9-3.5-0.9c-2.5,0-3.4,1.5-3.4,2.7c0,1.7,1.1,2.5,3.6,3.5
	c3.1,1.2,4.6,2.7,4.6,5.3s-2.1,5.2-6.4,5.2c-1.6,0-3.2-0.4-4.6-1.2L605.8,96.2z"/>
<path class="st5" d="M623.1,80.9v18.2h-2.3V80.9H623.1z"/>
<path class="st5" d="M628.6,80.9h2.3v16.2h7.8v2h-10.1V80.9z"/>
<path class="st5" d="M254.4,240.6c1.5-0.2,3-0.4,4.5-0.4c1.8-0.1,3.6,0.4,5.1,1.5c1.1,1,1.6,2.4,1.6,3.8c0.1,1.4-0.4,2.8-1.4,3.9
	c-1.5,1.4-3.5,2.1-5.6,2c-0.6,0-1.3,0-1.9-0.2v7.3h-2.4L254.4,240.6z M256.7,249.4c0.6,0.1,1.3,0.2,1.9,0.2c2.8,0,4.6-1.4,4.6-3.9
	s-1.7-3.6-4.3-3.6c-0.7,0-1.5,0-2.2,0.2V249.4z"/>
<path class="st5" d="M273,252.9l-1.9,5.7h-2.4l6.2-18.2h2.8l6.3,18.2h-2.5l-1.9-5.7L273,252.9z M279,251l-1.8-5.2
	c-0.4-1.2-0.7-2.3-0.9-3.3h0c-0.3,1.1-0.6,2.2-0.9,3.3l-1.8,5.3L279,251z"/>
<path class="st5" d="M288,240.6c1.5-0.3,3-0.4,4.5-0.4c2.5,0,4.1,0.5,5.3,1.5c1,0.9,1.5,2.2,1.4,3.5c0,2.1-1.4,4-3.4,4.6v0.1
	c1.4,0.5,2.2,1.8,2.7,3.7c0.3,1.7,0.8,3.4,1.4,5h-2.4c-0.5-1.4-0.9-2.9-1.2-4.4c-0.5-2.5-1.5-3.5-3.6-3.5h-2.2v7.9H288V240.6z
	 M290.4,248.9h2.4c2.5,0,4.1-1.4,4.1-3.5c0-2.4-1.7-3.4-4.2-3.4c-0.8,0-1.6,0.1-2.3,0.2V248.9z"/>
<path class="st5" d="M306.8,252.9l-1.9,5.7h-2.4l6.2-18.2h2.8l6.2,18.2h-2.5l-1.9-5.7L306.8,252.9z M312.8,251l-1.8-5.2
	c-0.4-1.2-0.7-2.3-0.9-3.3H310c-0.3,1.1-0.6,2.2-0.9,3.3l-1.8,5.2L312.8,251z"/>
<path class="st5" d="M335.6,257.8c-1.8,0.6-3.7,1-5.6,1c-4.7,0.5-8.9-3-9.3-7.7c0-0.5-0.1-1,0-1.5c0-5.4,3.8-9.4,9.9-9.4
	c1.5,0,3.1,0.2,4.5,0.8l-0.6,1.9c-1.3-0.5-2.6-0.8-4-0.8c-4.4,0-7.3,2.8-7.3,7.3s2.8,7.3,7,7.3c1.1,0.1,2.1-0.1,3.1-0.5v-5.4h-3.7
	V249h6L335.6,257.8z"/>
<path class="st5" d="M342.9,240.4v10.8c0,4.1,1.8,5.8,4.2,5.8c2.7,0,4.4-1.8,4.4-5.8v-10.8h2.4V251c0,5.6-2.9,7.9-6.9,7.9
	c-3.7,0-6.5-2.1-6.5-7.8v-10.7H342.9z"/>
<path class="st5" d="M362.3,252.9l-1.9,5.7H358l6.2-18.2h2.8l6.2,18.2h-2.5l-1.9-5.7L362.3,252.9z M368.3,251l-1.8-5.2
	c-0.4-1.2-0.7-2.3-0.9-3.3h0c-0.3,1.1-0.6,2.2-0.9,3.3l-1.8,5.3L368.3,251z"/>
<path class="st5" d="M381.3,258.6v-7.7l-5.8-10.5h2.7l2.6,5c0.7,1.4,1.2,2.5,1.8,3.8h0c0.5-1.2,1.1-2.4,1.8-3.8l2.6-5h2.7l-6.1,10.4
	v7.7L381.3,258.6z"/>
</svg>
