<svg id="ECORREGIONES_GLOBAL" data-name="ECORREGIONES GLOBAL" xmlns="http://www.w3.org/2000/svg" viewBox="0 0 848 855"><defs><style>.cls-1{fill:#f1a21e;}.cls-1,.cls-3,.cls-5,.cls-7{opacity:0.5;}.cls-1,.cls-5,.cls-7{isolation:isolate;}.cls-2{fill:#e2e4e7;}.cls-4{fill:#94bb1e;}.cls-5,.cls-6{fill:#0098a6;}.cls-7{fill:#b71765;}.cls-10,.cls-13,.cls-14,.cls-8,.cls-9{fill:none;}.cls-8{stroke:#c2c3c9;}.cls-14,.cls-8,.cls-9{stroke-linecap:round;stroke-linejoin:round;}.cls-14,.cls-8{stroke-width:0.5px;}.cls-9{stroke:#fff;stroke-dasharray:0 5;}.cls-10,.cls-13,.cls-9{stroke-width:2px;}.cls-10,.cls-14{stroke:#87868a;}.cls-10,.cls-13{stroke-miterlimit:10;}.cls-11{fill:#312e2a;}.cls-12{fill:#fff;}.cls-13{stroke:#0098a6;}</style></defs><title>zoom_3_esp</title><path class="cls-1" d="M587.93,513l-13.81-4.74-17-5.52L556,480.26l-23.68-.39-11.44-6.71L509,467.64l4.74-22.89,4.34-5.92-5.92-4.34.79-8.68,9.08-.39,8.65-8.75,6.28,9.16h0l-6.28-9.24-15-2.76-12.63-11-19.73-2L471.94,402l-2-12.23,5.13-17.36,5.52-11.84-.39-8.68L466,339.63l-14.21-9.47L450.63,327l2.76-10.66L468,311.6l26.44-8.29L494,297.8l-2.76-4.34-20.13,2-17.36,6.71-11,1.58-1.18-7.1,13-11.84.79-3.16-13.42-7.1L434,266.66l9.08-7.1,17.76-8.68,5.52,4.34,6.71,6.71,8.29,2.76,4.34-10.26-2-18.94,5.52-11V212.16L494,209.8l2-10.66-13.81-7.89L479,186.91l12.63-.39,7.1-6.71,2.76-10.26,6.31-7.5,8.68-3.55,8.29-4.74v-5.57L520,149.55H500l-7.37-4.74-23.15-2.63-11.58-6.84-11,3.68-13.68-1.58L425.77,129l-11-10.52-2.1,8.95L411.56,139H392.09l-6.84,6.31L380,140.08l-5.26-7.37-4.21,6.84-4.74,16.84h-8.42l-20.52-16.84-26.31-7.37-13.68,4.21-10.52,3.68-8.42-5.79L260,122.71l23-4.61-60.48,10.84-19.23,50.29.49-.77,15.79.39,21.71,6.71,11.44,10.66L279.23,201l-8.68,7.1L269,223.45,247.65,225l5.13,10.66L270.15,255l1.18,9.87L261.07,278.7l-15.39-9.08-14.21,9.47L216.87,287l-18.94-6.31-14.21-5.52-12.65-2.32.77,17.48L136.58,421.1l.58,2.43,1.26,1,1.47,2.09,1.2,1.2,1.26,1.57s2.17.66,2.17.94,2.15,2,2.15,2l2.89,1.31,3.71,1.14,1.86,1.1s1.65.87,1.65,1.15a9.31,9.31,0,0,0,1,1.73l1,1.41,1.47,2.51,2.09,3,5.16-.13,1.91.1h6.78l-.67,2.66,1,1,1.81-1.14.67,1.71,2.19,1.81-1,3.9L179,459.14l2.47,2.28,1.14-1,2.28,1.71.1,3.24-.19,3,.71.58,5.37-6.44L212.19,464l17,8.29,7.1,7.89-6.71,4,33.94,25.26,47,21.31,43.8,3.55,14.6-4,23.68-1.58,1.58,6.71L369.32,548.1l3.55,10.66,20.52,2,7.89,11.44,30.39-7.5,9.47,20.92,2.37,11.44,19.73,15.79,11,1.58L498.35,620l11,15,17,11,11-2.37-8.68-16.57-8.29-12.23,12.23-9.47-5.13-9.08-4.34-10.66,7.1-5.13-1.18-13,6.31-6.71,7.1-13.81-20.13-7.89,3.16-7.89,11-11.84,5.92,3.55L559,530.4l20.26,1.6,13-6.31Z"/><path class="cls-2" d="M499.49,86.05l93.06,58.21.13.84,1.56,10.34L596.8,174l-2.28,8.1,4.78,2.75,4.12,17.9,6.51,4.77,2.28,6.27-3.93,5.66,5,14.15-.67,10.83,7.42-8,6.3,10-7.47-.79-6,6.6L624,251.5l3.78,6.38-7.72,3.29,10.13,12.16L626,280.12,627.23,294l-6.92,10.61,6.84,5.11-11.56,23.59,6,4.81-2,5.06,4,6.08L619,354.87,620.52,369l-3.25,11.08L613.1,387l2.44,26.81,10.73.69.13,7.45,5,.75.69,18.2,3.72,4.92,2,13.13-10.45-.26-3,5.41,9.85,9.06-.13,8.27,6.34,8.5-.56,7,3.94,7.09,10.37.13-1.6,7.48,15.78,13.4L664,530.31l.73,7.7,6.1.31L671,551,665,554l1.53,4.09L691,572.59l-1.39,18.26L684,593.44l10.52,14.2.13,11.16-4.33.39-1.21,6.09,7.24.34L697,638.1l4.86.13.26,40.57-12.21,12.08L689,699l7.4,4.78-2,6.3-8.33.39-.16,6.68-12.38,8-11,.66,1,8.8-2.1,5.57-16,7.66-.32.15v-.69l.08-2.93-5.14-7.62-.19-2.19-2.19-4.48L633.1,728l-2.67-3.91-3-2.86-6.57-.19-3.33.57-2.19-.86-.67-3.43h-5l-2.1-.19-.86-2.19-3.62-.38-2.29-2.38-1.14-1.91-3.14-.57L595,708.15,593.47,706l-2-1-4.38,2.48-3.81,4.1-2,1.14-1.94-1.5-3.3-3.46-1.43-1.91-2.19-1.71-.38-3-4.67-3.33-4.86-1.62-1.85-.57-1.06-.33-2.36-.39L555,694l-1.43.48-3.33-.48-2.29.67-1.3.07-1.1-.31-1.21-1.76L542.7,689h-2.1l-4.19-.1-3-1.14-4.48-3.72-2.19.1-3-3-2.57-1.62-3.43-2.67-2.29-.1-3.52-.48-1.62-1.81-2-1-2.67-1.14h-2.38l-1.71-.1L500,670.56a10.08,10.08,0,0,1-1.52-1.43,8.79,8.79,0,0,0-1.43-1.33l-3.24-2.38-3.71-.76-1.24-2.38-.76-1.24h-2.57l-2.19-1.52-2-.86-1.52-.29-2.38-4.19-1.14-2.48-1.14-1.52-1.52-.19H472l-1.24-2.29-1.62-.1-1-1.62-.38-1.62-2.1-1.14.19-1.52L408.6,607.31a6.91,6.91,0,0,0-1.33-.16,2.18,2.18,0,0,0-.58.07,16.39,16.39,0,0,0-2.29,1.14l-3.14,1-2.67,1-6.29.67-4.1.29-3.14.57-3.24-.29-2.67-1.52-2.29.19-1.24.19-1.62-2-1.71-1.52-3.43-1.33-2.48-1.14-2.29-1.24-2.57-.1-1.33.76-3.52-.57-1.33-.19-2.1-.29-.57-2.1-.1-3-1.81-.57-5,.1-3.62-1.62-5.48-1.6-3.52-.1-3.52-.48-2.38.1-5-3.14-3.72-2.48-1-.57-1.33,1-2.76-.57-1,.86-3.91-4.86-.48-3-3-3.62-3-2.86-2.29-3.43.48-4.76-1.81-2.1-3-1.24L293.23,561l-.86-1.81-4.76.38-2.38-1.14L282.55,556l-.86-2.38-1.43-1.52-2.19-.19-2.67-.19V550l-2.57,1-5.43-2.29-2-2-4.1.1-4-5.24-.29-3.43-4.86-.48-1-3-1.62-1-2.29-2.1-4.48-.1-3-.19-3.24-4.19-2.38-.29-1-6.57-2.1-.38-3.91-.67-2.67-2.76-.48-1.14-2.29-4.86-3.43-.19L216.35,508l-1.43.76-2-1-2.29-2.67-2.29-1-1-1.62-1.62-1.71-.29-7.43-2-.19-1.43-5-3.91-3.24-.57-2.57-1-1-2.29.76.38-1.81-2.19-1L191.18,476l-2.19-.86.19-1.62-1.91-2.38-2.48-2,.19-3-.1-3.24-2.29-1.71-1.14,1L179,459.81l1.14-3.52,1-3.91L179,450.57l-.67-1.71-1.8,1.14-1-1,.67-2.67h-6.79l-1.91-.1-5.16.13-2.1-3-1.47-2.52-1-1.42a9.32,9.32,0,0,1-1-1.73c0-.29-1.65-1.15-1.65-1.15l-1.86-1.11-3.72-1.14L146.59,433a14.54,14.54,0,0,1-2.15-2c0-.27-2.18-.94-2.18-.94L141,428.43l-1.21-1.21-1.47-2.09-1.26-1-.58-2.44,35.3-130.93-2.54-57.92L202.77,181l19.81-51.82L337.4,108.62,405,88.08l94.5-2m0-11h-.24l-94.5,2a11,11,0,0,0-3,.47l-66.92,20.4L220.66,118.41a11,11,0,0,0-8.33,6.9L192.93,176,160,226.9a11,11,0,0,0-1.75,6.46l2.47,56.22L125.88,418.86a11,11,0,0,0-.08,5.4l.58,2.44a11,11,0,0,0,3.91,6.12l.52.74A11,11,0,0,0,132,435l.78.78.88,1.1a11,11,0,0,0,4.38,3.29c.57.51,1.13,1,1.64,1.37A11,11,0,0,0,142,443l2.89,1.32a11,11,0,0,0,1.32.5l2.26.7v0l.29.42.69.93,1.16,2a9.3,9.3,0,0,0,.52.81l2.1,3a11,11,0,0,0,9,4.64h.28l4.72-.12.92,0,.09.09A11,11,0,0,0,171.49,468l2.32,2.14a11,11,0,0,0,4,7.58l.51.41a11,11,0,0,0,4.06,5.88,14.39,14.39,0,0,0,7.53,8.35,11,11,0,0,0,1.13,1.08l1.27,1.06.5,1.76a11,11,0,0,0,1.83,3.66l.05,1.39a11,11,0,0,0,3,7.13l.77.81.32.55a11,11,0,0,0,5.12,4.52l.58.68a11,11,0,0,0,3.25,2.59l2,1a11,11,0,0,0,2.5.94,11,11,0,0,0,1.9,1l.08.19a11,11,0,0,0,2.24,3.41l2.67,2.76a11,11,0,0,0,4.32,2.76,11,11,0,0,0,6.9,7.57l.66.86a11,11,0,0,0,8,4.25l3,.19h.24a11,11,0,0,0,6.11,5.53l.19.25,4,5.24a11,11,0,0,0,8.65,4.32,11,11,0,0,0,1.92,1l5.43,2.29,5.18,1.5a11,11,0,0,0,1.32,1.47l2.67,2.48a11,11,0,0,0,2.73,1.86l2.38,1.14a11,11,0,0,0,4.76,1.08h0l1,.81.18.14a11,11,0,0,0,1.82,5.4l2.29,3.43a11,11,0,0,0,1.5,1.8l2.55,2.47.71.84h0a11,11,0,0,0,2.29,5.19l3.91,4.86a11,11,0,0,0,11.29,3.77h.76l.24.16.21.14,5,3.14a11,11,0,0,0,5.89,1.71h.44l1.42-.06,2.57.35a11,11,0,0,0,1.18.1l2.17.1,3.34.94,2.88,1.29a11,11,0,0,0,2.3.74,11,11,0,0,0,8.23,5.74l2,.28,1.21.17,3.42.55a11,11,0,0,0,3.86-.06l2,.9.62.26,1.36.53.82,1a11,11,0,0,0,9.85,4.16,11,11,0,0,0,4,1.16l3.24.29h1a11,11,0,0,0,2-.18l2.55-.46,3.49-.24h.39l6.29-.67a11,11,0,0,0,2.86-.7l2.4-.94,1.88-.63,49.21,29.56a11,11,0,0,0,2.71,3.16l.79,1.35a32.51,32.51,0,0,0,8.5,7.11l2,3.51a11,11,0,0,0,7.54,5.38H478l1.2.84a77.72,77.72,0,0,1,8.64,5.37l1.35.28,1,.7a17.79,17.79,0,0,0,2.16,2.11l.94,1.06a11,11,0,0,0,7.61,3.68l1.71.1h.73l.21.09.13.15a11,11,0,0,0,6.72,3.57l3.2.43.76.59q.43.33.89.63l1.53,1L519,692a11,11,0,0,0,5.93,3.06l1.5,1.24a11,11,0,0,0,3.16,1.83l3,1.14a11,11,0,0,0,3.4.75l.51.73a11,11,0,0,0,6,4.33l1.1.31a11,11,0,0,0,3,.42h.61l1.3-.07a11,11,0,0,0,2.47-.42h0l1,.14a11,11,0,0,0,1.56.11h.62a11,11,0,0,0,1.26.29l1.62.27.34.11,1.74.54,2.85,1a11,11,0,0,0,3.64,5.15l1,.82.56.74a11,11,0,0,0,.85,1l3.3,3.46a11,11,0,0,0,1.22,1.1l1.94,1.5a11,11,0,0,0,12.19.85l2-1.14a11,11,0,0,0,2.41-1.86,11,11,0,0,0,2.13.91l1.89,2a53.37,53.37,0,0,0,11.42,5.91l.66.06a11,11,0,0,0,4.13,2.85l2.19.86a11,11,0,0,0,5.87.6l2.25-.39h.89l1.44,2.1a11,11,0,0,0,4.58,3.83l.67.3a11,11,0,0,0,1.77,4.58l3.17,4.7v.1A11,11,0,0,0,650,757.89l.32-.15,16-7.66a11,11,0,0,0,5.54-6l2.1-5.57a11,11,0,0,0,.6-2.37,11,11,0,0,0,5.06-1.73l12.38-8a11,11,0,0,0,4.35-5.46A11,11,0,0,0,705,713.4l2-6.3a11,11,0,0,0-4.53-12.53l-.34-.22,7.75-7.67a11,11,0,0,0,3.26-7.89l-.26-40.57a11,11,0,0,0-5.24-9.3l-.16-3.7a11,11,0,0,0-1.73-5.48v-1l-.13-11.16a11,11,0,0,0-2.16-6.42l-3.94-5.32a11,11,0,0,0,1.13-4.09L702,573.42a11,11,0,0,0-5.39-10.32l-15.06-8.86a11,11,0,0,0,.48-3.42l-.22-12.7a11,11,0,0,0-3.71-8,11,11,0,0,0-2.67-13.41l-10.77-9.14.22-1a11,11,0,0,0-10.62-13.3h-3.11l.18-2.3a11,11,0,0,0-2.15-7.45l-4.1-5.49.07-4.52a11,11,0,0,0-1.24-5.24,11,11,0,0,0,4.76-10.77l-2-13.13a11,11,0,0,0-2.1-5l-1.57-2.3-.56-14.74a11,11,0,0,0-5.2-8.94A11,11,0,0,0,627,403.57l-1.33-.09-1.26-13.85,2.31-3.83a11,11,0,0,0,1.13-2.58l3.25-11.08a11,11,0,0,0,.38-4.27l-1-9.61,1.64-2a11,11,0,0,0,.64-13.07l-.85-1.27a11,11,0,0,0-2.6-11.59L637,314.6a11,11,0,0,0-2-12.47l1.36-2.09a11,11,0,0,0,1.75-6.94l-.88-10.33,2.27-3.72a11,11,0,0,0-.94-12.77l-1.8-2.16a11,11,0,0,0,.41-11.85l-.86-1.45a11,11,0,0,0-.74-10.4l-6.3-10a11,11,0,0,0-7.22-4.92l-1.6-4.5.71-1a11,11,0,0,0,1.3-10l-2.28-6.27a11,11,0,0,0-3.84-5.12l-3.21-2.35L610,182.36a11,11,0,0,0-2.72-5.08l.09-.32a11,11,0,0,0,.31-4.49l-2.57-18.52v-.13l-1.56-10.34-.13-.84a11,11,0,0,0-5-7.68l-93.1-58.23a11,11,0,0,0-5.83-1.67Z"/><g class="cls-3"><path class="cls-4" d="M170.86,445.63h-1.45l-1.91-.1-5.16.13-2.09-3-1.47-2.51-1-1.41a9.31,9.31,0,0,1-1-1.73c0-.29-1.65-1.15-1.65-1.15l-1.86-1.1-3.71-1.14-2.89-1.31a14.54,14.54,0,0,1-2.15-2c0-.27-2.17-.94-2.17-.94l-1.26-1.57-1.2-1.2-1.47-2.09-1.26-1-.54-2.27-.13.46.58,2.44,1.26,1,1.47,2.09,1.21,1.21,1.26,1.57s2.18.66,2.18.94,2.15,2,2.15,2l2.89,1.32,3.72,1.14,1.86,1.11s1.65.87,1.65,1.15a9.32,9.32,0,0,0,1,1.73l1,1.42,1.47,2.52,2.1,3,5.16-.13,1.91.1H176l.16-.66Z"/><polygon class="cls-4" points="179.04 449.91 178.38 448.2 176.57 449.34 175.62 448.39 175.48 448.95 176.53 450 178.34 448.86 179.01 450.57 181.08 452.29 181.23 451.72 179.04 449.91"/><path class="cls-4" d="M636.78,451.89l1.06,7.1-10.45-.26-3,5.41,9.85,9.06-.13,8.27,6.34,8.5-.56,7,3.94,7.09,10.37.13-1.6,7.48,15.78,13.4L664,530.31l.73,7.7,6.1.31L671,551,665,554l1.53,4.09L691,572.59l-1.39,18.26L684,593.44l10.52,14.2.13,11.16-4.33.39-1.21,6.09,7.24.34L697,638.1l4.86.13.26,40.57-12.21,12.08L689,699l7.4,4.78-2,6.3-8.33.39-.16,6.68-12.38,8-11,.66,1,8.8-2.1,5.57-16,7.66-.32.15v-.69l.08-2.93-5.14-7.62-.19-2.19-2.19-4.48L633.1,728l-2.67-3.91-3-2.86-6.57-.19-3.33.57-2.19-.86-.67-3.43h-5l-2.1-.19-.86-2.19-3.62-.38-2.29-2.38-1.14-1.91-3.14-.57L595,708.15,593.47,706l-2-1-4.38,2.48-3.81,4.1-2,1.14-1.94-1.5-3.3-3.46-1.43-1.91-2.19-1.71-.38-3-4.67-3.33-4.86-1.62-1.85-.57-1.06-.33-2.36-.39L555,694l-1.43.48-3.33-.48-2.29.67-1.3.07-1.1-.31-1.21-1.76L542.7,689h-2.1l-4.19-.1-3-1.14-4.48-3.72-2.19.1-3-3-2.57-1.62-3.43-2.67-2.29-.1-3.52-.48-1.62-1.81-2-1-2.67-1.14h-2.38l-1.71-.1L500,670.56a10.09,10.09,0,0,1-1.52-1.43,8.78,8.78,0,0,0-1.43-1.33l-3.24-2.38-3.72-.76-1.24-2.38-.76-1.24h-2.57l-2.19-1.52-2-.86-1.52-.29-2.38-4.19-1.14-2.48-1.14-1.52-1.52-.19H472l-1.24-2.29-1.62-.1-1-1.62-.38-1.62-2.1-1.14.19-1.52L408.6,607.31a5.11,5.11,0,0,0-1.91-.1,16.39,16.39,0,0,0-2.29,1.14l-3.14,1-2.67,1-6.29.67-4.1.29-3.14.57-3.24-.29-2.67-1.52-2.29.19-1.24.19-1.62-2-1.71-1.52-3.43-1.33-2.48-1.14-2.29-1.24-2.57-.1-1.33.76-3.52-.57-1.33-.19-2.1-.29-.57-2.1-.1-3-1.81-.57-5,.1-3.62-1.62-5.48-1.6-3.52-.1-3.52-.48-2.38.1-5-3.14-3.72-2.48-1-.57-1.33,1-2.76-.57-1,.86-3.91-4.86-.48-3-3-3.62-3-2.86-2.29-3.43.48-4.76-1.81-2.1-3-1.24L293.23,561l-.86-1.81-4.76.38-2.38-1.14L282.55,556l-.86-2.38-1.43-1.52-2.19-.19-2.67-.19V550l-2.57,1-5.43-2.29-2-2-4.1.1-4-5.24-.29-3.43-4.86-.48-1-3-1.62-1-2.29-2.1-4.48-.1-3-.19-3.24-4.19-2.38-.29-1-6.57-2.1-.38-3.91-.67-2.67-2.76-.48-1.14-2.29-4.86-3.43-.19L216.35,508l-1.43.76-2-1-2.29-2.67-2.29-1-1-1.62-1.62-1.71-.29-7.43-2-.19-1.43-5-3.91-3.24-.57-2.57-1-1-2.29.76.38-1.81-2.19-1L191.18,476l-2.19-.86.19-1.62-1.91-2.38-2.48-2v-.67l.7.57,5.37-6.44,21.31,1.58,17,8.29,7.1,7.89-6.71,4,33.94,25.26,47,21.31,43.8,3.55,14.6-4,23.68-1.58,1.58,6.71L369.3,548.19l3.55,10.66,20.52,2,7.89,11.44,30.39-7.5,9.47,20.92,2.37,11.44,19.73,15.79,11,1.58L498.35,620l11,15,17,11,11-2.37-8.68-16.57-8.29-12.23,12.23-9.47-5.13-9.08-4.34-10.66,7.1-5.13-1.18-13,6.31-6.71,7.1-13.81-20.13-7.89,3.16-7.89,11-11.84,5.92,3.55L559,530.4l20.26,1.6,13-6.31L587.93,513l-13.81-4.74-17-5.52L556,480.26l-23.68-.39-11.44-6.71L509,467.64l4.74-22.89,4.34-5.92-5.92-4.34.79-8.68,9.08-.39,8.65-8.75,6.28,9.16h0l-6.28-9.24,6.71,9.87,22.1,1.58L582,445.4l18.94,2,14.21,4,21.45-.29Z"/><polygon class="cls-4" points="184.94 462.19 182.66 460.47 181.52 461.43 179.18 459.27 179.01 459.81 181.48 462.1 182.63 461.15 184.91 462.86 185 465.97 185.04 465.42 184.94 462.19"/><polygon class="cls-4" points="268.81 120.96 283.07 118.1 222.59 128.94 203.36 179.24 203.67 178.75 222.6 129.24 268.81 120.96"/><polygon class="cls-4" points="181.2 452.38 181.08 452.29 180.19 455.62 179.04 459.14 179.18 459.27 180.15 456.29 181.2 452.38"/><polygon class="cls-4" points="185 465.97 184.85 468.37 184.86 468.38 185.01 466.1 185 465.97"/><polygon class="cls-4" points="176.03 446.29 175.52 448.3 175.62 448.39 176.15 446.29 176.03 446.29"/><polygon class="cls-4" points="171.79 290.53 136.58 421.1 136.62 421.26 171.8 290.79 171.79 290.53"/></g><polygon class="cls-5" points="171.84 290.31 171.08 272.83 183.72 275.15 197.93 280.68 216.87 286.99 231.47 279.1 245.68 269.63 261.07 278.7 271.33 264.89 270.15 255.03 252.78 235.69 247.66 225.03 268.96 223.46 270.54 208.06 279.23 200.96 252.78 196.22 241.34 185.57 219.64 178.86 203.85 178.47 203.67 178.75 202.79 181.06 169.26 232.88 171.79 290.53 171.84 290.31"/><path class="cls-6" d="M176.19,445.63h-6.78l-1.91-.1-5.16.13-2.09-3-1.47-2.51-1-1.41a9.31,9.31,0,0,1-1-1.73c0-.29-1.65-1.15-1.65-1.15l-1.86-1.1-3.71-1.14-2.89-1.31a14.54,14.54,0,0,1-2.15-2c0-.27-2.17-.94-2.17-.94l-1.26-1.57-1.2-1.2-1.47-2.09-1.26-1-.54-2.27-.13.46.58,2.44,1.26,1,1.47,2.09,1.21,1.21,1.26,1.57s2.18.66,2.18.94,2.15,2,2.15,2l2.89,1.32,3.72,1.14,1.86,1.11s1.65.87,1.65,1.15a9.32,9.32,0,0,0,1,1.73l1,1.42,1.47,2.52,2.1,3,5.16-.13,1.91.1H176Z"/><polygon class="cls-6" points="185 465.97 185.04 465.42 184.94 462.19 182.66 460.47 181.52 461.43 179.18 459.27 179.01 459.81 181.48 462.1 182.63 461.15 184.91 462.86 185 465.97"/><polygon class="cls-6" points="181.08 452.29 181.23 451.72 179.04 449.91 178.38 448.2 176.57 449.34 175.62 448.39 175.48 448.95 176.53 450 178.34 448.86 179.01 450.57 181.08 452.29"/><polygon class="cls-6" points="546.74 117.11 546.79 125.34 548.9 135.34 544.16 143.24 524.82 147.44 524.82 148.19 519.96 149.55 513.64 149.55 499.96 149.55 492.59 144.81 469.44 142.18 457.87 135.34 446.82 139.03 433.13 137.45 425.77 129.03 414.72 118.5 412.61 127.45 411.56 139.03 404.72 139.03 392.09 139.03 385.25 145.34 379.99 140.08 374.73 132.71 370.52 139.55 365.78 156.39 357.37 156.39 336.84 139.55 310.53 132.19 296.85 136.39 286.33 140.08 277.91 134.29 260.02 122.71 268.81 120.96 337.42 108.66 404.99 88.08 499.49 86.05 546.73 115.61 546.74 117.11"/><path class="cls-6" d="M176.19,445.63h-6.78l-1.91-.1-5.16.13-2.09-3-1.47-2.51-1-1.41a9.31,9.31,0,0,1-1-1.73c0-.29-1.65-1.15-1.65-1.15l-1.86-1.1-3.71-1.14-2.89-1.31a14.54,14.54,0,0,1-2.15-2c0-.27-2.17-.94-2.17-.94l-1.26-1.57-1.2-1.2-1.47-2.09-1.26-1-.54-2.27-.13.46.58,2.44,1.26,1,1.47,2.09,1.21,1.21,1.26,1.57s2.18.66,2.18.94,2.15,2,2.15,2l2.89,1.32,3.72,1.14,1.86,1.11s1.65.87,1.65,1.15a9.32,9.32,0,0,0,1,1.73l1,1.42,1.47,2.52,2.1,3,5.16-.13,1.91.1H176Z"/><polygon class="cls-6" points="185 465.97 185.04 465.42 184.94 462.19 182.66 460.47 181.52 461.43 179.18 459.27 179.01 459.81 181.48 462.1 182.63 461.15 184.91 462.86 185 465.97"/><polygon class="cls-6" points="181.08 452.29 181.23 451.72 179.04 449.91 178.38 448.2 176.57 449.34 175.62 448.39 175.48 448.95 176.53 450 178.34 448.86 179.01 450.57 181.08 452.29"/><polygon class="cls-7" points="632.16 440.94 631.47 422.75 626.45 422 626.32 414.55 615.59 413.86 613.15 387.05 617.32 380.13 620.57 369.05 619.05 354.87 623.61 349.3 619.55 343.22 621.58 338.16 615.59 333.35 627.15 309.76 620.31 304.65 627.23 294.04 626.05 280.12 630.19 273.33 620.06 261.17 627.78 257.88 624 251.5 612.84 252.13 618.89 245.52 626.36 246.31 620.06 236.36 612.64 244.41 613.31 233.57 608.28 219.42 612.21 213.76 609.93 207.49 603.42 202.72 599.3 184.82 594.52 182.07 596.8 173.97 594.23 155.45 592.67 145.11 592.54 144.27 546.98 115.76 546.73 115.83 546.79 125.34 548.9 135.34 544.16 143.24 524.82 147.44 524.82 153.76 516.53 158.49 507.85 162.05 501.54 169.54 498.78 179.8 491.67 186.51 479.05 186.91 482.2 191.25 496.01 199.14 494.04 209.8 489.31 212.16 489.31 224.4 483.78 235.45 485.75 254.39 481.41 264.65 473.13 261.89 466.42 255.18 460.89 250.84 443.13 259.52 434.06 266.63 441.95 274.52 455.37 281.62 454.58 284.78 441.55 296.62 442.74 303.72 453.79 302.14 471.15 295.43 491.28 293.46 494.04 297.8 494.44 303.33 468 311.61 453.39 316.35 450.63 327 451.81 330.16 466.02 339.63 480.23 351.87 480.62 360.55 475.1 372.39 469.97 389.75 471.94 401.99 483.39 400.8 503.12 402.77 515.75 413.82 530.74 416.59 537.45 426.45 559.55 428.03 582.04 445.4 600.99 447.37 615.2 451.31 636.42 451.03 636.64 450.98 635.88 445.86 632.16 440.94"/><polyline class="cls-8" points="546.73 115.83 546.79 125.34 548.9 135.34 544.16 143.24 524.82 147.44 524.82 153.76 516.53 158.49 507.85 162.05 501.54 169.54 498.78 179.8 491.67 186.51 479.05 186.91 482.2 191.25 496.01 199.14 494.04 209.8 489.31 212.16 489.31 224.4 483.78 235.45 485.75 254.39 481.41 264.65 473.13 261.89 466.42 255.18 460.89 250.84 443.13 259.52 434.06 266.63 441.95 274.52 455.37 281.62 454.58 284.78 441.55 296.62 442.74 303.72 453.79 302.14 471.15 295.43 491.28 293.46 494.04 297.8 494.44 303.33 468 311.61 453.39 316.35 450.63 327 451.81 330.16 466.02 339.63 480.23 351.87 480.62 360.55 475.1 372.39 469.97 389.75 471.94 401.99 483.39 400.8 503.12 402.77 515.75 413.82 530.74 416.59 537.45 426.45 559.55 428.03 582.04 445.4 600.99 447.37 615.2 451.31 636.42 451.03"/><path class="cls-8" d="M587.93,513l-13.81-4.74-17-5.52L556,480.26l-23.68-.39-11.44-6.71L509,467.64l4.74-22.89,4.34-5.92-5.92-4.34.79-8.68,9.08-.39,8.65-8.75,6.28,9.16h0l-6.28-9.24-15-2.76-12.63-11-19.73-2L471.94,402l-2-12.23,5.13-17.36,5.52-11.84-.39-8.68L466,339.63l-14.21-9.47L450.63,327l2.76-10.66L468,311.6l26.44-8.29L494,297.8l-2.76-4.34-20.13,2-17.36,6.71-11,1.58-1.18-7.1,13-11.84.79-3.16-13.42-7.1L434,266.66l9.08-7.1,17.76-8.68,5.52,4.34,6.71,6.71,8.29,2.76,4.34-10.26-2-18.94,5.52-11V212.16L494,209.8l2-10.66-13.81-7.89L479,186.91l12.63-.39,7.1-6.71,2.76-10.26,6.31-7.5,8.68-3.55,8.29-4.74v-5.57L520,149.55H500l-7.37-4.74-23.15-2.63-11.58-6.84-11,3.68-13.68-1.58L425.77,129l-11-10.52-2.1,8.95L411.56,139H392.09l-6.84,6.31L380,140.08l-5.26-7.37-4.21,6.84-4.74,16.84h-8.42l-20.52-16.84-26.31-7.37-13.68,4.21-10.52,3.68-8.42-5.79L260,122.71l23-4.61-60.48,10.84-19.23,50.29.49-.77,15.79.39,21.71,6.71,11.44,10.66L279.23,201l-8.68,7.1L269,223.45,247.65,225l5.13,10.66L270.15,255l1.18,9.87L261.07,278.7l-15.39-9.08-14.21,9.47L216.87,287l-18.94-6.31-14.21-5.52-12.65-2.32.77,17.48L136.58,421.1l.58,2.43,1.26,1,1.47,2.09,1.2,1.2,1.26,1.57s2.17.66,2.17.94,2.15,2,2.15,2l2.89,1.31,3.71,1.14,1.86,1.1s1.65.87,1.65,1.15a9.31,9.31,0,0,0,1,1.73l1,1.41,1.47,2.51,2.09,3,5.16-.13,1.91.1h6.78l-.67,2.66,1,1,1.81-1.14.67,1.71,2.19,1.81-1,3.9L179,459.14l2.47,2.28,1.14-1,2.28,1.71.1,3.24-.19,3,.71.58,5.37-6.44L212.19,464l17,8.29,7.1,7.89-6.71,4,33.94,25.26,47,21.31,43.8,3.55,14.6-4,23.68-1.58,1.58,6.71L369.32,548.1l3.55,10.66,20.52,2,7.89,11.44,30.39-7.5,9.47,20.92,2.37,11.44,19.73,15.79,11,1.58L498.35,620l11,15,17,11,11-2.37-8.68-16.57-8.29-12.23,12.23-9.47-5.13-9.08-4.34-10.66,7.1-5.13-1.18-13,6.31-6.71,7.1-13.81-20.13-7.89,3.16-7.89,11-11.84,5.92,3.55L559,530.4l20.26,1.6,13-6.31Z"/><path class="cls-9" d="M206.7,173.74l8.42,4.37s3.82,1.8,4.49,2.25,9.44,0,9.44,0l14.61-3.45L278,189.61l42.71,19.45,26.22,11L371,223l25.8,8s15,6.77,22.5,5.5l2,17.76,6.29,7.61v12.26l3.86,5.92,4.65,3.38v19L440.33,313l-5.06,6L424,329.16s-3.79,69.36-4.71,67.67,57,0,57,0l16.45,4.88L453,427.5l-.85,11.2h-8.46l-5.07,3.57-.42,7-5.07,10.57-16.07,22.41,2.2,34.26-5.58,12.69-3.38,22.41-7.19,4.23-8.88,4.55L379,565.15l-18.89,4.23-6.9-2.11-.85,7.19h-7.61l-2.54,8.46-9.1,11"/><polyline class="cls-9" points="491.85 402.32 503.12 402.77 576.1 407.82 594.5 407.82 599.35 427.5 631.1 428.15"/><path class="cls-10" d="M645.22,747.28l.08-2.93-5.14-7.62-.19-2.19-2.19-4.48L633.1,728l-2.67-3.91-3-2.86-6.57-.19-3.33.57-2.19-.86-.67-3.43h-5l-2.1-.19-.86-2.19-3.62-.38-2.29-2.38-1.14-1.91-3.14-.57L595,708.15,593.47,706l-2-1-4.38,2.48-3.81,4.1-2,1.14-1.94-1.5-3.3-3.46-1.43-1.91-2.19-1.71-.38-3-4.67-3.33-4.86-1.62-1.85-.57-1.06-.33-2.36-.39L555,694l-1.43.48-3.33-.48-2.29.67-1.3.07-1.1-.31-1.21-1.76L542.7,689h-2.1l-4.19-.1-3-1.14-4.48-3.72-2.19.1-3-3-2.57-1.62-3.43-2.67-2.29-.1-3.52-.48-1.62-1.81-2-1-2.67-1.14h-2.38l-1.71-.1L500,670.56a10.09,10.09,0,0,1-1.52-1.43,8.78,8.78,0,0,0-1.43-1.33l-3.24-2.38-3.72-.76-1.24-2.38-.76-1.24h-2.57l-2.19-1.52-2-.86-1.52-.29-2.38-4.19-1.14-2.48-1.14-1.52-1.52-.19H472l-1.24-2.29-1.62-.1-1-1.62-.38-1.62-2.1-1.14.19-1.52L408.6,607.31a5.11,5.11,0,0,0-1.91-.1,16.37,16.37,0,0,0-2.29,1.14l-3.14,1-2.67,1-6.29.67-4.1.29-3.14.57-3.24-.29-2.67-1.52-2.29.19-1.24.19-1.62-2-1.71-1.52-3.43-1.33-2.48-1.14-2.29-1.24-2.57-.1-1.33.76-3.52-.57-1.33-.19-2.1-.29-.57-2.1-.1-3-1.81-.57-5,.1-3.62-1.62-5.48-1.6-3.52-.1-3.52-.48-2.38.1-5-3.14-3.72-2.48-1-.57-1.33,1-2.76-.57-1,.86-3.91-4.86-.48-3-3-3.62-3-2.86-2.29-3.43.48-4.76-1.81-2.1-3-1.24L293.23,561l-.86-1.81-4.76.38-2.38-1.14L282.55,556l-.86-2.38-1.43-1.52-2.19-.19-2.67-.19V550l-2.57,1-5.43-2.29-2-2-4.1.1-4-5.24-.29-3.43-4.86-.48-1-3-1.62-1-2.29-2.1-4.48-.1-3-.19-3.24-4.19-2.38-.29-1-6.57-2.1-.38-3.91-.67-2.67-2.76-.48-1.14-2.29-4.86-3.43-.19L216.35,508l-1.43.76-2-1-2.29-2.67-2.29-1-1-1.62-1.62-1.71-.29-7.43-2-.19-1.43-5-3.91-3.24-.57-2.57-1-1-2.29.76.38-1.81-2.19-1L191.18,476l-2.19-.86.19-1.62-1.91-2.38-2.48-2,.19-3-.1-3.24-2.29-1.71-1.14,1L179,459.81l1.14-3.52,1-3.91L179,450.57l-.67-1.71-1.8,1.14-1-1,.67-2.67h-6.79l-1.91-.1-5.16.13-2.1-3-1.47-2.52-1-1.42a9.32,9.32,0,0,1-1-1.73c0-.29-1.65-1.15-1.65-1.15l-1.86-1.11-3.72-1.14L146.59,433a14.54,14.54,0,0,1-2.15-2c0-.27-2.18-.94-2.18-.94L141,428.43l-1.21-1.21-1.47-2.09-1.26-1-.58-2.44,35.3-130.93-2.54-57.92L202.77,181l19.81-51.82L337.4,108.62,405,88.08l94.5-2,93.06,58.21.13.84,1.56,10.34L596.8,174l-2.28,8.1,4.78,2.75,4.12,17.9,6.51,4.77,2.28,6.27-3.93,5.66,5,14.15-.67,10.83,7.42-8,6.3,10-7.47-.79-6,6.6L624,251.5l3.78,6.38-7.72,3.29,10.13,12.16L626,280.12,627.23,294l-6.92,10.61,6.84,5.11-11.56,23.59,6,4.81-2,5.06,4,6.08L619,354.87,620.52,369l-3.25,11.08L613.1,387l2.44,26.81,10.73.69.13,7.45,5,.75.69,18.2,3.71,4.92,2,13.13-10.45-.26-3,5.41,9.85,9.06-.13,8.27,6.34,8.5-.56,7,3.94,7.09,10.37.13-1.6,7.48,15.78,13.4L664,530.31l.73,7.7,6.1.31L671,551,665,554l1.53,4.09L691,572.59l-1.39,18.26L684,593.44l10.52,14.2.13,11.16-4.33.39-1.21,6.09,7.24.34L697,638.1l4.86.13.26,40.57-12.21,12.08L689,699l7.4,4.78-2,6.3-8.33.39-.16,6.68-12.38,8-11,.66,1,8.8-2.1,5.57-16,7.66-.32.15Z"/><path class="cls-11" d="M142.58,74.83a22.77,22.77,0,0,1,4.29-.38c2.35,0,3.86.4,5,1.32A3.81,3.81,0,0,1,153.38,79a4.32,4.32,0,0,1-3.08,4h0a4.69,4.69,0,0,1,3.75,4.56,4.91,4.91,0,0,1-1.54,3.64c-1.27,1.16-3.32,1.7-6.29,1.7a27.37,27.37,0,0,1-3.64-.22Zm2.35,7.45h2.13c2.48,0,3.94-1.3,3.94-3.05,0-2.13-1.62-3-4-3a10.06,10.06,0,0,0-2.08.16Zm0,8.72a12.53,12.53,0,0,0,2,.11c2.43,0,4.67-.89,4.67-3.54,0-2.48-2.13-3.51-4.7-3.51H145Z"/><path class="cls-11" d="M174.11,83.49c0,6.26-3.81,9.58-8.45,9.58-4.8,0-8.18-3.73-8.18-9.23,0-5.78,3.59-9.56,8.45-9.56S174.11,78.1,174.11,83.49Zm-14.12.3c0,3.89,2.11,7.37,5.8,7.37s5.83-3.43,5.83-7.56c0-3.62-1.89-7.4-5.8-7.4S160,79.8,160,83.79Z"/><path class="cls-11" d="M178.52,74.59h2.35V90.81h7.77v2H178.52Z"/><path class="cls-11" d="M195,74.59V92.78h-2.35V74.59Z"/><path class="cls-11" d="M204.41,92.78l-5.94-18.19H201l2.83,9c.78,2.46,1.46,4.67,1.94,6.8h.05c.51-2.11,1.27-4.4,2.08-6.78l3.08-9h2.51L207,92.78Z"/><path class="cls-11" d="M219.18,74.59V92.78h-2.35V74.59Z"/><path class="cls-11" d="M227.58,87.06l-1.89,5.72h-2.43l6.18-18.19h2.83l6.21,18.19H236l-2-5.72Zm6-1.84L231.76,80c-.41-1.19-.67-2.27-.94-3.32h-.05c-.27,1.08-.57,2.19-.92,3.29l-1.78,5.26Z"/><path class="cls-11" d="M343.42,712.26,341.53,718H339.1l6.18-18.19h2.83L354.33,718h-2.51l-1.94-5.72Zm6-1.84-1.78-5.24c-.41-1.19-.67-2.27-.94-3.32h0c-.27,1.08-.57,2.19-.92,3.29L344,710.41Z"/><path class="cls-11" d="M358.35,700a24.44,24.44,0,0,1,4.51-.38c2.51,0,4.13.46,5.26,1.48a4.53,4.53,0,0,1,1.43,3.46,4.78,4.78,0,0,1-3.43,4.64v.08c1.4.49,2.24,1.78,2.67,3.67a29,29,0,0,0,1.4,5h-2.43a23.53,23.53,0,0,1-1.21-4.35c-.54-2.51-1.51-3.46-3.64-3.54H360.7V718h-2.35Zm2.35,8.29h2.4c2.51,0,4.1-1.38,4.1-3.46,0-2.35-1.7-3.37-4.18-3.4a9.64,9.64,0,0,0-2.32.22Z"/><path class="cls-11" d="M388.08,717.18a17,17,0,0,1-5.59,1,8.54,8.54,0,0,1-9.34-9.18c0-5.42,3.75-9.39,9.85-9.39a11.25,11.25,0,0,1,4.53.84l-.57,1.92a9.43,9.43,0,0,0-4-.78c-4.43,0-7.31,2.75-7.31,7.32s2.78,7.34,7,7.34a7.67,7.67,0,0,0,3.13-.49v-5.43h-3.7v-1.89h6Z"/><path class="cls-11" d="M402.44,709.46h-7.07V716h7.88v2H393V699.79h9.83v2h-7.48v5.75h7.07Z"/><path class="cls-11" d="M407.65,718V699.79h2.56L416,709a51.56,51.56,0,0,1,3.27,5.91h0c-.22-2.43-.27-4.64-.27-7.48v-7.61h2.21V718h-2.38l-5.78-9.23a57.88,57.88,0,0,1-3.4-6.07h-.08c.14,2.29.19,4.48.19,7.5V718Z"/><path class="cls-11" d="M430.23,701.79H424.7v-2h13.47v2H432.6V718h-2.38Z"/><path class="cls-11" d="M443.89,699.79V718h-2.35V699.79Z"/><path class="cls-11" d="M449.34,718V699.79h2.56l5.83,9.2A51.46,51.46,0,0,1,461,714.9h0c-.22-2.43-.27-4.64-.27-7.48v-7.61H463V718h-2.38l-5.78-9.23a57.88,57.88,0,0,1-3.4-6.07h-.08c.14,2.29.19,4.48.19,7.5V718Z"/><path class="cls-11" d="M471.4,712.26,469.51,718h-2.43l6.18-18.19h2.83L482.31,718H479.8l-1.94-5.72Zm6-1.84-1.78-5.24c-.41-1.19-.67-2.27-1-3.32h0c-.27,1.08-.57,2.19-.92,3.29l-1.78,5.26Z"/><path class="cls-11" d="M623.12,74.83a22.76,22.76,0,0,1,4.29-.38c2.35,0,3.86.4,5,1.32A3.81,3.81,0,0,1,633.92,79a4.32,4.32,0,0,1-3.08,4h0a4.69,4.69,0,0,1,3.75,4.56A4.9,4.9,0,0,1,633,91.2c-1.27,1.16-3.32,1.7-6.29,1.7a27.36,27.36,0,0,1-3.64-.22Zm2.35,7.45h2.13c2.48,0,3.94-1.3,3.94-3.05,0-2.13-1.62-3-4-3a10.07,10.07,0,0,0-2.08.16Zm0,8.72a12.53,12.53,0,0,0,2,.11c2.43,0,4.67-.89,4.67-3.54,0-2.48-2.13-3.51-4.7-3.51H625.5Z"/><path class="cls-11" d="M639.11,74.83a24.43,24.43,0,0,1,4.51-.38c2.51,0,4.13.46,5.26,1.48a4.53,4.53,0,0,1,1.43,3.46A4.78,4.78,0,0,1,646.88,84v.08c1.4.49,2.24,1.78,2.67,3.67a29,29,0,0,0,1.4,5h-2.43a23.64,23.64,0,0,1-1.21-4.35c-.54-2.51-1.51-3.46-3.64-3.54h-2.21v7.88h-2.35Zm2.35,8.29h2.4c2.51,0,4.1-1.38,4.1-3.46,0-2.35-1.7-3.37-4.18-3.4a9.68,9.68,0,0,0-2.32.22Z"/><path class="cls-11" d="M657.92,87.06,656,92.78h-2.43l6.18-18.19h2.83l6.21,18.19h-2.51l-1.94-5.72Zm6-1.84L662.11,80c-.41-1.19-.67-2.27-1-3.32h0c-.27,1.08-.57,2.19-.92,3.29l-1.78,5.26Z"/><path class="cls-11" d="M672.53,89.92a8.32,8.32,0,0,0,4.21,1.19c2.4,0,3.81-1.27,3.81-3.1s-1-2.67-3.43-3.62c-3-1.05-4.8-2.59-4.8-5.16,0-2.83,2.35-4.94,5.88-4.94a8.26,8.26,0,0,1,4,.89l-.65,1.92a7.24,7.24,0,0,0-3.46-.86c-2.48,0-3.43,1.48-3.43,2.73,0,1.7,1.11,2.54,3.62,3.51,3.08,1.19,4.64,2.67,4.64,5.34s-2.08,5.24-6.37,5.24a9.4,9.4,0,0,1-4.64-1.16Z"/><path class="cls-11" d="M689.87,74.59V92.78h-2.35V74.59Z"/><path class="cls-11" d="M695.32,74.59h2.35V90.81h7.77v2H695.32Z"/><path class="cls-11" d="M247.54,376.74a7.57,7.57,0,0,1-.61,2.33,5.25,5.25,0,0,1-1.26,1.75,5.42,5.42,0,0,1-1.9,1.1,7.71,7.71,0,0,1-2.51.38,6.17,6.17,0,0,1-2.64-.55,5.78,5.78,0,0,1-2-1.56,7.21,7.21,0,0,1-1.3-2.43,10.2,10.2,0,0,1-.46-3.14v-2.14a10.26,10.26,0,0,1,.46-3.15,7.08,7.08,0,0,1,1.31-2.43,5.87,5.87,0,0,1,2.06-1.56,6.39,6.39,0,0,1,2.71-.56,7.5,7.5,0,0,1,2.45.38,5.21,5.21,0,0,1,1.87,1.1A5.45,5.45,0,0,1,247,368a7.34,7.34,0,0,1,.6,2.35h-1.45a7.05,7.05,0,0,0-.47-1.85,4,4,0,0,0-.92-1.37,3.91,3.91,0,0,0-1.41-.84,5.76,5.76,0,0,0-1.93-.29,4.75,4.75,0,0,0-2.13.46,4.55,4.55,0,0,0-1.59,1.31,6,6,0,0,0-1,2,9.45,9.45,0,0,0-.35,2.64v2.17a9.74,9.74,0,0,0,.33,2.6,6.22,6.22,0,0,0,1,2,4.47,4.47,0,0,0,1.56,1.34,4.54,4.54,0,0,0,2.12.48,4.8,4.8,0,0,0,3.41-1.08,5.2,5.2,0,0,0,1.42-3.25Z"/><path class="cls-11" d="M264.29,382.06h-1.45v-8.18h-9.75v8.18h-1.44V365h1.44v7.66h9.75V365h1.45Z"/><path class="cls-11" d="M278.44,377.28h-7.75l-1.76,4.78h-1.51L273.88,365h1.37l6.46,17.06h-1.5Zm-7.3-1.23H278l-3.42-9.29Z"/><path class="cls-11" d="M296.9,376.74a7.57,7.57,0,0,1-.61,2.33,5.25,5.25,0,0,1-1.26,1.75,5.42,5.42,0,0,1-1.9,1.1,7.71,7.71,0,0,1-2.51.38,6.17,6.17,0,0,1-2.64-.55,5.78,5.78,0,0,1-2-1.56,7.21,7.21,0,0,1-1.3-2.43,10.2,10.2,0,0,1-.46-3.14v-2.14a10.26,10.26,0,0,1,.46-3.15A7.08,7.08,0,0,1,286,366.9a5.87,5.87,0,0,1,2.06-1.56,6.39,6.39,0,0,1,2.71-.56,7.5,7.5,0,0,1,2.45.38,5.21,5.21,0,0,1,1.87,1.1,5.45,5.45,0,0,1,1.25,1.76,7.34,7.34,0,0,1,.6,2.35h-1.45a7.05,7.05,0,0,0-.47-1.85,4,4,0,0,0-.92-1.37,3.91,3.91,0,0,0-1.41-.84,5.76,5.76,0,0,0-1.93-.29,4.75,4.75,0,0,0-2.13.46,4.55,4.55,0,0,0-1.59,1.31,6,6,0,0,0-1,2,9.45,9.45,0,0,0-.35,2.64v2.17a9.74,9.74,0,0,0,.33,2.6,6.22,6.22,0,0,0,1,2,4.47,4.47,0,0,0,1.56,1.34,4.54,4.54,0,0,0,2.12.48A4.8,4.8,0,0,0,294,380a5.2,5.2,0,0,0,1.42-3.25Z"/><path class="cls-11" d="M313.61,374.45a10.48,10.48,0,0,1-.47,3.24,7.22,7.22,0,0,1-1.33,2.47,5.87,5.87,0,0,1-2.09,1.58,6.58,6.58,0,0,1-2.74.56,6.51,6.51,0,0,1-2.72-.56,6,6,0,0,1-2.1-1.58,7.2,7.2,0,0,1-1.36-2.47,10.25,10.25,0,0,1-.48-3.24v-1.83a10.3,10.3,0,0,1,.48-3.25,7.37,7.37,0,0,1,1.35-2.48,5.91,5.91,0,0,1,2.09-1.58,6.51,6.51,0,0,1,2.72-.56,6.58,6.58,0,0,1,2.74.56,6,6,0,0,1,2.1,1.58,7.17,7.17,0,0,1,1.34,2.48,10.54,10.54,0,0,1,.47,3.25Zm-1.44-1.85a9.84,9.84,0,0,0-.35-2.73,6,6,0,0,0-1-2.07,4.54,4.54,0,0,0-1.64-1.31A5.07,5.07,0,0,0,307,366a5,5,0,0,0-2.17.46,4.61,4.61,0,0,0-1.64,1.31,6,6,0,0,0-1,2.07,9.69,9.69,0,0,0-.36,2.73v1.85a9.59,9.59,0,0,0,.36,2.74,6.09,6.09,0,0,0,1,2.07,4.58,4.58,0,0,0,1.65,1.31A5,5,0,0,0,307,381a5.11,5.11,0,0,0,2.21-.46,4.43,4.43,0,0,0,1.63-1.31,6,6,0,0,0,1-2.07,10,10,0,0,0,.35-2.74Z"/><path class="cls-11" d="M333.94,377.86a3.2,3.2,0,0,0-.23-1.25,2.62,2.62,0,0,0-.77-1,5.75,5.75,0,0,0-1.44-.83,19.28,19.28,0,0,0-2.23-.75,20.81,20.81,0,0,1-2.32-.79,7.26,7.26,0,0,1-1.75-1,4.15,4.15,0,0,1-1.11-1.32,3.74,3.74,0,0,1-.39-1.76,3.82,3.82,0,0,1,.42-1.79A4.14,4.14,0,0,1,325.3,366a5.73,5.73,0,0,1,1.82-.9,7.87,7.87,0,0,1,2.31-.32,7,7,0,0,1,2.43.4,5.57,5.57,0,0,1,1.85,1.09,4.78,4.78,0,0,1,1.17,1.62,4.86,4.86,0,0,1,.41,2h-1.45a4,4,0,0,0-.29-1.54,3.41,3.41,0,0,0-.86-1.22,4,4,0,0,0-1.38-.81,5.56,5.56,0,0,0-1.87-.29,6.21,6.21,0,0,0-1.86.25,4,4,0,0,0-1.34.68,2.87,2.87,0,0,0-.81,1,2.78,2.78,0,0,0-.28,1.22,2.75,2.75,0,0,0,.23,1.13,2.62,2.62,0,0,0,.77,1,6.06,6.06,0,0,0,1.42.82,15.42,15.42,0,0,0,2.17.72,20,20,0,0,1,2.4.82,7.08,7.08,0,0,1,1.78,1A4.09,4.09,0,0,1,335,376a4.17,4.17,0,0,1,.38,1.82,3.92,3.92,0,0,1-.44,1.87,4.14,4.14,0,0,1-1.22,1.4,5.72,5.72,0,0,1-1.86.88,8.59,8.59,0,0,1-2.34.3,9.22,9.22,0,0,1-1.53-.13,8,8,0,0,1-1.48-.39,6.4,6.4,0,0,1-1.32-.67,4.63,4.63,0,0,1-1.07-1,4.56,4.56,0,0,1-.71-1.3,4.8,4.8,0,0,1-.26-1.63h1.44A3.49,3.49,0,0,0,325,379a3.64,3.64,0,0,0,1.15,1.2,4.93,4.93,0,0,0,1.58.66,7.71,7.71,0,0,0,1.76.21,6.69,6.69,0,0,0,1.81-.23,4.34,4.34,0,0,0,1.39-.65,2.93,2.93,0,0,0,.89-1A2.79,2.79,0,0,0,333.94,377.86Z"/><path class="cls-11" d="M348.52,373.88h-8v7h9.18v1.22H339.09V365h10.56v1.23h-9.12v6.43h8Z"/><path class="cls-11" d="M365.43,376.74a7.57,7.57,0,0,1-.61,2.33,5.25,5.25,0,0,1-1.26,1.75,5.42,5.42,0,0,1-1.9,1.1,7.71,7.71,0,0,1-2.51.38,6.17,6.17,0,0,1-2.64-.55,5.78,5.78,0,0,1-2-1.56,7.21,7.21,0,0,1-1.3-2.43,10.2,10.2,0,0,1-.46-3.14v-2.14a10.26,10.26,0,0,1,.46-3.15,7.08,7.08,0,0,1,1.31-2.43,5.87,5.87,0,0,1,2.06-1.56,6.39,6.39,0,0,1,2.71-.56,7.5,7.5,0,0,1,2.45.38,5.21,5.21,0,0,1,1.87,1.1,5.45,5.45,0,0,1,1.25,1.76,7.34,7.34,0,0,1,.6,2.35H364a7.05,7.05,0,0,0-.47-1.85,4,4,0,0,0-.92-1.37,3.91,3.91,0,0,0-1.41-.84,5.77,5.77,0,0,0-1.93-.29,4.75,4.75,0,0,0-2.13.46,4.55,4.55,0,0,0-1.59,1.31,6,6,0,0,0-1,2,9.45,9.45,0,0,0-.35,2.64v2.17a9.74,9.74,0,0,0,.33,2.6,6.22,6.22,0,0,0,1,2,4.47,4.47,0,0,0,1.56,1.34,4.54,4.54,0,0,0,2.12.48,4.8,4.8,0,0,0,3.41-1.08,5.2,5.2,0,0,0,1.42-3.25Z"/><path class="cls-11" d="M382.14,374.45a10.48,10.48,0,0,1-.47,3.24,7.22,7.22,0,0,1-1.33,2.47,5.87,5.87,0,0,1-2.09,1.58,6.58,6.58,0,0,1-2.74.56,6.51,6.51,0,0,1-2.72-.56,6,6,0,0,1-2.1-1.58,7.2,7.2,0,0,1-1.36-2.47,10.25,10.25,0,0,1-.48-3.24v-1.83a10.3,10.3,0,0,1,.48-3.25,7.37,7.37,0,0,1,1.35-2.48,5.91,5.91,0,0,1,2.09-1.58,6.51,6.51,0,0,1,2.72-.56,6.58,6.58,0,0,1,2.74.56,6,6,0,0,1,2.1,1.58,7.17,7.17,0,0,1,1.34,2.48,10.54,10.54,0,0,1,.47,3.25Zm-1.44-1.85a9.84,9.84,0,0,0-.35-2.73,6,6,0,0,0-1-2.07,4.54,4.54,0,0,0-1.64-1.31,5.07,5.07,0,0,0-2.2-.46,5,5,0,0,0-2.17.46,4.61,4.61,0,0,0-1.64,1.31,6,6,0,0,0-1,2.07,9.69,9.69,0,0,0-.36,2.73v1.85a9.59,9.59,0,0,0,.36,2.74,6.09,6.09,0,0,0,1,2.07,4.58,4.58,0,0,0,1.65,1.31,5,5,0,0,0,2.17.46,5.11,5.11,0,0,0,2.21-.46,4.43,4.43,0,0,0,1.63-1.31,6,6,0,0,0,1-2.07,10,10,0,0,0,.35-2.74Z"/><path class="cls-11" d="M563.45,601.18a7.57,7.57,0,0,1-.61,2.33,5.25,5.25,0,0,1-1.26,1.75,5.42,5.42,0,0,1-1.9,1.1,7.71,7.71,0,0,1-2.51.38,6.17,6.17,0,0,1-2.64-.55,5.78,5.78,0,0,1-2-1.56,7.21,7.21,0,0,1-1.3-2.43,10.2,10.2,0,0,1-.46-3.14V596.9a10.26,10.26,0,0,1,.46-3.15,7.08,7.08,0,0,1,1.31-2.43,5.87,5.87,0,0,1,2.06-1.56,6.39,6.39,0,0,1,2.71-.56,7.5,7.5,0,0,1,2.45.38,5.21,5.21,0,0,1,1.87,1.1,5.45,5.45,0,0,1,1.25,1.76,7.34,7.34,0,0,1,.6,2.35H562a7.05,7.05,0,0,0-.47-1.85,4,4,0,0,0-.92-1.37,3.91,3.91,0,0,0-1.41-.84,5.76,5.76,0,0,0-1.93-.29,4.75,4.75,0,0,0-2.13.46,4.55,4.55,0,0,0-1.59,1.31,6,6,0,0,0-1,2,9.45,9.45,0,0,0-.35,2.64V599a9.74,9.74,0,0,0,.33,2.6,6.22,6.22,0,0,0,1,2,4.47,4.47,0,0,0,1.56,1.34,4.54,4.54,0,0,0,2.12.48,4.8,4.8,0,0,0,3.41-1.08,5.2,5.2,0,0,0,1.42-3.25Z"/><path class="cls-11" d="M580.2,606.5h-1.45v-8.18H569v8.18h-1.44V589.44H569v7.66h9.75v-7.66h1.45Z"/><path class="cls-11" d="M594.35,601.72H586.6l-1.76,4.78h-1.51l6.46-17.06h1.37l6.46,17.06h-1.5Zm-7.3-1.23h6.84l-3.42-9.29Z"/><path class="cls-11" d="M612.81,601.18a7.57,7.57,0,0,1-.61,2.33,5.25,5.25,0,0,1-1.26,1.75,5.42,5.42,0,0,1-1.9,1.1,7.71,7.71,0,0,1-2.51.38,6.17,6.17,0,0,1-2.64-.55,5.78,5.78,0,0,1-2-1.56,7.21,7.21,0,0,1-1.3-2.43,10.2,10.2,0,0,1-.46-3.14V596.9a10.26,10.26,0,0,1,.46-3.15,7.08,7.08,0,0,1,1.31-2.43,5.87,5.87,0,0,1,2.06-1.56,6.39,6.39,0,0,1,2.71-.56,7.5,7.5,0,0,1,2.45.38,5.21,5.21,0,0,1,1.87,1.1,5.45,5.45,0,0,1,1.25,1.76,7.34,7.34,0,0,1,.6,2.35h-1.45a7.05,7.05,0,0,0-.47-1.85,4,4,0,0,0-.92-1.37,3.91,3.91,0,0,0-1.41-.84,5.76,5.76,0,0,0-1.93-.29,4.75,4.75,0,0,0-2.13.46,4.55,4.55,0,0,0-1.59,1.31,6,6,0,0,0-1,2,9.45,9.45,0,0,0-.35,2.64V599a9.74,9.74,0,0,0,.33,2.6,6.22,6.22,0,0,0,1,2,4.47,4.47,0,0,0,1.56,1.34,4.54,4.54,0,0,0,2.12.48,4.8,4.8,0,0,0,3.41-1.08,5.2,5.2,0,0,0,1.42-3.25Z"/><path class="cls-11" d="M629.52,598.89a10.48,10.48,0,0,1-.47,3.24,7.22,7.22,0,0,1-1.33,2.47,5.87,5.87,0,0,1-2.09,1.58,6.58,6.58,0,0,1-2.74.56,6.51,6.51,0,0,1-2.72-.56,6,6,0,0,1-2.1-1.58,7.2,7.2,0,0,1-1.36-2.47,10.25,10.25,0,0,1-.48-3.24v-1.83a10.3,10.3,0,0,1,.48-3.25,7.37,7.37,0,0,1,1.35-2.48,5.91,5.91,0,0,1,2.09-1.58,6.51,6.51,0,0,1,2.72-.56,6.58,6.58,0,0,1,2.74.56,6,6,0,0,1,2.1,1.58,7.17,7.17,0,0,1,1.34,2.48,10.54,10.54,0,0,1,.47,3.25ZM628.08,597a9.84,9.84,0,0,0-.35-2.73,6,6,0,0,0-1-2.07,4.54,4.54,0,0,0-1.64-1.31,5.07,5.07,0,0,0-2.2-.46,5,5,0,0,0-2.17.46,4.61,4.61,0,0,0-1.64,1.31,6,6,0,0,0-1,2.07,9.69,9.69,0,0,0-.36,2.73v1.85a9.59,9.59,0,0,0,.36,2.74,6.09,6.09,0,0,0,1,2.07,4.58,4.58,0,0,0,1.65,1.31,5,5,0,0,0,2.17.46,5.11,5.11,0,0,0,2.21-.46,4.43,4.43,0,0,0,1.63-1.31,6,6,0,0,0,1-2.07,10,10,0,0,0,.35-2.74Z"/><path class="cls-11" d="M564,629.5h-1.45v-8.18H552.8v8.18h-1.44V612.44h1.44v7.66h9.75v-7.66H564Z"/><path class="cls-11" d="M580.71,612.44V624a6.17,6.17,0,0,1-.47,2.51A5.07,5.07,0,0,1,579,628.3a5.39,5.39,0,0,1-1.91,1.07,7.49,7.49,0,0,1-2.34.36,7.61,7.61,0,0,1-2.37-.36,5.33,5.33,0,0,1-1.9-1.07,4.92,4.92,0,0,1-1.27-1.79,6.37,6.37,0,0,1-.46-2.51V612.44h1.43V624a5.25,5.25,0,0,0,.34,2,3.83,3.83,0,0,0,1,1.41,4,4,0,0,0,1.45.85,6,6,0,0,0,3.67,0,4,4,0,0,0,1.44-.85,3.86,3.86,0,0,0,.94-1.41,5.25,5.25,0,0,0,.34-2V612.44ZM576.2,608h1.7l-2.71,3.27H574Z"/><path class="cls-11" d="M587.24,612.44l6.29,15.06,6.32-15.06h1.92V629.5h-1.44V622l.12-7.59-6.35,15H593l-6.33-15,.12,7.54v7.45h-1.44v-17Z"/><path class="cls-11" d="M616.11,621.32h-8v7h9.18v1.22h-10.6v-17.1h10.56v1.23h-9.12v6.43h8Z"/><path class="cls-11" d="M620.94,629.5V612.44h4.77a7.66,7.66,0,0,1,2.94.55,6.59,6.59,0,0,1,2.31,1.57,7.21,7.21,0,0,1,1.51,2.45,9,9,0,0,1,.54,3.19v1.56a9,9,0,0,1-.54,3.19,7.09,7.09,0,0,1-1.51,2.44,6.65,6.65,0,0,1-2.33,1.56,7.92,7.92,0,0,1-3,.55Zm1.44-15.83v14.61h3.23a6.19,6.19,0,0,0,2.47-.47,5.31,5.31,0,0,0,1.88-1.34,6,6,0,0,0,1.19-2.06,8.07,8.07,0,0,0,.42-2.65v-1.59a8,8,0,0,0-.42-2.68,5.9,5.9,0,0,0-1.19-2,5.28,5.28,0,0,0-1.85-1.31,6,6,0,0,0-2.4-.46Z"/><path class="cls-11" d="M649.87,621.89a10.48,10.48,0,0,1-.47,3.24,7.22,7.22,0,0,1-1.33,2.47,5.87,5.87,0,0,1-2.09,1.58,6.58,6.58,0,0,1-2.74.56,6.51,6.51,0,0,1-2.72-.56,6,6,0,0,1-2.1-1.58,7.2,7.2,0,0,1-1.36-2.47,10.25,10.25,0,0,1-.48-3.24v-1.83a10.3,10.3,0,0,1,.48-3.25,7.37,7.37,0,0,1,1.35-2.48,5.91,5.91,0,0,1,2.09-1.58,6.51,6.51,0,0,1,2.72-.56,6.58,6.58,0,0,1,2.74.56,6,6,0,0,1,2.1,1.58,7.17,7.17,0,0,1,1.34,2.48,10.54,10.54,0,0,1,.47,3.25ZM648.43,620a9.84,9.84,0,0,0-.35-2.73,6,6,0,0,0-1-2.07,4.54,4.54,0,0,0-1.64-1.31,5.07,5.07,0,0,0-2.2-.46,5,5,0,0,0-2.17.46,4.61,4.61,0,0,0-1.64,1.31,6,6,0,0,0-1,2.07A9.69,9.69,0,0,0,638,620v1.85a9.59,9.59,0,0,0,.36,2.74,6.09,6.09,0,0,0,1,2.07A4.58,4.58,0,0,0,641,628a5,5,0,0,0,2.17.46,5.11,5.11,0,0,0,2.21-.46,4.43,4.43,0,0,0,1.63-1.31,6,6,0,0,0,1-2.07,10,10,0,0,0,.35-2.74Z"/><path class="cls-11" d="M393.33,110.51a7.57,7.57,0,0,1-.61,2.33,5.25,5.25,0,0,1-1.26,1.75,5.42,5.42,0,0,1-1.9,1.1,7.71,7.71,0,0,1-2.51.38,6.17,6.17,0,0,1-2.64-.55,5.78,5.78,0,0,1-2-1.56,7.21,7.21,0,0,1-1.3-2.43,10.2,10.2,0,0,1-.46-3.14v-2.14a10.26,10.26,0,0,1,.46-3.15,7.08,7.08,0,0,1,1.31-2.43,5.87,5.87,0,0,1,2.06-1.56,6.39,6.39,0,0,1,2.71-.56,7.5,7.5,0,0,1,2.45.38,5.21,5.21,0,0,1,1.87,1.1,5.45,5.45,0,0,1,1.25,1.76,7.34,7.34,0,0,1,.6,2.35h-1.45a7.05,7.05,0,0,0-.47-1.85,4,4,0,0,0-.92-1.37,3.91,3.91,0,0,0-1.41-.84,5.76,5.76,0,0,0-1.93-.29,4.75,4.75,0,0,0-2.13.46,4.55,4.55,0,0,0-1.59,1.31,6,6,0,0,0-1,2,9.45,9.45,0,0,0-.35,2.64v2.17a9.74,9.74,0,0,0,.33,2.6,6.22,6.22,0,0,0,1,2.05,4.47,4.47,0,0,0,1.56,1.34,4.54,4.54,0,0,0,2.12.48,4.8,4.8,0,0,0,3.41-1.08,5.2,5.2,0,0,0,1.42-3.25Z"/><path class="cls-11" d="M406.86,107.65h-8v7H408v1.22h-10.6V98.76H408V100h-9.12v6.43h8Z"/><path class="cls-11" d="M418.06,108.73h-5v7.1h-1.45V98.76h5.54a8.22,8.22,0,0,1,2.41.33,5.11,5.11,0,0,1,1.83,1,4.22,4.22,0,0,1,1.16,1.58,5.4,5.4,0,0,1,.4,2.16,4.82,4.82,0,0,1-.26,1.59,4.59,4.59,0,0,1-.73,1.34,4.78,4.78,0,0,1-1.12,1,5.31,5.31,0,0,1-1.44.67l4.27,7.25v.15h-1.54Zm-5-1.23h4.42a4.66,4.66,0,0,0,1.75-.3,3.68,3.68,0,0,0,1.26-.81,3.32,3.32,0,0,0,.76-1.18,4,4,0,0,0,.25-1.4,4.23,4.23,0,0,0-.28-1.58,3.12,3.12,0,0,0-.84-1.2,3.82,3.82,0,0,0-1.37-.76,6,6,0,0,0-1.86-.26h-4.09Z"/><path class="cls-11" d="M433.9,108.73h-5v7.1h-1.45V98.76H433a8.22,8.22,0,0,1,2.41.33,5.11,5.11,0,0,1,1.83,1,4.22,4.22,0,0,1,1.16,1.58,5.4,5.4,0,0,1,.4,2.16,4.82,4.82,0,0,1-.26,1.59,4.59,4.59,0,0,1-.73,1.34,4.78,4.78,0,0,1-1.12,1,5.31,5.31,0,0,1-1.44.67l4.27,7.25v.15H438Zm-5-1.23h4.42a4.66,4.66,0,0,0,1.75-.3,3.68,3.68,0,0,0,1.26-.81,3.32,3.32,0,0,0,.76-1.18,4,4,0,0,0,.25-1.4,4.23,4.23,0,0,0-.28-1.58,3.12,3.12,0,0,0-.84-1.2,3.82,3.82,0,0,0-1.37-.76A6,6,0,0,0,433,100h-4.09Z"/><path class="cls-11" d="M452.57,111h-7.75l-1.76,4.78h-1.51l6.45-17h1.37l6.46,17.06h-1.5Zm-7.3-1.23h6.84l-3.42-9.29Z"/><path class="cls-11" d="M458.94,115.83V98.76h4.77a7.66,7.66,0,0,1,2.94.55,6.59,6.59,0,0,1,2.31,1.57,7.21,7.21,0,0,1,1.51,2.45,9,9,0,0,1,.54,3.19v1.56a9,9,0,0,1-.54,3.19,7.09,7.09,0,0,1-1.51,2.44,6.65,6.65,0,0,1-2.33,1.56,7.92,7.92,0,0,1-3,.55ZM460.39,100v14.61h3.23a6.19,6.19,0,0,0,2.47-.47A5.31,5.31,0,0,0,468,112.8a6,6,0,0,0,1.19-2.06,8.07,8.07,0,0,0,.42-2.65V106.5a8,8,0,0,0-.42-2.68,5.9,5.9,0,0,0-1.19-2,5.28,5.28,0,0,0-1.85-1.31,6,6,0,0,0-2.4-.46Z"/><path class="cls-11" d="M487.87,108.22a10.48,10.48,0,0,1-.47,3.24,7.22,7.22,0,0,1-1.33,2.47A5.87,5.87,0,0,1,484,115.5a6.58,6.58,0,0,1-2.74.56,6.51,6.51,0,0,1-2.72-.56,6,6,0,0,1-2.1-1.58,7.2,7.2,0,0,1-1.36-2.47,10.25,10.25,0,0,1-.48-3.24v-1.83a10.3,10.3,0,0,1,.48-3.25,7.37,7.37,0,0,1,1.35-2.48,5.91,5.91,0,0,1,2.09-1.58,6.51,6.51,0,0,1,2.72-.56,6.58,6.58,0,0,1,2.74.56,6,6,0,0,1,2.1,1.58,7.17,7.17,0,0,1,1.34,2.48,10.54,10.54,0,0,1,.47,3.25Zm-1.44-1.85a9.84,9.84,0,0,0-.35-2.73,6,6,0,0,0-1-2.07,4.54,4.54,0,0,0-1.64-1.31,5.07,5.07,0,0,0-2.2-.46,5,5,0,0,0-2.17.46,4.61,4.61,0,0,0-1.64,1.31,6,6,0,0,0-1,2.07,9.69,9.69,0,0,0-.36,2.73v1.85a9.59,9.59,0,0,0,.36,2.74,6.09,6.09,0,0,0,1,2.07,4.58,4.58,0,0,0,1.65,1.31,5,5,0,0,0,2.17.46,5.11,5.11,0,0,0,2.21-.46,4.43,4.43,0,0,0,1.63-1.31,6,6,0,0,0,1-2.07,10,10,0,0,0,.35-2.74Z"/><path class="cls-11" d="M485.77,336.56v7h-1.44V326.45h5.81a7.5,7.5,0,0,1,2.48.38,5.06,5.06,0,0,1,1.8,1,4.33,4.33,0,0,1,1.1,1.61,5.58,5.58,0,0,1,.37,2.06,5.71,5.71,0,0,1-.37,2.12,4.11,4.11,0,0,1-1.09,1.58,4.84,4.84,0,0,1-1.8,1,8.27,8.27,0,0,1-2.48.34Zm0-1.22h4.37a5.94,5.94,0,0,0,2-.29,3.52,3.52,0,0,0,1.34-.8,3.15,3.15,0,0,0,.76-1.2,4.41,4.41,0,0,0,.25-1.49,4.52,4.52,0,0,0-.25-1.49,3.34,3.34,0,0,0-.76-1.24,3.59,3.59,0,0,0-1.34-.84,5.53,5.53,0,0,0-2-.31h-4.37Z"/><path class="cls-11" d="M508.92,338.73h-7.75l-1.76,4.78H497.9l6.46-17.06h1.37l6.46,17.06h-1.5Zm-7.3-1.23h6.84L505,328.2Z"/><path class="cls-11" d="M528,343.51h-1.44l-9.81-14.6v14.6H515.3V326.45h1.45l9.82,14.61V326.45H528Z"/><path class="cls-11" d="M544.51,327.68h-5.85v15.83h-1.44V327.68h-5.84v-1.23h13.13Z"/><path class="cls-11" d="M557.08,338.73h-7.75l-1.76,4.78h-1.51l6.46-17.06h1.37l6.46,17.06h-1.5Zm-7.3-1.23h6.84l-3.42-9.29Z"/><path class="cls-11" d="M576.16,343.51h-1.44l-9.81-14.6v14.6h-1.45V326.45h1.45l9.82,14.61V326.45h1.43Z"/><path class="cls-11" d="M590.31,338.73h-7.75l-1.76,4.78h-1.51l6.46-17.06h1.37l6.46,17.06h-1.5ZM583,337.5h6.84l-3.42-9.29Z"/><path class="cls-11" d="M598.14,342.29h8.43v1.22h-9.88V326.45h1.45Z"/><path class="cls-11" d="M184.21,228.18l6.29,15.06,6.32-15.06h1.92v17.06H197.3v-7.45l.12-7.59-6.35,15H190l-6.33-15,.12,7.54v7.45H182.3v-17Z"/><path class="cls-11" d="M213.09,237.06h-8v7h9.18v1.22h-10.6v-17.1h10.56v1.23h-9.12v6.43h8Zm-2.92-13.44h1.7l-2.71,3.27h-1.23Z"/><path class="cls-11" d="M217.92,245.24V228.18h4.77a7.66,7.66,0,0,1,2.94.55,6.59,6.59,0,0,1,2.31,1.57,7.21,7.21,0,0,1,1.51,2.45,9,9,0,0,1,.54,3.19v1.56a9,9,0,0,1-.54,3.19,7.09,7.09,0,0,1-1.51,2.44,6.65,6.65,0,0,1-2.33,1.56,7.92,7.92,0,0,1-3,.55Zm1.44-15.83V244h3.23a6.19,6.19,0,0,0,2.47-.47,5.31,5.31,0,0,0,1.88-1.34,6,6,0,0,0,1.19-2.06,8.07,8.07,0,0,0,.42-2.65V235.9a8,8,0,0,0-.42-2.68,5.9,5.9,0,0,0-1.19-2,5.28,5.28,0,0,0-1.85-1.31,6,6,0,0,0-2.4-.46Z"/><path class="cls-11" d="M243.44,240.46H235.7l-1.76,4.78h-1.51l6.46-17.06h1.37l6.46,17.06h-1.5Zm-7.3-1.23H243l-3.42-9.29Z"/><path class="cls-11" d="M262.52,245.24h-1.44l-9.81-14.6v14.6h-1.45V228.18h1.45l9.82,14.61V228.18h1.43Z"/><path class="cls-11" d="M280.07,237.64a10.48,10.48,0,0,1-.47,3.24,7.22,7.22,0,0,1-1.33,2.47,5.87,5.87,0,0,1-2.09,1.58,6.58,6.58,0,0,1-2.74.56,6.51,6.51,0,0,1-2.72-.56,6.05,6.05,0,0,1-2.1-1.58,7.2,7.2,0,0,1-1.36-2.47,10.25,10.25,0,0,1-.48-3.24v-1.83a10.3,10.3,0,0,1,.48-3.25,7.37,7.37,0,0,1,1.35-2.48,5.91,5.91,0,0,1,2.09-1.58,6.51,6.51,0,0,1,2.72-.56,6.58,6.58,0,0,1,2.74.56,6,6,0,0,1,2.1,1.58,7.17,7.17,0,0,1,1.34,2.48,10.54,10.54,0,0,1,.47,3.25Zm-1.44-1.85a9.84,9.84,0,0,0-.35-2.73,6,6,0,0,0-1-2.07,4.54,4.54,0,0,0-1.64-1.31,5.07,5.07,0,0,0-2.2-.46,5,5,0,0,0-2.17.46A4.61,4.61,0,0,0,269.6,231a6,6,0,0,0-1,2.07,9.69,9.69,0,0,0-.36,2.73v1.85a9.59,9.59,0,0,0,.36,2.74,6.09,6.09,0,0,0,1,2.07,4.58,4.58,0,0,0,1.65,1.31,5,5,0,0,0,2.17.46,5.11,5.11,0,0,0,2.21-.46,4.43,4.43,0,0,0,1.63-1.31,6,6,0,0,0,1-2.07,10,10,0,0,0,.35-2.74Z"/><path class="cls-11" d="M294,241a3.2,3.2,0,0,0-.23-1.25,2.62,2.62,0,0,0-.77-1,5.75,5.75,0,0,0-1.44-.83,19.28,19.28,0,0,0-2.23-.75,20.81,20.81,0,0,1-2.32-.79,7.26,7.26,0,0,1-1.75-1,4.15,4.15,0,0,1-1.11-1.32,3.74,3.74,0,0,1-.39-1.76,3.82,3.82,0,0,1,.42-1.79,4.14,4.14,0,0,1,1.18-1.39,5.73,5.73,0,0,1,1.82-.9,7.87,7.87,0,0,1,2.31-.32,7,7,0,0,1,2.43.4,5.57,5.57,0,0,1,1.85,1.09,4.78,4.78,0,0,1,1.17,1.62,4.86,4.86,0,0,1,.41,2H293.9a4,4,0,0,0-.29-1.54,3.41,3.41,0,0,0-.86-1.22,4,4,0,0,0-1.38-.81,5.56,5.56,0,0,0-1.87-.29,6.21,6.21,0,0,0-1.86.25,4,4,0,0,0-1.34.68,2.87,2.87,0,0,0-.81,1,2.78,2.78,0,0,0-.28,1.22,2.75,2.75,0,0,0,.23,1.13,2.62,2.62,0,0,0,.77,1,6.06,6.06,0,0,0,1.42.82,15.42,15.42,0,0,0,2.17.72,20,20,0,0,1,2.4.82,7.08,7.08,0,0,1,1.78,1,4.09,4.09,0,0,1,1.1,1.39,4.17,4.17,0,0,1,.38,1.82,3.92,3.92,0,0,1-.44,1.87,4.14,4.14,0,0,1-1.22,1.4,5.72,5.72,0,0,1-1.86.88,8.59,8.59,0,0,1-2.34.3,9.22,9.22,0,0,1-1.53-.13,8,8,0,0,1-1.48-.39,6.4,6.4,0,0,1-1.32-.67,4.63,4.63,0,0,1-1.07-1,4.56,4.56,0,0,1-.71-1.3,4.8,4.8,0,0,1-.26-1.63h1.44a3.49,3.49,0,0,0,.45,1.82,3.64,3.64,0,0,0,1.15,1.2,4.93,4.93,0,0,0,1.58.66,7.71,7.71,0,0,0,1.76.21,6.69,6.69,0,0,0,1.81-.23,4.34,4.34,0,0,0,1.39-.65,2.93,2.93,0,0,0,.89-1A2.79,2.79,0,0,0,294,241Z"/><path class="cls-12" d="M457,558.25a18.17,18.17,0,0,1,3-.23,5,5,0,0,1,3.4,1,3.26,3.26,0,0,1,1.06,2.54,3.57,3.57,0,0,1-.94,2.59,5,5,0,0,1-3.71,1.33,5.41,5.41,0,0,1-1.26-.11v4.86H457Zm1.57,5.85a5.27,5.27,0,0,0,1.3.13c1.89,0,3-.92,3-2.59s-1.13-2.38-2.86-2.38a6.57,6.57,0,0,0-1.48.13Z"/><path class="cls-12" d="M466.62,558.26a16.31,16.31,0,0,1,3-.25,5,5,0,0,1,3.51,1,3,3,0,0,1,1,2.3,3.19,3.19,0,0,1-2.29,3.1v0a3,3,0,0,1,1.78,2.45,19.28,19.28,0,0,0,.94,3.33H472.9a15.76,15.76,0,0,1-.81-2.9c-.36-1.67-1-2.3-2.43-2.36h-1.48v5.26h-1.57Zm1.57,5.53h1.6c1.67,0,2.74-.92,2.74-2.3,0-1.57-1.13-2.25-2.79-2.27a6.43,6.43,0,0,0-1.55.14Z"/><path class="cls-12" d="M482.59,564.55h-4.72v4.38h5.26v1.31H476.3V558.1h6.55v1.31h-5v3.83h4.72Z"/><path class="cls-12" d="M484.94,568.33a5.56,5.56,0,0,0,2.81.79c1.6,0,2.54-.85,2.54-2.07s-.65-1.78-2.29-2.41c-2-.7-3.21-1.73-3.21-3.44,0-1.89,1.57-3.29,3.93-3.29a5.51,5.51,0,0,1,2.68.59l-.43,1.28a4.84,4.84,0,0,0-2.3-.58c-1.66,0-2.29,1-2.29,1.82,0,1.13.74,1.69,2.41,2.34,2,.79,3.1,1.78,3.1,3.56s-1.39,3.49-4.25,3.49a6.28,6.28,0,0,1-3.1-.77Z"/><path class="cls-12" d="M495.6,558.1v12.14H494V558.1Z"/><path class="cls-12" d="M498.33,558.26a22.52,22.52,0,0,1,3.33-.25,7,7,0,0,1,4.92,1.51,5.59,5.59,0,0,1,1.71,4.36,6.42,6.42,0,0,1-1.75,4.72,7.48,7.48,0,0,1-5.37,1.75,25.31,25.31,0,0,1-2.84-.14ZM499.9,569a9.87,9.87,0,0,0,1.58.09c3.35,0,5.17-1.87,5.17-5.15,0-2.86-1.6-4.68-4.92-4.68a8.91,8.91,0,0,0-1.84.16Z"/><path class="cls-12" d="M516.61,564.55h-4.72v4.38h5.26v1.31h-6.82V558.1h6.55v1.31h-5v3.83h4.72Z"/><path class="cls-12" d="M519.18,570.24V558.1h1.71l3.89,6.14a34.39,34.39,0,0,1,2.18,3.94h0c-.14-1.62-.18-3.1-.18-5V558.1h1.48v12.14H526.7l-3.85-6.16a38.39,38.39,0,0,1-2.27-4h0c.09,1.53.13,3,.13,5v5.19Z"/><path class="cls-12" d="M533.33,559.43h-3.69V558.1h9v1.33h-3.71v10.8h-1.58Z"/><path class="cls-12" d="M546.25,564.55h-4.72v4.38h5.26v1.31H540V558.1h6.55v1.31h-5v3.83h4.72Z"/><path class="cls-12" d="M554.21,558.1v5.08h5.87V558.1h1.58v12.14h-1.58v-5.69h-5.87v5.69h-1.57V558.1Z"/><path class="cls-12" d="M566.34,566.42l-1.26,3.82h-1.62l4.12-12.14h1.89l4.14,12.14h-1.67l-1.3-3.82Zm4-1.22-1.19-3.49c-.27-.79-.45-1.51-.63-2.21h0c-.18.72-.38,1.46-.61,2.2l-1.19,3.51Z"/><path class="cls-12" d="M578.09,570.24v-5.15l-3.83-7H576l1.71,3.35c.47.92.83,1.66,1.21,2.5h0c.34-.79.76-1.58,1.22-2.5L582,558.1h1.78l-4.07,7v5.17Z"/><path class="cls-12" d="M591.41,564.55h-4.72v4.38H592v1.31h-6.82V558.1h6.55v1.31h-5v3.83h4.72Z"/><path class="cls-12" d="M593.77,568.33a5.56,5.56,0,0,0,2.81.79c1.6,0,2.54-.85,2.54-2.07s-.65-1.78-2.29-2.41c-2-.7-3.21-1.73-3.21-3.44,0-1.89,1.57-3.29,3.93-3.29a5.51,5.51,0,0,1,2.68.59l-.43,1.28a4.84,4.84,0,0,0-2.3-.58c-1.66,0-2.29,1-2.29,1.82,0,1.13.74,1.69,2.41,2.34,2,.79,3.1,1.78,3.1,3.56s-1.39,3.49-4.25,3.49a6.28,6.28,0,0,1-3.1-.77Z"/><path class="cls-12" d="M427.74,225.76l-1.26,3.82h-1.62L429,217.44h1.89L435,229.57h-1.67l-1.3-3.82Zm4-1.22L430.53,221c-.27-.79-.45-1.51-.63-2.21h0c-.18.72-.38,1.46-.61,2.2l-1.19,3.51Z"/><path class="cls-12" d="M436.79,217.44h1.57v10.82h5.19v1.31H436.8Z"/><path class="cls-12" d="M447.59,218.77H443.9v-1.33h9v1.33h-3.71v10.8h-1.58Z"/><path class="cls-12" d="M464.6,223.38c0,4.18-2.54,6.39-5.64,6.39s-5.46-2.48-5.46-6.16c0-3.85,2.39-6.37,5.64-6.37S464.6,219.78,464.6,223.38Zm-9.42.2c0,2.59,1.41,4.92,3.87,4.92s3.89-2.29,3.89-5c0-2.41-1.26-4.93-3.87-4.93S455.18,220.91,455.18,223.58Z"/><path class="cls-12" d="M470.45,217.58a18.18,18.18,0,0,1,3-.23,5,5,0,0,1,3.4,1,3.26,3.26,0,0,1,1.06,2.54,3.57,3.57,0,0,1-.94,2.59,5,5,0,0,1-3.71,1.33,5.41,5.41,0,0,1-1.26-.11v4.86h-1.57Zm1.57,5.85a5.27,5.27,0,0,0,1.3.13c1.89,0,3-.92,3-2.59s-1.13-2.38-2.86-2.38a6.6,6.6,0,0,0-1.48.13Z"/><path class="cls-12" d="M482,225.76l-1.26,3.82h-1.62l4.12-12.14h1.89l4.14,12.14H487.6l-1.3-3.82Zm4-1.22L484.78,221c-.27-.79-.45-1.51-.63-2.21h0c-.18.72-.38,1.46-.61,2.2l-1.19,3.51Z"/><path class="cls-12" d="M491,217.6a16.31,16.31,0,0,1,3-.25,5,5,0,0,1,3.51,1,3,3,0,0,1,1,2.3,3.19,3.19,0,0,1-2.29,3.1v.05a3,3,0,0,1,1.78,2.45,19.3,19.3,0,0,0,.94,3.33h-1.62a15.75,15.75,0,0,1-.81-2.9c-.36-1.67-1-2.3-2.43-2.36H492.6v5.26H491Zm1.57,5.53h1.6c1.67,0,2.74-.92,2.74-2.3,0-1.57-1.13-2.25-2.79-2.27a6.47,6.47,0,0,0-1.55.14Z"/><path class="cls-12" d="M502.69,225.76l-1.26,3.82h-1.62l4.12-12.14h1.89L510,229.57h-1.67l-1.3-3.82Zm4-1.22L505.48,221c-.27-.79-.45-1.51-.63-2.21h0c-.18.72-.38,1.46-.61,2.2L503,224.53Z"/><path class="cls-12" d="M521,229a11.31,11.31,0,0,1-3.73.67,5.7,5.7,0,0,1-6.23-6.12c0-3.62,2.5-6.27,6.57-6.27a7.51,7.51,0,0,1,3,.56l-.38,1.28a6.29,6.29,0,0,0-2.68-.52,4.54,4.54,0,0,0-4.88,4.88c0,3.08,1.85,4.9,4.68,4.9a5.1,5.1,0,0,0,2.09-.32v-3.62H517V223.2h4Z"/><path class="cls-12" d="M524.93,217.44v7.18c0,2.72,1.21,3.87,2.83,3.87,1.8,0,3-1.19,3-3.87v-7.18h1.58v7.08c0,3.73-2,5.26-4.59,5.26s-4.36-1.42-4.36-5.19v-7.15Z"/><path class="cls-12" d="M537,225.76l-1.26,3.82h-1.62l4.12-12.14h1.89l4.14,12.14H542.6l-1.3-3.82Zm4-1.22L539.77,221c-.27-.79-.45-1.51-.63-2.21h0c-.18.72-.38,1.46-.61,2.2l-1.19,3.51Z"/><path class="cls-12" d="M548.73,229.57v-5.15l-3.83-7h1.78l1.71,3.35c.47.92.83,1.66,1.21,2.5h0c.34-.79.76-1.58,1.22-2.5l1.75-3.35h1.78l-4.07,7v5.17Z"/><path class="cls-6" d="M403.06,634.44a10.82,10.82,0,0,1,1.78.93,3.31,3.31,0,0,1,1.63,1.81,2,2,0,0,1-.28,1.64,2.12,2.12,0,0,1-2.39.93h0a2,2,0,0,1,.13,2,12.88,12.88,0,0,0-.66,2.21l-.91-.58a10.41,10.41,0,0,1,.58-1.92c.39-1.07.25-1.66-.53-2.19l-.83-.53-1.87,3-.88-.56ZM402,638.11l.9.57a1.59,1.59,0,0,0,2.24-.17l.12-.15c.56-.88.16-1.67-.76-2.27a4.28,4.28,0,0,0-.92-.47Z"/><path class="cls-6" d="M404.48,644.77l3.1-4.91.89.56-3.1,4.91Zm6.25-5.88-2.15.67-.64-.4,1.81-.89Z"/><path class="cls-6" d="M413.12,646.74a2.84,2.84,0,0,1-3.83,1.21l-.26-.15a2.76,2.76,0,0,1-.9-3.8l.14-.2a2.84,2.84,0,0,1,3.83-1.22l.25.15a2.75,2.75,0,0,1,.93,3.78Zm-3.93-2.41a1.81,1.81,0,1,0,3,1.86c.53-.83.78-2.15-.28-2.81s-2.12,0-2.71,1Z"/><path class="cls-6" d="M419.63,644.89a12.1,12.1,0,0,1,1.78.94,3.32,3.32,0,0,1,1.56,1.78,2.17,2.17,0,0,1-.3,1.81,2.38,2.38,0,0,1-1.45,1.13,3.35,3.35,0,0,1-2.56-.57,3.59,3.59,0,0,1-.67-.51l-1.73,2.74-.88-.56Zm-1.2,3.85a3.49,3.49,0,0,0,.68.53,1.74,1.74,0,0,0,2.64-.38c.64-.94.21-1.74-.77-2.36a4.35,4.35,0,0,0-.88-.46Z"/><path class="cls-6" d="M421,655.2l3.1-4.91.89.56-3.1,4.91Zm5-5.66a.66.66,0,1,1-1.11-.7.64.64,0,0,1,.87-.23l0,0a.63.63,0,0,1,.23.86l0,0Z"/><path class="cls-6" d="M428.16,649.66l.89.56-4.55,7.2-.89-.56Z"/><path class="cls-6" d="M429.88,660.56a3.9,3.9,0,0,1-1.59-.61,2.76,2.76,0,0,1-1-3.77l.15-.23a3,3,0,0,1,4.11-1l.17.11a3.53,3.53,0,0,1,1.08,1l-.64.56a2.43,2.43,0,0,0-.89-.89,2.19,2.19,0,0,0-2.36,3.67,3,3,0,0,0,1.25.45Z"/><path class="cls-6" d="M437.08,661.87a2.84,2.84,0,0,1-3.83,1.21l-.26-.15a2.76,2.76,0,0,1-.9-3.8l.14-.2A2.83,2.83,0,0,1,436,657.7l.27.16a2.75,2.75,0,0,1,.93,3.78Zm-3.92-2.41a1.81,1.81,0,1,0,3,1.86c.53-.83.78-2.15-.28-2.81a2,2,0,0,0-2.73,1Z"/><path class="cls-6" d="M439.15,661.66c.32-.51.57-.93.8-1.35l.78.49-.46.82h0a2,2,0,0,1,2.11.07,1.71,1.71,0,0,1,.77,1.86h0a2.39,2.39,0,0,1,1-.29,2,2,0,0,1,1.3.34c.65.41,1.34,1.44.27,3.15l-1.83,2.89-.87-.55,1.75-2.78c.6-.94.61-1.73-.11-2.18a1.37,1.37,0,0,0-1.57.14,1.75,1.75,0,0,0-.35.4l-1.92,3-.87-.55,1.86-2.94c.49-.78.51-1.57-.17-2a1.44,1.44,0,0,0-1.67.19,1.48,1.48,0,0,0-.35.39l-1.87,3-.87-.55Z"/><path class="cls-6" d="M448.32,672.46l.32-.66h0a2.16,2.16,0,0,1-2-.22,1.65,1.65,0,0,1-.69-2.23l.08-.13c.75-1.19,2.21-1.17,4.1,0l.06-.1a1.2,1.2,0,0,0-.4-1.84,2.9,2.9,0,0,0-1.51-.44l.17-.72a3.6,3.6,0,0,1,1.89.58c1.5,1,1.22,2.2.6,3.19l-1.16,1.84a8.11,8.11,0,0,0-.66,1.23Zm1.45-2.59c-1-.64-2.17-1.16-2.78-.21a.93.93,0,0,0,.18,1.3l.12.08a1.44,1.44,0,0,0,1.71,0,1.1,1.1,0,0,0,.23-.25Z"/><path class="cls-6" d="M454.17,669.29l-.76,3.58c-.09.39-.21.86-.32,1.2h0c.28-.24.62-.55,1-.83l2.79-2.26.94.6-3.55,2.65c-1.7,1.28-2.68,1.87-3.62,2a2.86,2.86,0,0,1-1.46-.11l.25-.89a2.82,2.82,0,0,0,1.06.06,3.21,3.21,0,0,0,1.38-.52.75.75,0,0,0,.21-.17.93.93,0,0,0,.09-.27l1-5.67Z"/><path class="cls-6" d="M461.79,677.48a2.84,2.84,0,0,1-3.83,1.21l-.26-.15a2.76,2.76,0,0,1-.9-3.8l.14-.2a2.83,2.83,0,0,1,3.81-1.23l.27.16a2.75,2.75,0,0,1,.93,3.78Zm-3.93-2.41a1.81,1.81,0,1,0,3,1.86c.53-.83.78-2.15-.28-2.81s-2.12,0-2.71,1Z"/><path class="cls-6" d="M618,154.27a10.88,10.88,0,0,1,.92,1.79,3.31,3.31,0,0,1,.29,2.41,2,2,0,0,1-1.17,1.17,2.12,2.12,0,0,1-2.49-.62h0a2,2,0,0,1-1,1.72,12.87,12.87,0,0,0-1.81,1.42l-.41-1a10.49,10.49,0,0,1,1.58-1.24c.94-.65,1.16-1.21.83-2.1l-.38-.91L611,158.29l-.4-1Zm-3,2.37.41,1a1.59,1.59,0,0,0,1.93,1.16l.19-.06c1-.4,1.09-1.27.68-2.3a4.26,4.26,0,0,0-.48-.92Z"/><path class="cls-6" d="M613.21,163.53l5.36-2.22.4,1-5.36,2.22Zm8.5-1.2-2.14-.69-.29-.7,2,.32Z"/><path class="cls-6" d="M619.14,170.13a2.84,2.84,0,0,1-4-1.49,2.76,2.76,0,0,1,1.45-3.62l.24-.09a2.84,2.84,0,0,1,4,1.48,2.75,2.75,0,0,1-1.4,3.63Zm-1.82-4.23a1.81,1.81,0,1,0,1.37,3.25c.91-.38,1.87-1.31,1.39-2.46s-1.74-1.21-2.76-.79Z"/><path class="cls-6" d="M625.52,172.37a12.17,12.17,0,0,1,.91,1.79,3.32,3.32,0,0,1,.25,2.35,2.17,2.17,0,0,1-1.29,1.3,2.38,2.38,0,0,1-1.83.08,3.34,3.34,0,0,1-1.76-1.94,3.58,3.58,0,0,1-.25-.8l-3,1.24-.4-1Zm-3.2,2.46a3.48,3.48,0,0,0,.25.83c.48,1.16,1.34,1.64,2.37,1.21s1.17-1.3.73-2.37a4.38,4.38,0,0,0-.45-.88Z"/><path class="cls-6" d="M621.92,184.54l.64-.36h0a2.16,2.16,0,0,1-1.48-1.31,1.65,1.65,0,0,1,.72-2.22l.14-.06c1.3-.54,2.48.32,3.33,2.4h.11a1.2,1.2,0,0,0,.74-1.73,2.9,2.9,0,0,0-1-1.23l.55-.49a3.6,3.6,0,0,1,1.21,1.56,2.06,2.06,0,0,1-1.35,2.95l-2,.83a8.13,8.13,0,0,0-1.25.62Zm2.68-1.28c-.42-1.07-1.11-2.2-2.15-1.77a.93.93,0,0,0-.6,1.17l.05.13a1.44,1.44,0,0,0,1.43.92,1.1,1.1,0,0,0,.33-.07Z"/><path class="cls-6" d="M626.71,185.66c.63-.26,1.17-.5,1.65-.74l.35.85-1,.47h0a1.74,1.74,0,0,1,1.79,1,1.11,1.11,0,0,1,.08.29l-.92.38a1.58,1.58,0,0,0-.11-.35,1.48,1.48,0,0,0-1.79-.79,3,3,0,0,0-.47.14l-2.86,1.18-.4-1Z"/><path class="cls-6" d="M625.86,194.06l.64-.36h0a2.16,2.16,0,0,1-1.48-1.31,1.65,1.65,0,0,1,.72-2.22l.14-.06c1.3-.54,2.48.32,3.33,2.4h.11a1.2,1.2,0,0,0,.74-1.73,2.9,2.9,0,0,0-1-1.23l.55-.49a3.6,3.6,0,0,1,1.21,1.56,2.06,2.06,0,0,1-1.35,2.95l-2,.83a8.16,8.16,0,0,0-1.25.62Zm2.68-1.28c-.42-1.07-1.11-2.2-2.15-1.77a.93.93,0,0,0-.6,1.17l.05.13a1.44,1.44,0,0,0,1.43.92,1.11,1.11,0,0,0,.33-.07Z"/><path class="cls-6" d="M634.24,199.11c-.4.14-.84.29-1.49.57L629.63,201a3.34,3.34,0,0,1-2.77.25,3.08,3.08,0,0,1-1.45-1.68,3.74,3.74,0,0,1-.3-2l.84-.06a3.28,3.28,0,0,0,.23,1.75,1.75,1.75,0,0,0,2.59,1l.6-.25h0a2.08,2.08,0,0,1-1.6-1.33,2.6,2.6,0,0,1,1.56-3.33l.11,0a2.79,2.79,0,0,1,3.79,1.11l.06.13a1.93,1.93,0,0,1-.24,2.06h0l.83-.29ZM631.7,199a1.54,1.54,0,0,0,.9-2h0c-.38-.93-1.45-1.27-2.69-.75-1,.44-1.71,1.33-1.27,2.38a1.54,1.54,0,0,0,1.56.94,1.85,1.85,0,0,0,.55-.14Z"/><path class="cls-6" d="M633,207.07c-.55.23-1,.44-1.44.65l-.36-.86.85-.42h0a2.18,2.18,0,0,1-1.73-1.36c-.35-.84-.3-2,1.58-2.82L635,201l.4,1-3,1.23c-1,.42-1.58,1-1.21,1.9a1.49,1.49,0,0,0,1.94.83l.06,0,3.29-1.36.4,1Z"/><path class="cls-6" d="M633.52,212.54l.64-.36h0a2.16,2.16,0,0,1-1.48-1.31,1.65,1.65,0,0,1,.72-2.22l.14-.06c1.3-.54,2.48.32,3.33,2.4H637a1.2,1.2,0,0,0,.74-1.73,2.9,2.9,0,0,0-1-1.23l.55-.49a3.59,3.59,0,0,1,1.21,1.56,2.06,2.06,0,0,1-1.35,2.95l-2,.83a8.13,8.13,0,0,0-1.25.62Zm2.68-1.28c-.42-1.07-1.11-2.2-2.15-1.77a.93.93,0,0,0-.6,1.17l.05.13a1.44,1.44,0,0,0,1.43.92,1.1,1.1,0,0,0,.33-.07Z"/><path class="cls-6" d="M640.13,213.33l-2.68,2.49a9.47,9.47,0,0,1-1,.8h0c.36,0,.82-.09,1.26-.12l3.59-.24.43,1-4.43.12c-2.13.06-3.27,0-4.12-.45a2.87,2.87,0,0,1-1.13-.94l.72-.58a2.8,2.8,0,0,0,.83.66,3.18,3.18,0,0,0,1.43.37.77.77,0,0,0,.26,0,1,1,0,0,0,.23-.17l4.12-4Z"/><path class="cls-13" d="M137.07,424.16l1.26,1,1.47,2.09,1.21,1.21,1.26,1.57s2.18.66,2.18.94,2.15,2,2.15,2l2.89,1.32,3.72,1.14,1.86,1.11s1.65.87,1.65,1.15a9.32,9.32,0,0,0,1,1.73l1,1.42,1.47,2.52,2.1,3,5.16-.13,1.91.1h6.79l-.67,2.67,1,1,1.81-1.14.67,1.71,2.19,1.81-1,3.91L179,459.81l2.48,2.29,1.14-1,2.29,1.71L185,466l-.19,3,2.48,2,1.91,2.38L189,475l2.19.86,1.24,3.33,2.19,1-.38,1.81,2.29-.76,1,1,.57,2.57L202,488.1l1.43,5,2,.19.29,7.43,1.62,1.71,1,1.62,2.29,1,2.29,2.67,2,1,1.43-.76,1.91,2.19,3.43.19L224,515.2l.48,1.14,2.67,2.76,3.91.67,2.1.38,1,6.57,2.38.29,3.24,4.19,3,.19,4.48.1,2.29,2.1,1.62,1,1,3,4.86.48.29,3.43,4,5.24,4.1-.1,2,2,5.43,2.29,2.57-1v1.71l2.67.19,2.19.19,1.43,1.52.86,2.38,2.67,2.48,2.38,1.14,4.76-.38.86,1.81,2.19,1.71,3,1.24,1.81,2.1-.48,4.76,2.29,3.43,3,2.86,3,3.62.48,3,3.91,4.86,1-.86,2.76.57,1.33-1,1,.57,3.72,2.48,5,3.14,2.38-.1,3.52.48,3.52.1,5.43,1.52,3.62,1.62,5-.1,1.81.57.1,3,.57,2.1,2.1.29,1.33.19,3.52.57,1.33-.76,2.57.1,2.29,1.24,2.48,1.14,3.43,1.33,1.71,1.52,1.71,2.19,1.24-.19,2.29-.19,2.67,1.52,3.24.29,3.14-.57,4.1-.29,6.29-.67,2.67-1,3.14-1a16.39,16.39,0,0,1,2.29-1.14,5.11,5.11,0,0,1,1.91.1l57.25,34.39-.19,1.52,2.1,1.14.38,1.62,1,1.62,1.62.1L472,650h1.52l1.52.19,1.14,1.52,1.14,2.48,2.38,4.19,1.52.29,2,.86,2.19,1.52H488l.76,1.24,1.24,2.38,3.72.76,3.24,2.38a8.78,8.78,0,0,1,1.43,1.33,10.08,10.08,0,0,0,1.52,1.43l1.52,1.71,1.71.1h2.38l2.67,1.14,2,1,1.62,1.81,3.52.48,2.29.1,3.43,2.67,2.57,1.62,3,3,2.19-.1,4.48,3.72,3,1.14,4.19.1h2.1l1.62,3.62,1.21,1.76,1.1.31,1.3-.07,2.29-.67,3.33.48,1.43-.48,2.26.9,2.36.39,1.06.33,1.85.57,4.86,1.62L572,701.2l.38,3,2.19,1.71,1.43,1.91,3.3,3.46,1.94,1.5,2-1.14,3.81-4.1,4.38-2.48,2,1,1.52,2.19,1.52,1.52,3.14.57,1.14,1.91,2.29,2.38,3.62.38.86,2.19,2.1.19h5l.67,3.43,2.19.86,3.33-.57,6.57.19,3,2.86L633.1,728l4.67,2.1,2.19,4.48.19,2.19,5.14,7.62-.08,2.93V748l.32-.15,16-7.66,2.1-5.57-1-8.8,11-.66,12.38-8,.16-6.68,8.33-.39,2-6.3L689,699l.84-8.08,12.21-12.08-.26-40.57L697,638.1l-.53-12.47-7.24-.34,1.21-6.09,4.33-.39-.13-11.16-10.52-14.2,5.58-2.59,1.3-18.27-24.5-14.45L665,554l6.08-3-.22-12.7-6.1-.31-.73-7.7,4.33-5.25-15.78-13.4,1.6-7.48-10.37-.13-4-7.08.56-7-6.34-8.5.13-8.27-9.85-9.06,3-5.41,10.45.26-2-13.13L632.08,441l-.69-18.2-5-.75-.13-7.45-10.73-.69-2.44-26.81,4.17-6.92,3.25-11.08L619,354.87l4.56-5.57-4-6.08,2-5.06-6-4.81,11.56-23.59-6.84-5.11,7-10.65L626,280.12l4.14-6.79L620,261.17l7.72-3.29L624,251.5l-11.16.63,6-6.6,7.47.79-6.3-10-7.42,8,.67-10.83-5-14.15,3.93-5.66L610,207.41l-6.51-4.77-4.12-17.9L594.55,182l2.28-8.1-2.57-18.52L592.7,145l-.13-.84"/><path class="cls-14" d="M587.93,513l-13.81-4.74-17-5.52L556,480.26l-23.68-.39-11.44-6.71L509,467.64l4.74-22.89,4.34-5.92-5.92-4.34.79-8.68,9.08-.39,8.65-8.75,6.28,9.16h0l-6.28-9.24-15-2.76-12.63-11-19.73-2L471.94,402l-2-12.23,5.13-17.36,5.52-11.84-.39-8.68L466,339.63l-14.21-9.47L450.63,327l2.76-10.66L468,311.6l26.44-8.29L494,297.8l-2.76-4.34-20.13,2-17.36,6.71-11,1.58-1.18-7.1,13-11.84.79-3.16-13.42-7.1L434,266.66l9.08-7.1,17.76-8.68,5.52,4.34,6.71,6.71,8.29,2.76,4.34-10.26-2-18.94,5.52-11V212.16L494,209.8l2-10.66-13.81-7.89L479,186.91l12.63-.39,7.1-6.71,2.76-10.26,6.31-7.5,8.68-3.55,8.29-4.74v-5.57L520,149.55H500l-7.37-4.74-23.15-2.63-11.58-6.84-11,3.68-13.68-1.58L425.77,129l-11-10.52-2.1,8.95L411.56,139H392.09l-6.84,6.31L380,140.08l-5.26-7.37-4.21,6.84-4.74,16.84h-8.42l-20.52-16.84-26.31-7.37-13.68,4.21-10.52,3.68-8.42-5.79L260,122.71l23-4.61-60.48,10.84-19.23,50.29.49-.77,15.79.39,21.71,6.71,11.44,10.66L279.23,201l-8.68,7.1L269,223.45,247.65,225l5.13,10.66L270.15,255l1.18,9.87L261.07,278.7l-15.39-9.08-14.21,9.47L216.87,287l-18.94-6.31-14.21-5.52-12.65-2.32.77,17.48L136.58,421.1l.58,2.43,1.26,1,1.47,2.09,1.2,1.2,1.26,1.57s2.17.66,2.17.94,2.15,2,2.15,2l2.89,1.31,3.71,1.14,1.86,1.1s1.65.87,1.65,1.15a9.31,9.31,0,0,0,1,1.73l1,1.41,1.47,2.51,2.09,3,5.16-.13,1.91.1h6.78l-.67,2.66,1,1,1.81-1.14.67,1.71,2.19,1.81-1,3.9L179,459.14l2.47,2.28,1.14-1,2.28,1.71.1,3.24-.19,3,.71.58,5.37-6.44L212.19,464l17,8.29,7.1,7.89-6.71,4,33.94,25.26,47,21.31,43.8,3.55,14.6-4,23.68-1.58,1.58,6.71L369.32,548.1l3.55,10.66,20.52,2,7.89,11.44,30.39-7.5,9.47,20.92,2.37,11.44,19.73,15.79,11,1.58L498.35,620l11,15,17,11,11-2.37-8.68-16.57-8.29-12.23,12.23-9.47-5.13-9.08-4.34-10.66,7.1-5.13-1.18-13,6.31-6.71,7.1-13.81-20.13-7.89,3.16-7.89,11-11.84,5.92,3.55L559,530.4l20.26,1.6,13-6.31Z"/><polyline class="cls-14" points="546.73 115.83 546.79 125.34 548.9 135.34 544.16 143.24 524.82 147.44 524.82 153.76 516.53 158.49 507.85 162.05 501.54 169.54 498.78 179.8 491.67 186.51 479.05 186.91 482.2 191.25 496.01 199.14 494.04 209.8 489.31 212.16 489.31 224.4 483.78 235.45 485.75 254.39 481.41 264.65 473.13 261.89 466.42 255.18 460.89 250.84 443.13 259.52 434.06 266.63 441.95 274.52 455.37 281.62 454.58 284.78 441.55 296.62 442.74 303.72 453.79 302.14 471.15 295.43 491.28 293.46 494.04 297.8 494.44 303.33 468 311.61 453.39 316.35 450.63 327 451.81 330.16 466.02 339.63 480.23 351.87 480.62 360.55 475.1 372.39 469.97 389.75 471.94 401.99 483.39 400.8 503.12 402.77 515.75 413.82 530.74 416.59 537.45 426.45 559.55 428.03 582.04 445.4 600.99 447.37 615.2 451.31 636.42 451.03"/><path class="cls-11" d="M676.87,494.35a27.16,27.16,0,0,1,4.51-.35,7.47,7.47,0,0,1,5.1,1.51,4.89,4.89,0,0,1,1.59,3.81,5.36,5.36,0,0,1-1.4,3.89,7.54,7.54,0,0,1-5.56,2,8.09,8.09,0,0,1-1.89-.16v7.29h-2.35Zm2.35,8.77a7.89,7.89,0,0,0,1.94.19c2.83,0,4.56-1.38,4.56-3.89s-1.7-3.56-4.29-3.56a9.82,9.82,0,0,0-2.21.19Z"/><path class="cls-11" d="M695.53,506.61l-1.89,5.72h-2.43l6.18-18.19h2.83l6.21,18.19h-2.51L702,506.61Zm6-1.83-1.78-5.24c-.4-1.19-.67-2.27-.94-3.32h0c-.27,1.08-.57,2.19-.92,3.29L696,504.77Z"/><path class="cls-11" d="M710.46,494.38A24.44,24.44,0,0,1,715,494c2.51,0,4.13.46,5.26,1.48a4.53,4.53,0,0,1,1.43,3.46,4.78,4.78,0,0,1-3.43,4.64v.08c1.4.49,2.24,1.78,2.67,3.67a29,29,0,0,0,1.4,5H719.9a23.46,23.46,0,0,1-1.21-4.35c-.54-2.51-1.51-3.46-3.64-3.54h-2.21v7.88h-2.35Zm2.35,8.29h2.4c2.51,0,4.1-1.38,4.1-3.46,0-2.35-1.7-3.37-4.18-3.4a9.69,9.69,0,0,0-2.32.22Z"/><path class="cls-11" d="M729.28,506.61l-1.89,5.72H725l6.18-18.19H734l6.21,18.19H737.7l-1.94-5.72Zm6-1.83-1.78-5.24c-.41-1.19-.67-2.27-1-3.32h0c-.27,1.08-.57,2.19-.92,3.29l-1.78,5.26Z"/><path class="cls-11" d="M758.06,511.52a17,17,0,0,1-5.59,1,8.54,8.54,0,0,1-9.34-9.18c0-5.43,3.75-9.39,9.85-9.39a11.24,11.24,0,0,1,4.53.84L757,496.7a9.43,9.43,0,0,0-4-.78c-4.43,0-7.32,2.75-7.32,7.31s2.78,7.34,7,7.34a7.66,7.66,0,0,0,3.13-.49v-5.43h-3.7v-1.89h6Z"/><path class="cls-11" d="M765.35,494.14v10.77c0,4.08,1.81,5.8,4.24,5.8,2.7,0,4.43-1.78,4.43-5.8V494.14h2.38v10.61c0,5.59-2.94,7.88-6.88,7.88-3.72,0-6.53-2.13-6.53-7.77V494.14Z"/><path class="cls-11" d="M784.76,506.61l-1.89,5.72h-2.43l6.18-18.19h2.83l6.21,18.19h-2.51l-1.94-5.72Zm6-1.83L789,499.54c-.4-1.19-.67-2.27-.94-3.32h0c-.27,1.08-.57,2.19-.92,3.29l-1.78,5.26Z"/><path class="cls-11" d="M803.74,512.33v-7.72L798,494.14h2.67l2.56,5c.7,1.38,1.24,2.48,1.81,3.75h0c.51-1.19,1.13-2.38,1.84-3.75l2.62-5h2.67l-6.1,10.45v7.75Z"/><path class="cls-12" d="M252.38,399.86a15.19,15.19,0,0,1,2.86-.25,5,5,0,0,1,3.33.88,2.54,2.54,0,0,1,1,2.14,2.88,2.88,0,0,1-2,2.66h0a3.13,3.13,0,0,1,2.5,3,3.27,3.27,0,0,1-1,2.43c-.85.77-2.21,1.13-4.2,1.13a18.28,18.28,0,0,1-2.43-.14Zm1.57,5h1.42c1.66,0,2.63-.86,2.63-2,0-1.42-1.08-2-2.67-2a6.72,6.72,0,0,0-1.39.11Zm0,5.82a8.35,8.35,0,0,0,1.31.07c1.62,0,3.12-.59,3.12-2.36S257,406,255.24,406h-1.3Z"/><path class="cls-12" d="M272.51,405.64c0,4.18-2.54,6.39-5.64,6.39s-5.46-2.48-5.46-6.16c0-3.85,2.39-6.37,5.64-6.37S272.51,402,272.51,405.64Zm-9.42.2c0,2.59,1.41,4.92,3.87,4.92s3.89-2.29,3.89-5c0-2.41-1.26-4.93-3.87-4.93s-3.89,2.34-3.89,5Z"/><path class="cls-12" d="M284.55,413.62c-1.64-.43-3.24-.92-4.64-1.4a2.33,2.33,0,0,0-.74-.18c-2.88-.11-5.35-2.23-5.35-6.14s2.38-6.39,5.65-6.39,5.44,2.56,5.44,6.14c0,3.11-1.44,5.11-3.46,5.82v.07c1.21.31,2.52.59,3.55.77Zm-1.3-7.9c0-2.43-1.26-4.93-3.83-4.93s-3.94,2.45-3.93,5.08,1.41,4.9,3.85,4.9,3.91-2.29,3.91-5.06Z"/><path class="cls-12" d="M288.51,399.7v7.18c0,2.72,1.21,3.87,2.83,3.87,1.8,0,3-1.19,3-3.87V399.7h1.58v7.08c0,3.73-2,5.26-4.59,5.26s-4.36-1.42-4.36-5.19V399.7Z"/><path class="cls-12" d="M304.87,406.14h-4.72v4.38h5.26v1.31h-6.82V399.7h6.55V401h-5v3.84h4.72Z"/><path class="cls-12" d="M307.44,399.86a16.32,16.32,0,0,1,3-.25,5,5,0,0,1,3.51,1,3,3,0,0,1,1,2.3,3.19,3.19,0,0,1-2.29,3.1v0a3,3,0,0,1,1.78,2.45,19.3,19.3,0,0,0,.94,3.33h-1.62a15.75,15.75,0,0,1-.81-2.9c-.36-1.67-1-2.3-2.43-2.36H309v5.26h-1.57Zm1.57,5.53h1.6c1.67,0,2.74-.92,2.74-2.3,0-1.57-1.13-2.25-2.79-2.27A6.47,6.47,0,0,0,309,401Z"/><path class="cls-12" d="M327.5,405.64c0,4.18-2.54,6.39-5.64,6.39s-5.46-2.48-5.46-6.16c0-3.85,2.39-6.37,5.64-6.37S327.5,402,327.5,405.64Zm-9.42.2c0,2.59,1.41,4.92,3.87,4.92s3.89-2.29,3.89-5c0-2.41-1.26-4.93-3.87-4.93s-3.89,2.34-3.89,5Zm6.5-8.93L322.29,399H321l1.67-2.09Z"/><path class="cls-12" d="M329.53,411.83V399.7h1.71l3.89,6.14a34.34,34.34,0,0,1,2.18,3.94h0c-.14-1.62-.18-3.1-.18-5V399.7h1.48v12.14H337l-3.85-6.16a38.49,38.49,0,0,1-2.27-4h0c.09,1.53.13,3,.13,5v5.19Z"/></svg>