<?xml version="1.0" encoding="utf-8"?>
<!-- Generator: Adobe Illustrator 21.0.0, SVG Export Plug-In . SVG Version: 6.00 Build 0)  -->
<svg version="1.1" id="ECORREGIONES_GLOBAL" xmlns="http://www.w3.org/2000/svg" xmlns:xlink="http://www.w3.org/1999/xlink"
	 x="0px" y="0px" viewBox="0 0 848 855" style="enable-background:new 0 0 848 855;" xml:space="preserve">
<style type="text/css">
	.st0{display:none;fill:#F3F3F5;}
	.st1{opacity:0.5;fill:#F1A21E;enable-background:new    ;}
	.st2{fill:#E2E4E7;}
	.st3{opacity:0.5;}
	.st4{fill:#94BB1E;}
	.st5{opacity:0.5;fill:#0098A6;enable-background:new    ;}
	.st6{fill:#0098A6;}
	.st7{opacity:0.5;fill:#B71765;enable-background:new    ;}
	.st8{fill:none;stroke:#C2C3C9;stroke-width:0.5;stroke-linecap:round;stroke-linejoin:round;}
	.st9{fill:none;stroke:#FFFFFF;stroke-width:2;stroke-linecap:round;stroke-linejoin:round;stroke-dasharray:0,5;}
	.st10{fill:none;stroke:#87868A;stroke-width:2;stroke-miterlimit:10;}
	.st11{fill:#312E2A;}
	.st12{fill:#FFFFFF;}
	.st13{fill:none;stroke:#0098A6;stroke-width:2;stroke-miterlimit:10;}
	.st14{fill:none;stroke:#87868A;stroke-width:0.5;stroke-linecap:round;stroke-linejoin:round;}
</style>
<title>zoom_3_eng</title>
<rect class="st0" width="848" height="855"/>
<path class="st1" d="M587.9,513l-13.8-4.7l-17-5.5l-1.1-22.5l-23.7-0.4l-11.4-6.7l-11.9-5.5l4.7-22.9l4.3-5.9l-5.9-4.3l0.8-8.7
	l9.1-0.4l8.7-8.8l6.3,9.2h0l-6.3-9.2l-15-2.8l-12.6-11l-19.7-2l-11.4,1.2l-2-12.2l5.1-17.4l5.5-11.8l-0.4-8.7L466,339.6l-14.2-9.5
	l-1.2-3.2l2.8-10.7l14.6-4.7l26.4-8.3l-0.4-5.5l-2.8-4.3l-20.1,2l-17.4,6.7l-11,1.6l-1.2-7.1l13-11.8l0.8-3.2l-13.4-7.1l-7.9-7.9
	l9.1-7.1l17.8-8.7l5.5,4.3l6.7,6.7l8.3,2.8l4.3-10.3l-2-18.9l5.5-11v-12.3l4.7-2.4l2-10.7l-13.8-7.9l-3.2-4.3l12.6-0.4l7.1-6.7
	l2.8-10.3l6.3-7.5l8.7-3.6l8.3-4.7v-5.6l-4.8,1.4h-20l-7.4-4.7l-23.1-2.6l-11.6-6.8l-11,3.7l-13.7-1.6l-7.5-8.4l-11-10.5l-2.1,8.9
	l-1.1,11.6h-19.5l-6.8,6.3l-5.3-5.2l-5.3-7.4l-4.2,6.8l-4.7,16.8h-8.4l-20.5-16.8l-26.3-7.4l-13.7,4.2l-10.5,3.7l-8.4-5.8L260,122.7
	l23-4.6l-60.5,10.8l-19.2,50.3l0.5-0.8l15.8,0.4l21.7,6.7l11.4,10.7l26.5,4.8l-8.7,7.1l-1.6,15.3l-21.4,1.6l5.1,10.7l17.4,19.3
	l1.2,9.9l-10.3,13.8l-15.4-9.1l-14.2,9.5l-14.6,7.9l-18.9-6.3l-14.2-5.5l-12.6-2.3l0.8,17.5l-35.3,130.8l0.6,2.4l1.3,1l1.5,2.1
	l1.2,1.2l1.3,1.6c0,0,2.2,0.7,2.2,0.9s2.1,2,2.1,2l2.9,1.3l3.7,1.1l1.9,1.1c0,0,1.6,0.9,1.6,1.1c0.3,0.6,0.6,1.2,1,1.7l1,1.4
	l1.5,2.5l2.1,3l5.2-0.1l1.9,0.1h6.8l-0.7,2.7l1,1l1.8-1.1l0.7,1.7l2.2,1.8l-1,3.9l-1.2,3.5l2.5,2.3l1.1-1l2.3,1.7l0.1,3.2l-0.2,3
	l0.7,0.6l5.4-6.4l21.3,1.6l17,8.3l7.1,7.9l-6.7,4l33.9,25.3l47,21.3l43.8,3.5l14.6-4l23.7-1.6l1.6,6.7l-24.9,12.6l3.5,10.7l20.5,2
	l7.9,11.4l30.4-7.5l9.5,20.9l2.4,11.4l19.7,15.8l11,1.6l24.1,5.6l11,15l17,11l11-2.4l-8.7-16.6l-8.3-12.2l12.2-9.5l-5.1-9.1
	l-4.3-10.7l7.1-5.1l-1.2-13l6.3-6.7l7.1-13.8l-20.1-7.9l3.2-7.9l11-11.8l5.9,3.5l16.6,7.5l20.3,1.6l13-6.3L587.9,513z"/>
<path class="st2" d="M499.5,86.1l93.1,58.2l0.1,0.8l1.6,10.3l2.6,18.6l-2.3,8.1l4.8,2.8l4.1,17.9l6.5,4.8l2.3,6.3l-3.9,5.7l5,14.1
	l-0.7,10.8l7.4-8l6.3,10l-7.5-0.8l-6,6.6l11.2-0.7l3.8,6.4l-7.7,3.3l10.1,12.2l-4.2,6.8l1.2,13.9l-6.9,10.6l6.8,5.1l-11.6,23.6
	l6,4.8l-2,5.1l4,6.1l-4.6,5.6l1.5,14.2l-3.3,11.1l-4.2,6.9l2.4,26.8l10.7,0.7l0.1,7.5l5,0.8l0.7,18.2l3.7,4.9l2,13.1l-10.5-0.3
	l-3,5.4l9.8,9.1l-0.1,8.3l6.3,8.5l-0.6,7l3.9,7.1l10.4,0.1l-1.6,7.5l15.8,13.4l-4.4,5.2l0.7,7.7l6.1,0.3L671,551l-6.1,3l1.5,4.1
	l24.5,14.5l-1.4,18.3l-5.6,2.6l10.5,14.2l0.1,11.2l-4.3,0.4l-1.2,6.1l7.2,0.3l0.6,12.5l4.9,0.1l0.3,40.6l-12.2,12.1L689,699l7.4,4.8
	l-2,6.3l-8.3,0.4l-0.2,6.7l-12.4,8l-11,0.7l1,8.8l-2.1,5.6l-16,7.7l-0.3,0.2v-0.7l0.1-2.9l-5.1-7.6l-0.2-2.2l-2.2-4.5l-4.6-2.1
	l-2.7-3.9l-3-2.9l-6.6-0.2l-3.3,0.6l-2.2-0.9l-0.7-3.4h-5l-2.1-0.2l-0.9-2.2l-3.6-0.4l-2.3-2.4l-1.1-1.9l-3.1-0.6l-1.5-1.6l-1.5-2.2
	l-2-1l-4.4,2.5l-3.8,4.1l-2,1.1l-1.9-1.5l-3.3-3.5l-1.4-1.9l-2.2-1.7l-0.4-3l-4.7-3.3l-4.9-1.6l-1.8-0.6l-1.1-0.3l-2.4-0.4L555,694
	l-1.4,0.5l-3.3-0.5l-2.3,0.7l-1.3,0.1l-1.1-0.3l-1.2-1.8l-1.6-3.6h-2.1l-4.2-0.1l-3-1.1l-4.5-3.7l-2.2,0.1l-3-3l-2.6-1.6l-3.4-2.7
	l-2.3-0.1l-3.5-0.5l-1.6-1.8l-2-1l-2.7-1.1h-2.4l-1.7-0.1l-1.5-1.7c-0.6-0.4-1.1-0.9-1.5-1.4c-0.4-0.5-0.9-0.9-1.4-1.3l-3.2-2.4
	l-3.7-0.8l-1.2-2.4l-0.8-1.2h-2.6l-2.2-1.5l-2-0.9l-1.5-0.3l-2.4-4.2l-1.1-2.5l-1.1-1.5l-1.5-0.2H472l-1.2-2.3l-1.6-0.1l-1-1.6
	l-0.4-1.6l-2.1-1.1l0.2-1.5l-57.3-34.4c-0.4-0.1-0.9-0.1-1.3-0.2c-0.2,0-0.4,0-0.6,0.1c-0.8,0.3-1.6,0.7-2.3,1.1l-3.1,1l-2.7,1
	l-6.3,0.7l-4.1,0.3l-3.1,0.6l-3.2-0.3l-2.7-1.5l-2.3,0.2l-1.2,0.2l-1.6-2l-1.7-1.5l-3.4-1.3l-2.5-1.1l-2.3-1.2l-2.6-0.1l-1.3,0.8
	l-3.5-0.6l-1.3-0.2l-2.1-0.3l-0.6-2.1l-0.1-3l-1.8-0.6l-5,0.1l-3.6-1.6l-5.5-1.6l-3.5-0.1l-3.5-0.5l-2.4,0.1l-5-3.1l-3.7-2.5l-1-0.6
	l-1.3,1l-2.8-0.6l-1,0.9l-3.9-4.9l-0.5-3l-3-3.6l-3-2.9l-2.3-3.4l0.5-4.8l-1.8-2.1l-3-1.2l-2.2-1.7l-0.9-1.8l-4.8,0.4l-2.4-1.1
	l-2.7-2.5l-0.9-2.4l-1.4-1.5l-2.2-0.2l-2.7-0.2V550l-2.6,1l-5.4-2.3l-2-2l-4.1,0.1l-4-5.2l-0.3-3.4l-4.9-0.5l-1-3l-1.6-1l-2.3-2.1
	l-4.5-0.1l-3-0.2l-3.2-4.2l-2.4-0.3l-1-6.6l-2.1-0.4l-3.9-0.7l-2.7-2.8l-0.5-1.1l-2.3-4.9l-3.4-0.2l-1.9-2.2l-1.4,0.8l-2-1l-2.3-2.7
	l-2.3-1l-1-1.6l-1.6-1.7l-0.3-7.4l-2-0.2l-1.4-5l-3.9-3.2l-0.6-2.6l-1-1l-2.3,0.8l0.4-1.8l-2.2-1l-1.2-3.3l-2.2-0.9l0.2-1.6
	l-1.9-2.4l-2.5-2l0.2-3l-0.1-3.2l-2.3-1.7l-1.1,1l-2.5-2.3l1.1-3.5l1-3.9l-2.1-1.8l-0.7-1.7l-1.8,1.1l-1-1l0.7-2.7h-6.8l-1.9-0.1
	l-5.2,0.1l-2.1-3l-1.5-2.5l-1-1.4c-0.4-0.5-0.7-1.1-1-1.7c0-0.3-1.6-1.1-1.6-1.1l-1.9-1.1l-3.7-1.1l-2.9-1.3c0,0-2.1-1.7-2.1-2
	s-2.2-0.9-2.2-0.9l-1.3-1.6l-1.2-1.2l-1.5-2.1l-1.3-1l-0.6-2.4l35.3-130.9l-2.5-57.9l33.5-51.8l19.8-51.8l114.8-20.6L405,88.1
	L499.5,86.1 M499.5,75.1h-0.2l-94.5,2c-1,0-2,0.2-3,0.5l-66.9,20.4l-114.2,20.5c-3.8,0.7-7,3.3-8.3,6.9L192.9,176L160,226.9
	c-1.2,1.9-1.9,4.2-1.8,6.5l2.5,56.2l-34.8,129.3c-0.5,1.8-0.5,3.6-0.1,5.4l0.6,2.4c0.6,2.4,2,4.6,3.9,6.1l0.5,0.7
	c0.4,0.5,0.8,1,1.2,1.4l0.8,0.8l0.9,1.1c1.2,1.4,2.7,2.6,4.4,3.3c0.6,0.5,1.1,1,1.6,1.4c0.7,0.6,1.5,1.1,2.3,1.5l2.9,1.3
	c0.4,0.2,0.9,0.4,1.3,0.5l2.3,0.7v0l0.3,0.4l0.7,0.9l1.2,2c0.2,0.3,0.3,0.5,0.5,0.8l2.1,3c2.1,2.9,5.4,4.6,9,4.6h0.3l4.7-0.1l0.9,0
	l0.1,0.1c-0.9,3.9,0.3,7.9,3.3,10.6l2.3,2.1c0.3,3,1.7,5.7,4,7.6l0.5,0.4c0.7,2.4,2.1,4.4,4.1,5.9c1.3,3.7,4,6.7,7.5,8.4
	c0.4,0.4,0.7,0.7,1.1,1.1l1.3,1.1l0.5,1.8c0.4,1.3,1,2.6,1.8,3.7l0.1,1.4c0.1,2.7,1.2,5.2,3,7.1l0.8,0.8l0.3,0.5
	c1.2,2,3,3.6,5.1,4.5l0.6,0.7c0.9,1.1,2,1.9,3.3,2.6l2,1c0.8,0.4,1.6,0.7,2.5,0.9c0.6,0.4,1.2,0.7,1.9,1l0.1,0.2
	c0.5,1.3,1.3,2.4,2.2,3.4l2.7,2.8c1.2,1.2,2.7,2.2,4.3,2.8c0.9,3.5,3.5,6.3,6.9,7.6l0.7,0.9c1.9,2.5,4.8,4,8,4.3l3,0.2h0.2
	c1.2,2.6,3.4,4.5,6.1,5.5l0.2,0.3l4,5.2c2.1,2.7,5.3,4.3,8.6,4.3c0.6,0.4,1.2,0.7,1.9,1l5.4,2.3c1.7,0.5,3.5,1,5.2,1.5
	c0.4,0.5,0.8,1,1.3,1.5l2.7,2.5c0.8,0.8,1.7,1.4,2.7,1.9l2.4,1.1c1.5,0.7,3.1,1.1,4.8,1.1l0,0l1,0.8l0.2,0.1
	c0.1,1.9,0.7,3.8,1.8,5.4l2.3,3.4c0.4,0.7,0.9,1.3,1.5,1.8l2.5,2.5l0.7,0.8l0,0c0.3,1.9,1.1,3.7,2.3,5.2l3.9,4.9
	c2.7,3.4,7.1,4.8,11.3,3.8h0.8l0.2,0.2l0.2,0.1l5,3.1c1.8,1.1,3.8,1.7,5.9,1.7h0.4l1.4-0.1l2.6,0.3c0.4,0.1,0.8,0.1,1.2,0.1l2.2,0.1
	l3.3,0.9l2.9,1.3c0.7,0.3,1.5,0.6,2.3,0.7c1.7,3.1,4.7,5.3,8.2,5.7l2,0.3l1.2,0.2l3.4,0.5c1.3,0.2,2.6,0.2,3.9-0.1l2,0.9l0.6,0.3
	l1.4,0.5l0.8,1c2.3,3,6.1,4.6,9.9,4.2c1.2,0.6,2.6,1,4,1.2l3.2,0.3c0.3,0,0.7,0,1,0c0.7,0,1.3-0.1,2-0.2l2.5-0.5l3.5-0.2h0.4
	l6.3-0.7c1-0.1,1.9-0.3,2.9-0.7l2.4-0.9l1.9-0.6l49.2,29.6c0.7,1.2,1.6,2.3,2.7,3.2l0.8,1.3c2.4,2.8,5.3,5.2,8.5,7.1l2,3.5
	c1.6,2.8,4.4,4.8,7.5,5.4h0.3l1.2,0.8c3,1.6,5.9,3.4,8.6,5.4l1.4,0.3l1,0.7c0.7,0.8,1.4,1.5,2.2,2.1l0.9,1.1
	c1.9,2.2,4.7,3.5,7.6,3.7l1.7,0.1h0.6h0.1l0.2,0.1l0.1,0.2c1.7,2,4.1,3.2,6.7,3.6l3.2,0.4l0.8,0.6c0.3,0.2,0.6,0.4,0.9,0.6l1.5,1
	l2.2,2.2c1.6,1.6,3.7,2.7,5.9,3.1l1.5,1.2c0.9,0.8,2,1.4,3.2,1.8l3,1.1c1.1,0.4,2.2,0.7,3.4,0.8l0.5,0.7c1.4,2.1,3.6,3.6,6,4.3
	l1.1,0.3c1,0.3,2,0.4,3,0.4h0.6l1.3-0.1c0.8,0,1.7-0.2,2.5-0.4l0,0l1,0.1c0.5,0.1,1,0.1,1.6,0.1h0.6c0.4,0.1,0.8,0.2,1.3,0.3
	l1.6,0.3l0.3,0.1l1.7,0.5l2.8,1c0.7,2,2,3.8,3.6,5.2l1,0.8l0.6,0.7c0.3,0.3,0.5,0.7,0.8,1l3.3,3.5c0.4,0.4,0.8,0.8,1.2,1.1l1.9,1.5
	c3.5,2.7,8.3,3.1,12.2,0.8l2-1.1c0.9-0.5,1.7-1.1,2.4-1.9c0.7,0.4,1.4,0.7,2.1,0.9l1.9,2c3.6,2.4,7.4,4.4,11.4,5.9l0.7,0.1
	c1.1,1.3,2.6,2.2,4.1,2.8l2.2,0.9c1.9,0.7,3.9,0.9,5.9,0.6l2.3-0.4h0.9l1.4,2.1c1.1,1.7,2.7,3,4.6,3.8l0.7,0.3
	c0.2,1.6,0.8,3.2,1.8,4.6l3.2,4.7v0.1c-0.2,6.1,4.6,11.1,10.7,11.3c1.8,0,3.5-0.3,5.1-1.1l0.3-0.2l16-7.7c2.5-1.2,4.5-3.4,5.5-6
	l2.1-5.6c0.3-0.8,0.5-1.6,0.6-2.4c1.8-0.2,3.5-0.7,5.1-1.7l12.4-8c2-1.3,3.5-3.2,4.3-5.5c4.1-0.7,7.4-3.6,8.7-7.5l2-6.3
	c1.5-4.7-0.4-9.8-4.5-12.5l-0.3-0.2l7.8-7.7c2.1-2.1,3.3-4.9,3.3-7.9l-0.3-40.6c0-3.8-2-7.3-5.2-9.3l-0.2-3.7
	c-0.1-1.9-0.7-3.8-1.7-5.5c0-0.3,0-0.7,0-1l-0.1-11.2c0-2.3-0.8-4.6-2.2-6.4l-3.9-5.3c0.6-1.3,1-2.7,1.1-4.1l1.4-18.3
	c0.3-4.2-1.8-8.2-5.4-10.3l-15.1-8.9c0.3-1.1,0.5-2.3,0.5-3.4l-0.2-12.7c-0.1-3.1-1.4-6-3.7-8c2.3-4.5,1.2-10.1-2.7-13.4l-10.8-9.1
	l0.2-1c1.3-5.9-2.5-11.8-8.5-13.1c-0.7-0.2-1.4-0.2-2.2-0.2h-3.1l0.2-2.3c0.2-2.7-0.6-5.3-2.2-7.5l-4.1-5.5l0.1-4.5
	c0-1.8-0.4-3.6-1.2-5.2c3.5-2.4,5.4-6.6,4.8-10.8l-2-13.1c-0.3-1.8-1-3.5-2.1-5l-1.6-2.3l-0.6-14.7c-0.1-3.7-2.1-7-5.2-8.9
	c-0.6-5.3-4.9-9.5-10.2-9.8l-1.3-0.1l-1.3-13.9l2.3-3.8c0.5-0.8,0.9-1.7,1.1-2.6l3.3-11.1c0.4-1.4,0.5-2.8,0.4-4.3l-1-9.6l1.6-2
	c3.1-3.7,3.3-9,0.6-13.1l-0.8-1.3c1.5-4,0.5-8.6-2.6-11.6l7.7-15.7c2-4.2,1.3-9.1-2-12.5l1.4-2.1c1.3-2.1,2-4.5,1.8-6.9l-0.9-10.3
	l2.3-3.7c2.5-4,2.1-9.2-0.9-12.8l-1.8-2.2c2.4-3.5,2.6-8.2,0.4-11.9l-0.9-1.4c1.5-3.4,1.2-7.3-0.7-10.4l-6.3-10
	c-1.6-2.6-4.2-4.3-7.2-4.9l-1.6-4.5l0.7-1c2-2.9,2.5-6.7,1.3-10l-2.3-6.3c-0.7-2-2.1-3.8-3.8-5.1l-3.2-2.4l-3.2-13.9
	c-0.4-1.9-1.4-3.7-2.7-5.1l0.1-0.3c0.4-1.5,0.5-3,0.3-4.5l-2.6-18.5v-0.1l-1.6-10.3l-0.1-0.8c-0.5-3.2-2.3-6-5-7.7l-93.1-58.2
	C503.6,75.6,501.6,75.1,499.5,75.1L499.5,75.1z"/>
<g class="st3">
	<path class="st4" d="M170.9,445.6h-1.4l-1.9-0.1l-5.2,0.1l-2.1-3l-1.5-2.5l-1-1.4c-0.4-0.5-0.7-1.1-1-1.7c0-0.3-1.6-1.1-1.6-1.1
		l-1.9-1.1l-3.7-1.1l-2.9-1.3c0,0-2.1-1.7-2.1-2s-2.2-0.9-2.2-0.9l-1.3-1.6l-1.2-1.2l-1.5-2.1l-1.3-1l-0.5-2.3l-0.1,0.5l0.6,2.4
		l1.3,1l1.5,2.1l1.2,1.2l1.3,1.6c0,0,2.2,0.7,2.2,0.9s2.1,2,2.1,2l2.9,1.3l3.7,1.1l1.9,1.1c0,0,1.6,0.9,1.6,1.1
		c0.3,0.6,0.6,1.2,1,1.7l1,1.4l1.5,2.5l2.1,3l5.2-0.1l1.9,0.1h6.6l0.2-0.7L170.9,445.6z"/>
	<polygon class="st4" points="179,449.9 178.4,448.2 176.6,449.3 175.6,448.4 175.5,449 176.5,450 178.3,448.9 179,450.6 
		181.1,452.3 181.2,451.7 	"/>
	<path class="st4" d="M636.8,451.9l1.1,7.1l-10.5-0.3l-3,5.4l9.8,9.1l-0.1,8.3l6.3,8.5l-0.6,7l3.9,7.1l10.4,0.1l-1.6,7.5l15.8,13.4
		l-4.4,5.2l0.7,7.7l6.1,0.3L671,551l-6.1,3l1.5,4.1l24.5,14.5l-1.4,18.3l-5.6,2.6l10.5,14.2l0.1,11.2l-4.3,0.4l-1.2,6.1l7.2,0.3
		l0.6,12.5l4.9,0.1l0.3,40.6l-12.2,12.1L689,699l7.4,4.8l-2,6.3l-8.3,0.4l-0.2,6.7l-12.4,8l-11,0.7l1,8.8l-2.1,5.6l-16,7.7l-0.3,0.2
		v-0.7l0.1-2.9l-5.1-7.6l-0.2-2.2l-2.2-4.5l-4.6-2.1l-2.7-3.9l-3-2.9l-6.6-0.2l-3.3,0.6l-2.2-0.9l-0.7-3.4h-5l-2.1-0.2l-0.9-2.2
		l-3.6-0.4l-2.3-2.4l-1.1-1.9l-3.1-0.6l-1.5-1.6l-1.5-2.2l-2-1l-4.4,2.5l-3.8,4.1l-2,1.1l-1.9-1.5l-3.3-3.5l-1.4-1.9l-2.2-1.7
		l-0.4-3l-4.7-3.3l-4.9-1.6l-1.8-0.6l-1.1-0.3l-2.4-0.4L555,694l-1.4,0.5l-3.3-0.5l-2.3,0.7l-1.3,0.1l-1.1-0.3l-1.2-1.8l-1.6-3.6
		h-2.1l-4.2-0.1l-3-1.1l-4.5-3.7l-2.2,0.1l-3-3l-2.6-1.6l-3.4-2.7l-2.3-0.1l-3.5-0.5l-1.6-1.8l-2-1l-2.7-1.1h-2.4l-1.7-0.1l-1.5-1.7
		c-0.6-0.4-1.1-0.9-1.5-1.4c-0.4-0.5-0.9-0.9-1.4-1.3l-3.2-2.4l-3.7-0.8l-1.2-2.4l-0.8-1.2h-2.6l-2.2-1.5l-2-0.9l-1.5-0.3l-2.4-4.2
		l-1.1-2.5l-1.1-1.5l-1.5-0.2H472l-1.2-2.3l-1.6-0.1l-1-1.6l-0.4-1.6l-2.1-1.1l0.2-1.5l-57.3-34.4c-0.6-0.2-1.3-0.2-1.9-0.1
		c-0.8,0.3-1.6,0.7-2.3,1.1l-3.1,1l-2.7,1l-6.3,0.7l-4.1,0.3l-3.1,0.6l-3.2-0.3l-2.7-1.5l-2.3,0.2l-1.2,0.2l-1.6-2l-1.7-1.5
		l-3.4-1.3l-2.5-1.1l-2.3-1.2l-2.6-0.1l-1.3,0.8l-3.5-0.6l-1.3-0.2l-2.1-0.3l-0.6-2.1l-0.1-3l-1.8-0.6l-5,0.1l-3.6-1.6l-5.5-1.6
		l-3.5-0.1l-3.5-0.5l-2.4,0.1l-5-3.1l-3.7-2.5l-1-0.6l-1.3,1l-2.8-0.6l-1,0.9l-3.9-4.9l-0.5-3l-3-3.6l-3-2.9l-2.3-3.4l0.5-4.8
		l-1.8-2.1l-3-1.2l-2.2-1.7l-0.9-1.8l-4.8,0.4l-2.4-1.1l-2.7-2.5l-0.9-2.4l-1.4-1.5l-2.2-0.2l-2.7-0.2V550l-2.6,1l-5.4-2.3l-2-2
		l-4.1,0.1l-4-5.2l-0.3-3.4l-4.9-0.5l-1-3l-1.6-1l-2.3-2.1l-4.5-0.1l-3-0.2l-3.2-4.2l-2.4-0.3l-1-6.6l-2.1-0.4l-3.9-0.7l-2.7-2.8
		l-0.5-1.1l-2.3-4.9l-3.4-0.2l-1.9-2.2l-1.4,0.8l-2-1l-2.3-2.7l-2.3-1l-1-1.6l-1.6-1.7l-0.3-7.4l-2-0.2l-1.4-5l-3.9-3.2l-0.6-2.6
		l-1-1l-2.3,0.8l0.4-1.8l-2.2-1l-1.2-3.3l-2.2-0.9l0.2-1.6l-1.9-2.4l-2.5-2v-0.7l0.7,0.6l5.4-6.4l21.3,1.6l17,8.3l7.1,7.9l-6.7,4
		l33.9,25.3l47,21.3l43.8,3.5l14.6-4l23.7-1.6l1.6,6.7l-24.9,12.6l3.5,10.7l20.5,2l7.9,11.4l30.4-7.5l9.5,20.9l2.4,11.4l19.7,15.8
		l11,1.6l24.1,5.5l11,15l17,11l11-2.4l-8.7-16.6l-8.3-12.2l12.2-9.5l-5.1-9.1l-4.3-10.7l7.1-5.1l-1.2-13l6.3-6.7l7.1-13.8l-20.1-7.9
		l3.2-7.9l11-11.8l5.9,3.5l16.6,7.5l20.3,1.6l13-6.3l-4.3-12.7l-13.8-4.7l-17-5.5l-1.1-22.5l-23.7-0.4l-11.4-6.7l-11.9-5.5l4.7-22.9
		l4.3-5.9l-5.9-4.3l0.8-8.7l9.1-0.4l8.7-8.8l6.3,9.2h0l-6.3-9.2l6.7,9.9l22.1,1.6l22.5,17.4l18.9,2l14.2,4l21.5-0.3L636.8,451.9z"/>
	<polygon class="st4" points="184.9,462.2 182.7,460.5 181.5,461.4 179.2,459.3 179,459.8 181.5,462.1 182.6,461.1 184.9,462.9 
		185,466 185,465.4 	"/>
	<polygon class="st4" points="268.8,121 283.1,118.1 222.6,128.9 203.4,179.2 203.7,178.8 222.6,129.2 	"/>
	<polygon class="st4" points="181.2,452.4 181.1,452.3 180.2,455.6 179,459.1 179.2,459.3 180.1,456.3 	"/>
	<polygon class="st4" points="185,466 184.9,468.4 184.9,468.4 185,466.1 	"/>
	<polygon class="st4" points="176,446.3 175.5,448.3 175.6,448.4 176.1,446.3 	"/>
	<polygon class="st4" points="171.8,290.5 136.6,421.1 136.6,421.3 171.8,290.8 	"/>
</g>
<polygon class="st5" points="171.8,290.3 171.1,272.8 183.7,275.1 197.9,280.7 216.9,287 231.5,279.1 245.7,269.6 261.1,278.7 
	271.3,264.9 270.1,255 252.8,235.7 247.7,225 269,223.5 270.5,208.1 279.2,201 252.8,196.2 241.3,185.6 219.6,178.9 203.9,178.5 
	203.7,178.8 202.8,181.1 169.3,232.9 171.8,290.5 "/>
<path class="st6" d="M176.2,445.6h-6.8l-1.9-0.1l-5.2,0.1l-2.1-3l-1.5-2.5l-1-1.4c-0.4-0.5-0.7-1.1-1-1.7c0-0.3-1.6-1.1-1.6-1.1
	l-1.9-1.1l-3.7-1.1l-2.9-1.3c0,0-2.1-1.7-2.1-2s-2.2-0.9-2.2-0.9l-1.3-1.6l-1.2-1.2l-1.5-2.1l-1.3-1l-0.5-2.3l-0.1,0.5l0.6,2.4
	l1.3,1l1.5,2.1l1.2,1.2l1.3,1.6c0,0,2.2,0.7,2.2,0.9s2.1,2,2.1,2l2.9,1.3l3.7,1.1l1.9,1.1c0,0,1.6,0.9,1.6,1.1
	c0.3,0.6,0.6,1.2,1,1.7l1,1.4l1.5,2.5l2.1,3l5.2-0.1l1.9,0.1h6.6L176.2,445.6z"/>
<polygon class="st6" points="185,466 185,465.4 184.9,462.2 182.7,460.5 181.5,461.4 179.2,459.3 179,459.8 181.5,462.1 
	182.6,461.1 184.9,462.9 "/>
<polygon class="st6" points="181.1,452.3 181.2,451.7 179,449.9 178.4,448.2 176.6,449.3 175.6,448.4 175.5,449 176.5,450 
	178.3,448.9 179,450.6 "/>
<polygon class="st6" points="546.7,117.1 546.8,125.3 548.9,135.3 544.2,143.2 524.8,147.4 524.8,148.2 520,149.6 513.6,149.6 
	500,149.6 492.6,144.8 469.4,142.2 457.9,135.3 446.8,139 433.1,137.4 425.8,129 414.7,118.5 412.6,127.4 411.6,139 404.7,139 
	392.1,139 385.3,145.3 380,140.1 374.7,132.7 370.5,139.6 365.8,156.4 357.4,156.4 336.8,139.6 310.5,132.2 296.9,136.4 
	286.3,140.1 277.9,134.3 260,122.7 268.8,121 337.4,108.7 405,88.1 499.5,86.1 546.7,115.6 "/>
<path class="st6" d="M176.2,445.6h-6.8l-1.9-0.1l-5.2,0.1l-2.1-3l-1.5-2.5l-1-1.4c-0.4-0.5-0.7-1.1-1-1.7c0-0.3-1.6-1.1-1.6-1.1
	l-1.9-1.1l-3.7-1.1l-2.9-1.3c0,0-2.1-1.7-2.1-2s-2.2-0.9-2.2-0.9l-1.3-1.6l-1.2-1.2l-1.5-2.1l-1.3-1l-0.5-2.3l-0.1,0.5l0.6,2.4
	l1.3,1l1.5,2.1l1.2,1.2l1.3,1.6c0,0,2.2,0.7,2.2,0.9s2.1,2,2.1,2l2.9,1.3l3.7,1.1l1.9,1.1c0,0,1.6,0.9,1.6,1.1
	c0.3,0.6,0.6,1.2,1,1.7l1,1.4l1.5,2.5l2.1,3l5.2-0.1l1.9,0.1h6.6L176.2,445.6z"/>
<polygon class="st6" points="185,466 185,465.4 184.9,462.2 182.7,460.5 181.5,461.4 179.2,459.3 179,459.8 181.5,462.1 
	182.6,461.1 184.9,462.9 "/>
<polygon class="st6" points="181.1,452.3 181.2,451.7 179,449.9 178.4,448.2 176.6,449.3 175.6,448.4 175.5,449 176.5,450 
	178.3,448.9 179,450.6 "/>
<polygon class="st7" points="632.2,440.9 631.5,422.8 626.5,422 626.3,414.5 615.6,413.9 613.2,387 617.3,380.1 620.6,369 
	619,354.9 623.6,349.3 619.5,343.2 621.6,338.2 615.6,333.4 627.2,309.8 620.3,304.6 627.2,294 626,280.1 630.2,273.3 620.1,261.2 
	627.8,257.9 624,251.5 612.8,252.1 618.9,245.5 626.4,246.3 620.1,236.4 612.6,244.4 613.3,233.6 608.3,219.4 612.2,213.8 
	609.9,207.5 603.4,202.7 599.3,184.8 594.5,182.1 596.8,174 594.2,155.4 592.7,145.1 592.5,144.3 547,115.8 546.7,115.8 
	546.8,125.3 548.9,135.3 544.2,143.2 524.8,147.4 524.8,153.8 516.5,158.5 507.9,162.1 501.5,169.5 498.8,179.8 491.7,186.5 
	479,186.9 482.2,191.3 496,199.1 494,209.8 489.3,212.2 489.3,224.4 483.8,235.4 485.8,254.4 481.4,264.6 473.1,261.9 466.4,255.2 
	460.9,250.8 443.1,259.5 434.1,266.6 442,274.5 455.4,281.6 454.6,284.8 441.5,296.6 442.7,303.7 453.8,302.1 471.1,295.4 
	491.3,293.5 494,297.8 494.4,303.3 468,311.6 453.4,316.4 450.6,327 451.8,330.2 466,339.6 480.2,351.9 480.6,360.5 475.1,372.4 
	470,389.8 471.9,402 483.4,400.8 503.1,402.8 515.8,413.8 530.7,416.6 537.5,426.5 559.5,428 582,445.4 601,447.4 615.2,451.3 
	636.4,451 636.6,451 635.9,445.9 "/>
<polyline class="st8" points="546.7,115.8 546.8,125.3 548.9,135.3 544.2,143.2 524.8,147.4 524.8,153.8 516.5,158.5 507.9,162.1 
	501.5,169.5 498.8,179.8 491.7,186.5 479,186.9 482.2,191.3 496,199.1 494,209.8 489.3,212.2 489.3,224.4 483.8,235.4 485.8,254.4 
	481.4,264.6 473.1,261.9 466.4,255.2 460.9,250.8 443.1,259.5 434.1,266.6 442,274.5 455.4,281.6 454.6,284.8 441.5,296.6 
	442.7,303.7 453.8,302.1 471.1,295.4 491.3,293.5 494,297.8 494.4,303.3 468,311.6 453.4,316.4 450.6,327 451.8,330.2 466,339.6 
	480.2,351.9 480.6,360.5 475.1,372.4 470,389.8 471.9,402 483.4,400.8 503.1,402.8 515.8,413.8 530.7,416.6 537.5,426.5 559.5,428 
	582,445.4 601,447.4 615.2,451.3 636.4,451 "/>
<path class="st8" d="M587.9,513l-13.8-4.7l-17-5.5l-1.1-22.5l-23.7-0.4l-11.4-6.7l-11.9-5.5l4.7-22.9l4.3-5.9l-5.9-4.3l0.8-8.7
	l9.1-0.4l8.7-8.8l6.3,9.2h0l-6.3-9.2l-15-2.8l-12.6-11l-19.7-2l-11.4,1.2l-2-12.2l5.1-17.4l5.5-11.8l-0.4-8.7L466,339.6l-14.2-9.5
	l-1.2-3.2l2.8-10.7l14.6-4.7l26.4-8.3l-0.4-5.5l-2.8-4.3l-20.1,2l-17.4,6.7l-11,1.6l-1.2-7.1l13-11.8l0.8-3.2l-13.4-7.1l-7.9-7.9
	l9.1-7.1l17.8-8.7l5.5,4.3l6.7,6.7l8.3,2.8l4.3-10.3l-2-18.9l5.5-11v-12.3l4.7-2.4l2-10.7l-13.8-7.9l-3.2-4.3l12.6-0.4l7.1-6.7
	l2.8-10.3l6.3-7.5l8.7-3.6l8.3-4.7v-5.6l-4.8,1.4h-20l-7.4-4.7l-23.1-2.6l-11.6-6.8l-11,3.7l-13.7-1.6l-7.5-8.4l-11-10.5l-2.1,8.9
	l-1.1,11.6h-19.5l-6.8,6.3l-5.3-5.2l-5.3-7.4l-4.2,6.8l-4.7,16.8h-8.4l-20.5-16.8l-26.3-7.4l-13.7,4.2l-10.5,3.7l-8.4-5.8L260,122.7
	l23-4.6l-60.5,10.8l-19.2,50.3l0.5-0.8l15.8,0.4l21.7,6.7l11.4,10.7l26.5,4.8l-8.7,7.1l-1.6,15.3l-21.4,1.6l5.1,10.7l17.4,19.3
	l1.2,9.9l-10.3,13.8l-15.4-9.1l-14.2,9.5l-14.6,7.9l-18.9-6.3l-14.2-5.5l-12.6-2.3l0.8,17.5l-35.3,130.8l0.6,2.4l1.3,1l1.5,2.1
	l1.2,1.2l1.3,1.6c0,0,2.2,0.7,2.2,0.9s2.1,2,2.1,2l2.9,1.3l3.7,1.1l1.9,1.1c0,0,1.6,0.9,1.6,1.1c0.3,0.6,0.6,1.2,1,1.7l1,1.4
	l1.5,2.5l2.1,3l5.2-0.1l1.9,0.1h6.8l-0.7,2.7l1,1l1.8-1.1l0.7,1.7l2.2,1.8l-1,3.9l-1.2,3.5l2.5,2.3l1.1-1l2.3,1.7l0.1,3.2l-0.2,3
	l0.7,0.6l5.4-6.4l21.3,1.6l17,8.3l7.1,7.9l-6.7,4l33.9,25.3l47,21.3l43.8,3.5l14.6-4l23.7-1.6l1.6,6.7l-24.9,12.6l3.5,10.7l20.5,2
	l7.9,11.4l30.4-7.5l9.5,20.9l2.4,11.4l19.7,15.8l11,1.6l24.1,5.6l11,15l17,11l11-2.4l-8.7-16.6l-8.3-12.2l12.2-9.5l-5.1-9.1
	l-4.3-10.7l7.1-5.1l-1.2-13l6.3-6.7l7.1-13.8l-20.1-7.9l3.2-7.9l11-11.8l5.9,3.5l16.6,7.5l20.3,1.6l13-6.3L587.9,513z"/>
<path class="st9" d="M206.7,173.7l8.4,4.4c0,0,3.8,1.8,4.5,2.3s9.4,0,9.4,0l14.6-3.4l34.3,12.7l42.7,19.4l26.2,11L371,223l25.8,8
	c0,0,15,6.8,22.5,5.5l2,17.8l6.3,7.6v12.3l3.9,5.9l4.6,3.4v19l4.2,10.6l-5.1,6L424,329.2c0,0-3.8,69.4-4.7,67.7s57,0,57,0l16.5,4.9
	L453,427.5l-0.9,11.2h-8.5l-5.1,3.6l-0.4,7l-5.1,10.6l-16.1,22.4l2.2,34.3l-5.6,12.7l-3.4,22.4l-7.2,4.2l-8.9,4.5l-15.2,4.8
	l-18.9,4.2l-6.9-2.1l-0.9,7.2h-7.6l-2.5,8.5l-9.1,11"/>
<polyline class="st9" points="491.9,402.3 503.1,402.8 576.1,407.8 594.5,407.8 599.3,427.5 631.1,428.1 "/>
<path class="st10" d="M645.2,747.3l0.1-2.9l-5.1-7.6l-0.2-2.2l-2.2-4.5l-4.7-2.1l-2.7-3.9l-3-2.9l-6.6-0.2l-3.3,0.6l-2.2-0.9
	l-0.7-3.4h-5l-2.1-0.2l-0.9-2.2l-3.6-0.4l-2.3-2.4l-1.1-1.9l-3.1-0.6l-1.5-1.6l-1.5-2.2l-2-1l-4.4,2.5l-3.8,4.1l-2,1.1l-1.9-1.5
	l-3.3-3.5l-1.4-1.9l-2.2-1.7l-0.4-3l-4.7-3.3l-4.9-1.6l-1.8-0.6l-1.1-0.3l-2.4-0.4L555,694l-1.4,0.5l-3.3-0.5l-2.3,0.7l-1.3,0.1
	l-1.1-0.3l-1.2-1.8l-1.6-3.6h-2.1l-4.2-0.1l-3-1.1l-4.5-3.7l-2.2,0.1l-3-3l-2.6-1.6l-3.4-2.7l-2.3-0.1l-3.5-0.5l-1.6-1.8l-2-1
	l-2.7-1.1h-2.4l-1.7-0.1l-1.5-1.7c-0.6-0.4-1.1-0.9-1.5-1.4c-0.4-0.5-0.9-0.9-1.4-1.3l-3.2-2.4l-3.7-0.8l-1.2-2.4l-0.8-1.2h-2.6
	l-2.2-1.5l-2-0.9l-1.5-0.3l-2.4-4.2l-1.1-2.5l-1.1-1.5l-1.5-0.2H472l-1.2-2.3l-1.6-0.1l-1-1.6l-0.4-1.6l-2.1-1.1l0.2-1.5l-57.3-34.4
	c-0.6-0.2-1.3-0.2-1.9-0.1c-0.8,0.3-1.6,0.7-2.3,1.1l-3.1,1l-2.7,1l-6.3,0.7l-4.1,0.3l-3.1,0.6l-3.2-0.3l-2.7-1.5l-2.3,0.2l-1.2,0.2
	l-1.6-2l-1.7-1.5l-3.4-1.3l-2.5-1.1l-2.3-1.2l-2.6-0.1l-1.3,0.8l-3.5-0.6l-1.3-0.2l-2.1-0.3l-0.6-2.1l-0.1-3l-1.8-0.6l-5,0.1
	l-3.6-1.6l-5.5-1.6l-3.5-0.1l-3.5-0.5l-2.4,0.1l-5-3.1l-3.7-2.5l-1-0.6l-1.3,1l-2.8-0.6l-1,0.9l-3.9-4.9l-0.5-3l-3-3.6l-3-2.9
	l-2.3-3.4l0.5-4.8l-1.8-2.1l-3-1.2l-2.2-1.7l-0.9-1.8l-4.8,0.4l-2.4-1.1l-2.7-2.5l-0.9-2.4l-1.4-1.5l-2.2-0.2l-2.7-0.2V550l-2.6,1
	l-5.4-2.3l-2-2l-4.1,0.1l-4-5.2l-0.3-3.4l-4.9-0.5l-1-3l-1.6-1l-2.3-2.1l-4.5-0.1l-3-0.2l-3.2-4.2l-2.4-0.3l-1-6.6l-2.1-0.4
	l-3.9-0.7l-2.7-2.8l-0.5-1.1l-2.3-4.9l-3.4-0.2l-1.9-2.2l-1.4,0.8l-2-1l-2.3-2.7l-2.3-1l-1-1.6l-1.6-1.7l-0.3-7.4l-2-0.2l-1.4-5
	l-3.9-3.2l-0.6-2.6l-1-1l-2.3,0.8l0.4-1.8l-2.2-1l-1.2-3.3l-2.2-0.9l0.2-1.6l-1.9-2.4l-2.5-2l0.2-3l-0.1-3.2l-2.3-1.7l-1.1,1
	l-2.5-2.3l1.1-3.5l1-3.9l-2.1-1.8l-0.7-1.7l-1.8,1.1l-1-1l0.7-2.7h-6.8l-1.9-0.1l-5.2,0.1l-2.1-3l-1.5-2.5l-1-1.4
	c-0.4-0.5-0.7-1.1-1-1.7c0-0.3-1.6-1.1-1.6-1.1l-1.9-1.1l-3.7-1.1l-2.9-1.3c0,0-2.1-1.7-2.1-2s-2.2-0.9-2.2-0.9l-1.3-1.6l-1.2-1.2
	l-1.5-2.1l-1.3-1l-0.6-2.4l35.3-130.9l-2.5-57.9l33.5-51.8l19.8-51.8l114.8-20.6L405,88.1l94.5-2l93.1,58.2l0.1,0.8l1.6,10.3
	l2.5,18.5l-2.3,8.1l4.8,2.8l4.1,17.9l6.5,4.8l2.3,6.3l-3.9,5.7l5,14.1l-0.7,10.8l7.4-8l6.3,10l-7.5-0.8l-6,6.6l11.2-0.7l3.8,6.4
	l-7.7,3.3l10.1,12.2l-4.2,6.8l1.2,13.9l-6.9,10.6l6.8,5.1l-11.6,23.6l6,4.8l-2,5.1l4,6.1l-4.6,5.6l1.5,14.2l-3.3,11.1l-4.2,6.9
	l2.4,26.8l10.7,0.7l0.1,7.5l5,0.8l0.7,18.2l3.7,4.9l2,13.1l-10.5-0.3l-3,5.4l9.8,9.1l-0.1,8.3l6.3,8.5l-0.6,7l3.9,7.1l10.4,0.1
	l-1.6,7.5l15.8,13.4l-4.3,5.2l0.7,7.7l6.1,0.3L671,551l-6.1,3l1.5,4.1l24.5,14.5l-1.4,18.3l-5.6,2.6l10.5,14.2l0.1,11.2l-4.3,0.4
	l-1.2,6.1l7.2,0.3l0.6,12.5l4.9,0.1l0.3,40.6l-12.2,12.1L689,699l7.4,4.8l-2,6.3l-8.3,0.4l-0.2,6.7l-12.4,8l-11,0.7l1,8.8l-2.1,5.6
	l-16,7.7l-0.3,0.2L645.2,747.3z"/>
<path class="st11" d="M142.6,74.8c1.4-0.3,2.9-0.4,4.3-0.4c2.4,0,3.9,0.4,5,1.3c1,0.8,1.6,2,1.5,3.2c-0.1,1.9-1.3,3.5-3.1,4l0,0
	c2.2,0.4,3.7,2.3,3.8,4.6c0,1.4-0.5,2.7-1.5,3.6c-1.3,1.2-3.3,1.7-6.3,1.7c-1.2,0-2.4-0.1-3.6-0.2L142.6,74.8z M144.9,82.3h2.1
	c2.5,0,3.9-1.3,3.9-3.1c0-2.1-1.6-3-4-3c-0.7,0-1.4,0-2.1,0.2L144.9,82.3z M144.9,91c0.7,0.1,1.3,0.1,2,0.1c2.4,0,4.7-0.9,4.7-3.5
	c0-2.5-2.1-3.5-4.7-3.5H145L144.9,91z"/>
<path class="st11" d="M174.1,83.5c0,6.3-3.8,9.6-8.4,9.6c-4.8,0-8.2-3.7-8.2-9.2c0-5.8,3.6-9.6,8.4-9.6S174.1,78.1,174.1,83.5z
	 M160,83.8c0,3.9,2.1,7.4,5.8,7.4s5.8-3.4,5.8-7.6c0-3.6-1.9-7.4-5.8-7.4S160,79.8,160,83.8L160,83.8z"/>
<path class="st11" d="M178.5,74.6h2.4v16.2h7.8v2h-10.1V74.6z"/>
<path class="st11" d="M195,74.6v18.2h-2.4V74.6H195z"/>
<path class="st11" d="M204.4,92.8l-5.9-18.2h2.5l2.8,9c0.8,2.5,1.5,4.7,1.9,6.8h0.1c0.5-2.1,1.3-4.4,2.1-6.8l3.1-9h2.5L207,92.8
	H204.4z"/>
<path class="st11" d="M219.2,74.6v18.2h-2.4V74.6H219.2z"/>
<path class="st11" d="M227.6,87.1l-1.9,5.7h-2.4l6.2-18.2h2.8l6.2,18.2H236l-2-5.7H227.6z M233.6,85.2l-1.8-5.2
	c-0.4-1.2-0.7-2.3-0.9-3.3h-0.1c-0.3,1.1-0.6,2.2-0.9,3.3l-1.8,5.3L233.6,85.2z"/>
<path class="st11" d="M343.4,712.3l-1.9,5.7h-2.4l6.2-18.2h2.8l6.2,18.2h-2.5l-1.9-5.7L343.4,712.3z M349.4,710.4l-1.8-5.2
	c-0.4-1.2-0.7-2.3-0.9-3.3h0c-0.3,1.1-0.6,2.2-0.9,3.3l-1.8,5.3L349.4,710.4z"/>
<path class="st11" d="M358.4,700c1.5-0.3,3-0.4,4.5-0.4c2.5,0,4.1,0.5,5.3,1.5c1,0.9,1.5,2.2,1.4,3.5c0,2.1-1.4,4-3.4,4.6v0.1
	c1.4,0.5,2.2,1.8,2.7,3.7c0.3,1.7,0.8,3.4,1.4,5h-2.4c-0.5-1.4-0.9-2.9-1.2-4.3c-0.5-2.5-1.5-3.5-3.6-3.5h-2.2v7.9h-2.4V700z
	 M360.7,708.3h2.4c2.5,0,4.1-1.4,4.1-3.5c0-2.3-1.7-3.4-4.2-3.4c-0.8,0-1.6,0.1-2.3,0.2V708.3z"/>
<path class="st11" d="M388.1,717.2c-1.8,0.6-3.7,1-5.6,1c-4.7,0.5-8.9-3-9.3-7.7c0-0.5-0.1-1,0-1.5c0-5.4,3.8-9.4,9.9-9.4
	c1.6,0,3.1,0.3,4.5,0.8l-0.6,1.9c-1.3-0.5-2.6-0.8-4-0.8c-4.4,0-7.3,2.8-7.3,7.3s2.8,7.3,7,7.3c1.1,0.1,2.1-0.1,3.1-0.5v-5.4h-3.7
	v-1.9h6V717.2z"/>
<path class="st11" d="M402.4,709.5h-7.1v6.5h7.9v2H393v-18.2h9.8v2h-7.5v5.8h7.1L402.4,709.5z"/>
<path class="st11" d="M407.6,718v-18.2h2.6l5.8,9.2c1.2,1.9,2.3,3.9,3.3,5.9h0c-0.2-2.4-0.3-4.6-0.3-7.5v-7.6h2.2V718h-2.4l-5.8-9.2
	c-1.3-2-2.4-4-3.4-6.1h-0.1c0.1,2.3,0.2,4.5,0.2,7.5v7.8H407.6z"/>
<path class="st11" d="M430.2,701.8h-5.5v-2h13.5v2h-5.6V718h-2.4L430.2,701.8z"/>
<path class="st11" d="M443.9,699.8V718h-2.4v-18.2H443.9z"/>
<path class="st11" d="M449.3,718v-18.2h2.6l5.8,9.2c1.2,1.9,2.3,3.9,3.3,5.9h0c-0.2-2.4-0.3-4.6-0.3-7.5v-7.6h2.2V718h-2.4l-5.8-9.2
	c-1.3-2-2.4-4-3.4-6.1h-0.1c0.1,2.3,0.2,4.5,0.2,7.5v7.8H449.3z"/>
<path class="st11" d="M471.4,712.3l-1.9,5.7h-2.4l6.2-18.2h2.8l6.2,18.2h-2.5l-1.9-5.7L471.4,712.3z M477.4,710.4l-1.8-5.2
	c-0.4-1.2-0.7-2.3-1-3.3h0c-0.3,1.1-0.6,2.2-0.9,3.3l-1.8,5.3L477.4,710.4z"/>
<path class="st11" d="M623,74.8c1.4-0.3,2.9-0.4,4.3-0.4c2.3,0,3.9,0.4,5,1.3c1,0.8,1.5,2,1.5,3.2c-0.1,1.9-1.3,3.5-3.1,4l0,0
	c2.2,0.4,3.7,2.3,3.8,4.6c0,1.4-0.5,2.7-1.5,3.6c-1.3,1.2-3.3,1.7-6.3,1.7c-1.2,0-2.4-0.1-3.6-0.2L623,74.8z M625.3,82.3h2.1
	c2.5,0,3.9-1.3,3.9-3.1c0-2.1-1.6-3-4-3c-0.7,0-1.4,0-2.1,0.2L625.3,82.3z M625.3,91c0.7,0.1,1.3,0.1,2,0.1c2.4,0,4.7-0.9,4.7-3.5
	c0-2.5-2.1-3.5-4.7-3.5h-1.9L625.3,91z"/>
<path class="st11" d="M639,74.8c1.5-0.3,3-0.4,4.5-0.4c2.5,0,4.1,0.5,5.3,1.5c1,0.9,1.5,2.2,1.4,3.5c0,2.1-1.4,4-3.5,4.6v0.1
	c1.4,0.5,2.2,1.8,2.7,3.7c0.3,1.7,0.8,3.4,1.4,5h-2.4c-0.5-1.4-0.9-2.9-1.2-4.3c-0.5-2.5-1.5-3.5-3.6-3.5h-2.2v7.9H639V74.8z
	 M641.3,83.1h2.4c2.5,0,4.1-1.4,4.1-3.5c0-2.3-1.7-3.4-4.2-3.4c-0.8,0-1.6,0.1-2.3,0.2V83.1z"/>
<path class="st11" d="M657.8,87.1l-1.9,5.7h-2.4l6.2-18.2h2.8l6.2,18.2h-2.5l-1.9-5.7H657.8z M663.8,85.2L662,80
	c-0.4-1.2-0.7-2.3-1-3.3h0c-0.3,1.1-0.6,2.2-0.9,3.3l-1.8,5.3L663.8,85.2z"/>
<path class="st11" d="M671.5,91.4l10.1-14.8v-0.1h-9.2v-2h12.3V76l-10,14.7v0.1h10.2v2h-13.3V91.4z"/>
<path class="st11" d="M691.3,74.6v18.2H689V74.6H691.3z"/>
<path class="st11" d="M696.8,74.6h2.3v16.2h7.8v2h-10.1V74.6z"/>
<path class="st11" d="M393.3,110.5c-0.1,0.8-0.3,1.6-0.6,2.3c-0.3,0.7-0.7,1.3-1.3,1.8c-0.6,0.5-1.2,0.9-1.9,1.1
	c-0.8,0.3-1.7,0.4-2.5,0.4c-0.9,0-1.8-0.2-2.6-0.6c-0.8-0.4-1.5-0.9-2-1.6c-0.6-0.7-1-1.5-1.3-2.4c-0.3-1-0.5-2.1-0.5-3.1v-2.1
	c0-1.1,0.1-2.1,0.5-3.2c0.3-0.9,0.7-1.7,1.3-2.4c0.6-0.7,1.3-1.2,2.1-1.6c0.9-0.4,1.8-0.6,2.7-0.6c0.8,0,1.7,0.1,2.5,0.4
	c0.7,0.2,1.3,0.6,1.9,1.1c0.5,0.5,1,1.1,1.3,1.8c0.3,0.7,0.5,1.5,0.6,2.3h-1.5c-0.1-0.6-0.2-1.3-0.5-1.8c-0.2-0.5-0.5-1-0.9-1.4
	c-0.4-0.4-0.9-0.7-1.4-0.8c-0.6-0.2-1.3-0.3-1.9-0.3c-0.7,0-1.5,0.1-2.1,0.5c-0.6,0.3-1.2,0.8-1.6,1.3c-0.5,0.6-0.8,1.3-1,2
	c-0.2,0.9-0.4,1.7-0.4,2.6v2.2c0,0.9,0.1,1.8,0.3,2.6c0.2,0.7,0.5,1.4,1,2.1c0.4,0.6,0.9,1,1.6,1.3c0.7,0.3,1.4,0.5,2.1,0.5
	c1.2,0.1,2.5-0.3,3.4-1.1c0.8-0.9,1.3-2,1.4-3.3L393.3,110.5z"/>
<path class="st11" d="M406.9,107.7h-8v7h9.2v1.2h-10.6V98.8H408v1.2h-9.1v6.4h8L406.9,107.7z"/>
<path class="st11" d="M418.1,108.7h-5v7.1h-1.5V98.8h5.5c0.8,0,1.6,0.1,2.4,0.3c0.7,0.2,1.3,0.5,1.8,1c0.5,0.4,0.9,1,1.2,1.6
	c0.3,0.7,0.4,1.4,0.4,2.2c0,0.5-0.1,1.1-0.3,1.6c-0.2,0.5-0.4,0.9-0.7,1.3c-0.3,0.4-0.7,0.7-1.1,1c-0.4,0.3-0.9,0.5-1.4,0.7l4.3,7.3
	v0.2h-1.5L418.1,108.7z M413.1,107.5h4.4c0.6,0,1.2-0.1,1.8-0.3c0.5-0.2,0.9-0.5,1.3-0.8c0.3-0.3,0.6-0.7,0.8-1.2
	c0.2-0.4,0.3-0.9,0.3-1.4c0-0.5-0.1-1.1-0.3-1.6c-0.2-0.5-0.5-0.9-0.8-1.2c-0.4-0.3-0.9-0.6-1.4-0.8c-0.6-0.2-1.2-0.3-1.9-0.3h-4.1
	L413.1,107.5z"/>
<path class="st11" d="M433.9,108.7h-5v7.1h-1.5V98.8h5.6c0.8,0,1.6,0.1,2.4,0.3c0.7,0.2,1.3,0.5,1.8,1c0.5,0.4,0.9,1,1.2,1.6
	c0.3,0.7,0.4,1.4,0.4,2.2c0,0.5-0.1,1.1-0.3,1.6c-0.2,0.5-0.4,0.9-0.7,1.3c-0.3,0.4-0.7,0.7-1.1,1c-0.4,0.3-0.9,0.5-1.4,0.7l4.3,7.3
	v0.2H438L433.9,108.7z M428.9,107.5h4.4c0.6,0,1.2-0.1,1.8-0.3c0.5-0.2,0.9-0.5,1.3-0.8c0.3-0.3,0.6-0.7,0.8-1.2
	c0.2-0.4,0.3-0.9,0.3-1.4c0-0.5-0.1-1.1-0.3-1.6c-0.2-0.5-0.5-0.9-0.8-1.2c-0.4-0.3-0.9-0.6-1.4-0.8c-0.6-0.2-1.2-0.3-1.9-0.3h-4.1
	L428.9,107.5z"/>
<path class="st11" d="M452.6,111h-7.8l-1.8,4.8h-1.5l6.5-17h1.4l6.5,17.1h-1.5L452.6,111z M445.3,109.8h6.8l-3.4-9.3L445.3,109.8z"
	/>
<path class="st11" d="M458.9,115.8V98.8h4.8c1,0,2,0.2,2.9,0.6c0.9,0.4,1.7,0.9,2.3,1.6c0.7,0.7,1.2,1.5,1.5,2.4
	c0.4,1,0.6,2.1,0.5,3.2v1.6c0,1.1-0.2,2.2-0.5,3.2c-0.3,0.9-0.8,1.7-1.5,2.4c-0.7,0.7-1.5,1.2-2.3,1.6c-1,0.4-2,0.6-3,0.6
	L458.9,115.8z M460.4,100v14.6h3.2c0.8,0,1.7-0.1,2.5-0.5c0.7-0.3,1.4-0.8,1.9-1.3c0.5-0.6,0.9-1.3,1.2-2.1c0.3-0.9,0.4-1.7,0.4-2.7
	v-1.6c0-0.9-0.1-1.8-0.4-2.7c-0.3-0.7-0.7-1.4-1.2-2c-0.5-0.6-1.1-1-1.9-1.3c-0.8-0.3-1.6-0.5-2.4-0.5L460.4,100z"/>
<path class="st11" d="M487.9,108.2c0,1.1-0.1,2.2-0.5,3.2c-0.3,0.9-0.7,1.7-1.3,2.5c-0.6,0.7-1.3,1.2-2.1,1.6
	c-0.9,0.4-1.8,0.6-2.7,0.6c-0.9,0-1.9-0.2-2.7-0.6c-0.8-0.4-1.5-0.9-2.1-1.6c-0.6-0.7-1.1-1.6-1.4-2.5c-0.3-1-0.5-2.1-0.5-3.2v-1.8
	c0-1.1,0.1-2.2,0.5-3.3c0.3-0.9,0.7-1.7,1.4-2.5c0.6-0.7,1.3-1.2,2.1-1.6c0.9-0.4,1.8-0.6,2.7-0.6c0.9,0,1.9,0.2,2.7,0.6
	c0.8,0.4,1.5,0.9,2.1,1.6c0.6,0.7,1.1,1.6,1.3,2.5c0.3,1.1,0.5,2.1,0.5,3.3L487.9,108.2z M486.4,106.4c0-0.9-0.1-1.8-0.4-2.7
	c-0.2-0.7-0.5-1.5-1-2.1c-0.4-0.6-1-1-1.6-1.3c-0.7-0.3-1.4-0.5-2.2-0.5c-0.7,0-1.5,0.1-2.2,0.5c-0.6,0.3-1.2,0.8-1.6,1.3
	c-0.5,0.6-0.8,1.3-1,2.1c-0.2,0.9-0.4,1.8-0.4,2.7v1.8c0,0.9,0.1,1.8,0.4,2.7c0.2,0.7,0.5,1.4,1,2.1c0.4,0.6,1,1,1.6,1.3
	c0.7,0.3,1.4,0.5,2.2,0.5c0.8,0,1.5-0.1,2.2-0.5c0.6-0.3,1.2-0.7,1.6-1.3c0.5-0.6,0.8-1.3,1-2.1c0.2-0.9,0.4-1.8,0.4-2.7
	L486.4,106.4z"/>
<path class="st11" d="M485.8,336.6v7h-1.4v-17.1h5.8c0.8,0,1.7,0.1,2.5,0.4c0.7,0.2,1.3,0.5,1.8,1c0.5,0.4,0.9,1,1.1,1.6
	c0.3,0.7,0.4,1.4,0.4,2.1c0,0.7-0.1,1.4-0.4,2.1c-0.2,0.6-0.6,1.1-1.1,1.6c-0.5,0.5-1.1,0.8-1.8,1c-0.8,0.2-1.6,0.4-2.5,0.3
	L485.8,336.6z M485.8,335.3h4.4c0.7,0,1.4-0.1,2-0.3c0.5-0.2,1-0.4,1.3-0.8c0.3-0.3,0.6-0.7,0.8-1.2c0.2-0.5,0.3-1,0.3-1.5
	c0-0.5-0.1-1-0.3-1.5c-0.2-0.5-0.4-0.9-0.8-1.2c-0.4-0.4-0.8-0.7-1.3-0.8c-0.6-0.2-1.3-0.3-2-0.3h-4.4V335.3z"/>
<path class="st11" d="M508.9,338.7h-7.8l-1.8,4.8h-1.5l6.5-17.1h1.4l6.5,17.1h-1.5L508.9,338.7z M501.6,337.5h6.8l-3.5-9.3
	L501.6,337.5z"/>
<path class="st11" d="M528,343.5h-1.4l-9.8-14.6v14.6h-1.5v-17.1h1.5l9.8,14.6v-14.6h1.4V343.5z"/>
<path class="st11" d="M544.5,327.7h-5.8v15.8h-1.4v-15.8h-5.8v-1.2h13.1V327.7z"/>
<path class="st11" d="M557.1,338.7h-7.8l-1.8,4.8h-1.5l6.5-17.1h1.4l6.5,17.1h-1.5L557.1,338.7z M549.8,337.5h6.8l-3.4-9.3
	L549.8,337.5z"/>
<path class="st11" d="M576.2,343.5h-1.4l-9.8-14.6v14.6h-1.5v-17.1h1.5l9.8,14.6v-14.6h1.4V343.5z"/>
<path class="st11" d="M590.3,338.7h-7.8l-1.8,4.8h-1.5l6.5-17.1h1.4l6.5,17.1h-1.5L590.3,338.7z M583,337.5h6.8l-3.4-9.3L583,337.5z
	"/>
<path class="st11" d="M598.1,342.3h8.4v1.2h-9.9v-17.1h1.5V342.3z"/>
<path class="st11" d="M184.2,228.2l6.3,15.1l6.3-15.1h1.9v17.1h-1.4v-7.4l0.1-7.6l-6.4,15H190l-6.3-15l0.1,7.5v7.4h-1.5v-17H184.2z"
	/>
<path class="st11" d="M213.1,237.1h-8v7h9.2v1.2h-10.6v-17.1h10.6v1.2h-9.1v6.4h8L213.1,237.1z M210.2,223.6h1.7l-2.7,3.3h-1.2
	L210.2,223.6z"/>
<path class="st11" d="M217.9,245.2v-17.1h4.8c1,0,2,0.2,2.9,0.6c0.9,0.4,1.7,0.9,2.3,1.6c0.7,0.7,1.2,1.5,1.5,2.4
	c0.4,1,0.6,2.1,0.5,3.2v1.6c0,1.1-0.2,2.2-0.5,3.2c-0.3,0.9-0.8,1.7-1.5,2.4c-0.7,0.7-1.5,1.2-2.3,1.6c-1,0.4-2,0.6-3,0.6H217.9z
	 M219.4,229.4V244h3.2c0.8,0,1.7-0.1,2.5-0.5c0.7-0.3,1.4-0.8,1.9-1.3c0.5-0.6,0.9-1.3,1.2-2.1c0.3-0.9,0.4-1.7,0.4-2.6v-1.6
	c0-0.9-0.1-1.8-0.4-2.7c-0.3-0.7-0.7-1.4-1.2-2c-0.5-0.6-1.1-1-1.9-1.3c-0.8-0.3-1.6-0.5-2.4-0.5L219.4,229.4z"/>
<path class="st11" d="M243.4,240.5h-7.7l-1.8,4.8h-1.5l6.5-17.1h1.4l6.5,17.1h-1.5L243.4,240.5z M236.1,239.2h6.9l-3.4-9.3
	L236.1,239.2z"/>
<path class="st11" d="M262.5,245.2h-1.4l-9.8-14.6v14.6h-1.4v-17.1h1.4l9.8,14.6v-14.6h1.4V245.2z"/>
<path class="st11" d="M280.1,237.6c0,1.1-0.1,2.2-0.5,3.2c-0.3,0.9-0.7,1.7-1.3,2.5c-0.6,0.7-1.3,1.2-2.1,1.6
	c-0.9,0.4-1.8,0.6-2.7,0.6c-0.9,0-1.9-0.2-2.7-0.6c-0.8-0.4-1.5-0.9-2.1-1.6c-0.6-0.7-1.1-1.6-1.4-2.5c-0.3-1-0.5-2.1-0.5-3.2v-1.8
	c0-1.1,0.1-2.2,0.5-3.3c0.3-0.9,0.7-1.7,1.4-2.5c0.6-0.7,1.3-1.2,2.1-1.6c0.9-0.4,1.8-0.6,2.7-0.6c0.9,0,1.9,0.2,2.7,0.6
	c0.8,0.4,1.5,0.9,2.1,1.6c0.6,0.7,1.1,1.6,1.3,2.5c0.3,1.1,0.5,2.1,0.5,3.3L280.1,237.6z M278.6,235.8c0-0.9-0.1-1.8-0.4-2.7
	c-0.2-0.7-0.5-1.5-1-2.1c-0.4-0.6-1-1-1.6-1.3c-0.7-0.3-1.4-0.5-2.2-0.5c-0.7,0-1.5,0.1-2.2,0.5c-0.7,0.3-1.2,0.8-1.7,1.3
	c-0.5,0.6-0.8,1.3-1,2.1c-0.2,0.9-0.4,1.8-0.4,2.7v1.9c0,0.9,0.1,1.8,0.4,2.7c0.2,0.7,0.5,1.4,1,2.1c0.4,0.6,1,1,1.6,1.3
	c0.7,0.3,1.4,0.5,2.2,0.5c0.8,0,1.5-0.1,2.2-0.5c0.6-0.3,1.2-0.7,1.6-1.3c0.5-0.6,0.8-1.3,1-2.1c0.2-0.9,0.4-1.8,0.4-2.7
	L278.6,235.8z"/>
<path class="st11" d="M294,241c0-0.4-0.1-0.9-0.2-1.3c-0.2-0.4-0.4-0.7-0.8-1c-0.4-0.3-0.9-0.6-1.4-0.8c-0.7-0.3-1.5-0.5-2.2-0.8
	c-0.8-0.2-1.6-0.5-2.3-0.8c-0.6-0.3-1.2-0.6-1.8-1c-0.5-0.4-0.8-0.8-1.1-1.3c-0.3-0.5-0.4-1.2-0.4-1.8c0-0.6,0.1-1.2,0.4-1.8
	c0.3-0.5,0.7-1,1.2-1.4c0.5-0.4,1.2-0.7,1.8-0.9c0.7-0.2,1.5-0.3,2.3-0.3c0.8,0,1.6,0.1,2.4,0.4c0.7,0.2,1.3,0.6,1.9,1.1
	c0.5,0.5,0.9,1,1.2,1.6c0.3,0.6,0.4,1.3,0.4,2h-1.5c0-0.5-0.1-1.1-0.3-1.5c-0.2-0.5-0.5-0.9-0.9-1.2c-0.4-0.4-0.9-0.6-1.4-0.8
	c-0.6-0.2-1.2-0.3-1.9-0.3c-0.6,0-1.3,0.1-1.9,0.3c-0.5,0.1-0.9,0.4-1.3,0.7c-0.3,0.3-0.6,0.6-0.8,1c-0.2,0.4-0.3,0.8-0.3,1.2
	c0,0.4,0.1,0.8,0.2,1.1c0.2,0.4,0.4,0.7,0.8,1c0.4,0.3,0.9,0.6,1.4,0.8c0.7,0.3,1.4,0.5,2.2,0.7c0.8,0.2,1.6,0.5,2.4,0.8
	c0.6,0.2,1.2,0.6,1.8,1c0.5,0.4,0.8,0.9,1.1,1.4c0.3,0.6,0.4,1.2,0.4,1.8c0,0.7-0.1,1.3-0.4,1.9c-0.3,0.6-0.7,1-1.2,1.4
	c-0.6,0.4-1.2,0.7-1.9,0.9c-0.8,0.2-1.5,0.3-2.3,0.3c-0.5,0-1,0-1.5-0.1c-0.5-0.1-1-0.2-1.5-0.4c-0.5-0.2-0.9-0.4-1.3-0.7
	c-0.4-0.3-0.8-0.6-1.1-1c-0.3-0.4-0.5-0.8-0.7-1.3c-0.2-0.5-0.3-1.1-0.3-1.6h1.4c0,0.6,0.1,1.3,0.5,1.8c0.3,0.5,0.7,0.9,1.1,1.2
	c0.5,0.3,1,0.5,1.6,0.7c0.6,0.1,1.2,0.2,1.8,0.2c0.6,0,1.2-0.1,1.8-0.2c0.5-0.1,1-0.4,1.4-0.6c0.4-0.3,0.7-0.6,0.9-1
	C293.9,241.9,294,241.5,294,241z"/>
<path class="st12" d="M457,558.3c1-0.2,2-0.2,3-0.2c1.2-0.1,2.4,0.3,3.4,1c0.7,0.6,1.1,1.6,1.1,2.5c0,1-0.3,1.9-0.9,2.6
	c-1,0.9-2.3,1.4-3.7,1.3c-0.4,0-0.8,0-1.3-0.1v4.9H457V558.3z M458.6,564.1c0.4,0.1,0.9,0.1,1.3,0.1c1.9,0,3-0.9,3-2.6
	s-1.1-2.4-2.9-2.4c-0.5,0-1,0-1.5,0.1L458.6,564.1z"/>
<path class="st12" d="M466.6,558.3c1-0.2,2-0.3,3-0.3c1.3-0.1,2.5,0.2,3.5,1c0.7,0.6,1,1.4,1,2.3c0,1.4-0.9,2.7-2.3,3.1v0
	c1,0.4,1.7,1.4,1.8,2.5c0.2,1.1,0.5,2.3,0.9,3.3h-1.7c-0.4-0.9-0.6-1.9-0.8-2.9c-0.4-1.7-1-2.3-2.4-2.4h-1.5v5.3h-1.6L466.6,558.3z
	 M468.2,563.8h1.6c1.7,0,2.7-0.9,2.7-2.3c0-1.6-1.1-2.3-2.8-2.3c-0.5,0-1,0-1.5,0.1V563.8z"/>
<path class="st12" d="M482.6,564.5h-4.7v4.4h5.3v1.3h-6.8v-12.1h6.5v1.3h-5v3.8h4.7L482.6,564.5z"/>
<path class="st12" d="M484.9,568.3c0.8,0.5,1.8,0.8,2.8,0.8c1.6,0,2.5-0.8,2.5-2.1s-0.6-1.8-2.3-2.4c-2-0.7-3.2-1.7-3.2-3.4
	c0-1.9,1.6-3.3,3.9-3.3c0.9,0,1.9,0.2,2.7,0.6l-0.4,1.3c-0.7-0.4-1.5-0.6-2.3-0.6c-1.7,0-2.3,1-2.3,1.8c0,1.1,0.7,1.7,2.4,2.3
	c2,0.8,3.1,1.8,3.1,3.6s-1.4,3.5-4.3,3.5c-1.1,0-2.2-0.3-3.1-0.8L484.9,568.3z"/>
<path class="st12" d="M495.6,558.1v12.1H494v-12.1H495.6z"/>
<path class="st12" d="M498.3,558.3c1.1-0.2,2.2-0.2,3.3-0.3c1.8-0.1,3.5,0.4,4.9,1.5c1.2,1.1,1.8,2.7,1.7,4.4
	c0.1,1.7-0.5,3.5-1.8,4.7c-1.5,1.3-3.4,1.9-5.4,1.8c-0.9,0-1.9,0-2.8-0.1V558.3z M499.9,569c0.5,0.1,1.1,0.1,1.6,0.1
	c3.4,0,5.2-1.9,5.2-5.2c0-2.9-1.6-4.7-4.9-4.7c-0.6,0-1.2,0-1.8,0.2L499.9,569z"/>
<path class="st12" d="M516.6,564.5h-4.7v4.4h5.3v1.3h-6.8v-12.1h6.5v1.3h-5v3.8h4.7L516.6,564.5z"/>
<path class="st12" d="M519.2,570.2v-12.1h1.7l3.9,6.1c0.8,1.3,1.5,2.6,2.2,3.9l0,0c-0.1-1.6-0.2-3.1-0.2-5v-5.1h1.5v12.1h-1.6
	l-3.8-6.2c-0.8-1.3-1.6-2.7-2.3-4h0c0.1,1.5,0.1,3,0.1,5v5.2L519.2,570.2z"/>
<path class="st12" d="M533.3,559.4h-3.7v-1.3h9v1.3h-3.7v10.8h-1.6L533.3,559.4z"/>
<path class="st12" d="M546.3,564.5h-4.7v4.4h5.3v1.3H540v-12.1h6.5v1.3h-5v3.8h4.7L546.3,564.5z"/>
<path class="st12" d="M554.2,558.1v5.1h5.9v-5.1h1.6v12.1h-1.6v-5.7h-5.9v5.7h-1.6v-12.1H554.2z"/>
<path class="st12" d="M566.3,566.4l-1.3,3.8h-1.6l4.1-12.1h1.9l4.1,12.1h-1.7l-1.3-3.8H566.3z M570.3,565.2l-1.2-3.5
	c-0.3-0.8-0.5-1.5-0.6-2.2l0,0c-0.2,0.7-0.4,1.5-0.6,2.2l-1.2,3.5L570.3,565.2z"/>
<path class="st12" d="M578.1,570.2v-5.2l-3.8-7h1.7l1.7,3.3c0.5,0.9,0.8,1.7,1.2,2.5l0,0c0.3-0.8,0.8-1.6,1.2-2.5l1.9-3.3h1.8
	l-4.1,7v5.2L578.1,570.2z"/>
<path class="st12" d="M591.4,564.5h-4.7v4.4h5.3v1.3h-6.8v-12.1h6.5v1.3h-5v3.8h4.7L591.4,564.5z"/>
<path class="st12" d="M593.8,568.3c0.8,0.5,1.8,0.8,2.8,0.8c1.6,0,2.5-0.8,2.5-2.1s-0.7-1.8-2.3-2.4c-2-0.7-3.2-1.7-3.2-3.4
	c0-1.9,1.6-3.3,3.9-3.3c0.9,0,1.9,0.2,2.7,0.6l-0.4,1.3c-0.7-0.4-1.5-0.6-2.3-0.6c-1.7,0-2.3,1-2.3,1.8c0,1.1,0.7,1.7,2.4,2.3
	c2,0.8,3.1,1.8,3.1,3.6s-1.4,3.5-4.3,3.5c-1.1,0-2.2-0.3-3.1-0.8L593.8,568.3z"/>
<path class="st12" d="M427.7,225.8l-1.3,3.8h-1.6l4.1-12.1h1.9l4.1,12.1h-1.7l-1.3-3.8L427.7,225.8z M431.7,224.5l-1.2-3.5
	c-0.3-0.8-0.5-1.5-0.6-2.2l0,0c-0.2,0.7-0.4,1.5-0.6,2.2l-1.2,3.5L431.7,224.5z"/>
<path class="st12" d="M436.8,217.4h1.6v10.8h5.2v1.3h-6.8L436.8,217.4z"/>
<path class="st12" d="M447.6,218.8h-3.7v-1.3h9v1.3h-3.7v10.8h-1.6L447.6,218.8z"/>
<path class="st12" d="M464.6,223.4c0,4.2-2.5,6.4-5.6,6.4s-5.5-2.5-5.5-6.2c0-3.9,2.4-6.4,5.6-6.4S464.6,219.8,464.6,223.4z
	 M455.2,223.6c0,2.6,1.4,4.9,3.9,4.9s3.9-2.3,3.9-5c0-2.4-1.3-4.9-3.9-4.9S455.2,220.9,455.2,223.6z"/>
<path class="st12" d="M470.5,217.6c1-0.2,2-0.2,3-0.2c1.2-0.1,2.4,0.3,3.4,1c0.7,0.6,1.1,1.6,1.1,2.5c0,1-0.3,1.9-0.9,2.6
	c-1,0.9-2.3,1.4-3.7,1.3c-0.4,0-0.8,0-1.3-0.1v4.9h-1.6L470.5,217.6z M472,223.4c0.4,0.1,0.9,0.1,1.3,0.1c1.9,0,3-0.9,3-2.6
	s-1.1-2.4-2.9-2.4c-0.5,0-1,0-1.5,0.1L472,223.4z"/>
<path class="st12" d="M482,225.8l-1.3,3.8h-1.6l4.1-12.1h1.9l4.1,12.1h-1.7l-1.3-3.8H482z M486,224.5l-1.2-3.5
	c-0.3-0.8-0.5-1.5-0.6-2.2l0,0c-0.2,0.7-0.4,1.5-0.6,2.2l-1.2,3.5L486,224.5z"/>
<path class="st12" d="M491,217.6c1-0.2,2-0.3,3-0.3c1.3-0.1,2.5,0.2,3.5,1c0.7,0.6,1,1.4,1,2.3c0,1.4-0.9,2.7-2.3,3.1v0.1
	c1,0.4,1.7,1.4,1.8,2.4c0.2,1.1,0.5,2.3,0.9,3.3h-1.6c-0.4-0.9-0.6-1.9-0.8-2.9c-0.4-1.7-1-2.3-2.4-2.4h-1.5v5.3H491V217.6z
	 M492.6,223.1h1.6c1.7,0,2.7-0.9,2.7-2.3c0-1.6-1.1-2.3-2.8-2.3c-0.5,0-1,0-1.5,0.1V223.1z"/>
<path class="st12" d="M502.7,225.8l-1.3,3.8h-1.6l4.1-12.1h1.9l4.2,12.1h-1.7l-1.3-3.8L502.7,225.8z M506.7,224.5l-1.2-3.5
	c-0.3-0.8-0.5-1.5-0.6-2.2l0,0c-0.2,0.7-0.4,1.5-0.6,2.2l-1.2,3.5L506.7,224.5z"/>
<path class="st12" d="M521,229c-1.2,0.4-2.5,0.7-3.7,0.7c-3.1,0.3-5.9-2-6.2-5.1c0-0.3,0-0.7,0-1c0-3.6,2.5-6.3,6.6-6.3
	c1,0,2,0.2,3,0.6l-0.4,1.3c-0.8-0.4-1.8-0.5-2.7-0.5c-2.5-0.2-4.7,1.7-4.9,4.2c0,0.2,0,0.5,0,0.7c0,3.1,1.8,4.9,4.7,4.9
	c0.7,0,1.4-0.1,2.1-0.3v-3.6H517v-1.2h4V229z"/>
<path class="st12" d="M524.9,217.4v7.2c0,2.7,1.2,3.9,2.8,3.9c1.8,0,3-1.2,3-3.9v-7.2h1.6v7.1c0,3.7-2,5.3-4.6,5.3s-4.4-1.4-4.4-5.2
	v-7.1H524.9z"/>
<path class="st12" d="M537,225.8l-1.3,3.8h-1.6l4.1-12.1h1.9l4.1,12.1h-1.7l-1.3-3.8H537z M541,224.5l-1.2-3.5
	c-0.3-0.8-0.5-1.5-0.6-2.2l0,0c-0.2,0.7-0.4,1.5-0.6,2.2l-1.2,3.5L541,224.5z"/>
<path class="st12" d="M548.7,229.6v-5.1l-3.8-7h1.8l1.7,3.4c0.5,0.9,0.8,1.7,1.2,2.5l0,0c0.3-0.8,0.8-1.6,1.2-2.5l1.8-3.4h1.8
	l-4.1,7v5.2L548.7,229.6z"/>
<path class="st13" d="M137.1,424.2l1.3,1l1.5,2.1l1.2,1.2l1.3,1.6c0,0,2.2,0.7,2.2,0.9s2.1,2,2.1,2l2.9,1.3l3.7,1.1l1.9,1.1
	c0,0,1.6,0.9,1.6,1.1c0.3,0.6,0.6,1.2,1,1.7l1,1.4l1.5,2.5l2.1,3l5.2-0.1l1.9,0.1h6.8l-0.7,2.7l1,1l1.8-1.1l0.7,1.7l2.2,1.8l-1,3.9
	l-1.1,3.5l2.5,2.3l1.1-1l2.3,1.7l0.1,3.2l-0.2,3l2.5,2l1.9,2.4L189,475l2.2,0.9l1.2,3.3l2.2,1l-0.4,1.8l2.3-0.8l1,1l0.6,2.6l3.9,3.2
	l1.4,5l2,0.2l0.3,7.4l1.6,1.7l1,1.6l2.3,1l2.3,2.7l2,1l1.4-0.8l1.9,2.2l3.4,0.2l2.3,4.9l0.5,1.1l2.7,2.8l3.9,0.7l2.1,0.4l1,6.6
	l2.4,0.3l3.2,4.2l3,0.2l4.5,0.1l2.3,2.1l1.6,1l1,3l4.9,0.5l0.3,3.4l4,5.2l4.1-0.1l2,2l5.4,2.3l2.6-1v1.7l2.7,0.2l2.2,0.2l1.4,1.5
	l0.9,2.4l2.7,2.5l2.4,1.1l4.8-0.4l0.9,1.8l2.2,1.7l3,1.2l1.8,2.1l-0.5,4.8l2.3,3.4l3,2.9l3,3.6l0.5,3l3.9,4.9l1-0.9l2.8,0.6l1.3-1
	l1,0.6l3.7,2.5l5,3.1l2.4-0.1l3.5,0.5l3.5,0.1l5.4,1.5l3.6,1.6l5-0.1l1.8,0.6l0.1,3l0.6,2.1l2.1,0.3l1.3,0.2l3.5,0.6l1.3-0.8
	l2.6,0.1l2.3,1.2l2.5,1.1l3.4,1.3l1.7,1.5l1.7,2.2l1.2-0.2l2.3-0.2l2.7,1.5l3.2,0.3l3.1-0.6l4.1-0.3l6.3-0.7l2.7-1l3.1-1
	c0.7-0.4,1.5-0.8,2.3-1.1c0.6-0.1,1.3-0.1,1.9,0.1l57.3,34.4l-0.2,1.5l2.1,1.1l0.4,1.6l1,1.6l1.6,0.1l1.2,2.3h1.5l1.5,0.2l1.1,1.5
	l1.1,2.5l2.4,4.2l1.5,0.3l2,0.9l2.2,1.5h2.6l0.8,1.2l1.2,2.4l3.7,0.8l3.2,2.4c0.5,0.4,1,0.8,1.4,1.3c0.5,0.5,1,1,1.5,1.4l1.5,1.7
	l1.7,0.1h2.4l2.7,1.1l2,1l1.6,1.8l3.5,0.5l2.3,0.1l3.4,2.7l2.6,1.6l3,3l2.2-0.1l4.5,3.7l3,1.1l4.2,0.1h2.1l1.6,3.6l1.2,1.8l1.1,0.3
	l1.3-0.1l2.3-0.7l3.3,0.5l1.4-0.5l2.3,0.9l2.4,0.4l1.1,0.3l1.8,0.6l4.9,1.6l4.8,3.4l0.4,3l2.2,1.7l1.4,1.9l3.3,3.5l1.9,1.5l2-1.1
	l3.8-4.1l4.4-2.5l2,1l1.5,2.2l1.5,1.5l3.1,0.6l1.1,1.9l2.3,2.4l3.6,0.4l0.9,2.2l2.1,0.2h5l0.7,3.4l2.2,0.9l3.3-0.6l6.6,0.2l3,2.9
	l2.7,3.8l4.7,2.1l2.2,4.5l0.2,2.2l5.1,7.6l-0.1,2.9v0.7l0.3-0.2l16-7.7l2.1-5.6l-1-8.8l11-0.7l12.4-8l0.2-6.7l8.3-0.4l2-6.3L689,699
	l0.8-8.1l12.2-12.1l-0.3-40.6l-4.8-0.2l-0.5-12.5l-7.2-0.3l1.2-6.1l4.3-0.4l-0.1-11.2l-10.5-14.2l5.6-2.6l1.3-18.3l-24.5-14.5
	L665,554l6.1-3l-0.2-12.7l-6.1-0.3l-0.7-7.7l4.3-5.3l-15.8-13.4l1.6-7.5l-10.4-0.1l-4-7.1l0.6-7l-6.3-8.5l0.1-8.3l-9.8-9.1l3-5.4
	l10.5,0.3l-2-13.1l-3.7-4.9l-0.7-18.2l-5-0.8l-0.1-7.5l-10.7-0.7l-2.4-26.8l4.2-6.9l3.3-11.1l-1.5-14.2l4.6-5.6l-4-6.1l2-5.1l-6-4.8
	l11.6-23.6l-6.8-5.1l7-10.7l-1.2-13.9l4.1-6.8L620,261.2l7.7-3.3l-3.7-6.4l-11.2,0.6l6-6.6l7.5,0.8l-6.3-10l-7.4,8l0.7-10.8l-5-14.1
	l3.9-5.7l-2.3-6.3l-6.5-4.8l-4.1-17.9l-4.8-2.8l2.3-8.1l-2.6-18.5l-1.6-10.3l-0.1-0.8"/>
<path class="st14" d="M587.9,513l-13.8-4.7l-17-5.5l-1.1-22.5l-23.7-0.4l-11.4-6.7l-11.9-5.5l4.7-22.9l4.3-5.9l-5.9-4.3l0.8-8.7
	l9.1-0.4l8.7-8.8l6.3,9.2h0l-6.3-9.2l-15-2.8l-12.6-11l-19.7-2l-11.4,1.2l-2-12.2l5.1-17.4l5.5-11.8l-0.4-8.7L466,339.6l-14.2-9.5
	l-1.2-3.2l2.8-10.7l14.6-4.7l26.4-8.3l-0.4-5.5l-2.8-4.3l-20.1,2l-17.4,6.7l-11,1.6l-1.2-7.1l13-11.8l0.8-3.2l-13.4-7.1l-7.9-7.9
	l9.1-7.1l17.8-8.7l5.5,4.3l6.7,6.7l8.3,2.8l4.3-10.3l-2-18.9l5.5-11v-12.3l4.7-2.4l2-10.7l-13.8-7.9l-3.2-4.3l12.6-0.4l7.1-6.7
	l2.8-10.3l6.3-7.5l8.7-3.6l8.3-4.7v-5.6l-4.8,1.4h-20l-7.4-4.7l-23.1-2.6l-11.6-6.8l-11,3.7l-13.7-1.6l-7.5-8.4l-11-10.5l-2.1,8.9
	l-1.1,11.6h-19.5l-6.8,6.3l-5.3-5.2l-5.3-7.4l-4.2,6.8l-4.7,16.8h-8.4l-20.5-16.8l-26.3-7.4l-13.7,4.2l-10.5,3.7l-8.4-5.8L260,122.7
	l23-4.6l-60.5,10.8l-19.2,50.3l0.5-0.8l15.8,0.4l21.7,6.7l11.4,10.7l26.5,4.8l-8.7,7.1l-1.6,15.3l-21.4,1.6l5.1,10.7l17.4,19.3
	l1.2,9.9l-10.3,13.8l-15.4-9.1l-14.2,9.5l-14.6,7.9l-18.9-6.3l-14.2-5.5l-12.6-2.3l0.8,17.5l-35.3,130.8l0.6,2.4l1.3,1l1.5,2.1
	l1.2,1.2l1.3,1.6c0,0,2.2,0.7,2.2,0.9s2.1,2,2.1,2l2.9,1.3l3.7,1.1l1.9,1.1c0,0,1.6,0.9,1.6,1.1c0.3,0.6,0.6,1.2,1,1.7l1,1.4
	l1.5,2.5l2.1,3l5.2-0.1l1.9,0.1h6.8l-0.7,2.7l1,1l1.8-1.1l0.7,1.7l2.2,1.8l-1,3.9l-1.2,3.5l2.5,2.3l1.1-1l2.3,1.7l0.1,3.2l-0.2,3
	l0.7,0.6l5.4-6.4l21.3,1.6l17,8.3l7.1,7.9l-6.7,4l33.9,25.3l47,21.3l43.8,3.5l14.6-4l23.7-1.6l1.6,6.7l-24.9,12.6l3.5,10.7l20.5,2
	l7.9,11.4l30.4-7.5l9.5,20.9l2.4,11.4l19.7,15.8l11,1.6l24.1,5.6l11,15l17,11l11-2.4l-8.7-16.6l-8.3-12.2l12.2-9.5l-5.1-9.1
	l-4.3-10.7l7.1-5.1l-1.2-13l6.3-6.7l7.1-13.8l-20.1-7.9l3.2-7.9l11-11.8l5.9,3.5l16.6,7.5l20.3,1.6l13-6.3L587.9,513z"/>
<polyline class="st14" points="546.7,115.8 546.8,125.3 548.9,135.3 544.2,143.2 524.8,147.4 524.8,153.8 516.5,158.5 507.9,162.1 
	501.5,169.5 498.8,179.8 491.7,186.5 479,186.9 482.2,191.3 496,199.1 494,209.8 489.3,212.2 489.3,224.4 483.8,235.4 485.8,254.4 
	481.4,264.6 473.1,261.9 466.4,255.2 460.9,250.8 443.1,259.5 434.1,266.6 442,274.5 455.4,281.6 454.6,284.8 441.5,296.6 
	442.7,303.7 453.8,302.1 471.1,295.4 491.3,293.5 494,297.8 494.4,303.3 468,311.6 453.4,316.4 450.6,327 451.8,330.2 466,339.6 
	480.2,351.9 480.6,360.5 475.1,372.4 470,389.8 471.9,402 483.4,400.8 503.1,402.8 515.8,413.8 530.7,416.6 537.5,426.5 559.5,428 
	582,445.4 601,447.4 615.2,451.3 636.4,451 "/>
<path class="st11" d="M676.9,494.4c1.5-0.2,3-0.4,4.5-0.4c1.8-0.1,3.6,0.4,5.1,1.5c1.1,1,1.6,2.4,1.6,3.8c0.1,1.4-0.4,2.8-1.4,3.9
	c-1.5,1.4-3.5,2.1-5.6,2c-0.6,0-1.3,0-1.9-0.2v7.3h-2.3V494.4z M679.2,503.1c0.6,0.1,1.3,0.2,1.9,0.2c2.8,0,4.6-1.4,4.6-3.9
	s-1.7-3.6-4.3-3.6c-0.7,0-1.5,0-2.2,0.2V503.1z"/>
<path class="st11" d="M695.5,506.6l-1.9,5.7h-2.4l6.2-18.2h2.8l6.2,18.2h-2.5l-1.9-5.7H695.5z M701.5,504.8l-1.8-5.2
	c-0.4-1.2-0.7-2.3-0.9-3.3h0c-0.3,1.1-0.6,2.2-0.9,3.3l-1.8,5.3L701.5,504.8z"/>
<path class="st11" d="M710.5,494.4c1.5-0.3,3-0.4,4.5-0.4c2.5,0,4.1,0.5,5.3,1.5c1,0.9,1.5,2.2,1.4,3.5c0,2.1-1.4,4-3.4,4.6v0.1
	c1.4,0.5,2.2,1.8,2.7,3.7c0.3,1.7,0.8,3.4,1.4,5h-2.4c-0.5-1.4-0.9-2.9-1.2-4.4c-0.5-2.5-1.5-3.5-3.6-3.5h-2.2v7.9h-2.3L710.5,494.4
	z M712.8,502.7h2.4c2.5,0,4.1-1.4,4.1-3.5c0-2.4-1.7-3.4-4.2-3.4c-0.8,0-1.6,0.1-2.3,0.2V502.7z"/>
<path class="st11" d="M729.3,506.6l-1.9,5.7H725l6.2-18.2h2.8l6.2,18.2h-2.5l-1.9-5.7L729.3,506.6z M735.3,504.8l-1.8-5.2
	c-0.4-1.2-0.7-2.3-1-3.3h0c-0.3,1.1-0.6,2.2-0.9,3.3l-1.8,5.3L735.3,504.8z"/>
<path class="st11" d="M758.1,511.5c-1.8,0.6-3.7,1-5.6,1c-4.7,0.5-8.9-3-9.3-7.7c0-0.5-0.1-1,0-1.5c0-5.4,3.8-9.4,9.8-9.4
	c1.6,0,3.1,0.3,4.5,0.8l-0.5,1.9c-1.3-0.5-2.6-0.8-4-0.8c-4.4,0-7.3,2.8-7.3,7.3s2.8,7.3,7,7.3c1.1,0.1,2.1-0.1,3.1-0.5v-5.4h-3.7
	v-1.9h6L758.1,511.5z"/>
<path class="st11" d="M765.3,494.1v10.8c0,4.1,1.8,5.8,4.2,5.8c2.7,0,4.4-1.8,4.4-5.8v-10.8h2.4v10.6c0,5.6-2.9,7.9-6.9,7.9
	c-3.7,0-6.5-2.1-6.5-7.8v-10.7H765.3z"/>
<path class="st11" d="M784.8,506.6l-1.9,5.7h-2.4l6.2-18.2h2.8l6.2,18.2h-2.5l-1.9-5.7L784.8,506.6z M790.8,504.8l-1.8-5.2
	c-0.4-1.2-0.7-2.3-0.9-3.3h0c-0.3,1.1-0.6,2.2-0.9,3.3l-1.8,5.3L790.8,504.8z"/>
<path class="st11" d="M803.7,512.3v-7.7l-5.7-10.5h2.7l2.6,5c0.7,1.4,1.2,2.5,1.8,3.8h0c0.5-1.2,1.1-2.4,1.8-3.8l2.6-5h2.7
	l-6.1,10.5v7.8L803.7,512.3z"/>
<path class="st6" d="M399,631.8c0.6,0.3,1.2,0.6,1.8,0.9c0.7,0.4,1.3,1,1.6,1.8c0.2,0.6,0.1,1.3-0.3,1.8c-0.3,0.6-0.8,1-1.5,1.1
	c-0.9,0.2-1.8,0-2.6-0.6c-0.2-0.1-0.5-0.3-0.7-0.5l-1.7,2.7l-0.9-0.6L399,631.8z M397.8,635.7c0.2,0.2,0.4,0.4,0.7,0.5
	c1.1,0.7,2,0.6,2.6-0.4s0.2-1.7-0.8-2.4c-0.3-0.2-0.6-0.3-0.9-0.5L397.8,635.7z"/>
<path class="st6" d="M400.3,642.1l3.1-4.9l0.9,0.6l-3.1,4.9L400.3,642.1z M405.3,636.5c-0.2,0.3-0.6,0.4-0.9,0.2
	c-0.3-0.2-0.4-0.6-0.2-0.9c0.2-0.3,0.6-0.4,0.9-0.2c0,0,0,0,0,0C405.4,635.8,405.5,636.1,405.3,636.5
	C405.3,636.5,405.3,636.5,405.3,636.5L405.3,636.5z"/>
<path class="st6" d="M407.5,636.6l0.9,0.6l-4.5,7.2l-0.9-0.6L407.5,636.6z"/>
<path class="st6" d="M409.2,647.5c-0.6-0.1-1.1-0.3-1.6-0.6c-1.3-0.8-1.8-2.5-1-3.8c0-0.1,0.1-0.2,0.1-0.2c0.8-1.4,2.7-1.9,4.1-1
	c0.1,0,0.1,0.1,0.2,0.1c0.4,0.3,0.8,0.6,1.1,1l-0.6,0.6c-0.2-0.4-0.5-0.7-0.9-0.9c-1.1-0.6-2.4-0.2-3,0.9c-0.5,0.9-0.2,2.1,0.6,2.8
	c0.4,0.2,0.8,0.4,1.3,0.5L409.2,647.5z"/>
<path class="st6" d="M416.4,648.8c-0.7,1.4-2.4,1.9-3.8,1.2c-0.1,0-0.2-0.1-0.3-0.2c-1.3-0.8-1.7-2.5-0.9-3.8c0-0.1,0.1-0.1,0.1-0.2
	c0.7-1.4,2.4-1.9,3.8-1.2c0.1,0,0.2,0.1,0.3,0.2c1.3,0.8,1.7,2.5,0.9,3.8C416.5,648.7,416.5,648.7,416.4,648.8z M412.5,646.4
	c-0.7,0.7-0.7,1.9,0,2.6s1.9,0.7,2.6,0c0.2-0.2,0.3-0.4,0.4-0.7c0.5-0.8,0.8-2.2-0.3-2.8S413.1,645.5,412.5,646.4L412.5,646.4z"/>
<path class="st6" d="M418.5,648.6c0.3-0.5,0.6-0.9,0.8-1.4l0.8,0.5l-0.5,0.8l0,0c0.7-0.4,1.5-0.4,2.1,0.1c0.6,0.4,0.9,1.1,0.8,1.9
	l0,0c0.3-0.2,0.6-0.3,1-0.3c0.5,0,0.9,0.1,1.3,0.3c0.6,0.4,1.3,1.4,0.3,3.2l-1.8,2.9l-0.9-0.5l1.8-2.8c0.6-0.9,0.6-1.7-0.1-2.2
	c-0.5-0.3-1.1-0.2-1.6,0.2c-0.1,0.1-0.3,0.2-0.4,0.4l-1.9,3l-0.9-0.5l1.9-2.9c0.5-0.8,0.5-1.6-0.2-2c-0.5-0.3-1.2-0.2-1.7,0.2
	c-0.1,0.1-0.3,0.2-0.4,0.4l-1.9,3l-0.9-0.5L418.5,648.6z"/>
<path class="st6" d="M427.6,659.4l0.3-0.7l0,0c-0.7,0.3-1.4,0.2-2-0.2c-0.8-0.4-1.1-1.4-0.7-2.2c0,0,0-0.1,0.1-0.1
	c0.8-1.2,2.2-1.2,4.1,0l0.1-0.1c0.4-0.5,0.3-1.3-0.2-1.7c-0.1-0.1-0.2-0.1-0.2-0.2c-0.5-0.3-1-0.4-1.5-0.4l0.2-0.7
	c0.7,0,1.3,0.2,1.9,0.6c1,0.5,1.4,1.8,0.9,2.8c-0.1,0.1-0.2,0.3-0.3,0.4l-1.2,1.8c-0.3,0.4-0.5,0.8-0.7,1.2L427.6,659.4z
	 M429.1,656.8c-1-0.6-2.2-1.2-2.8-0.2c-0.3,0.4-0.2,1,0.2,1.3c0,0,0.1,0.1,0.1,0.1c0.5,0.4,1.2,0.3,1.7-0.1c0.1-0.1,0.2-0.2,0.2-0.3
	L429.1,656.8z"/>
<path class="st6" d="M433.5,656.2l-0.8,3.6c-0.1,0.4-0.2,0.9-0.3,1.2l0,0c0.3-0.2,0.6-0.5,1-0.8l2.8-2.3l0.9,0.6l-3.5,2.7
	c-1.7,1.3-2.7,1.9-3.6,2c-0.5,0.1-1,0.1-1.5-0.1l0.3-0.9c0.3,0.1,0.7,0.1,1.1,0.1c0.5-0.1,1-0.2,1.4-0.5c0.1,0,0.2-0.1,0.2-0.2
	c0-0.1,0.1-0.2,0.1-0.3l1-5.7L433.5,656.2z"/>
<path class="st6" d="M441.1,664.4c-0.7,1.4-2.4,1.9-3.8,1.2c-0.1,0-0.2-0.1-0.3-0.2c-1.3-0.8-1.7-2.5-0.9-3.8c0-0.1,0.1-0.1,0.1-0.2
	c0.7-1.4,2.4-1.9,3.8-1.2c0.1,0,0.2,0.1,0.3,0.2c1.3,0.8,1.7,2.5,0.9,3.8C441.2,664.3,441.2,664.3,441.1,664.4z M437.2,662
	c-0.7,0.7-0.7,1.9,0,2.6s1.9,0.7,2.6,0c0.2-0.2,0.3-0.4,0.4-0.7c0.5-0.8,0.8-2.2-0.3-2.8S437.8,661.1,437.2,662z"/>
<path class="st6" d="M447.6,662.6c0.6,0.3,1.2,0.6,1.8,0.9c0.8,0.4,1.3,1,1.6,1.8c0.1,0.6,0,1.2-0.3,1.6c-0.5,0.8-1.5,1.2-2.4,0.9
	l0,0c0.4,0.6,0.4,1.4,0.1,2c-0.3,0.7-0.5,1.5-0.7,2.2l-0.9-0.6c0.1-0.7,0.3-1.3,0.6-1.9c0.4-1.1,0.3-1.7-0.5-2.2l-0.8-0.5l-1.9,3
	l-0.9-0.6L447.6,662.6z M446.5,666.3l0.9,0.6c0.7,0.6,1.7,0.5,2.2-0.2c0,0,0.1-0.1,0.1-0.2c0.6-0.9,0.2-1.7-0.8-2.3
	c-0.3-0.2-0.6-0.4-0.9-0.5L446.5,666.3z"/>
<path class="st6" d="M449,672.9l3.1-4.9l0.9,0.6l-3.1,4.9L449,672.9z M454,667.3c-0.2,0.3-0.6,0.4-0.9,0.2c-0.3-0.2-0.4-0.6-0.2-0.9
	c0.2-0.3,0.6-0.4,0.9-0.2c0,0,0,0,0,0C454.1,666.5,454.2,666.9,454,667.3C454,667.2,454,667.2,454,667.3z"/>
<path class="st6" d="M455.1,669.9l-0.8,3.4c-0.1,0.5-0.2,1-0.4,1.5l0,0c0.4-0.3,0.8-0.7,1.2-1l2.7-2.2l0.9,0.6l-5,3.7l-0.9-0.5
	l1.2-6.1L455.1,669.9z"/>
<path class="st6" d="M458.7,675.8c-0.6,0.8-0.5,2,0.4,2.6c0.1,0.1,0.2,0.1,0.3,0.2c0.5,0.3,1,0.5,1.5,0.6l-0.3,0.7
	c-0.7-0.1-1.3-0.4-1.8-0.7c-1.3-0.7-1.8-2.3-1.1-3.6c0.1-0.1,0.1-0.2,0.2-0.4c0.9-1.5,2.5-2.1,4-1.2c1.1,0.7,1.4,2.3,0.7,3.4
	c0,0.1-0.1,0.1-0.1,0.2c-0.1,0.1-0.2,0.3-0.3,0.4L458.7,675.8z M461.7,676.8c0.5-0.6,0.5-1.6-0.2-2.1c0,0-0.1-0.1-0.2-0.1
	c-0.8-0.4-1.8-0.2-2.3,0.6L461.7,676.8z"/>
<path class="st6" d="M464.3,677.8c0.4-0.6,0.7-1.1,0.9-1.6l0.8,0.5l-0.6,1l0,0c0.6-0.5,1.4-0.6,2-0.2c0.1,0.1,0.2,0.1,0.2,0.2
	l-0.5,0.8c-0.1-0.1-0.2-0.2-0.3-0.2c-0.6-0.4-1.5-0.2-1.9,0.4c-0.1,0.1-0.2,0.3-0.3,0.4l-1.6,2.6l-0.9-0.6L464.3,677.8z"/>
<path class="st6" d="M616.2,149.8c0.4,0.6,0.7,1.2,0.9,1.8c0.4,0.7,0.5,1.6,0.3,2.4c-0.2,0.6-0.7,1.1-1.3,1.3
	c-0.6,0.3-1.2,0.3-1.8,0.1c-0.8-0.4-1.5-1.1-1.8-1.9c-0.1-0.3-0.2-0.5-0.3-0.8l-3,1.2l-0.4-1L616.2,149.8z M613,152.2
	c0,0.3,0.1,0.6,0.3,0.8c0.5,1.2,1.3,1.6,2.4,1.2s1.2-1.3,0.7-2.4c-0.1-0.3-0.3-0.6-0.5-0.9L613,152.2z"/>
<path class="st6" d="M612.6,161.9l0.6-0.4l0,0c-0.7-0.2-1.2-0.7-1.5-1.3c-0.4-0.8-0.1-1.8,0.7-2.2c0,0,0.1,0,0.1-0.1
	c1.3-0.5,2.5,0.3,3.3,2.4h0.1c0.6-0.2,1-0.8,0.8-1.5c0-0.1-0.1-0.2-0.1-0.3c-0.2-0.5-0.6-0.9-1-1.2l0.5-0.5c0.5,0.4,1,0.9,1.2,1.6
	c0.5,1,0.1,2.3-0.9,2.8c-0.1,0.1-0.3,0.1-0.5,0.2l-2,0.8c-0.4,0.2-0.9,0.4-1.3,0.6L612.6,161.9z M615.2,160.7
	c-0.4-1.1-1.1-2.2-2.2-1.8c-0.5,0.2-0.8,0.7-0.6,1.2c0,0,0,0.1,0.1,0.1c0.2,0.6,0.8,1,1.4,0.9c0.1,0,0.2,0,0.3-0.1L615.2,160.7z"/>
<path class="st6" d="M617.3,163.1c0.6-0.3,1.2-0.5,1.7-0.7l0.3,0.9l-1,0.5l0,0c0.8-0.1,1.5,0.3,1.8,1c0,0.1,0.1,0.2,0.1,0.3
	l-0.9,0.4c0-0.1-0.1-0.2-0.1-0.4c-0.3-0.7-1.1-1-1.8-0.8c-0.2,0-0.3,0.1-0.5,0.1l-2.9,1.2l-0.4-1L617.3,163.1z"/>
<path class="st6" d="M616.5,171.5l0.6-0.4l0,0c-0.7-0.2-1.2-0.7-1.5-1.3c-0.4-0.8-0.1-1.8,0.7-2.2c0,0,0.1,0,0.1-0.1
	c1.3-0.5,2.5,0.3,3.3,2.4h0.1c0.6-0.2,1-0.8,0.8-1.5c0-0.1-0.1-0.2-0.1-0.3c-0.2-0.5-0.6-0.9-1-1.2l0.5-0.5c0.5,0.4,1,0.9,1.2,1.6
	c0.5,1,0.1,2.3-0.9,2.8c-0.1,0.1-0.3,0.1-0.5,0.2l-2,0.8c-0.4,0.2-0.9,0.4-1.3,0.6L616.5,171.5z M619.2,170.2
	c-0.4-1.1-1.1-2.2-2.2-1.8c-0.5,0.2-0.8,0.7-0.6,1.2c0,0,0,0.1,0.1,0.1c0.2,0.6,0.8,1,1.4,0.9c0.1,0,0.2,0,0.3-0.1L619.2,170.2z"/>
<path class="st6" d="M624.9,176.5c-0.4,0.1-0.8,0.3-1.5,0.6l-3.1,1.3c-0.8,0.5-1.9,0.6-2.8,0.3c-0.7-0.4-1.2-1-1.5-1.7
	c-0.3-0.6-0.4-1.3-0.3-2l0.8-0.1c-0.1,0.6,0,1.2,0.2,1.8c0.3,0.9,1.2,1.5,2.2,1.2c0.1,0,0.3-0.1,0.4-0.2l0.6-0.3l0,0
	c-0.7-0.1-1.3-0.6-1.6-1.3c-0.5-1.3,0.2-2.8,1.6-3.3c0,0,0.1,0,0.1,0c1.4-0.7,3-0.2,3.8,1.1c0,0,0,0.1,0.1,0.1
	c0.3,0.7,0.2,1.5-0.2,2.1l0,0l0.8-0.3L624.9,176.5z M622.3,176.4c0.8-0.3,1.2-1.2,0.9-2c0,0,0,0,0,0c-0.4-0.9-1.5-1.3-2.7-0.8
	c-1,0.4-1.7,1.3-1.3,2.4c0.3,0.6,0.9,1,1.6,0.9c0.2,0,0.4-0.1,0.5-0.1L622.3,176.4z"/>
<path class="st6" d="M623.6,184.5c-0.5,0.2-1,0.4-1.4,0.6l-0.4-0.9l0.8-0.4l0,0c-0.8-0.1-1.4-0.6-1.7-1.4c-0.3-0.8-0.3-2,1.6-2.8
	l3.1-1.3l0.4,1l-3,1.2c-1,0.4-1.6,1-1.2,1.9c0.3,0.8,1.2,1.1,1.9,0.8c0,0,0,0,0.1,0l3.3-1.4l0.4,1L623.6,184.5z"/>
<path class="st6" d="M624.2,190l0.6-0.4l0,0c-0.7-0.2-1.2-0.7-1.5-1.3c-0.4-0.8-0.1-1.8,0.7-2.2c0,0,0.1,0,0.1-0.1
	c1.3-0.5,2.5,0.3,3.3,2.4h0.1c0.6-0.2,1-0.8,0.8-1.5c0-0.1-0.1-0.2-0.1-0.3c-0.2-0.5-0.6-0.9-1-1.2l0.5-0.5c0.5,0.4,1,0.9,1.2,1.6
	c0.5,1,0.1,2.3-0.9,2.8c-0.1,0.1-0.3,0.1-0.5,0.2l-2,0.8c-0.4,0.2-0.9,0.4-1.3,0.6L624.2,190z M626.8,188.7
	c-0.4-1.1-1.1-2.2-2.2-1.8c-0.5,0.2-0.8,0.7-0.6,1.2c0,0,0,0.1,0.1,0.1c0.2,0.6,0.8,1,1.4,0.9c0.1,0,0.2,0,0.3-0.1L626.8,188.7z"/>
<path class="st6" d="M630.8,190.7l-2.7,2.5c-0.3,0.3-0.7,0.6-1,0.8l0,0c0.4,0,0.8-0.1,1.3-0.1l3.6-0.2l0.4,1l-4.4,0.1
	c-2.1,0.1-3.3,0-4.1-0.4c-0.5-0.2-0.8-0.5-1.1-0.9l0.7-0.6c0.2,0.3,0.5,0.5,0.8,0.7c0.4,0.2,0.9,0.4,1.4,0.4c0.1,0,0.2,0,0.3,0
	c0.1,0,0.2-0.1,0.2-0.2l4.1-4L630.8,190.7z"/>
<path class="st6" d="M636,197.7c0.4,0.6,0.7,1.2,0.9,1.8c0.4,0.7,0.5,1.6,0.3,2.4c-0.2,0.5-0.6,1-1.2,1.2c-0.9,0.4-1.9,0.1-2.5-0.6
	l0,0c0,0.7-0.4,1.4-1,1.7c-0.6,0.4-1.3,0.9-1.8,1.4l-0.4-1c0.5-0.5,1-0.9,1.6-1.2c0.9-0.6,1.2-1.2,0.8-2.1l-0.4-0.9l-3.3,1.4l-0.4-1
	L636,197.7z M633,200.1l0.4,1c0.2,0.9,1.1,1.4,1.9,1.2c0.1,0,0.1,0,0.2-0.1c1-0.4,1.1-1.3,0.7-2.3c-0.1-0.3-0.3-0.6-0.5-0.9
	L633,200.1z"/>
<path class="st6" d="M631.2,207l5.4-2.2l0.4,1l-5.4,2.2L631.2,207z M638.5,205.2c-0.3,0.1-0.7,0-0.9-0.4c-0.1-0.3,0-0.7,0.4-0.9l0,0
	c0.3-0.1,0.7,0,0.8,0.3c0,0,0,0,0,0C639,204.7,638.9,205.1,638.5,205.2C638.5,205.2,638.5,205.2,638.5,205.2L638.5,205.2z"/>
<path class="st6" d="M637.9,208l-2.6,2.3c-0.4,0.4-0.8,0.7-1.2,1l0,0c0.5-0.1,1-0.1,1.6-0.1l3.5-0.2l0.4,1l-6.2,0.1l-0.4-0.9
	l4.5-4.3L637.9,208z"/>
<path class="st6" d="M637.5,215c-1,0.3-1.5,1.4-1.2,2.3c0,0.1,0.1,0.2,0.1,0.3c0.2,0.5,0.5,1,0.9,1.4l-0.6,0.5
	c-0.5-0.5-0.8-1-1.1-1.6c-0.7-1.3-0.1-3,1.2-3.6c0.1-0.1,0.2-0.1,0.4-0.1c1.6-0.7,3.3-0.3,3.9,1.3c0.5,1.3-0.1,2.7-1.4,3.2
	c-0.1,0-0.1,0.1-0.2,0.1c-0.2,0.1-0.3,0.1-0.5,0.2L637.5,215z M639.3,217.6c0.8-0.2,1.3-1,1.1-1.8c0-0.1,0-0.1-0.1-0.2
	c-0.4-0.8-1.4-1.2-2.2-0.8L639.3,217.6z"/>
<path class="st6" d="M640.8,219.8c0.6-0.3,1.2-0.5,1.7-0.7l0.3,0.9l-1,0.5l0,0c0.8-0.1,1.5,0.3,1.8,1c0,0.1,0.1,0.2,0.1,0.3
	l-0.9,0.4c0-0.1-0.1-0.2-0.1-0.4c-0.3-0.7-1.1-1-1.8-0.8c-0.2,0-0.3,0.1-0.5,0.1l-2.9,1.2l-0.4-1L640.8,219.8z"/>
<path class="st11" d="M235.5,382.1V365h4.8c1,0,2,0.2,2.9,0.5c0.9,0.4,1.7,0.9,2.3,1.6c0.7,0.7,1.2,1.5,1.5,2.5
	c0.4,1,0.6,2.1,0.5,3.2v1.6c0,1.1-0.2,2.2-0.5,3.2c-0.3,0.9-0.8,1.7-1.5,2.4c-0.7,0.7-1.5,1.2-2.3,1.6c-1,0.4-2,0.6-3,0.5H235.5z
	 M236.9,366.2v14.6h3.2c0.8,0,1.7-0.1,2.5-0.5c0.7-0.3,1.4-0.8,1.9-1.3c0.5-0.6,0.9-1.3,1.2-2.1c0.3-0.9,0.4-1.7,0.4-2.6v-1.6
	c0-0.9-0.1-1.8-0.4-2.7c-0.3-0.7-0.7-1.4-1.2-2c-0.5-0.6-1.1-1-1.9-1.3c-0.8-0.3-1.6-0.5-2.4-0.5L236.9,366.2z"/>
<path class="st11" d="M258.1,375h-5v7.1h-1.4V365h5.5c0.8,0,1.6,0.1,2.4,0.3c0.7,0.2,1.3,0.5,1.8,1c0.5,0.4,0.9,1,1.2,1.6
	c0.3,0.7,0.4,1.4,0.4,2.2c0,0.5-0.1,1.1-0.3,1.6c-0.2,0.5-0.4,0.9-0.7,1.3c-0.3,0.4-0.7,0.7-1.1,1c-0.4,0.3-0.9,0.5-1.4,0.7l4.3,7.3
	v0.1h-1.5L258.1,375z M253.1,373.8h4.4c0.6,0,1.2-0.1,1.8-0.3c0.5-0.2,0.9-0.5,1.3-0.8c0.3-0.3,0.6-0.7,0.8-1.2
	c0.2-0.4,0.3-0.9,0.3-1.4c0-0.5-0.1-1.1-0.3-1.6c-0.2-0.5-0.5-0.9-0.8-1.2c-0.4-0.3-0.9-0.6-1.4-0.8c-0.6-0.2-1.2-0.3-1.9-0.3h-4.1
	L253.1,373.8z"/>
<path class="st11" d="M272.6,374.3l5.2-9.3h1.7l-6.2,10.6v6.4h-1.4v-6.4l-6.1-10.6h1.7L272.6,374.3z"/>
<path class="st11" d="M301.1,376.7c-0.1,0.8-0.3,1.6-0.6,2.3c-0.3,0.7-0.7,1.3-1.3,1.8c-0.6,0.5-1.2,0.9-1.9,1.1
	c-0.8,0.3-1.7,0.4-2.5,0.4c-0.9,0-1.8-0.2-2.6-0.5c-0.8-0.4-1.5-0.9-2-1.6c-0.6-0.7-1-1.5-1.3-2.4c-0.3-1-0.5-2.1-0.5-3.1v-2.1
	c0-1.1,0.1-2.1,0.5-3.1c0.3-0.9,0.7-1.7,1.3-2.4c0.6-0.7,1.3-1.2,2.1-1.6c0.9-0.4,1.8-0.6,2.7-0.6c0.8,0,1.7,0.1,2.5,0.4
	c0.7,0.2,1.3,0.6,1.9,1.1c0.5,0.5,1,1.1,1.3,1.8c0.3,0.7,0.5,1.5,0.6,2.4h-1.5c-0.1-0.6-0.2-1.3-0.5-1.9c-0.2-0.5-0.5-1-0.9-1.4
	c-0.4-0.4-0.9-0.7-1.4-0.8c-0.6-0.2-1.3-0.3-1.9-0.3c-0.7,0-1.5,0.1-2.1,0.5c-0.6,0.3-1.2,0.8-1.6,1.3c-0.5,0.6-0.8,1.3-1,2
	c-0.2,0.9-0.4,1.7-0.4,2.6v2.2c0,0.9,0.1,1.8,0.3,2.6c0.2,0.7,0.5,1.4,1,2c0.4,0.6,0.9,1,1.6,1.3c0.7,0.3,1.4,0.5,2.1,0.5
	c1.2,0.1,2.5-0.3,3.4-1.1c0.8-0.9,1.3-2,1.4-3.3L301.1,376.7z"/>
<path class="st11" d="M317.8,382.1h-1.5v-8.2h-9.8v8.2h-1.4V365h1.4v7.7h9.8V365h1.5L317.8,382.1z"/>
<path class="st11" d="M332,377.3h-7.8l-1.8,4.8H321l6.4-17.1h1.4l6.5,17.1h-1.5L332,377.3z M324.7,376h6.8l-3.4-9.3L324.7,376z"/>
<path class="st11" d="M350.5,376.7c-0.1,0.8-0.3,1.6-0.6,2.3c-0.3,0.7-0.7,1.3-1.3,1.8c-0.6,0.5-1.2,0.9-1.9,1.1
	c-0.8,0.3-1.7,0.4-2.5,0.4c-0.9,0-1.8-0.2-2.6-0.5c-0.8-0.4-1.5-0.9-2-1.6c-0.6-0.7-1-1.5-1.3-2.4c-0.3-1-0.5-2.1-0.5-3.1v-2.1
	c0-1.1,0.1-2.1,0.5-3.1c0.3-0.9,0.7-1.7,1.3-2.4c0.6-0.7,1.3-1.2,2.1-1.6c0.9-0.4,1.8-0.6,2.7-0.6c0.8,0,1.7,0.1,2.5,0.4
	c0.7,0.2,1.3,0.6,1.9,1.1c0.5,0.5,1,1.1,1.3,1.8c0.3,0.7,0.5,1.5,0.6,2.4H349c-0.1-0.6-0.2-1.3-0.5-1.9c-0.2-0.5-0.5-1-0.9-1.4
	c-0.4-0.4-0.9-0.7-1.4-0.8c-0.6-0.2-1.3-0.3-1.9-0.3c-0.7,0-1.5,0.1-2.1,0.5c-0.6,0.3-1.2,0.8-1.6,1.3c-0.5,0.6-0.8,1.3-1,2
	c-0.2,0.9-0.4,1.7-0.4,2.6v2.2c0,0.9,0.1,1.8,0.3,2.6c0.2,0.7,0.5,1.4,1,2c0.4,0.6,0.9,1,1.6,1.3c0.7,0.3,1.4,0.5,2.1,0.5
	c1.2,0.1,2.5-0.3,3.4-1.1c0.8-0.9,1.3-2,1.4-3.3L350.5,376.7z"/>
<path class="st11" d="M367.2,374.5c0,1.1-0.1,2.2-0.5,3.2c-0.3,0.9-0.7,1.7-1.3,2.5c-0.6,0.7-1.3,1.2-2.1,1.6
	c-0.9,0.4-1.8,0.6-2.7,0.6c-0.9,0-1.9-0.2-2.7-0.6c-0.8-0.4-1.5-0.9-2.1-1.6c-0.6-0.7-1.1-1.6-1.4-2.5c-0.3-1-0.5-2.1-0.5-3.2v-1.8
	c0-1.1,0.1-2.2,0.5-3.3c0.3-0.9,0.7-1.7,1.4-2.5c0.6-0.7,1.3-1.2,2.1-1.6c0.9-0.4,1.8-0.6,2.7-0.6c0.9,0,1.9,0.2,2.7,0.6
	c0.8,0.4,1.5,0.9,2.1,1.6c0.6,0.7,1.1,1.6,1.3,2.5c0.3,1.1,0.5,2.1,0.5,3.3L367.2,374.5z M365.7,372.6c0-0.9-0.1-1.8-0.4-2.7
	c-0.2-0.7-0.5-1.5-1-2.1c-0.4-0.6-1-1-1.6-1.3c-0.7-0.3-1.4-0.5-2.2-0.5c-0.7,0-1.5,0.1-2.2,0.5c-0.6,0.3-1.2,0.8-1.6,1.3
	c-0.5,0.6-0.8,1.3-1,2.1c-0.2,0.9-0.4,1.8-0.4,2.7v1.9c0,0.9,0.1,1.8,0.4,2.7c0.2,0.7,0.5,1.4,1,2.1c0.4,0.6,1,1,1.6,1.3
	c0.7,0.3,1.4,0.5,2.2,0.5c0.8,0,1.5-0.1,2.2-0.5c0.6-0.3,1.2-0.7,1.6-1.3c0.5-0.6,0.8-1.3,1-2.1c0.2-0.9,0.4-1.8,0.4-2.7
	L365.7,372.6z"/>
<path class="st11" d="M554.5,601.9l0.5,2.7l0.6-2.5l3.7-12.6h1.3l3.7,12.6l0.6,2.5l0.6-2.7l3.1-12.5h1.5l-4.4,17.1h-1.4l-3.9-13.3
	l-0.4-1.7l-0.4,1.7l-4,13.3h-1.4l-4.4-17.1h1.5L554.5,601.9z"/>
<path class="st11" d="M582.9,598.3h-8v7h9.2v1.2h-10.6v-17.1H584v1.2h-9.1v6.4h8L582.9,598.3z"/>
<path class="st11" d="M599.3,590.7h-5.8v15.8H592v-15.8h-5.8v-1.2h13.1L599.3,590.7z"/>
<path class="st11" d="M563.5,624.2c-0.1,0.8-0.3,1.6-0.6,2.3c-0.3,0.7-0.7,1.3-1.3,1.8c-0.6,0.5-1.2,0.9-1.9,1.1
	c-0.8,0.3-1.7,0.4-2.5,0.4c-0.9,0-1.8-0.2-2.6-0.5c-0.8-0.4-1.5-0.9-2-1.6c-0.6-0.7-1-1.5-1.3-2.4c-0.3-1-0.5-2.1-0.5-3.1v-2.2
	c0-1.1,0.1-2.1,0.5-3.2c0.3-0.9,0.7-1.7,1.3-2.4c0.6-0.7,1.3-1.2,2.1-1.6c0.9-0.4,1.8-0.6,2.7-0.6c0.8,0,1.7,0.1,2.5,0.4
	c0.7,0.2,1.3,0.6,1.9,1.1c0.5,0.5,1,1.1,1.3,1.8c0.3,0.7,0.5,1.5,0.6,2.3H562c-0.1-0.6-0.2-1.3-0.5-1.8c-0.2-0.5-0.5-1-0.9-1.4
	c-0.4-0.4-0.9-0.7-1.4-0.8c-0.6-0.2-1.3-0.3-1.9-0.3c-0.7,0-1.5,0.1-2.1,0.5c-0.6,0.3-1.2,0.8-1.6,1.3c-0.5,0.6-0.8,1.3-1,2
	c-0.2,0.9-0.4,1.7-0.3,2.6v2.1c0,0.9,0.1,1.8,0.3,2.6c0.2,0.7,0.5,1.4,1,2c0.4,0.6,0.9,1,1.6,1.3c0.7,0.3,1.4,0.5,2.1,0.5
	c1.2,0.1,2.5-0.3,3.4-1.1c0.8-0.9,1.3-2,1.4-3.3L563.5,624.2z"/>
<path class="st11" d="M580.2,629.5h-1.5v-8.2H569v8.2h-1.4v-17.1h1.4v7.7h9.8v-7.7h1.5V629.5z"/>
<path class="st11" d="M594.3,624.7h-7.8l-1.8,4.8h-1.5l6.5-17.1h1.4l6.5,17.1h-1.5L594.3,624.7z M587,623.5h6.8l-3.4-9.3L587,623.5z
	"/>
<path class="st11" d="M612.8,624.2c-0.1,0.8-0.3,1.6-0.6,2.3c-0.3,0.7-0.7,1.3-1.3,1.8c-0.6,0.5-1.2,0.9-1.9,1.1
	c-0.8,0.3-1.7,0.4-2.5,0.4c-0.9,0-1.8-0.2-2.6-0.5c-0.8-0.4-1.5-0.9-2-1.6c-0.6-0.7-1-1.5-1.3-2.4c-0.3-1-0.5-2.1-0.5-3.1v-2.2
	c0-1.1,0.1-2.1,0.5-3.2c0.3-0.9,0.7-1.7,1.3-2.4c0.6-0.7,1.3-1.2,2.1-1.6c0.9-0.4,1.8-0.6,2.7-0.6c0.8,0,1.7,0.1,2.5,0.4
	c0.7,0.2,1.3,0.6,1.9,1.1c0.5,0.5,1,1.1,1.3,1.8c0.3,0.7,0.5,1.5,0.6,2.3h-1.5c-0.1-0.6-0.2-1.3-0.5-1.8c-0.2-0.5-0.5-1-0.9-1.4
	c-0.4-0.4-0.9-0.7-1.4-0.8c-0.6-0.2-1.3-0.3-1.9-0.3c-0.7,0-1.5,0.1-2.1,0.5c-0.6,0.3-1.2,0.8-1.6,1.3c-0.5,0.6-0.8,1.3-1,2
	c-0.2,0.9-0.4,1.7-0.3,2.6v2.1c0,0.9,0.1,1.8,0.3,2.6c0.2,0.7,0.5,1.4,1,2c0.4,0.6,0.9,1,1.6,1.3c0.7,0.3,1.4,0.5,2.1,0.5
	c1.2,0.1,2.5-0.3,3.4-1.1c0.8-0.9,1.3-2,1.4-3.3L612.8,624.2z"/>
<path class="st11" d="M629.5,621.9c0,1.1-0.1,2.2-0.5,3.2c-0.3,0.9-0.7,1.7-1.3,2.5c-0.6,0.7-1.3,1.2-2.1,1.6
	c-0.9,0.4-1.8,0.6-2.7,0.6c-0.9,0-1.9-0.2-2.7-0.6c-0.8-0.4-1.5-0.9-2.1-1.6c-0.6-0.7-1.1-1.6-1.4-2.5c-0.3-1-0.5-2.1-0.5-3.2v-1.8
	c0-1.1,0.1-2.2,0.5-3.3c0.3-0.9,0.7-1.7,1.3-2.5c0.6-0.7,1.3-1.2,2.1-1.6c0.9-0.4,1.8-0.6,2.7-0.6c0.9,0,1.9,0.2,2.7,0.6
	c0.8,0.4,1.5,0.9,2.1,1.6c0.6,0.7,1.1,1.6,1.3,2.5c0.3,1.1,0.5,2.1,0.5,3.3V621.9z M628.1,620c0-0.9-0.1-1.8-0.3-2.7
	c-0.2-0.7-0.5-1.5-1-2.1c-0.4-0.6-1-1-1.6-1.3c-0.7-0.3-1.4-0.5-2.2-0.5c-0.7,0-1.5,0.1-2.2,0.5c-0.6,0.3-1.2,0.8-1.6,1.3
	c-0.5,0.6-0.8,1.3-1,2.1c-0.2,0.9-0.4,1.8-0.4,2.7v1.8c0,0.9,0.1,1.8,0.4,2.7c0.2,0.7,0.5,1.4,1,2.1c0.4,0.6,1,1,1.7,1.3
	c0.7,0.3,1.4,0.5,2.2,0.5c0.8,0,1.5-0.1,2.2-0.5c0.6-0.3,1.2-0.7,1.6-1.3c0.5-0.6,0.8-1.3,1-2.1c0.2-0.9,0.4-1.8,0.3-2.7L628.1,620z
	"/>
<path class="st12" d="M252.4,399.9c0.9-0.2,1.9-0.3,2.9-0.3c1.2-0.1,2.4,0.2,3.3,0.9c0.7,0.5,1,1.3,1,2.1c0,1.2-0.9,2.3-2,2.7l0,0
	c1.4,0.3,2.5,1.5,2.5,3c0,0.9-0.3,1.8-1,2.4c-0.9,0.8-2.2,1.1-4.2,1.1c-0.8,0-1.6,0-2.4-0.1L252.4,399.9z M254,404.9h1.4
	c1.7,0,2.6-0.9,2.6-2c0-1.4-1.1-2-2.7-2c-0.5,0-0.9,0-1.4,0.1L254,404.9z M254,410.7c0.4,0.1,0.9,0.1,1.3,0.1c1.6,0,3.1-0.6,3.1-2.4
	s-1.4-2.4-3.1-2.4h-1.3L254,410.7z"/>
<path class="st12" d="M272.5,405.6c0,4.2-2.5,6.4-5.6,6.4s-5.5-2.5-5.5-6.2c0-3.9,2.4-6.4,5.6-6.4S272.5,402,272.5,405.6z
	 M263.1,405.8c0,2.6,1.4,4.9,3.9,4.9s3.9-2.3,3.9-5c0-2.4-1.3-4.9-3.9-4.9S263.1,403.2,263.1,405.8L263.1,405.8z"/>
<path class="st12" d="M284.5,413.6c-1.6-0.4-3.2-0.9-4.6-1.4c-0.2-0.1-0.5-0.2-0.7-0.2c-2.9-0.1-5.4-2.2-5.4-6.1s2.4-6.4,5.6-6.4
	s5.4,2.6,5.4,6.1c0,3.1-1.4,5.1-3.5,5.8v0.1c1.2,0.3,2.5,0.6,3.5,0.8L284.5,413.6z M283.3,405.7c0-2.4-1.3-4.9-3.8-4.9
	s-3.9,2.5-3.9,5.1s1.4,4.9,3.9,4.9S283.3,408.5,283.3,405.7L283.3,405.7z"/>
<path class="st12" d="M288.5,399.7v7.2c0,2.7,1.2,3.9,2.8,3.9c1.8,0,3-1.2,3-3.9v-7.2h1.6v7.1c0,3.7-2,5.3-4.6,5.3s-4.4-1.4-4.4-5.2
	v-7.1H288.5z"/>
<path class="st12" d="M304.9,406.1h-4.7v4.4h5.3v1.3h-6.8v-12.1h6.5v1.3h-5v3.8h4.7L304.9,406.1z"/>
<path class="st12" d="M307.4,399.9c1-0.2,2-0.3,3-0.3c1.3-0.1,2.5,0.2,3.5,1c0.7,0.6,1,1.4,1,2.3c0,1.4-0.9,2.7-2.3,3.1v0
	c1,0.4,1.7,1.4,1.8,2.5c0.2,1.1,0.5,2.3,0.9,3.3h-1.6c-0.4-0.9-0.6-1.9-0.8-2.9c-0.4-1.7-1-2.3-2.4-2.4H309v5.3h-1.6L307.4,399.9z
	 M309,405.4h1.6c1.7,0,2.7-0.9,2.7-2.3c0-1.6-1.1-2.3-2.8-2.3c-0.5,0-1,0.1-1.6,0.2L309,405.4z"/>
<path class="st12" d="M327.5,405.6c0,4.2-2.5,6.4-5.6,6.4s-5.5-2.5-5.5-6.2c0-3.9,2.4-6.4,5.6-6.4S327.5,402,327.5,405.6z
	 M318.1,405.8c0,2.6,1.4,4.9,3.9,4.9s3.9-2.3,3.9-5c0-2.4-1.3-4.9-3.9-4.9S318.1,403.2,318.1,405.8L318.1,405.8z M324.6,396.9
	l-2.3,2.1H321l1.7-2.1L324.6,396.9z"/>
<path class="st12" d="M329.5,411.8v-12.1h1.7l3.9,6.1c0.8,1.3,1.5,2.6,2.2,3.9l0,0c-0.1-1.6-0.2-3.1-0.2-5v-5.1h1.5v12.1H337
	l-3.9-6.2c-0.8-1.3-1.6-2.7-2.3-4h0c0.1,1.5,0.1,3,0.1,5v5.2L329.5,411.8z"/>
</svg>
