<?xml version="1.0" encoding="utf-8"?>
<!-- Generator: Adobe Illustrator 21.0.0, SVG Export Plug-In . SVG Version: 6.00 Build 0)  -->
<svg version="1.1" id="Capa_1" xmlns="http://www.w3.org/2000/svg" xmlns:xlink="http://www.w3.org/1999/xlink" x="0px" y="0px"
	 viewBox="0 0 848 855" style="enable-background:new 0 0 848 855;" xml:space="preserve">
<style type="text/css">
	.st0{fill:#C2C3C9;}
	.st1{fill:#D8D9DD;}
	.st2{fill:#EDEEF0;}
	.st3{fill:#F7F7F8;}
	.st4{fill:#E2E4E7;}
	.st5{fill:#0098A6;}
	.st6{opacity:0.5;fill:#0098A6;enable-background:new    ;}
	.st7{opacity:0.5;}
	.st8{fill:none;stroke:#87868A;stroke-width:2;stroke-miterlimit:10;}
	.st9{fill:#312E2A;}
</style>
<g id="CHACO">
	<path class="st0" d="M657.8,331.4l-1.1,0.6h-3.3l-3.3-0.5l-2.5-1.5l-0.9-2.4l-1.5,0.2l-2.3-1l-2-1.2l-3.6-2.9l-1.5-1.5l-0.6-3.5
		l-1.2-3.3l-1-1.9l-4,0.7l-2.2-0.3l-2.8,1.5l-1.4,1l-1.2,3.7l-1.7,2.6l-1,2.1l-2.8,1.9l-1.5,1.7l-3.1,1.5l-2-0.5l-2.8-2.1v1.5
		l-2.2,0.7l-3-0.6l-1.9,0.9h-1.5l-0.8,2.4l-2.7,1.2l-2.3,0.1l-1.1-2.3l-1.1-1.7l-1.5,1.1l-4.3-1.6l-1.7-0.5l-1.6-1l-2.9,0.8
		l-2.2,0.1l-3.4,0.3l-3.4-1l-1,0.2l-4.9-1.1v0.8l-2.3,1.7l-1.9-0.2l-1.7-0.7l-1.9-1.6l-1.9,0.9l-2.6,0.5l-2.1-0.6l-1.2-0.9l-0.6-1.3
		l-2.6-0.6l-2.4-0.5h-3.5l-3.4-1.9l-2.1,1l-1-0.5h-1.7l-1.1-1.5l-0.5-2.5l-1.3-1.2l-0.7-2.4l-2,0.6l-2.5-0.2l-1.8-0.8l-0.8,1.2
		l-2.4-0.2l-0.5,2l-1.9,1.2l-1.6-0.9l-2.1,2.1l-2.7-2.4l-2.7,0.9l-1.6-0.6l-1.9-0.3l-1.9-1l-1-2.5l-1.5-0.5l-1.8,1.6l-0.6-3.3
		l0.5,20.8l9.1,1v5.4l4.5,0.6l0.4,6.2l0.3,8.9l2.9,4.4l1.2,5.1h0.2l-0.4,6.1l-8.3-0.3l-3.1,4.6l9,7.8l0.3,7l3.5,4l0.9,3.8l3.4,10.8
		l9.1,0.2l-0.9,7.4L541,426l-3.4,4.2l0.3,6.6l5.1,0.5l0.3,10.6h30.3l8.9-12l7.8-16.3l21-13.2l36.9-20.2v-15.8l3.5-6.5
		c0,0,3.5-14.9,3.9-16.4s3.9-8.5,3.9-8.5l0.8-7L657.8,331.4z"/>
	<polygon class="st0" points="500.2,292.6 499,299 500.2,293.5 500.2,291.7 500.1,291.7 	"/>
	<polygon class="st0" points="498.8,299.6 496.2,305.1 498.1,303 	"/>
	<path class="st1" d="M812.1,495.9l-2.3-1.4l-1.5,0.4l-2.6-1.7l-1.4-1.2l-0.7-1.5h-1l-0.7-1.9l-1.1-2.6l-0.5-1.1l-1.4-0.4l-2.6-1.1
		l-1.8-0.6l-2.7-1.3l-2.3,0.2v-1.6l-2.2-1.5l-1.8,0.9l-0.8-0.6l-0.8-1.3l-1.8-0.4l-1.6-1.3l-2.4,2.4v1.5l-1.6,1l-1.8,0.4l-2-0.7
		l-0.9,0.6l-1.7-0.2l-2.2,2l-1.5-0.9l-2,2.4l-1.7-0.2l-1.2-0.6l-1.8,1.4l-1.4,1.4l-0.6,3.1l-1.2,0.4l-2.2-0.3l-2.8-0.1l-1.9,0.9
		l-1.7,1l-2.1,0.7l-2.9-2.4l-3.1,2.1l-1.2-0.4l-1.2,0.4l-2.2-0.1l-1.8,1.5l-2,0.5l-1.1-1.2l-2.8-1.9l-2.7-1.6l-2.3,3.4l-3-2.4
		l-2.1-0.5l-1.6-1.1l-0.9-2.6l-0.7-1.9l0.7-3.1l-0.7-2.9l-0.7-2.1l1.4-3.7l-0.5-1.6l-0.5-2.5l0.5-2.1h-1.5l-0.4-1.3l-0.7-2.9l-1-1.7
		l-1.6-1.8l-2.7-1.1l-0.1-2l0.8-2.3l-0.7-2.2l-0.3-1.9l-0.8-2.3V444l0.9-2.7l1-2.7l1.4-1.9v-3.3l-1.1-0.6l-1.3-2.5l-1.3-1.1l0.4-1.5
		l0.1-1.7l1.2-1.8l0.9-1.4l-1.2-1.7l-0.7-1.5l1.9-0.6v-1.7l-1.6-1.6v-1.8l-1.8-1.1h-3V409l-1-1.9v-4.4l-2.1-1.5l0.2-1.3l1-2.4
		l-1.4-2.3l-0.7-1.9l-0.2-2.3l0.1-2.2l-1.1-1l-0.1-2.3l0.8-3.6l0.7-2.4l2.8-4v-6.4l-0.6-3.6l-1.4-2.8h-1.4l-0.9-1.4l-2.2-1.7
		l-0.9-1.5l-1.9-1.3l-1.7-3.3l-0.3-3.5l0.7-1.5l0.4-3.6l-0.7-3.5h-4l-0.7-1.5l-3.6-5l-2-3.2l-3.7,0.1l-1.7-0.4l-1.9,1l-1.9-0.1
		l-0.9-1l-2.6,0.8l-2.4-0.5l-1.8-0.4l-2.2,0.5l-0.8,7c0,0-3.5,7-3.9,8.5s-3.9,16.4-3.9,16.4l-3.5,6.5v15.9l-20.3,11.1l10.9,21.8
		l5.9,23l6.8,20.5l8.8,16.5l3.9,4.6l11.8-2.1l7.6-5.9l7.6-4.6l11.4,2.9l3.8,3l2.1,4.6L708,492l5.1,4.2l14,3.8l25.4,6.7H808l1.4-2.1
		l4.3-4.1v-2.2L812.1,495.9z"/>
	<polygon class="st2" points="719.8,490.1 722.8,492.5 723.5,491.3 716,488.4 717.7,489.6 	"/>
	<path class="st2" d="M727.1,500l-14-3.8L708,492l0.4-10.1l-2.1-4.6l-3.8-3l-11.4-2.9l-7.6,4.6l-7.6,5.9L664,484l-3.9-4.6l-8.8-16.5
		l-6.8-20.5l-5.9-23l-10.9-21.8l6.1-3.3l0,0l-22.7,12.4l-21,13.2l-7.7,16.3l-8.9,12l27.9,47.3l13.2,32.6l8,26.5l5.1,24.6v26
		l-4.2,10.4l-3.3,10.8v8.5l0.9,8v8l-4.7,5.2l-12.3,2.8l-11.8-2.4c0,0,1.9-2.4-7.1,0s0,1.9-9,2.4l-9,0.5l-8.5,2.4v6.6l2.4,7.1
		l5.7,4.3l2.8,5.2l7.6,4.7l9,5.2l7,4.7h7.6c2.1-1.7,5-1.7,7.1,0c3.8,2.8,0-0.9,3.8,2.8s-2.4-3.8,3.8,3.8s0-0.5,6.1,7.6
		c3.9,5.1,7.3,10.5,10.4,16.1l5.2,33.1l2.4,18.4l4.9,25.2l4.6-3.3l5.3-2.5l5.5,0.4l6.5,3.6l6.7-0.4l-3.3-21.5c0,0,3.4-12.8,3.3-14.2
		s4.7-15.6,4.7-15.6l4.7-10.9l4.3-9.5l5.9-7.7l7.3-9.6l3.8-10.8l1.9-11.5v-9.9l-7.6-3.3c0,0-1.4,0-7.1-4.7s-4.3-1.9-5.7-4.7
		l-0.2-0.4l0.2,0.4c0,0,5.2-19.8,5.7-21.7s3-9.4,3-9.4c1.5-3.7,2-7.8,1.4-11.8l-0.9-6.7l9-12.3l2.4-11.8c0,0,0.5-2.4,0-14.2
		s5-1.5-0.5-11.8c0,0-2.3-3.2-2-2c-0.2-0.7-0.7-2.3-1.8-5.5c-2.6-7.7-3.5-10.1-3.7-10.7l0.9-6.8l14.2-5.7l13.2-5.8l18-0.9l4.3-4.3
		v-23.2L727.1,500z M685,669l0.3,0.6L685,669z M684.9,668.9L684.9,668.9L684.9,668.9z"/>
	<path class="st0" d="M499.9,797.2l4-0.3l2.8,0.5l3.1,2.7l2.7,3.1l3.4-0.2l3.6-0.4l2.9,0.2l1.9,1.5l0.9,1.5l3.3,1.5l2.6,1.3l3,1.9
		l2.1,1.5l4.4,1.3l3.1-0.6l1.9-1.1l3.1-1l3.2,0.1l3.2,0.2l3.2,2.4l5.4,2.6l5.2,1.1l8.6-0.3l9.4-6.1h2.8l3.6,1.9l3.2,3.2l4.3,2.9
		l1.8-0.5l0.2-1.5l1-1.2l3-1.5l8.7-1.9l5.7,4l1.9,5.2l4,3.6h2.8l2.9-3.6l3.5-4l1.5-4.8l2.7-2.8l4-2.8l-4.9-25.2l-2.4-18.4l-5.2-33.1
		c-3.1-5.6-6.5-11-10.4-16.1c-6.1-8,0,0-6.1-7.6s0,0-3.8-3.8s0,0-3.8-2.8c-2.1-1.7-5-1.7-7.1,0h-7.6l-7-4.7l-9-5.2l-7.6-4.7
		l-2.8-5.2l-5.7-4.3l-2.4-7.1v-6.6l-13.7-2.5l-17.4-16.3l-0.7,0.1l-0.6-0.9l-1.8-1.3l-1.2,0.3v1.5l-0.1,4.1l-0.8,0.4l-1.1-0.8
		l-1.9-1.4l-1.9,1.2l-0.7,1.7l-1.2,2.1l0.3,1.4l2.6-0.1l0.4,0.7l-3.5,3.4l-2.3,0.9l-2.1-0.7l-0.9,0.5l0.9,2l2.3,2.3l-0.5,2.5
		l-1.5,1.6l-2.1-0.1l-1.7,1l0.1,2.5l1.6,1.2l0.5,1.4l-1.8,1.1l-1.7,0.4l-1.3,2.5l1,1.3l2.2,1.3l0.3,1.4l-1.1,1.6l-2,0.1l-2.8,1.7
		l-2.1,2.8l-2.8,2l-4.3,2.4l-2.3-0.5l-1.8,0.7l-1.9,1.7l-1.2,1.5l-0.4,3.6l-1.9-0.7l-1.1,0.3c0.4,0.5,0.8,1,1.1,1.5
		c0,0.2,1.5,1.2,1.5,1.2l1.6,0.7l0.2,1.5l-2.4,1.9l-2.7,0.8l-0.2,2.7l1.1,1.7l-0.1,1.9l-1.5,2.7c-0.7,0.4-1.4,0.7-2.2,1
		c-0.2,0-1.5,1.2-1.5,1.2L478,717l1.5,2.4l1.9,1.9l-1,0.6l-2.1-0.2l-1.1,0.7l0.3,1.5l1.8,1.1l-1,2.3l-0.3,2.2l1.3,1l0.6,1.1l0.3,2.2
		l-0.3,2l-0.3,1.1l1,1.7l-0.7,1.2l-1.4,0.3l-1.6-0.6l-1-0.9l-0.9,0.1l0.2,1.6l0.4,1.9l0.2,4.9l0.6,1.7l-1.7,1.1l-1.6-0.7l-0.9,0.7
		l0.7,1.7l-0.2,1.5l-2.9,0.6l-0.9,0.8c0,0,0.6,2.7,0.7,2.9c0.1,0.7,0.2,1.3,0.2,2l-1,0.6l-2.9-1l-0.7,2.8l-4.1,2.4l-4.1,1l-1.5-0.5
		v1.7l2.5,4.3l-0.6,1.5l-3.1-0.7l-0.6,1.5c0.5,0.6,1,1.2,1.6,1.8c0.2,0.1,0,1.7,0,1.7l-1,1.2l-1-2l-1-0.2l-1.5,0.1v6.9l-2.2,0.2
		l-3.1,0.2l-2.2,0.8l-1.4,4l0.9,2.2l1.9,1.5l2.7,1l0.6,2.5v2.1l-1.2,1.7l0.2,1.2h2.7l2.6-0.2l1.5-1l2.6-1.1l2.3,0.2l3.6,1l2.8-0.3
		l3.6-0.5l4.7-1l2.4-1.2l1.9,1l3.3,1l3.1,0.2l4.6-0.8l5.6-0.9l2.6,0.3L499.9,797.2z"/>
	<polygon class="st3" points="521.3,612.7 521.4,612.2 519.6,609.6 520.8,612 	"/>
	<polygon class="st3" points="500.2,291.7 500.2,291.7 500.2,293.5 	"/>
	<polygon class="st3" points="499,299 500.2,293.5 499,299 	"/>
	<polygon class="st3" points="496.2,305.1 498.1,303 496.2,305.1 	"/>
	<polygon class="st3" points="719.8,490.1 722.8,492.5 723.5,491.3 716,488.4 717.7,489.6 	"/>
	<path class="st3" d="M685.4,669.9l0.1,0.2L685.4,669.9z"/>
	<path class="st3" d="M685.5,670.1l-0.1-0.2L685.5,670.1z"/>
	<path class="st3" d="M558.9,661.6l8.5-2.4l9-0.5c9-0.5,0,0,9-2.4s7.1,0,7.1,0l11.8,2.4l12.3-2.8l4.7-5.2v-8l-0.9-8v-8.5l3.3-10.8
		l4.2-10.4v-26l-5.1-24.6l-8-26.5l-13.2-32.6l-28-47.4h-30.3l-5.3,2.8l1.5,3.4l20.8,12.3l-1.2,15.5l-4.5,2.6l7.7,10.5l1.1,10.5
		l-3.7,0.5l-1.1,5.1l6.1,0.5l0.3,9.7l4.3,0.7l0.3,34.3L559.2,567l-0.6,7l6,3.7l-1.4,5.5h-7L556,589l-10.8,6.8l-9.4,0.7l1.1,7.7
		l-2.1,4.7l-8.7,3.6l-3.9,1.4l-0.9-1.2l-0.1,2.5l2.8,2.8l3.8,3.3l2.6,1.9l3.3,4l-1.9,5.7l0.9,1.5l-0.7,2.3l-0.2,1.6l-1.8-0.2l-0.7,1
		l-0.1,1.9l-0.6,1.7l-0.8,0.1l17.4,16.2L558.9,661.6z"/>
	<polygon class="st3" points="500.2,292.6 499,299 500.2,293.5 500.2,291.7 500.1,291.7 	"/>
	<polygon class="st3" points="496.2,305.1 498.1,303 498.8,299.6 	"/>
	<polygon class="st3" points="723.5,491.3 723.5,491.3 722.8,492.5 	"/>
	<path class="st3" d="M685.5,670.1l-0.1-0.2L685.5,670.1z"/>
	<path class="st3" d="M737.3,502.7l11,2.9v23.2l-4.3,4.3l-18,0.9l-13.2,5.7l-14.2,5.7l-0.9,6.8c0.3,0.6,1.2,3,3.7,10.7
		c1.1,3.2,1.6,4.8,1.8,5.5c-0.3-1.1,2,2,2,2c5.4,10.3,0,0,0.5,11.8s0,14.2,0,14.2l-2.4,11.8l-9,12.3l0.9,6.7c0.6,4,0.1,8.1-1.4,11.8
		c0,0-2.4,7.6-2.8,9.5s-5.7,21.7-5.7,21.7c1.4,2.8,0,0,5.7,4.7s7.1,4.7,7.1,4.7l7.6,3.3v9.9l-1.9,11.5l-3.8,10.8l-7.3,9.6l-5.9,7.7
		l-4.3,9.5l-4.7,10.9c0,0-4.7,14.2-4.7,15.6s-3.3,14.2-3.3,14.2l3.3,21.5l1.8,4.1l1.9,1.9l1.5,2.3l3.6,0.9h3.5l1.2-0.8l1.3-2.3
		l2.3-2.8l2.4-0.9l2-0.7l1.9-1.7l1.5-1.5l-1.3-4.2l1-0.7l1.5-1.6l-0.7-2l-2.9-3.9l0.2-2.3l1.5-0.9l1.4,0.4h1.5l0.2-1.4l-0.3-1.4
		l1-2.3l1.9-0.7l2.9,0.7h3l0.7-1l-0.2-2.6l1.1-4.8l2.8-2.9l4-2l5.4-0.3l1.3-1l2.9-0.8l3.4,2.6c0,0,3.2-0.5,3.9-0.7s2.6-0.9,2.6-0.9
		l0.2-1.5l-1.2-2.4l0.3-3.8l2.2-1.8l3.5-3.2l2.1-1.5l3.2-0.5h3l1.8-0.5l0.7-1.9l0.1-2.3l0.1-2.8l0.2-1.9l3.6-2.3l3.2-0.7l2.5,1.6
		h1.4l1.6-2.3l1.2-2.3l-0.7-3.3l-1.2-1.7l0.5-3.4l2.1-2.3l2.8-2.1l3-2.8l1.2-3.3l0.2-3l0.9-2.7l2.6-3.1l0.5-2.3l-1.8-1.7l-0.6-1.7
		l1.6-1.5l2-1.3l1.5-2.3l-3.6-2.5l-1.1-2.6l1.2-2l1.5-1.7l-0.4-2.8l-0.7-3.5l-1.7-2.8l0.3-1.9l1.5-1.1h3.2l0.8-0.7l0.2-1.3l-0.7-1
		l-0.1-3.1l0.2-1.7l0.7-1.9l1.9-4.1l-3.6-5.2l-0.2-3.6l-1.8-3.5l-0.3-3l1.4-0.7h1.9l2.1,0.7l1-0.5l-0.6-2l-0.3-2.8v-3.1l-0.1-3.7
		l0.3-4.1l-2.1-2.3l0.1-1.6l1.3-1.2l2.2-4l2.1-2.3l2-2.3l1.9-1.9l1.7-2l1.1-3.8l1.2-4.4l3-3.2l1.3-2.2l-1.1-2.7l-1.7-2.6l-0.2-2.6
		l0.3-3.4l1.2-8.4l3.3-10.8l1-4.6l2.4-5.2l2.8-3l0.8-4.5l0.1-6l-0.6-3.9l-0.2-3.1l1-3.5l2.7-3.6l1.1-2.5l1.6-3.2v-1.7l-0.7-3
		l-1.4-3.4l-1.9-1.4l-1.5-2.7l-0.1-4.8l-1.3-2.5l0.1-2.1h-55.5L737.3,502.7z"/>
	<polygon class="st3" points="663.3,803.1 666.5,804.4 660,800.9 	"/>
	<polygon class="st3" points="809.4,504.6 809.9,504.1 809.9,504.1 	"/>
	<polygon class="st3" points="658.7,800.8 658.7,800.8 660,800.9 	"/>
	<path class="st4" d="M397.6,53.2l79.4,49.2l0.9,8.2l0.9,6.7l1.1,7.3l0.3,4.1l-1.5,5.8l3.5,2l1.7,5.9l1.8,9.6l5.5,3.8l2,5.9
		l-3.3,4.8l2.5,6.8l1.7,4.8l-0.5,9.1l6.1-6.8l5.3,8.5l-6.1-0.8l-4.2,5.8l8.3-0.1l3.3,4.9l-6.6,2.8l4.9,5.9l3.8,4.4l-3,6l0.4,6v5.6
		l-5.5,9.3l6,4.1l-2.6,4.3l-4.7,9.5l-2.5,6.6l4.7,3.8l-1.7,4.3l3.5,5.2l-3.9,4.8l1.2,7l0.1,5.1l-2.3,9.6l-3.5,3.9l1.3,7.8l1.8-1.6
		l1.5,0.5l1,2.5l1.9,1l1.9,0.3l1.6,0.6l2.7-0.9l2.7,2.4l2.1-2.1l1.6,0.9l1.9-1.2l0.5-2l2.4,0.2l0.8-1.2l1.8,0.8l2.5,0.2l2-0.6
		l0.7,2.4l1.3,1.2l0.5,2.5l1.1,1.5h1.7l1,0.5l2.1-1l3.4,1.9h3.6l2.4,0.5l2.6,0.6l0.6,1.3l1.2,0.9l2.1,0.6l2.6-0.5l1.9-0.9l1.9,1.6
		l1.7,0.7l1.9,0.2l2.3-1.7v-0.8l4.9,1.1l1-0.2l3.4,1l3.4-0.3l2.2-0.1l2.9-0.8l1.6,1l1.7,0.5l4.3,1.6l1.5-1.1l1.1,1.7l1.1,2.3
		l2.3-0.1l2.7-1.2l0.8-2.4h1.5l1.9-0.9l3,0.6l2.2-0.7v-1.5l2.8,2.1l2,0.5l3.1-1.5l1.5-1.7l2.8-1.9l1-2.1l1.7-2.6l1.2-3.7l1.4-1
		l2.8-1.5l2.2,0.3l4-0.7l1,1.9l1.2,3.3l0.6,3.5l1.5,1.5l3.6,2.9l2,1.2l2.3,1l1.5-0.2l0.9,2.4l2.5,1.5l3.3,0.5h3.3l1.1-0.6l2.3,0.6
		l2.2-0.5l1.8,0.4l2.4,0.5l2.6-0.8l0.9,1l1.9,0.1l1.9-1l1.7,0.4l3.7-0.1l2,3.2l3.6,5l0.7,1.5h4l0.7,3.5l-0.4,3.6l-0.7,1.5l0.3,3.5
		l1.7,3.3l1.9,1.3l0.9,1.5l2.3,1.6l0.9,1.4h1.4l1.4,2.8l0.6,3.6v6.4l-2.8,4l-0.7,2.4l-0.8,3.6l0.1,2.3l1.1,1l-0.1,2.2l0.2,2.3
		l0.7,1.9l1.4,2.3l-1,2.4l-0.2,1.3l2.1,1.5v4.4l1,1.9v3.7h3l1.8,1.1v1.8l1.6,1.6v1.6l-1.9,0.6l0.7,1.5l1.2,1.7l-0.9,1.4l-1.2,1.8
		l-0.1,1.7l-0.4,1.5l1.3,1.1l1.3,2.5l1.1,0.6v3.3l-1.4,1.9l-1,2.7l-0.9,2.6v2.4l0.8,2.3l0.3,1.9l0.7,2.2l-0.8,2.3l0.1,2l2.7,1.1
		l1.6,1.9l1,1.7l0.7,2.9l0.4,1.3h1.5l-0.5,2.1l0.5,2.5l0.5,1.6l-1.4,3.7l0.7,2.1l0.7,2.9l-0.7,3.1l0.7,1.9l0.9,2.6l1.6,1.1l2.1,0.5
		l3,2.4l2.3-3.4l2.7,1.5l2.8,1.9l1.1,1.2l2-0.5l1.8-1.5l2.2,0.1l1.2-0.4l1.2,0.4l3.1-2.1l2.9,2.4l2.1-0.7l1.7-1l1.9-0.9l2.8,0.1
		l2.2,0.3l1.2-0.4l0.6-3.1l1.4-1.4l1.8-1.3l1.2,0.6l1.7,0.2l2-2.4l1.4,0.8l2.1-2.1l1.7,0.2l0.9-0.6l2,0.7l1.8-0.4l1.6-1v-1.5
		l2.4-2.4l1.6,1.3l1.8,0.4l0.8,1.3l0.8,0.6l1.8-0.9l2.2,1.5v1.6l2.3-0.2l2.7,1.3l1.8,0.6l2.6,1.1l1.4,0.4l0.5,1.1l1.1,2.6l0.7,1.9h1
		l0.7,1.5l1.5,1.2l2.6,1.7l1.5-0.4l2.3,1.4l1.5,2.4v2.2l-4.3,4.1l-1.4,2.1l-0.1,2.1l1.3,2.5l0.1,4.8l1.5,2.7l1.9,1.4l1.4,3.4l0.7,3
		v1.7l-1.6,3.2l-1.1,2.5l-2.7,3.6l-1,3.5l0.2,3.1l0.6,3.9l-0.1,6l-0.8,4.5l-2.8,3l-2.4,5.2l-1,4.6l-3.3,10.8l-1.2,8.4l-0.3,3.4
		l0.2,2.6l1.7,2.6l1.1,2.7l-1.3,2.2l-3,3.2l-1.2,4.4l-1.1,3.8l-1.7,2l-1.9,1.9l-2,2.3l-2.1,2.3l-2.2,4l-1.4,1.2l-0.1,1.6l2.1,2.3
		l-0.3,4.1l0.2,3.7v3.1l0.3,2.8l0.6,2l-1,0.5l-2.1-0.7H780l-1.4,0.7l0.3,3l1.8,3.5l0.2,3.6l3.6,5.2l-1.9,4.1l-0.7,1.9l-0.2,1.7
		l0.1,3.1l0.7,1l-0.2,1.3l-0.8,0.7h-3.2l-1.5,1.1l-0.3,1.9l1.7,2.8l0.7,3.5l0.4,2.8l-1.5,1.8l-1.2,2l1.1,2.6l3.6,2.5l-1.5,2.3
		l-2,1.3l-1.6,1.5l0.6,1.7l1.8,1.7l-0.5,2.3l-2.6,3.1l-0.9,2.7l-0.2,3l-1.2,3.3l-3,2.8l-2.8,2.1l-2.1,2.3l-0.5,3.4l1.2,1.7l0.7,3.3
		l-1.2,2.3l-1.6,2.3h-1.4l-2.5-1.6l-3.2,0.7l-3.6,2.3l-0.2,1.9l-0.1,2.8l-0.1,2.3l-0.7,1.9l-1.8,0.5h-3l-3.2,0.5l-2.1,1.5l-3.5,3.2
		l-2.2,1.8l-0.3,3.8l1.2,2.4l-0.2,1.5c0,0-1.9,0.7-2.6,0.9s-3.9,0.7-3.9,0.7l-3.4-2.6l-2.9,0.8l-1.3,1l-5.4,0.3l-4,2l-2.8,2.9
		l-1.1,4.8l0.2,2.6l-0.7,1h-3l-2.9-0.7l-1.9,0.7l-1,2.3l0.3,1.4l-0.2,1.4h-1.5l-1.4-0.4l-1.5,0.9l-0.2,2.3l2.9,3.9l0.7,2l-1.5,1.6
		l-1,0.7l1.3,4.2l-1.5,1.5l-1.9,1.7l-2,0.7l-2.4,0.9l-2.2,2.8l-1.3,2.3l-1.2,0.8H682l-3.6-0.9l-1.5-2.3l-1.9-1.9l-1.8-4.2l-6.7,0.4
		l-3.2-1.4l-3.3-2.2l-5.5-0.4l-3.5,1.2l-6.4,4.6l-4,2.8l-2.7,2.9l-1.5,4.8l-3.5,4l-2.9,3.6h-2.8l-4-3.6l-1.9-5.2l-5.7-4l-8.7,1.9
		l-3,1.5l-1,1.2l-0.2,1.5l-1.8,0.5l-4.3-2.9l-3.2-3.2l-3.6-1.9h-2.8l-9.4,6.1l-8.6,0.3l-5.2-1.1l-5.4-2.6l-3.2-2.4l-3.2-0.2
		l-3.2-0.1l-3.1,1l-1.9,1.1l-3.1,0.6l-4.4-1.3l-2.1-1.5l-3-1.9l-2.6-1.5l-3.3-1.5l-0.9-1.5l-1.9-1.5l-2.9-0.2l-3.6,0.4l-3.4,0.2
		l-2.7-3l-3.1-2.7l-2.8-0.5l-4,0.3l-3.1-0.4l-2.6-0.3l-5.6,0.9l-4.6,0.8l-3.1-0.2l-3.3-1l-1.9-1l-2.4,1.2l-4.7,1l-3.6,0.5l-2.8,0.3
		l-3.6-1l-2.3-0.2l-2.6,1.1l-1.5,1l-2.6,0.2h-2.7l-0.2-1.2l1.2-1.7V795l-0.6-2.5l-2.7-1l-1.8-1.5l-0.9-2.2l1.4-4l2.2-0.8l3.1-0.2
		l2.2-0.2v-6.9l1.5-0.1l1,0.2l1,2l1-1.2c0,0,0.2-1.6,0-1.7c-0.6-0.6-1.1-1.1-1.6-1.8l0.6-1.5l3.1,0.7l0.6-1.5l-2.5-4.3v-1.7l1.5,0.5
		l4.1-1l4.1-2.4l0.7-2.8l2.9,1l1-0.6c0-0.7,0-1.3-0.2-2c-0.2-0.2-0.7-2.9-0.7-2.9l0.9-0.8l2.9-0.6l0.2-1.5l-0.7-1.7l0.9-0.7l1.6,0.7
		l1.7-1.1l-0.6-1.7l-0.2-4.9l-0.4-1.9l-0.2-1.6l0.9-0.1l1,0.9l1.6,0.6l1.4-0.3l0.7-1.2l-1-1.7l0.3-1.1l0.3-2l-0.3-2.2l-0.6-1.1
		l-1.3-1l0.3-2.2l1-2.3l-1.8-1.1l-0.3-1.5l1.1-0.7l2.1,0.2l1-0.6l-1.9-1.9l-1.6-2.4l0.4-2.6c0,0,1.2-1.2,1.5-1.2
		c0.7-0.3,1.5-0.6,2.2-1l1.5-2.8l0.1-1.9l-1.1-1.7l0.2-2.7l2.7-0.8l2.4-1.9l-0.2-1.5l-1.6-0.7c0,0-1.5-1-1.5-1.2
		c-0.3-0.6-0.7-1.1-1.1-1.5l1.1-0.3l1.9,0.7l0.4-3.6l1.2-1.5l1.9-1.7l1.8-0.7l2.3,0.5l4.3-2.4l2.8-2l2.1-2.8l2.8-1.7l2-0.1l1-1.5
		l-0.3-1.4l-2.2-1.3l-1-1.3l1.3-2.5l1.7-0.4l1.8-1.1l-0.5-1.4l-1.6-1.2l-0.1-2.5l1.7-1l2.1,0.1l1.5-1.6l0.5-2.5l-2.2-2.3l-0.9-2
		l0.9-0.5l2.1,0.7l2.3-0.9l3.5-3.4l-0.4-0.7l-2.6,0.1l-0.3-1.4l1.2-2.1l0.7-1.7l1.9-1.1l1.9,1.4l1.1,0.8l0.8-0.4l0.1-4.1V641
		l1.2-0.3l1.8,1.3l0.6,0.9l1.5-0.2l0.6-1.7l0.1-1.9l0.7-1l1.8,0.2l0.2-1.6l0.7-2.3l-0.9-1.5l1.9-5.7l-3.3-4l-2.6-1.9l-3.8-3.3
		l-2.8-2.8l0.1-3.1l-4.4-6.5l-0.2-1.9l-1.9-3.8l-4-1.8l-2.2-3.3l-2.5-2.4l-5.6-0.2l-2.8,0.5l-1.9-0.7l-0.6-2.9h-4.3l-1.8-0.2
		l-0.7-1.9l-3.1-0.3l-1.9-2l-1-1.6l-2.7-0.5l-1.3-1.3l-1.3-1.9l-1.7-0.8l-3.7,2.1l-3.2,3.5l-1.7,1l-1.6-1.3l-2.8-2.9l-1.2-1.6
		l-1.9-1.5l-0.3-2.5l-4-2.8l-4.1-1.4l-1.6-0.5l-0.9-0.3l-2-0.3l-1.9-0.8l-1.2,0.4l-2.8-0.4l-1.9,0.6l-1.1,0.1l-0.9-0.3l-1-1.5
		l-1.4-3.1h-1.8l-3.6-0.1l-2.6-1l-3.8-3.2l-1.9,0.1l-2.6-2.6l-2.2-1.4l-2.9-2.3l-1.9-0.1l-3-0.4l-1.4-1.5l-1.7-0.8l-2.3-1h-2
		l-1.5-0.1l-1.3-1.5c-0.5-0.4-0.9-0.8-1.3-1.2c-0.4-0.4-0.8-0.8-1.2-1.1l-2.8-2l-3.1-0.7l-1-2l-0.6-1h-2.2l-1.9-1.3l-1.7-0.7
		l-1.3-0.2l-2-3.6l-1-2.1l-1-1.3l-1.3-0.2h-1.3l-1-1.9l-1.4-0.1l-0.8-1.4l-0.3-1.4l-1.8-1l0.2-1.3l-48.6-29.2
		c-0.4-0.1-0.7-0.1-1.1-0.1c-0.2,0-0.3,0-0.5,0.1c-0.7,0.3-1.3,0.6-1.9,1l-2.7,0.9l-2.3,0.9l-5.3,0.6l-3.5,0.2l-2.7,0.5l-2.8-0.2
		l-2.3-1.3l-1.9,0.2l-1,0.2l-1.5-1.9l-1.5-1.3l-2.9-1.1l-2.1-1l-1.9-1l-2.2-0.1l-1.1,0.6l-3-0.5l-1.1-0.2l-1.8-0.2l-0.5-1.8
		l-0.1-2.6l-1.5-0.5l-4.3,0.1l-3.1-1.4l-4.6-1.3l-3-0.1l-3-0.4l-2,0.1l-4.2-2.7l-3.1-2.1l-0.8-0.5l-1.1,0.9l-2.4-0.5l-0.9,0.7
		l-3.3-4.1l-0.4-2.6l-2.6-3.1l-2.5-2.4l-1.9-2.9l0.4-4l-1.5-1.8l-2.6-1.1l-1.9-1.5l-0.7-1.5l-4,0.3l-2-1l-2.3-2.1l-0.7-2l-1.3-1.2
		l-1.9-0.2l-2.3-0.2v-1.5l-2.2,0.8l-4.6-1.9l-1.7-1.7l-3.5,0.1l-3.4-4.5l-0.2-2.9l-4.1-0.4l-0.9-2.5l-1.4-0.9l-1.9-1.8l-3.8-0.1
		l-2.5-0.2l-2.8-3.6l-2-0.2l-0.9-5.6l-1.8-0.3l-3.3-0.6l-2.3-2.4l-0.4-1l-1.9-4.1l-2.9-0.2l-1.6-1.9l-1.2,0.6l-1.7-0.9l-1.9-2.3
		l-1.9-0.8l-0.8-1.4l-1.4-1.5l-0.2-6.3l-1.7-0.2l-1.2-4.3l-3.3-2.8l-0.5-2.2l-0.9-0.8l-1.9,0.6l0.3-1.5l-1.9-0.9l-1.1-2.8l-1.9-0.7
		l0.2-1.4l-1.6-2l-2.1-1.7l0.2-2.5l-0.1-2.8l-1.9-1.5l-1,0.8l-2.1-1.9l1-3l0.9-3.3l-1.9-1.5l-0.6-1.5l-1.5,1l-0.9-0.9l0.6-2.3h-5.8
		l-1.6-0.1l-4.4,0.1l-1.8-2.5l-1.3-2.1l-0.9-1.2c-0.3-0.5-0.6-1-0.8-1.5c0-0.2-1.4-1-1.4-1l-1.6-0.9l-3.2-1l-2.4-1.1
		c0,0-1.8-1.5-1.8-1.7s-1.8-0.8-1.8-0.8l-1.1-1.3l-1-1l-1.3-1.8l-1.1-0.8l-0.5-2.1l30-111.2l-2.2-49.2l28.5-44l16.8-44L260,72.4
		L317.3,55L397.6,53.2 M714.7,465.9L714.7,465.9 M397.6,42.2h-0.2L317.1,44c-1,0-2,0.2-3,0.5l-56.7,17.3l-96.8,17.4
		c-3.8,0.7-7,3.3-8.3,6.9l-16.4,42.9l-27.8,43c-1.2,1.9-1.9,4.2-1.8,6.5l2.1,47.5L78.7,335.4c-0.5,1.8-0.5,3.6-0.1,5.4l0.5,2.1
		c0.5,2.4,1.8,4.5,3.7,6l0.3,0.4c0.4,0.5,0.8,1,1.2,1.5l0.6,0.6l0.7,0.9c1.1,1.4,2.5,2.5,4.1,3.2c0.4,0.4,0.9,0.7,1.2,1
		c0.7,0.6,1.5,1.1,2.3,1.5l2.4,1.1c0.4,0.2,0.9,0.4,1.3,0.5l1.4,0.4l0.5,0.7l0.9,1.6c0.2,0.3,0.3,0.5,0.5,0.8l1.8,2.5
		c2.1,2.9,5.4,4.6,9,4.6h0.3l2.9-0.1c-0.2,3.3,1.1,6.4,3.5,8.6l1.5,1.4c0.4,2.7,1.8,5.2,4,6.9l0,0c0.7,2,1.9,3.8,3.6,5.1
		c0.4,0.7,0.8,1.4,1.3,2c1.1,2.4,3,4.3,5.4,5.4c0.3,0.3,0.6,0.6,0.9,0.8l0.7,0.6l0.3,1c0.3,1.1,0.8,2.2,1.5,3.2v0.7
		c0.1,2.7,1.2,5.2,3,7.1l0.5,0.5l0.2,0.3c1.1,1.9,2.8,3.4,4.8,4.4l0.3,0.3c0.9,1.1,2,1.9,3.3,2.6l1.7,0.9c0.7,0.4,1.5,0.7,2.2,0.9
		c0.3,0.2,0.7,0.4,1,0.5c0.5,1.1,1.2,2.1,2,3l2.3,2.4c1,1,2.2,1.9,3.5,2.4c1,3,3.3,5.3,6.2,6.5l0.3,0.4c1.9,2.5,4.8,4,8,4.3l1.8,0.1
		c1.2,2,3,3.6,5.2,4.5l3.3,4.3c2,2.6,4.9,4.1,8.1,4.3c0.5,0.3,1,0.6,1.5,0.8l4.6,1.9c0.7,0.3,1.5,0.5,2.2,0.7
		c0.6,0.3,1.2,0.5,1.9,0.6c0.3,0.3,0.6,0.7,0.9,1l2.3,2.1c0.8,0.8,1.7,1.4,2.7,1.9l2,1c1.3,0.6,2.7,1,4.2,1.1l0,0
		c0.2,1.7,0.8,3.2,1.8,4.6l1.9,2.9c0.4,0.7,0.9,1.3,1.5,1.8l2.1,2l0.3,0.3c0.3,1.7,1.1,3.4,2.2,4.7l3.3,4.1c2.6,3.3,6.9,4.8,11,3.8
		l0,0l4.2,2.7c1.8,1.1,3.8,1.7,5.9,1.7h0.4h1.1l2,0.3c0.4,0.1,0.8,0.1,1.2,0.1h1.6l2.5,0.7l2.3,1c0.5,0.2,1,0.4,1.5,0.6
		c1.7,2.8,4.6,4.6,7.8,5.1l1.7,0.2l1,0.1l2.9,0.5c1.1,0.2,2.2,0.2,3.3,0l1.2,0.5l0.6,0.3l0.7,0.3l0.4,0.5c2.1,2.7,5.3,4.2,8.7,4.2
		h0.7c1.1,0.5,2.4,0.8,3.6,1l2.8,0.2c0.3,0,0.7,0,1,0c0.7,0,1.3-0.1,2-0.2l2.1-0.4l2.9-0.2h0.4l5.3-0.6c1-0.1,1.9-0.3,2.9-0.7l2-0.8
		l0.8-0.3l40.8,24.5c0.6,1,1.4,1.8,2.2,2.6l0.5,0.9c2.1,2.6,4.6,4.8,7.5,6.5l1.4,2.5c1.6,2.8,4.3,4.7,7.4,5.3l0.7,0.5
		c0.5,0.3,1,0.7,1.6,0.9c1.6,2,3.9,3.4,6.4,3.9l0.8,0.2l0.4,0.3c0.6,0.6,1.2,1.2,1.8,1.8l0.7,0.8c1.9,2.2,4.7,3.5,7.6,3.7l1.5,0.1
		h0.1c1.7,1.8,4,2.9,6.4,3.2l2.3,0.3l0.3,0.2c0.3,0.2,0.6,0.4,0.9,0.6l1.1,0.7l1.7,1.7c1.5,1.5,3.4,2.5,5.5,3l0.9,0.8
		c0.9,0.8,2,1.4,3.2,1.8l2.6,1c0.8,0.3,1.7,0.5,2.6,0.6c1.4,2.1,3.6,3.6,6,4.3l0.9,0.3c1,0.3,2,0.4,3,0.4h0.6l1.1-0.1
		c0.7,0,1.4-0.2,2.1-0.3l0.5,0.1c0.5,0.1,1,0.1,1.6,0.1h0.3c0.3,0.1,0.7,0.2,1,0.2l1.3,0.2l0.2,0.1l1.5,0.5l1.7,0.5
		c0.7,1.7,1.9,3.2,3.3,4.3l0.7,0.6l0.3,0.5c0.3,0.3,0.5,0.7,0.9,1l2.8,2.9c0.4,0.4,0.8,0.8,1.2,1.1l1.6,1.3
		c3.5,2.7,8.3,3.1,12.2,0.8l1.7-1c0.5-0.3,1-0.6,1.5-1l0.6,0.2l1.3,1.4c3.3,2.4,7,4.3,10.9,5.6c1.1,1,2.3,1.8,3.7,2.4l1.9,0.7
		c1.9,0.7,3.9,0.9,5.9,0.6l1.5-0.3l0.7,1c1.1,1.6,2.6,2.9,4.4,3.7c0.3,1.3,0.8,2.5,1.6,3.7l2.4,3.6c0,2.8,1.2,5.5,3.1,7.5l2.8,2.8
		c0.2,0.2,0.4,0.4,0.7,0.6l3.8,3.3l0.5,0.4v0.1l-0.3,0.1c-2.8,0.7-5.1,2.5-6.6,5h-0.1l-1.9,1.1c-2.2,1.3-3.8,3.2-4.7,5.6l-0.3,0.9
		l-0.8,1.3c-0.3,0.6-0.6,1.2-0.8,1.8l-0.3,0.2c-4.2,2.3-6.5,7-5.6,11.8c-1.9,2.1-2.9,4.9-2.8,7.7v1l-0.1,0.2l-1.3,2.5
		c-0.9,1.7-1.3,3.5-1.2,5.4l-0.2,0.2l-1.1,1.5l-1,0.7l-0.3,0.2h-0.2c-1.3,0-2.6,0.2-3.8,0.7l-1.8,0.7c-1.4,0.5-2.6,1.2-3.7,2.2
		l-1.9,1.7c-0.4,0.3-0.7,0.7-1,1.1l-1.2,1.5c-0.2,0.3-0.5,0.6-0.7,0.9c-4.3,2.6-6.3,7.8-4.8,12.6c-0.5,1.1-0.8,2.3-0.9,3.5l-0.2,2.7
		c0,0.3,0,0.6,0,0.9c-0.4,0.3-0.6,0.6-0.9,0.9c-1.6,1.6-2.7,3.8-3.1,6.1l-0.4,2.6c0,3.1-0.2,6.3-0.6,9.4l0.3,1.5
		c0.1,0.4,0.2,0.9,0.4,1.3v0.3c-0.2,1.1-0.2,2.2,0,3.2c-2.4,2.5-3.5,5.9-3,9.3l0.2,1.6v0.3c-1.1,1.1-1.9,2.3-2.5,3.7l-0.5,0.5
		c-1.6,2.6-3.4,5.1-5.4,7.4h-0.8c-6.1,0-11,4.9-11,11l0,0v1.7c0,0.1,0,0.1,0,0.2c-2.3,1.6-3.9,3.9-4.5,6.6l-0.6,0.2
		c-3.1,1.1-5.5,3.6-6.6,6.7l-1.4,4c-0.9,2.5-0.8,5.3,0.2,7.8l0.9,2.2c0.7,1.7,1.8,3.2,3.2,4.3c0,0.9,0,1.7,0.2,2.6l0.2,1.2
		c1,5.1,5.5,8.8,10.8,8.8h2.7h0.7l2.6-0.2c1.8-0.1,3.6-0.7,5.2-1.7l1.1,0.3c1.4,0.4,2.9,0.5,4.3,0.4l2.8-0.3h0.2l3.6-0.5
		c0.3,0,0.6-0.1,0.9-0.2l4.7-1h0.1l1.9,0.6c0.8,0.3,1.6,0.4,2.5,0.5l3.1,0.2c0.3,0,0.6,0,0.9,0c0.6,0,1.3-0.1,1.9-0.2l4.5-0.8l4-0.6
		l1,0.1l3.1,0.4c0.5,0.1,0.9,0.1,1.4,0.1c0.3,0,0.6,0,0.9,0l1.3-0.1l2.1,2.4c2.1,2.3,5.1,3.7,8.2,3.7h0.6l3.4-0.2l0.7,0l0.8-0.1
		c0.9,0.8,1.9,1.4,2.9,1.9l3.1,1.3l1.9,0.9l2.3,1.5l1.9,1.3c1,0.7,2,1.2,3.1,1.5l4.4,1.3c1.7,0.5,3.4,0.6,5.1,0.3l3.1-0.6
		c1.3-0.2,2.5-0.7,3.5-1.3l0.9-0.5h0.2h0.9l0.4,0.3c0.6,0.5,1.3,0.9,2,1.2l5.4,2.6c0.8,0.4,1.6,0.6,2.4,0.8l5.2,1.1
		c0.8,0.2,1.6,0.3,2.3,0.3h0.4l8.6-0.3c2-0.1,3.9-0.7,5.6-1.8l4.7-3l0.6,0.6c0.5,0.5,1,0.9,1.6,1.3l4.3,2.9c2.7,1.8,6,2.4,9.1,1.5
		l1.8-0.5c2.6-0.7,4.9-2.4,6.4-4.7l0.6-0.1l0.4,1.1c0.6,1.7,1.7,3.2,3,4.4l4,3.6c2,1.8,4.6,2.7,7.3,2.7h2.8c3.3,0,6.5-1.5,8.6-4.1
		l2.8-3.4l3.3-3.8c1-1.2,1.8-2.6,2.3-4.2l0.7-2.4l0.1-0.1l3.1-2.2l0.1-0.1l5-3.6h0.3l0.9,0.6c0.6,0.4,1.1,0.7,1.8,0.9l3.2,1.4
		c1.4,0.6,2.8,0.9,4.3,0.9h0.2l0.3,0.3l1.2,1.3l1,1.5c1.5,2.2,3.8,3.8,6.4,4.5l3.6,0.9c0.9,0.2,1.8,0.3,2.7,0.3h3.5
		c2.2,0,4.3-0.6,6.1-1.8l1.2-0.8c1.4-0.9,2.6-2.2,3.5-3.7l0.7-1.3l1.1-0.3c1.5-0.5,2.9-1.3,4.1-2.3l1.9-1.7l0.4-0.3l1.5-1.5
		c2.6-5.3,4-11.2,4.1-17.1c3.3-0.3,6.4-2.1,8.2-4.9l0.7-1c1.3-2,2-4.4,1.8-6.8l0-0.9l2.8-0.2c0.7,0,1.4-0.1,2-0.3c2,1,4.3,1.3,6.5,1
		c3.8-0.6,4.5-0.8,4.9-0.8c1.3-0.3,2.5-0.8,3.8-1.3c3.9-1.5,6.6-5,7.1-9.2l0.2-1.5c0.1-1,0.1-2-0.1-3l0.4-0.4h1.8
		c1,0,1.9-0.1,2.9-0.4l1.8-0.5c3.5-1,6.4-3.6,7.5-7.1l0.7-1.9c0.1-0.2,0.2-0.5,0.2-0.7h0.4c3.6,0,7-1.8,9.1-4.8l1.6-2.3
		c0.3-0.4,0.5-0.8,0.7-1.2l1.2-2.3c1.2-2.3,1.5-4.9,1-7.4l-0.4-2l0.5-0.5l3-2.8c1.3-1.2,2.3-2.7,2.9-4.3l1.2-3.3
		c0.3-0.9,0.6-1.9,0.6-2.9l0.1-1.3l1.1-1.3c1.2-1.4,2-3,2.3-4.8l0.5-2.3c0.2-1.1,0.3-2.1,0.2-3.2l1.1-1.6c2.6-3.9,2.4-9-0.5-12.7
		c0.3-1.3,0.3-2.6,0.1-3.8l-0.4-2.8v-0.3c1.8-1.6,3-3.8,3.5-6.1l0.2-1.3c0.4-1.9,0.2-3.9-0.5-5.7l1.6-3.4c1.7-3.5,1.3-7.7-0.9-10.9
		l-1-1.4c3.1-2.8,4.3-7.1,3.2-11.1l-0.3-1.2l-0.2-1.3v-2.5c0-0.2,0-0.3,0-0.5l-0.1-3l0.3-3.5c0.1-1.3,0-2.6-0.4-3.8l1.2-1.3l0.1-0.2
		l1.8-2.1l1.7-1.7c0.2-0.2,0.3-0.4,0.5-0.5l1.7-2c1-1.2,1.7-2.5,2.1-3.9l1.1-3.8l0.1-0.2l0.5-1.8l1.2-1.3c0.5-0.6,1-1.2,1.4-1.9
		l1.3-2.2c1.8-3,2-6.7,0.7-9.9l-1.1-2.7c-0.3-0.6-0.6-1.2-0.9-1.7l0,0l0.1-1.2l1-7.3l3.1-9.9c0.1-0.3,0.2-0.5,0.2-0.8l0.8-3.5
		l1.2-2.5l1.6-1.7c1.5-1.5,2.4-3.5,2.8-5.6l0.8-4.5c0.1-0.6,0.1-1.1,0.1-1.7l0.1-6c0-0.6,0-1.2-0.1-1.7l-0.5-3.5v-0.5l1.4-1.8
		c0.5-0.6,0.9-1.3,1.2-2.1l1-2.3l1.5-2.9c0.8-1.5,1.2-3.3,1.2-5v-1.7c0-0.8-0.1-1.6-0.3-2.3l-0.7-3c-0.1-0.6-0.3-1.2-0.6-1.8
		l-1.4-3.4c-0.6-1.5-1.5-2.8-2.7-3.9v-1c0-0.5-0.1-1-0.1-1.6l1.2-1.2c2.2-2.1,3.4-4.9,3.4-7.9v-2.2c0-2.1-0.6-4.1-1.7-5.9l-1.6-2.4
		c-0.9-1.4-2.1-2.6-3.6-3.5l-2.3-1.4c-1.7-0.1-3.3-1-4.3-2.4l-0.4-0.9l-0.5-1.1c-1.3-3-3.9-5.3-7-6.2l-0.7-0.2l-2-0.9l-0.7-0.3
		l-1.3-0.5l-2.2-1l-0.5-0.2l-0.6-0.4l-2.2-1.5c-2.1-0.8-4.2-1.6-6.3-2.4c-4.3-3.2-10.3-2.8-14.2,0.9l-1.6,1.5
		c-3.6,0.8-7,1.8-10.4,3.2c-2.1,0.1-4.1,0.9-5.8,2.1l-1.8,1.3c-0.5,0.3-0.9,0.7-1.3,1.1l-1.3,1.3c-1.3,0.1-2.5,0.5-3.6,1l-0.1,0.1
		c-3.3-1.3-7.1-0.9-10.1,1c-0.3,0.1-0.6,0.1-0.9,0.2h-0.7c-0.8,0-1.6,0.1-2.4,0.3l-2.5-1.5c-1.4-0.8-3-1.3-4.7-1.4l-0.4-2l0.1-0.2
		c0.8-2.2,0.9-4.7,0.2-7l-0.3-0.8c-0.8-4.1-2.1-8.1-3.9-11.9l-1-1.7c-0.4-0.7-0.9-1.3-1.4-1.9l-0.8-0.8c-0.1-0.8-0.3-1.7-0.5-2.5
		l-0.5-1.4l-0.2-1.1c-0.1-0.6-0.2-1.2-0.4-1.7l0,0l0.4-1l0.5-0.7c1.4-1.9,2.2-4.2,2.2-6.5v-3.3c0-2.3-0.7-4.5-2-6.3
		c0.3-2.7,0.6-5.4,0.9-8.2v-1.7c-0.8-4.9-3.1-9.3-6.7-12.7l-0.7-0.4v-1.4c0-1.5-0.3-3-0.9-4.4c0.2-2.3-0.4-4.5-1.6-6.5l-0.6-1v-0.1
		l0-1.4c0.1-1.5-0.2-3-0.8-4.5v-0.1l0.1-0.4l1.8-2.6c1.2-1.8,1.9-4,1.9-6.2v-6.4c0-0.6,0-1.1-0.1-1.7l-0.6-3.6
		c-0.2-1.1-0.5-2.2-1-3.2l-1.4-2.8c-1.1-2.3-3-4.1-5.3-5.1l-0.4-0.3l-0.5-0.3c-0.4-0.6-0.9-1.2-1.4-1.7c0-0.2,0-0.3,0.1-0.5l0.4-3.6
		c0.1-1.1,0.1-2.2-0.1-3.3l-0.7-3.5c-0.8-4.4-4.3-7.9-8.7-8.8l-1.3-1.8l-1.8-2.9c-2-3.2-5.5-5.2-9.3-5.2H679l-2.3,0l-0.3-0.1
		c-2.4,0.1-4.8,0-7.2-0.4c-1.1,0-2.1,0.2-3.2,0.5l-1.2-0.3c-2.3,0.1-4.7-0.1-7-0.4c-0.9,0-1.8,0.1-2.6,0.3c-2-2.4-4.8-3.8-7.9-4
		l-0.1-0.1l-1.2-1c-0.1-0.5-0.3-1.1-0.5-1.6l-1.2-3.3c-0.1-0.4-0.3-0.8-0.5-1.1l-1-1.9c-2.2-4.3-7-6.7-11.8-5.9l-2.2,0.4l-0.4-0.1
		c-2.4-0.4-4.9,0.1-7,1.3l-2.8,1.5c-0.3,0.2-0.7,0.4-1,0.6l-1.4,1c-1.9,1.4-3.4,3.3-4.1,5.6l-0.8,2.3l-0.9,1.4l-0.1,0.2
		c-2.8-1-5.9-0.8-8.6,0.5c-0.3,0.2-0.6,0.3-0.9,0.5c-2.1,0.5-4.3,1-6.5,1.5c-2-0.9-4.2-1.1-6.4-0.7c-0.3-0.1-0.5-0.2-0.8-0.3
		l-0.3-0.1l-0.4-0.2c-2.6-1.6-5.7-2-8.6-1.2l-1.7,0.5h-0.9h-0.6l-1.2,0.1l-1.3-0.4c-1.1-0.3-2.1-0.5-3.3-0.5h-0.8l-2.8-0.6
		c-2.1-0.5-4.2-0.3-6.2,0.4c-2.1-0.8-4.3-1-6.5-0.5c-1.1-0.7-2.2-1.1-3.5-1.4l-2.6-0.6h-0.2l-2.4-0.5c-0.7-0.1-1.4-0.2-2.2-0.2h-0.7
		l-0.9-0.5c-1.1-0.6-2.2-1-3.4-1.2c-1.9-5.2-7.4-8.2-12.8-6.9c-4.7-0.8-9.6,0.1-13.7,2.5c-0.6-0.1-1.3-0.2-1.9-0.2
		c0.1-0.2,0.1-0.4,0.2-0.6l2.2-9.5c0.2-0.9,0.3-1.8,0.3-2.7l-0.1-5.1c0-0.5-0.1-1-0.1-1.5l-0.3-2l0.7-0.9c3.1-3.7,3.3-9,0.6-13.1
		l-0.3-0.4c1-3.5,0.2-7.2-2.1-10l3.8-7.5l2.4-4c2.4-4,2-9-0.9-12.6l0.5-0.8c1-1.7,1.6-3.7,1.6-5.6V224c0-0.3,0-0.5,0-0.8l-0.2-3
		l1.7-3.3c2-4,1.4-8.7-1.5-12.1l-0.7-0.8c1.9-3.6,1.7-8-0.6-11.3l0,0c1.1-3.1,0.7-6.6-1-9.4l-5.3-8.5c-1.4-2.3-3.7-4-6.3-4.8
		l-0.1-0.3l-0.6-1.6l0.1-0.1c1.9-2.8,2.4-6.4,1.3-9.7l-2-5.9c-0.8-2.3-2.2-4.2-4.2-5.6l-1.8-1.2l-1-5.1c-0.1-0.3-0.1-0.7-0.2-1
		l-1.7-5.9c-0.3-1.2-0.9-2.3-1.6-3.3c0.1-0.8,0.1-1.6,0.1-2.3l-0.3-4.1c0-0.3,0-0.6-0.1-0.8l-1.1-7.1l-0.9-6.4l-0.9-8.1
		c-0.4-3.4-2.3-6.4-5.1-8.2l-79.4-49.2C401.6,42.8,399.6,42.2,397.6,42.2z"/>
	<polygon class="st5" points="194.3,84.6 209.5,94.5 216.6,99.4 225.6,96.3 237.2,92.7 259.6,98.9 277,113.2 284.2,113.2 
		288.2,98.9 291.8,93.1 296.3,99.4 300.7,103.8 306.5,98.5 317.3,98.5 323.1,98.5 324,88.6 325.8,81 335.2,90 341.4,97.1 
		353.1,98.5 362.5,95.3 372.3,101.2 392,103.4 398.2,107.4 409.9,107.4 415.2,107.4 426.4,104.3 435.8,102.1 439.8,95.3 438,86.8 
		438.1,78.5 397.5,53.7 317.8,55.2 310.6,57.3 282.4,65.8 260.5,72.1 241.2,75.2 	"/>
	<polygon class="st5" points="438,78.8 438,86.8 439.8,95.3 435.8,102.1 426.4,104.3 419.4,106.3 419.4,111 412.3,115 405,118.1 
		399.6,124.4 397.2,133.1 391.2,138.9 380.5,139.2 383.1,142.9 394.9,149.6 393.2,158.6 389.2,160.6 389.2,171.1 384.5,180.4 
		386.2,196.6 382.5,205.3 375.4,202.9 369.7,197.2 365,193.5 349.9,200.9 342.2,206.9 348.9,213.7 360.3,219.7 359.7,222.4 
		348.6,232.4 349.6,238.5 359,237.1 373.8,231.4 390.9,229.8 393.2,233.4 393.5,238.1 371.1,245.2 358.6,249.2 356.3,258.3 
		357.3,261 369.4,269 381.5,279.4 381.8,286.8 377.1,296.9 372.7,311.6 374.4,322 384.1,321 400.9,322.7 411.7,332.1 424.4,334.4 
		430.1,342.8 448.9,344.1 468,358.9 484.1,360.6 496.2,363.9 514.2,363.7 513,358.6 510.1,354.2 509.8,345.3 509.4,339.1 
		504.9,338.5 504.9,333.1 495.9,332.1 495.3,307 498.9,299.5 500.2,292.6 498.5,281.4 503,276.7 499.9,271.9 501.3,267.3 
		495.9,263.3 505.8,243.3 500.4,238.8 506.2,229.6 504.6,217.4 508.4,212.5 498.9,201.6 505.6,198.9 503.4,194 493.2,194.2 
		498.4,189 504.9,189.2 499.8,181.4 495.5,185.8 494.2,178.5 489.9,166.6 493.1,161.6 491.4,156.5 485.7,152 481.8,138.2 
		478.9,134.6 479.4,128 478.1,116 477.9,110.6 475.8,102.1 	"/>
	<polygon class="st6" points="146.5,132 159.9,132.3 178.4,138.1 188.1,147.1 210.6,151.1 203.2,157.2 201.9,170.3 183.8,171.6 
		188.1,180.6 202.9,197.1 203.9,205.5 195.2,217.2 182.1,209.5 170,217.6 157.6,224.3 141.5,218.9 129.4,214.2 118.6,212.2 
		117.3,178 	"/>
	<g class="st7">
		<polygon class="st6" points="490.1,166.3 489.9,166.6 489.9,166.7 		"/>
		<polygon class="st6" points="493.5,176.4 493.5,174.1 490.3,167.8 		"/>
		<polygon class="st6" points="510.2,354.3 510.1,352.3 510.1,354.2 		"/>
		<polygon class="st6" points="485.8,152 484,142.6 482.2,136.7 479,134.7 481.8,138.2 485.7,152 		"/>
		<polygon class="st6" points="480.3,128.8 480,124.7 479.5,116.6 478,111.8 478.1,116 479.4,128 479,133.9 		"/>
		<polygon class="st6" points="492.8,160.9 492.9,160.8 491.3,156 487.1,153.1 491.4,156.5 		"/>
		<polygon class="st6" points="509.7,343.8 509.7,339.1 508.8,339 509.4,339.1 		"/>
		<polygon class="st6" points="513.6,359.5 513.1,358.8 514,362.7 		"/>
		<polygon class="st6" points="504.5,196.5 505.6,198.9 498.9,201.6 508.3,212.4 508.5,212 505.1,206.9 499.9,201.7 506.5,198.9 		
			"/>
		<polygon class="st6" points="504.8,189 505.2,189.1 499.9,180.6 497.9,183.3 499.8,181.4 		"/>
		<polygon class="st6" points="137,387.1 138,387.6 136.6,386.1 		"/>
		<polygon class="st6" points="141.8,391.9 142.2,392.3 141.8,391.8 		"/>
		<polygon class="st6" points="138.5,389.6 139.5,389.3 138.8,388.5 		"/>
		<polygon class="st6" points="397.7,53.3 317.5,55 275.5,67.8 282.4,65.8 310.6,57.3 317.8,55.2 397.5,53.7 438.1,78.5 438.1,78.8 
			475.8,102.1 477.8,109.8 477,102.5 		"/>
		<polygon class="st6" points="150.5,408.3 151.5,408.7 150.2,407.8 		"/>
		<polygon class="st6" points="146.3,398.9 146.4,399 147.6,399.1 147.6,399 		"/>
		<polygon class="st6" points="134.1,383.6 134.4,383.7 134.1,383.4 		"/>
		<polygon class="st6" points="471.3,359.3 468,358.9 457.9,351.1 468,359 		"/>
		<path class="st6" d="M461.3,412.4l-14.4-4.7l-1-19.1l-20.1-0.3l-9.7-5.7l-10.1-4.7l4-19.5l3.7-5l-5-3.7l0.7-7.4l7.7-0.3l7.4-7.4
			l5.3,7.8l0,0l-5.3-7.9l-12.8-2.4l-10.7-9.4l-16.7-1.7l-9.7,1l-1.7-10.4l4.4-14.8l4.7-10.1l-0.3-7.4L369.4,269l-12.1-8l-1-2.7
			l2.4-9.1l12.4-4l22.5-7l-0.3-4.7l-2.4-3.7l-17.1,1.7l-14.8,5.6l-9.4,1.3l-1-6l11.1-10.1l0.7-2.7l-11.4-6l-6.7-6.7l7.7-6l15.1-7.4
			l4.7,3.7l5.7,5.7l7,2.4l3.7-8.7l-1.7-16.1l4.7-9.4v-10.4l4-2l1.7-9.1l-11.7-6.7l-2.7-3.7l10.7-0.3l6-5.7l2.4-8.7l5.4-6.4l7.4-3
			l7-4v-4.7l-4.1,1.2h-17l-6.3-4l-19.7-2.2l-9.8-5.8l-9.4,3.1l-11.6-1.3l-6.1-7.4l-9.4-9l-1.8,7.6l-0.9,9.8h-16.6l-5.8,5.4l-4.5-4.5
			l-4.5-6.3l-3.6,5.8l-4,14.3H277l-17.4-14.3l-22.4-6.3l-11.6,3.6l-8.9,3.1l-7.2-4.9l-15.2-9.8l15.8-3.2L162.6,90l-16.1,42.1V132
			l13.4,0.3l18.5,5.6l9.7,9.1l22.5,4l-7.4,6l-1.3,13.1l-18.1,1.3l4.4,9.1l14.8,16.4l1,8.4l-8.7,11.7l-13.1-7.7l-12.1,8.2l-12.4,6.7
			l-16.1-5.4l-12.1-4.7l-10.6-1.9l0.7,14.9l-29.8,110l-0.9,1.6l2.2,2.4l0.9,1.4l1.3,1.5l1.9,1.5c0,0,1.3-0.2,1.3,0.1
			c0.5,0.7,1.1,1.4,1.7,2l2.5,1.3l3.2,1l1.9,1.2c0,0,1.1,0.9,1.1,1.1s1.1,1.3,1.1,1.3l0.4,0.6l0.7,1.4l2.3,3.7l4.6,0.1h2.1l0.9-0.2
			h4.5l-0.6,2.3l0.9,0.9l1.5-1l0.6,1.5l1.9,1.5l-0.9,3.3l-1,3l2.1,1.9l1-0.8l1.9,1.5l0.1,2.8l-0.2,2.5l0.5,0.4l4.5-5.5l18.1,1.3
			l14.4,7l6,6.7l-5.7,3.4l28.9,21.5l39.9,18.1l37.2,3l12.4-3.4l20.2-1.3l1.3,5.7l-21.1,10.7l3,9.1l17.4,1.7l6.7,9.7l25.8-6.4l8,17.8
			l2,9.7l16.8,13.4l9.4,1.3l20.5,4.7l9.4,12.7l14.4,9.4l9.4-2l-7.4-14.1l-7-10.4l10.4-8l-4.4-7.7l-3.7-9l6-4.4l-1-11.1l5.4-5.7
			l6-11.7l-17.1-6.7l2.7-6.7l9.4-10.1l5,3l14.1,6.4l17.1,1.3l11.1-5.4l-3.6-10.7L461.3,412.4z"/>
		<polygon class="st6" points="120,173.7 117.3,178 117.6,185.4 117.3,178 		"/>
		<polygon class="st6" points="457.9,574.6 458.4,575 458.4,574.8 		"/>
		<polygon class="st6" points="504.9,338.5 505.4,338.5 505.3,332.3 496,331.6 495.8,327.9 495.9,332.1 504.9,333.1 		"/>
		<polygon class="st6" points="539.3,453.8 538.9,450.3 538,450.8 		"/>
		<polygon class="st6" points="560.4,466.9 560.2,466.8 559,481.9 556.8,483.1 559.4,482.5 		"/>
		<polygon class="st6" points="543.2,437.7 543,437.7 543,439.2 		"/>
		<polygon class="st6" points="541,426.5 540.8,426.3 537.6,430.2 537.6,430.6 		"/>
		<polygon class="st6" points="565.3,521.3 565,512.1 564.7,512.1 565,521.3 		"/>
		<polygon class="st6" points="559.4,567.7 569.8,557.4 569.5,522.8 569.3,522.8 569.5,556.3 559.2,567 558.6,574 561.5,575.8 
			558.9,573.7 		"/>
		<polygon class="st6" points="528.2,411.9 529,408.7 528.6,408.7 		"/>
		<polygon class="st6" points="542.4,448.5 541.6,448.9 542.4,448.6 		"/>
		<polygon class="st6" points="558.6,511 558.8,511 559.8,506.6 563.5,506.3 563.4,496.8 559.7,490.1 555.2,484 554.5,484.4 
			562.3,494.9 563.3,505.4 559.7,505.9 		"/>
		<polygon class="st6" points="504.6,217.4 506,227.9 506,224.1 505.5,218.1 508.1,212.8 		"/>
		<polygon class="st6" points="499,281.5 502.9,276.8 502.9,276.7 498.5,281.4 498.9,283.9 		"/>
		<polygon class="st6" points="154.4,411.3 156.1,412.2 156.4,412 153,409.7 		"/>
		<polygon class="st6" points="500.4,293.6 500.1,292.9 498.9,299.5 495.3,306.9 498.2,303.1 		"/>
		<polygon class="st6" points="495.9,263.3 501.2,267.2 497,262.9 499,257.2 		"/>
		<polygon class="st6" points="514.9,370.3 514.3,365.1 514,369.8 505.6,369.5 502.5,374.1 511.5,381.9 511.8,389 511.9,389.1 
			512,382.3 503.6,374.6 506.4,369.8 		"/>
		<polygon class="st6" points="501.6,193.1 496,193.1 498.6,189 498.4,189 493.2,194.2 502.4,194 		"/>
		<polygon class="st6" points="506.4,243.1 500.9,238 500.4,238.8 505.8,243.3 501.8,251.4 503.8,247.4 		"/>
		<polygon class="st6" points="515.3,392.9 516.2,396.7 516.7,398.3 516.5,394.2 		"/>
		<polygon class="st6" points="495.8,185.5 495.2,184.1 495.5,185.8 		"/>
		<polygon class="st6" points="438.8,570.1 439.5,569.9 438.6,569.9 		"/>
		<polygon class="st6" points="412.7,554.6 409.9,554.7 411.2,554.9 413.1,555 416,557.2 416.7,557.7 416.6,557.5 		"/>
		<polygon class="st6" points="399.6,551.1 400.8,551.2 402.8,551.2 401.9,550.6 		"/>
		<polygon class="st6" points="420.8,561.2 420.9,561.2 420.8,561.2 		"/>
		<polygon class="st6" points="429,565.3 432.6,565.3 432.8,565.3 428.1,564.9 		"/>
		<polygon class="st6" points="442.2,569.7 443.6,569.9 444.4,569.7 444.2,569.6 		"/>
		<polygon class="st6" points="374.4,532.2 375.5,532.2 374.2,531.8 		"/>
		<polygon class="st6" points="158.4,412.9 158.9,413.4 161.4,413.6 161.3,413.3 		"/>
		<polygon class="st6" points="388.8,543.1 389.6,544.6 392.4,545.2 392.3,545.1 		"/>
		<polygon class="st6" points="384.3,540.5 385.8,541.5 386.3,541.5 385.1,540.8 		"/>
		<polygon class="st6" points="496.1,592.2 498,592.9 500.8,592.4 506.1,592.6 506,592.5 		"/>
		<polygon class="st6" points="531.5,610.8 532.4,609.9 529.5,611.1 		"/>
		<polygon class="st6" points="535.8,596.5 536.9,604.2 536.2,605.8 537,604.9 536.1,597.4 545.5,596.9 555.2,589.5 545.1,595.9 		
			"/>
		<polygon class="st6" points="563.7,581.2 565,578.6 564.5,578.2 		"/>
		<polygon class="st6" points="521.5,612.9 521.4,615.3 523.4,613.5 522.2,613.9 		"/>
		<polygon class="st6" points="517.1,605.8 519.4,609.2 517,604.1 		"/>
		<polygon class="st6" points="468.9,583.3 466.6,584.5 466.6,584.5 467.1,585.4 468.8,584.4 472.1,580.9 475.3,579.1 474.3,578.2 
					"/>
		<polygon class="st6" points="483.7,584.9 485.6,586.9 486.8,587 483.2,584 		"/>
		<polygon class="st6" points="489.5,589.1 491.2,589.3 493.2,589.3 489.3,588.6 		"/>
		<polygon class="st6" points="371,528.4 371.1,528.8 371.9,530.2 372.8,530.2 372.5,529.6 		"/>
		<polygon class="st6" points="380.9,539.3 381.2,539.3 380.9,539.2 		"/>
		<polygon class="st6" points="203.4,447.3 205.2,448 206.3,447.7 205.7,447.5 		"/>
		<polygon class="st6" points="187.7,436.7 190.2,437 187.6,436.4 		"/>
		<polygon class="st6" points="213.6,452.5 215.8,454.4 216.4,454.8 215.1,453.6 		"/>
		<polygon class="st6" points="207.4,448.1 207.4,448.7 209.2,448.8 209,448.7 		"/>
		<polygon class="st6" points="200.6,446.1 202.1,446.7 200.4,445.9 		"/>
		<polygon class="st6" points="177.3,431.3 179.7,431.5 183.5,431.5 183.9,431.9 182.9,430.5 		"/>
		<polygon class="st6" points="166.3,420.9 166.4,421 169.7,421.6 170.8,421.8 170.8,421.1 		"/>
		<polygon class="st6" points="163.8,417.7 164.1,418.7 164.7,419.3 163.4,416.9 		"/>
		<polygon class="st6" points="172.4,427.5 172.6,427.5 172.4,427.4 		"/>
		<polygon class="st6" points="274.9,492.2 275.3,492.3 276.4,492.5 279.4,492.9 280.5,492.3 282.7,492.4 284.4,493.3 282.8,492.2 
					"/>
		<polygon class="st6" points="297.8,499.6 297.9,499.6 300.6,499.9 303.3,499.4 306.8,499.2 312.1,498.6 314.4,497.7 314.8,497.6 
			311.5,498.6 		"/>
		<polygon class="st6" points="273.5,492 273.6,492.1 273.4,491.6 		"/>
		<polygon class="st6" points="292.5,498.5 292.6,498.7 293.6,498.5 294.3,498.5 294,498.3 		"/>
		<polygon class="st6" points="266.9,487.2 267.1,487.3 271.4,487.2 271.4,487.2 271.4,487.2 		"/>
		<polygon class="st6" points="238.9,480.1 239.6,479.5 238.6,479.8 		"/>
		<polygon class="st6" points="222.6,456.6 224.4,458.1 224.8,458.2 222.4,456.3 		"/>
		<polygon class="st6" points="251.1,484 251.4,484.2 253.4,484.1 256.4,484.5 259.4,484.6 261.8,485.3 260,484.5 		"/>
		<polygon class="st6" points="216.9,455 217.8,455.4 221,455.2 220.8,455 		"/>
		<polygon class="st6" points="240.1,479.4 242.1,479.8 242.9,479.3 242.3,478.9 		"/>
		<polygon class="st6" points="146.5,132.1 120,173.7 145.8,134 		"/>
		<polygon class="st6" points="118.6,212.2 118.8,212.3 117.6,185.4 		"/>
	</g>
	<polygon class="st6" points="424.4,334.5 417,341.9 409.3,342.3 408.6,349.6 413.6,353.3 410,358.4 405.9,377.8 416,382.5 
		425.7,388.2 445.9,388.5 446.9,407.7 461.3,412.4 473,416.4 476.7,427.1 465.6,432.5 448.5,431.1 434.4,424.8 429.4,421.8 
		420,431.8 417.3,438.5 434.4,445.2 428.4,457 423,462.7 424,473.8 418,478.1 421.7,487.2 426.1,494.9 415.6,502.9 422.7,513.3 
		430.1,527.4 420.7,529.4 406.3,520 396.9,507.3 376.4,502.6 367,501.3 350.2,487.8 348.2,478.1 340.2,460.3 314.4,466.7 307.6,457 
		290.2,455.3 287.2,446.3 308.3,435.5 307,429.8 286.8,431.1 274.4,434.5 237.2,431.5 197.3,413.4 168.4,391.9 174.1,388.5 
		168.1,381.8 153.7,374.8 135.6,373.5 130.5,379.5 143,393.1 145.5,398.8 147.6,399 147.8,406.1 157.4,412.7 161.3,413.3 
		165.6,420.9 170.8,421.1 171.1,426.8 174.9,428.7 177,431.4 182.9,430.5 187,436.3 190.8,437.1 192,440.6 194.7,444.6 199.4,445.4 
		203.2,447.3 205.7,447.5 209,448.7 215.1,453.6 216.7,455 220.8,455 227.8,460.7 227.5,464.6 231.1,470.1 238,479.9 242.3,478.9 
		250.8,484 260,484.5 266.2,487.2 271.4,487.2 273.7,492.3 282.8,492.2 292.2,498.6 294,498.3 297.1,499.7 311.5,498.6 319.9,496 
		336.9,506.1 367.8,524.7 369.5,527.1 372.5,529.6 373.6,531.6 376.7,532.5 380,538.9 382.3,539.7 385.1,540.8 388.8,543 
		392.3,545.1 395.5,547.5 398.7,551.3 401.9,550.6 407.9,554.8 412.7,554.6 416.6,557.5 419.4,561 422.4,561.5 426.3,564.8 
		434.2,565.5 436.1,570.1 444.2,569.6 452.9,572.2 458.4,574.8 458.9,577.6 462.3,581.4 466.6,584.5 468.9,583.3 474.3,578.2 
		479.3,582.7 482.3,583.2 488.5,588.5 495,589.6 495.4,592.2 506,592.5 510.2,598.7 515.3,600.6 520.8,612 522.2,613.9 526.1,612.5 
		534.8,608.9 536.9,604.2 535.8,596.5 545.1,595.9 556,589.1 556.2,583.3 563.2,583.3 564.6,577.8 558.6,574 559.2,567 569.5,556.3 
		569.3,522 565,521.3 564.7,511.6 558.6,511 559.7,505.9 563.3,505.4 562.3,494.9 554.5,484.4 559,481.9 560.3,466.4 539.5,454.1 
		538,450.8 543.3,448 543,437.4 537.9,436.9 537.6,430.2 541,426 527.8,415 528.7,407.7 519.6,407.5 516.2,396.7 515.3,392.9 
		511.8,389 511.5,381.9 502.5,374.1 505.6,369.5 514,369.8 514.4,363.7 495.5,363.7 484,360.5 475.8,359.6 468,359 449,344.1 
		429.7,342.3 	"/>
	<path class="st8" d="M89.3,338.3l30-111.2l-2.2-49.2l28.5-44l16.8-44L260,72.4L317.3,55l80.2-1.7l79.4,49.2l0.9,8.2l0.9,6.7
		l1.1,7.3l0.3,4.1l-1.5,5.8l3.5,2l1.7,5.9l1.8,9.6l5.5,3.8l2,5.9l-3.3,4.8l2.5,6.8l1.7,4.8l-0.4,9.1l6.1-6.8l5.3,8.5l-6.1-0.8
		l-4.2,5.8l8.3-0.1l3.3,4.9l-6.6,2.8l4.9,5.9l3.8,4.4l-3,6l0.4,6v5.6l-5.5,9.3l6,4.1l-2.6,4.3l-4.8,9.5l-2.5,6.6l4.7,3.8l-1.7,4.3
		l3.5,5.2l-3.9,4.8l1.2,7l0.1,5.1l-2.2,9.5l-3.5,3.9l1.3,7.8l1.8-1.6l1.5,0.5l1,2.5l1.9,1l1.9,0.3l1.6,0.6l2.7-0.9l2.7,2.4l2.1-2.1
		l1.6,0.9l1.9-1.2l0.5-2l2.4,0.2l0.8-1.2l1.8,0.8l2.5,0.2l2-0.6l0.7,2.4l1.3,1.2l0.5,2.5l1.1,1.5h1.7l1,0.5l2.1-1l3.4,1.9h3.6
		l2.4,0.5l2.6,0.6l0.6,1.3l1.2,0.9l2.1,0.6l2.6-0.5l1.9-0.9l1.9,1.6l1.7,0.7l1.9,0.2l2.3-1.7v-0.8l4.9,1.1l1-0.2l3.4,1l3.4-0.3
		l2.2-0.1l2.9-0.8l1.6,1l1.7,0.5l4.3,1.6l1.5-1.1l1.1,1.7l1.1,2.3l2.3-0.1l2.7-1.2l0.8-2.4h1.5l1.9-0.9l3,0.6l2.2-0.7v-1.5l2.8,2.1
		l2,0.5l3.1-1.5l1.5-1.7l2.8-1.9l1-2.1l1.7-2.6l1.2-3.7l1.4-1l2.8-1.5l2.2,0.3l4-0.7l1,1.9l1.2,3.3l0.6,3.5l1.5,1.5l3.6,2.9l2,1.2
		l2.3,1l1.5-0.2l0.9,2.4l2.5,1.5l3.3,0.5h3.3l1.1-0.6l2.3,0.6l2.2-0.5l1.8,0.4l2.4,0.5l2.6-0.8l0.9,1l1.9,0.1l1.9-1l1.7,0.4l3.7-0.1
		l2,3.2l3.6,5l0.7,1.5h4l0.7,3.5l-0.4,3.6l-0.7,1.5l0.3,3.5l1.7,3.3l1.9,1.3l0.9,1.5l2.3,1.6l0.9,1.4h1.4l1.4,2.8l0.6,3.6v6.4
		l-2.8,4l-0.7,2.4l-0.8,3.6l0.1,2.3l1.1,1l-0.1,2.2l0.2,2.3l0.7,1.9l1.4,2.3l-1,2.4l-0.2,1.3l2.1,1.5v4.4l1,1.9v3.7h3l1.8,1.1v1.8
		l1.6,1.6v1.6l-1.9,0.6l0.7,1.5l1.2,1.7l-0.9,1.4l-1.2,1.8l-0.1,1.7l-0.4,1.5l1.3,1.1l1.3,2.5l1.1,0.6v3.3l-1.4,1.9l-1,2.7l-0.9,2.7
		v2.4l0.8,2.3l0.3,1.9l0.7,2.2l-0.8,2.3l0.1,2l2.7,1.1l1.6,1.9l1,1.7l0.7,2.9l0.4,1.3h1.5l-0.5,2.1l0.5,2.5l0.5,1.6l-1.4,3.7
		l0.7,2.1l0.7,2.9l-0.7,3.1l0.7,1.9l0.9,2.6l1.6,1.1l2.1,0.5l3,2.4l2.3-3.4l2.7,1.5l2.8,1.9l1.1,1.2l2-0.5l1.8-1.5l2.2,0.1l1.2-0.4
		l1.2,0.4l3.1-2.1l2.9,2.4l2.1-0.7l1.7-1l1.9-0.9l2.8,0.1l2.2,0.3l1.2-0.4l0.6-3.1l1.4-1.4l1.8-1.3l1.2,0.6l1.7,0.2l2-2.4l1.5,0.8
		l2.1-2.1l1.7,0.2l0.9-0.6l2,0.7l1.8-0.4l1.6-1v-1.5l2.4-2.4l1.6,1.3l1.8,0.4l0.8,1.3l0.8,0.6l1.8-0.9l2.2,1.5v1.6l2.3-0.2l2.7,1.3
		l1.8,0.6l2.6,1.1l1.4,0.4l0.5,1.1l1.1,2.6l0.7,1.9h1l0.7,1.5l1.5,1.2l2.6,1.7l1.5-0.4l2.3,1.4l1.5,2.4v2.2l-4.3,4.1l-1.4,2.1
		l-0.1,2.1l1.3,2.5l0.1,4.8l1.5,2.7l1.9,1.4l1.4,3.4l0.7,3v1.7l-1.6,3.2l-1.1,2.6l-2.7,3.6l-1,3.5l0.2,3.1l0.6,3.9l-0.1,6l-0.8,4.5
		l-2.8,3l-2.4,5.2l-1,4.6l-3.3,10.8l-1.2,8.4l-0.3,3.4l0.2,2.6l1.7,2.6l1.1,2.7l-1.3,2.2l-3,3.2l-1.2,4.4l-1.1,3.8l-1.7,2l-1.9,1.9
		l-2,2.3l-2.1,2.3l-2.2,4l-1.4,1.2l-0.1,1.6l2.1,2.3l-0.3,4.1l0.2,3.7v3.1l0.3,2.8l0.6,2l-1,0.5l-2.1-0.7H780l-1.4,0.7l0.3,3
		l1.8,3.5l0.2,3.6l3.6,5.2l-1.9,4.1l-0.7,1.9l-0.2,1.7l0.1,3.1l0.7,1l-0.2,1.3l-0.8,0.7h-3.2l-1.5,1.1l-0.3,1.9l1.7,2.8l0.7,3.5
		l0.4,2.8l-1.5,1.8l-1.2,2l1.1,2.6l3.6,2.5l-1.5,2.3l-2,1.3l-1.6,1.5l0.6,1.7l1.8,1.7l-0.5,2.3l-2.6,3.1l-0.9,2.7l-0.2,3l-1.2,3.3
		l-3,2.8l-2.8,2.1l-2.1,2.3l-0.5,3.4l1.2,1.7l0.7,3.3l-1.2,2.3l-1.6,2.3h-1.4l-2.5-1.6l-3.2,0.7l-3.6,2.3l-0.2,1.9l-0.1,2.8
		l-0.1,2.3l-0.7,1.9l-1.8,0.5h-3l-3.2,0.5l-2.1,1.5l-3.5,3.2l-2.2,1.8l-0.3,3.8l1.2,2.4l-0.2,1.5c0,0-1.9,0.7-2.6,0.9
		s-3.9,0.7-3.9,0.7l-3.4-2.6l-2.9,0.8l-1.3,1l-5.4,0.3l-4,2l-2.8,2.9l-1.1,4.8l0.2,2.6l-0.7,1h-3l-2.9-0.7l-1.9,0.7l-1,2.3l0.3,1.4
		l-0.2,1.4h-1.5l-1.4-0.4l-1.5,0.9l-0.2,2.3l2.9,3.9l0.7,2l-1.5,1.6l-1,0.7l1.3,4.2l-1.5,1.5l-1.9,1.7l-2,0.7l-2.4,0.9l-2.2,2.8
		l-1.3,2.3l-1.2,0.8H682l-3.6-0.9l-1.5-2.3l-1.9-1.9l-1.8-4.2l-6.7,0.4l-3.2-1.4l-3.3-2.2l-5.5-0.4l-3.5,1.2l-6.4,4.6l-4,2.8
		l-2.7,2.9l-1.5,4.8l-3.5,4l-2.9,3.6h-2.8l-4-3.6l-1.9-5.2l-5.7-4l-8.7,1.9l-3,1.5l-1,1.2l-0.2,1.5l-1.8,0.5l-4.3-2.9l-3.2-3.2
		l-3.6-1.9h-2.8l-9.4,6.1l-8.6,0.3l-5.2-1.1l-5.4-2.6l-3.2-2.4l-3.2-0.2l-3.2-0.1l-3.1,1l-1.9,1.1l-3.1,0.6l-4.4-1.3l-2.1-1.5
		l-3-1.9l-2.6-1.5l-3.3-1.5l-0.9-1.5l-1.9-1.5l-2.9-0.2l-3.6,0.4l-3.4,0.2l-2.7-3l-3.1-2.7l-2.8-0.5l-4,0.3l-3.1-0.4l-2.6-0.3
		l-5.6,0.9l-4.6,0.8l-3.1-0.2l-3.3-1l-1.9-1l-2.4,1.2l-4.7,1l-3.6,0.5l-2.8,0.3l-3.6-1l-2.3-0.2l-2.6,1.1l-1.5,1l-2.6,0.2h-2.7
		l-0.2-1.2l1.2-1.7V795l-0.6-2.5l-2.7-1l-1.8-1.5l-0.9-2.2l1.4-4l2.2-0.8l3.1-0.2l2.2-0.2v-6.9l1.5-0.1l1,0.2l1,2l1-1.2
		c0,0,0.2-1.6,0-1.7c-0.6-0.6-1.1-1.1-1.6-1.8l0.6-1.5l3.1,0.7l0.6-1.5l-2.5-4.3v-1.7l1.5,0.5l4.1-1l4.1-2.4l0.7-2.8l2.9,1l1-0.6
		c0-0.7,0-1.3-0.2-2c-0.2-0.2-0.7-2.9-0.7-2.9l0.9-0.8l2.9-0.6l0.2-1.5l-0.7-1.7l0.9-0.7l1.6,0.7l1.7-1.1l-0.6-1.7l-0.2-4.9
		l-0.4-1.9l-0.2-1.6l0.9-0.1l1,0.9l1.6,0.6l1.4-0.3l0.7-1.2l-1-1.7l0.3-1.1l0.3-2l-0.3-2.2l-0.6-1.1l-1.3-1l0.3-2.2l1-2.3l-1.8-1.1
		l-0.3-1.5l1.1-0.7l2.1,0.2l1-0.6l-1.9-1.9l-1.6-2.4l0.4-2.6c0,0,1.2-1.2,1.5-1.2c0.7-0.3,1.5-0.6,2.2-1l1.5-2.8l0.1-1.9l-1.1-1.7
		l0.2-2.7l2.7-0.8l2.4-1.9l-0.2-1.5l-1.6-0.7c0,0-1.5-1-1.5-1.2c-0.3-0.6-0.7-1.1-1.1-1.5l1.1-0.3l1.9,0.7l0.4-3.6l1.2-1.5l1.9-1.7
		l1.8-0.7l2.3,0.5l4.3-2.4l2.8-2l2.1-2.8l2.8-1.7l2-0.1l1-1.5l-0.3-1.4l-2.2-1.3l-1-1.3l1.3-2.5l1.7-0.4l1.8-1.1l-0.5-1.4l-1.6-1.2
		l-0.1-2.5l1.7-1l2.1,0.1l1.5-1.6l0.5-2.5l-2.2-2.3l-0.9-2l0.9-0.5l2.1,0.7l2.3-0.9l3.5-3.4l-0.4-0.7l-2.6,0.1l-0.3-1.4l1.2-2.1
		l0.7-1.7l1.9-1.1l1.9,1.4l1.1,0.8l0.8-0.4l0.1-4.1V641l1.2-0.3l1.8,1.3l0.6,0.9l1.5-0.2l0.6-1.7l0.1-1.9l0.7-1l1.8,0.2l0.2-1.6
		l0.7-2.3l-0.9-1.5l1.9-5.7l-3.3-4l-2.6-1.9l-3.8-3.3l-2.8-2.8l0.1-3.1l-4.4-6.5l-0.2-1.9l-1.9-3.8l-4-1.8l-2.2-3.3l-2.5-2.4
		l-5.6-0.2l-2.8,0.5l-1.9-0.7l-0.6-2.9h-4.3l-1.8-0.2l-0.7-1.9l-3.1-0.3l-1.9-2l-1-1.6l-2.7-0.5l-1.3-1.3l-1.3-1.9l-1.7-0.8
		l-3.7,2.1l-3.2,3.5l-1.7,1l-1.6-1.3l-2.8-2.9l-1.2-1.6l-1.9-1.5l-0.3-2.5l-4-2.8l-4.1-1.4l-1.6-0.5l-0.9-0.3l-2-0.3l-1.9-0.8
		l-1.2,0.4l-2.8-0.4l-1.9,0.6l-1.1,0.1l-0.9-0.3l-1-1.5l-1.4-3.1h-1.8l-3.6-0.1l-2.6-1l-3.8-3.2l-1.9,0.1l-2.6-2.6l-2.2-1.4
		l-2.9-2.3l-1.9-0.1l-3-0.4l-1.4-1.5l-1.7-0.8l-2.3-1h-2l-1.5-0.1l-1.3-1.5c-0.5-0.4-0.9-0.8-1.3-1.2c-0.4-0.4-0.8-0.8-1.2-1.1
		l-2.8-2l-3.1-0.7l-1-2l-0.6-1h-2.2l-1.9-1.3l-1.7-0.7l-1.3-0.2l-2-3.6l-1-2.1l-1-1.3l-1.3-0.2h-1.3l-1-1.9l-1.4-0.1l-0.8-1.4
		l-0.3-1.4l-1.8-1l0.2-1.3l-48.6-29.2c-0.5-0.1-1.1-0.2-1.6-0.1c-0.7,0.3-1.3,0.6-1.9,1l-2.7,0.9l-2.3,0.9l-5.3,0.6l-3.5,0.2
		l-2.7,0.5l-2.8-0.2l-2.3-1.3l-1.9,0.2l-1,0.2l-1.5-1.9l-1.5-1.3l-2.9-1.1l-2.1-1l-1.9-1l-2.2-0.1l-1.1,0.6l-3-0.5l-1.1-0.2
		l-1.8-0.2l-0.5-1.8l-0.1-2.6l-1.5-0.5l-4.3,0.1l-3.1-1.4l-4.6-1.3l-3-0.1l-3-0.4l-2,0.1l-4.2-2.7l-3.1-2.1l-0.8-0.5l-1.1,0.9
		l-2.4-0.5l-0.9,0.7l-3.3-4.1l-0.4-2.6l-2.6-3.1l-2.5-2.4l-1.9-2.9l0.4-4l-1.5-1.8l-2.6-1.1l-1.9-1.5l-0.7-1.5l-4,0.3l-2-1l-2.3-2.1
		l-0.7-2l-1.3-1.2l-1.9-0.2l-2.3-0.2v-1.5l-2.2,0.8l-4.6-1.9l-1.7-1.7l-3.5,0.1l-3.4-4.5l-0.2-2.9l-4.1-0.4l-0.9-2.5l-1.4-0.9
		l-1.9-1.8l-3.8-0.1l-2.5-0.2l-2.8-3.6l-2-0.2l-0.9-5.6l-1.8-0.3l-3.3-0.6l-2.3-2.4l-0.4-1l-1.9-4.1l-2.9-0.2l-1.6-1.9l-1.2,0.6
		l-1.7-0.9l-1.9-2.3l-1.9-0.8l-0.8-1.4l-1.4-1.5l-0.2-6.3l-1.7-0.2l-1.2-4.3l-3.3-2.8l-0.5-2.2l-0.9-0.8l-1.9,0.6l0.3-1.5l-1.9-0.9
		l-1.1-2.8l-1.9-0.7l0.2-1.4l-1.6-2l-2.1-1.7l0.2-2.5l-0.1-2.8l-1.9-1.5l-1,0.8l-2.1-1.9l1-3l0.9-3.3l-1.9-1.5l-0.6-1.5l-1.5,1
		l-0.9-0.9l0.6-2.3h-5.8l-1.6-0.1l-4.4,0.1l-1.8-2.5l-1.3-2.1l-0.9-1.2c-0.3-0.5-0.6-1-0.8-1.5c0-0.2-1.4-1-1.4-1l-1.6-0.9l-3.2-1
		l-2.4-1.1c0,0-1.8-1.5-1.8-1.7s-1.8-0.8-1.8-0.8l-1.1-1.3l-1-1l-1.3-1.8l-1.1-0.8L89.3,338.3z"/>
	<path class="st9" d="M85.2,35.8c1.4-0.3,2.9-0.4,4.3-0.4c2.3,0,3.9,0.4,5,1.3c1,0.8,1.6,2,1.5,3.2c-0.1,1.9-1.3,3.5-3.1,4V44
		c2.2,0.4,3.7,2.3,3.8,4.6c0,1.4-0.5,2.7-1.5,3.6c-1.3,1.2-3.3,1.7-6.3,1.7c-1.2,0-2.4-0.1-3.6-0.2L85.2,35.8z M87.6,43.2h2.1
		c2.5,0,3.9-1.3,3.9-3c0-2.1-1.6-3-4-3c-0.7,0-1.4,0-2.1,0.2L87.6,43.2z M87.6,52c0.7,0.1,1.3,0.1,2,0.1c2.4,0,4.7-0.9,4.7-3.5
		c0-2.5-2.1-3.5-4.7-3.5h-2V52z"/>
	<path class="st9" d="M116.8,44.5c0,6.3-3.8,9.6-8.4,9.6c-4.8,0-8.2-3.7-8.2-9.2c0-5.8,3.6-9.6,8.4-9.6S116.8,39,116.8,44.5z
		 M102.6,44.8c0,3.9,2.1,7.4,5.8,7.4s5.8-3.4,5.8-7.6c0-3.6-1.9-7.4-5.8-7.4S102.6,40.8,102.6,44.8L102.6,44.8z"/>
	<path class="st9" d="M121.2,35.5h2.3v16.2h7.8v2h-10.1V35.5z"/>
	<path class="st9" d="M137.6,35.5v18.2h-2.4V35.5H137.6z"/>
	<path class="st9" d="M147.1,53.7l-5.9-18.2h2.5l2.8,9c0.8,2.5,1.5,4.7,1.9,6.8h0.1c0.5-2.1,1.3-4.4,2.1-6.8l3.1-9h2.5l-6.5,18.2
		L147.1,53.7z"/>
	<path class="st9" d="M161.8,35.5v18.2h-2.4V35.5H161.8z"/>
	<path class="st9" d="M170.2,48l-1.9,5.7h-2.4l6.2-18.2h2.8l6.2,18.2h-2.5l-1.9-5.7H170.2z M176.2,46.2l-1.8-5.2
		c-0.4-1.2-0.7-2.3-0.9-3.3h-0.1c-0.3,1.1-0.6,2.2-0.9,3.3l-1.8,5.3L176.2,46.2z"/>
	<path class="st9" d="M306.2,609.6l-1.9,5.7h-2.4l6.2-18.2h2.8l6.2,18.2h-2.5l-1.9-5.7H306.2z M312.2,607.8l-1.8-5.2
		c-0.4-1.2-0.7-2.3-0.9-3.3h0c-0.3,1.1-0.6,2.2-0.9,3.3l-1.8,5.3L312.2,607.8z"/>
	<path class="st9" d="M321.2,597.4c1.5-0.3,3-0.4,4.5-0.4c2.5,0,4.1,0.5,5.3,1.5c1,0.9,1.5,2.2,1.4,3.5c0,2.1-1.4,4-3.4,4.6v0.1
		c1.4,0.5,2.2,1.8,2.7,3.7c0.3,1.7,0.8,3.4,1.4,5h-2.4c-0.5-1.4-0.9-2.9-1.2-4.3c-0.5-2.5-1.5-3.5-3.6-3.5h-2.2v7.9h-2.4
		L321.2,597.4z M323.5,605.6h2.4c2.5,0,4.1-1.4,4.1-3.5c0-2.3-1.7-3.4-4.2-3.4c-0.8,0-1.6,0.1-2.3,0.2V605.6z"/>
	<path class="st9" d="M350.9,614.5c-1.8,0.6-3.7,1-5.6,1c-4.7,0.5-8.9-3-9.3-7.7c0-0.5-0.1-1,0-1.5c0-5.4,3.8-9.4,9.9-9.4
		c1.6,0,3.1,0.3,4.5,0.8l-0.6,1.9c-1.3-0.5-2.6-0.8-4-0.8c-4.4,0-7.3,2.8-7.3,7.3s2.8,7.3,7,7.3c1.1,0.1,2.1-0.1,3.1-0.5v-5.4h-3.7
		v-1.9h6V614.5z"/>
	<path class="st9" d="M365.3,606.8h-7.1v6.6h7.9v2h-10.2v-18.2h9.8v2h-7.5v5.8h7.1L365.3,606.8z"/>
	<path class="st9" d="M370.5,615.3v-18.2h2.5l5.8,9.2c1.2,1.9,2.3,3.9,3.3,5.9h0c-0.2-2.4-0.3-4.6-0.3-7.5v-7.6h2.2v18.2h-2.4
		l-5.7-9.3c-1.3-2-2.4-4-3.4-6.1h-0.1c0.1,2.3,0.2,4.5,0.2,7.5v7.8L370.5,615.3z"/>
	<path class="st9" d="M393,599.1h-5.5v-2H401v2h-5.6v16.2H393V599.1z"/>
	<path class="st9" d="M406.7,597.1v18.2h-2.4v-18.2H406.7z"/>
	<path class="st9" d="M412.1,615.3v-18.2h2.6l5.8,9.2c1.2,1.9,2.3,3.9,3.3,5.9h0c-0.2-2.4-0.3-4.6-0.3-7.5v-7.6h2.2v18.2h-2.4
		l-5.8-9.2c-1.3-2-2.4-4-3.4-6.1h-0.1c0.1,2.3,0.2,4.5,0.2,7.5v7.8L412.1,615.3z"/>
	<path class="st9" d="M434.2,609.6l-1.9,5.7h-2.4l6.2-18.2h2.8l6.2,18.2h-2.5l-1.9-5.7H434.2z M440.2,607.8l-1.8-5.2
		c-0.4-1.2-0.7-2.3-1-3.3h0c-0.3,1.1-0.6,2.2-0.9,3.3l-1.8,5.3L440.2,607.8z"/>
</g>
</svg>
